<?xml version="1.0" encoding="utf-8"?>
<!-- Generator: Adobe Illustrator 24.1.1, SVG Export Plug-In . SVG Version: 6.00 Build 0)  -->
<!DOCTYPE svg PUBLIC "-//W3C//DTD SVG 1.1//EN" "http://www.w3.org/Graphics/SVG/1.1/DTD/svg11.dtd" [
	<!ENTITY ns_extend "http://ns.adobe.com/Extensibility/1.0/">
	<!ENTITY ns_ai "http://ns.adobe.com/AdobeIllustrator/10.0/">
	<!ENTITY ns_graphs "http://ns.adobe.com/Graphs/1.0/">
	<!ENTITY ns_vars "http://ns.adobe.com/Variables/1.0/">
	<!ENTITY ns_imrep "http://ns.adobe.com/ImageReplacement/1.0/">
	<!ENTITY ns_sfw "http://ns.adobe.com/SaveForWeb/1.0/">
	<!ENTITY ns_custom "http://ns.adobe.com/GenericCustomNamespace/1.0/">
	<!ENTITY ns_adobe_xpath "http://ns.adobe.com/XPath/1.0/">
]>
<svg version="1.1" id="레이어_1" xmlns:x="&ns_extend;" xmlns:i="&ns_ai;" xmlns:graph="&ns_graphs;"
	 xmlns="http://www.w3.org/2000/svg" xmlns:xlink="http://www.w3.org/1999/xlink" x="0px" y="0px" viewBox="0 0 270.45 129.16"
	 style="enable-background:new 0 0 270.45 129.16;" xml:space="preserve">
<style type="text/css">
	.st0{fill:#202020;}
	.st1{fill:#FF7A00;}
	.st2{fill:#FFFFFF;}
</style>
<metadata>
	<sfw  xmlns="&ns_sfw;">
		<slices></slices>
		<sliceSourceBounds  bottomLeftOrigin="true" height="129.16" width="270.45" x="547.8" y="-448.89"></sliceSourceBounds>
	</sfw>
</metadata>
<g id="그룹_20691" transform="translate(2695.588 -458.428)">
	<g id="그룹_20681">
		<path id="패스_16817" d="M-2528.65,489.45c-4.64,12.41-18.66,17.91-39.6,14.58c-18.3-2.91-31.17-10.74-28.13-23.43
			s20.6-23.95,38.61-19.64S-2521.93,471.47-2528.65,489.45z"/>
		<path id="패스_16818" class="st0" d="M-2525.68,480.82c0-0.12,0-0.24,0-0.36c-0.21-2.1-0.95-4.11-2.15-5.84
			c-0.66-1.14-1.4-2.22-2.22-3.24c-0.38-0.45-0.79-0.87-1.24-1.24c-1.3-1.01-2.67-1.92-4.11-2.73c-0.71-0.44-1.37-0.97-2.1-1.36
			l-0.29-0.17c-1.73-0.87-3.54-1.58-5.4-2.12c-1.46-0.52-2.29-0.95-3.4-1.38c-0.51-0.2-1.03-0.38-1.56-0.53
			c-1.12-0.34-3.48-0.76-4.59-1.08c-0.77-0.23-1.52-0.55-2.3-0.77l-0.31-0.1c-1.88-0.48-3.79-0.8-5.72-0.96
			c-1.57-0.1-2.51-0.37-3.72-0.47c-0.5-0.02-1.04-0.04-1.7-0.02c-1.22-0.05-3.63,0.52-4.82,0.61c-0.82,0.14-1.66,0.18-2.48,0.32
			l-0.33,0.05c-1.91,0.46-3.76,1.13-5.52,2.01c-0.74,0.28-1.31,0.53-1.85,0.76l-1.61,0.66c-0.52,0.23-1.01,0.5-1.49,0.82
			c-0.69,0.43-1.35,0.9-1.98,1.42c-0.71,0.59-1.41,1.17-1.9,1.51c-0.64,0.54-1.35,1-2,1.53l-0.27,0.21c-0.72,0.68-1.39,1.42-2,2.19
			c-0.57,0.83-1.11,1.66-1.68,2.46c-0.8,1.39-1.49,2.1-2.04,3.24c-0.28,0.51-0.53,1.04-0.74,1.58c-0.18,0.6-0.41,1.53-0.63,2.45
			c-0.11,0.96-0.21,1.9-0.32,2.52c-0.03,0.87-0.2,1.76-0.18,2.65l0.03,0.36c0.05,0.52,0.12,1.05,0.22,1.57
			c0.13,0.51,0.3,1.01,0.51,1.5c0.4,0.97,0.87,1.9,1.42,2.78c0.68,1.12,1.42,2.19,2.24,3.21c0.36,0.46,0.77,0.88,1.23,1.25
			c1.3,1.01,2.67,1.93,4.11,2.74c0.72,0.42,1.38,0.97,2.11,1.37l0.29,0.16c1.75,0.86,3.57,1.55,5.45,2.05
			c1.48,0.45,2.32,0.91,3.46,1.27c0.47,0.16,0.97,0.32,1.59,0.48c1.15,0.27,3.54,0.59,4.68,0.81c0.8,0.16,1.58,0.43,2.37,0.6
			c0.11,0.03,0.22,0.05,0.32,0.07c1.9,0.29,3.81,0.45,5.73,0.47c1.54,0.13,2.46,0.3,3.65,0.4c0.49,0.05,1.02,0.08,1.66,0.1
			c1.19-0.05,3.6-0.28,4.77-0.41c0.82-0.07,1.66,0.04,2.48-0.08l0.33-0.03c1.94-0.26,3.85-0.74,5.68-1.43
			c0.75-0.26,1.36-0.42,1.93-0.57s1.08-0.35,1.67-0.54c0.54-0.18,1.07-0.4,1.58-0.67c0.53-0.31,1.33-0.78,2.1-1.31
			c0.74-0.58,1.48-1.14,1.98-1.48c0.66-0.54,1.39-1,2.05-1.55l0.25-0.24c0.75-0.68,1.4-1.46,1.95-2.32l0.82-1.27
			c0.26-0.43,0.47-0.89,0.71-1.33c0.2-0.35,0.38-0.67,0.56-0.95s0.29-0.58,0.43-0.84l0.83-1.58c0.19-0.47,0.39-0.98,0.59-1.61
			c0.22-0.8,0.38-1.62,0.48-2.45c0.15-0.93,0.18-1.88,0.26-2.5C-2525.71,482.58-2525.67,481.7-2525.68,480.82z M-2531.12,491.32
			l-0.78,1.41c-0.28,0.45-0.6,0.89-0.94,1.3c-0.58,0.65-1.19,1.27-1.83,1.85c-0.28,0.34-0.58,0.65-0.91,0.95
			c-0.9,0.92-1.91,1.72-3.01,2.38c-1.11,0.51-2.04,1.07-3.05,1.46l-1.21,0.54l-1.28,0.44c-1.04,0.38-2.1,0.67-3.19,0.88
			c-0.88,0.22-1.82,0.11-2.69,0.3c-0.37,0.06-0.88,0.21-1.35,0.26c-1.31,0.24-2.64,0.37-3.98,0.38c-0.63-0.02-1.22-0.03-1.8-0.02
			l-1.7-0.06c-0.91-0.02-1.81-0.01-2.75-0.1c-1.12-0.1-2.26-0.11-3.37-0.31c-0.91-0.15-1.8-0.45-2.71-0.55
			c-0.39-0.03-0.92-0.11-1.39-0.16c-1.34-0.12-2.68-0.35-3.99-0.67l-3.39-0.92c-0.89-0.21-1.75-0.48-2.64-0.76
			c-1.07-0.32-2.12-0.7-3.15-1.14c-0.85-0.33-1.56-0.93-2.39-1.28c-0.35-0.14-0.83-0.34-1.24-0.56c-0.57-0.32-1.16-0.57-1.73-0.88
			c-0.57-0.34-1.11-0.7-1.64-1.1c-0.47-0.38-0.87-0.79-1.29-1.15c-0.2-0.19-0.42-0.35-0.61-0.54l-0.54-0.58
			c-0.29-0.31-0.61-0.61-0.88-0.93l-0.76-1.03c-0.31-0.41-0.58-0.86-0.79-1.33l-0.36-0.68c-0.09-0.24-0.17-0.48-0.23-0.73
			c-0.11-0.4-0.2-0.8-0.27-1.21c0-0.41-0.04-0.82-0.1-1.23c-0.03-0.17-0.08-0.37-0.11-0.58l-0.03-0.66
			c-0.1-1.24,0.01-2.49,0.34-3.69c0.22-0.56,0.4-1.09,0.57-1.61s0.45-0.98,0.65-1.47c0.34-0.81,0.75-1.58,1.23-2.32l0.41-0.7
			l0.49-0.65c0.33-0.43,0.66-0.87,1-1.29c0.62-0.64,1.36-1.16,1.95-1.82l0.96-0.95c0.91-0.94,1.92-1.79,3.01-2.52l2.98-1.71
			c0.8-0.4,1.57-0.83,2.41-1.23c1.01-0.45,2.04-0.84,3.09-1.18c0.88-0.22,1.78-0.33,2.63-0.57c0.37-0.08,0.87-0.22,1.31-0.34
			c1.27-0.36,2.57-0.59,3.88-0.67c0.61-0.05,1.2-0.01,1.77-0.01l1.66-0.02c0.89,0,1.77,0.1,2.69,0.15l0.82,0.06l0.81,0.14
			c0.54,0.1,1.08,0.2,1.62,0.31c0.87,0.16,1.75,0.59,2.65,0.79c0.38,0.09,0.92,0.18,1.39,0.27c1.34,0.24,2.66,0.56,3.97,0.95
			c1.2,0.42,2.3,0.76,3.36,1.1c0.88,0.27,1.74,0.55,2.63,0.85c1.06,0.37,2.13,0.75,3.14,1.22c0.83,0.38,1.58,0.92,2.39,1.3
			l1.24,0.57c1.19,0.54,2.32,1.21,3.37,1.99c0.91,0.8,1.73,1.49,2.45,2.25c0.6,0.61,1.14,1.26,1.64,1.96
			c0.58,0.85,1.04,1.77,1.36,2.75c0.11,0.4,0.19,0.81,0.24,1.23c0.04,0.41,0.05,0.83,0.14,1.23c0.04,0.35,0.1,0.83,0.16,1.26
			c0.1,1.26,0.01,2.52-0.27,3.75c-0.17,0.58-0.33,1.13-0.49,1.66c-0.19,0.53-0.36,1.04-0.53,1.55
			C-2530.44,489.7-2530.71,490.53-2531.12,491.32L-2531.12,491.32z"/>
	</g>
	<g id="그룹_20682">
		<path id="패스_16819" class="st1" d="M-2522.02,568.57c0,0-3.86-16.51-14.82-27.8c-5.6-5.77-25.53-6.59-34.96-1.84
			c-3.15,1.65-5.71,4.23-7.34,7.39c-7.58,16.41-6.34,22.25-6.34,22.25"/>
		<path id="패스_16820" class="st0" d="M-2521.09,565.88c-0.15-0.31-0.28-0.63-0.39-0.96c-0.09-0.28-0.18-0.55-0.27-0.83
			c-0.32-0.93-0.66-1.84-1.03-2.78c-0.43-1.13-0.92-2.24-1.36-3.36c-0.38-0.91-0.6-1.9-1.05-2.77c-0.19-0.37-0.47-0.87-0.72-1.32
			c-0.7-1.28-1.47-2.4-2.18-3.76c-0.58-1.12-1.23-2.21-1.94-3.26c-0.56-0.81-1.16-1.59-1.76-2.41c-0.77-0.95-1.53-1.9-2.32-2.84
			c-0.33-0.38-0.62-0.78-0.93-1.18c-0.29-0.44-0.65-0.83-1.05-1.17c-0.43-0.38-0.9-0.71-1.4-1c-0.66-0.41-1.36-0.75-2.08-1.03
			c-0.7-0.28-1.41-0.57-2.15-0.84c-1.21-0.48-2.45-0.85-3.72-1.1c-0.99-0.15-1.96-0.37-2.98-0.46l-1.83-0.2
			c-0.61-0.04-1.22-0.08-1.82-0.14c-0.99-0.15-1.98-0.24-2.97-0.29c-0.42-0.01-1,0.05-1.51,0.09c-1.46,0.04-2.81,0.32-4.35,0.36
			c-1.27,0.07-2.54,0.23-3.79,0.48c-0.98,0.16-1.94,0.43-2.94,0.7c-0.6,0.14-1.19,0.37-1.78,0.57c-0.6,0.19-1.19,0.41-1.77,0.66
			c-0.48,0.2-0.98,0.35-1.47,0.54c-0.5,0.2-0.97,0.45-1.43,0.74c-0.44,0.31-0.86,0.64-1.27,0.99c-1.14,1.02-2.21,2.13-3.18,3.31
			c-0.91,1.01-1.65,2.16-2.19,3.41l-1.16,2.7l-1.35,3.34c-0.37,0.91-0.91,1.76-1.2,2.7c-0.13,0.4-0.28,0.95-0.42,1.43
			c-0.42,1.39-0.66,2.74-1.12,4.21c-0.38,1.22-0.67,2.48-0.85,3.75c-0.05,0.28-0.08,0.55-0.11,0.84c-0.04,0.36-0.17,0.8-0.18,1.17
			c-0.1,0.55-0.01,1.12,0.27,1.6c0.19,0.32,0.49,0.56,0.85,0.69c0.33,0.1,0.68,0.06,0.98-0.1c0.28-0.15,0.52-0.36,0.7-0.62
			c0.06-0.09,0.12-0.19,0.18-0.29c0.13-0.35,0.16-0.73,0.11-1.09c-0.01-0.15,0-0.3,0.02-0.44c0.09-0.43,0.16-0.83,0.27-1.28
			s0.2-0.96,0.32-1.55c0.22-1.54,0.55-3.05,0.97-4.55c0.26-0.76,0.62-1.49,0.92-2.24l0.13-0.3c0.73-1.75,1.16-3.62,1.88-5.4
			c0.48-1.12,1.03-2.21,1.64-3.27c0.24-0.47,0.42-0.78,0.71-1.29c0.7-1.28,1.58-2.46,2.62-3.49c0.59-0.47,1.21-0.9,1.86-1.28
			l0.26-0.15c0.75-0.44,1.49-0.85,2.3-1.25c0.8-0.43,1.64-0.79,2.5-1.08c1.14-0.32,2.31-0.53,3.49-0.62
			c0.47-0.05,0.97-0.15,1.59-0.23c0.57-0.07,1.42-0.26,2.29-0.4c0.87-0.12,1.74-0.24,2.32-0.26c0.8,0,1.61,0.11,2.41,0.12l0.32,0.03
			c1.87,0.15,3.76-0.06,5.63,0.15c1.18,0.14,2.35,0.39,3.49,0.74c0.46,0.12,0.94,0.28,1.53,0.41c1.47,0.28,2.9,0.72,4.27,1.31
			c0.32,0.19,0.6,0.42,0.9,0.63l0.44,0.32c0.12,0.12,0.24,0.24,0.36,0.36l0.19,0.19c0.14,0.15,0.28,0.24,0.44,0.41l0.47,0.52
			c0.32,0.34,0.66,0.66,0.99,0.99c0.68,0.65,1.31,1.35,1.91,2.07c0.73,0.96,1.38,1.97,1.95,3.02c0.23,0.42,0.5,0.87,0.84,1.39
			c0.33,0.47,0.83,1.2,1.31,1.94c0.45,0.64,0.86,1.31,1.21,2.01c0.36,0.72,0.62,1.49,0.94,2.23l0.12,0.3
			c0.72,1.75,1.72,3.38,2.45,5.14c0.43,1.13,0.78,2.29,1.04,3.47c0.06,0.23,0.13,0.48,0.2,0.73s0.14,0.65,0.23,0.94
			c0.16,0.49,0.67,1.47,1.22,1.63c0.48,0.23,1.04,0.23,1.52,0.02c0.31-0.33,0.56-0.72,0.71-1.16
			C-2520.75,566.75-2520.85,566.28-2521.09,565.88z"/>
	</g>
	<path id="패스_16821" class="st0" d="M-2425.17,568.54c-0.22-0.38-0.51-0.71-0.85-0.98c-0.38-0.2-0.83-0.24-1.24-0.12
		c-0.31,0.06-0.63,0.09-0.94,0.09c-0.27,0-0.53,0-0.79,0c-0.9,0.01-1.79,0.03-2.71,0.04c-1.11,0.02-2.22,0.04-3.32,0.01
		c-0.9-0.03-1.8-0.2-2.7-0.18c-0.38,0.01-0.9,0.05-1.37,0.08c-1.33,0.03-2.56,0.2-3.96,0.12c-1.24-0.07-2.35-0.08-3.45-0.07
		c-0.9,0.01-1.79,0.03-2.71,0.04c-1.11,0.02-2.22,0.04-3.32,0.01c-0.9-0.03-1.81-0.2-2.7-0.18c-0.38,0.01-0.9,0.05-1.37,0.08
		c-1.33,0.03-2.56,0.2-3.96,0.12c-1.24-0.07-2.35-0.08-3.45-0.07c-0.9,0.01-1.79,0.03-2.71,0.04c-1.11,0.02-2.22,0.04-3.32,0.01
		c-0.9-0.03-1.81-0.2-2.71-0.18c-0.38,0.01-0.9,0.05-1.37,0.08c-1.33,0.03-2.56,0.2-3.96,0.12c-1.24-0.07-2.35-0.08-3.45-0.07
		c-0.9,0.01-1.79,0.03-2.71,0.04c-1.11,0.02-2.22,0.04-3.32,0.01c-0.9-0.03-1.81-0.2-2.7-0.18c-0.38,0.01-0.9,0.05-1.37,0.08
		c-1.33,0.03-2.56,0.2-3.96,0.12c-1.24-0.07-2.35-0.08-3.45-0.07c-0.9,0.01-1.79,0.03-2.71,0.04c-1.11,0.02-2.22,0.04-3.32,0.01
		c-0.9-0.03-1.8-0.2-2.7-0.18c-0.38,0.01-0.9,0.05-1.37,0.08c-1.33,0.03-2.56,0.2-3.96,0.12c-1.24-0.07-2.35-0.08-3.45-0.07
		c-0.9,0.01-1.78,0.03-2.71,0.04c-1.11,0.02-2.22,0.04-3.32,0.01c-0.9-0.03-1.81-0.2-2.7-0.18c-0.38,0.01-0.9,0.05-1.37,0.08
		c-1.33,0.03-2.56,0.2-3.96,0.12c-1.24-0.07-2.35-0.08-3.45-0.07c-0.9,0.01-1.79,0.03-2.71,0.04c-1.11,0.02-2.22,0.04-3.32,0.01
		c-0.9-0.03-1.8-0.2-2.7-0.18c-0.38,0.01-0.9,0.05-1.37,0.08c-1.33,0.03-2.56,0.2-3.96,0.12c-1.24-0.07-2.35-0.08-3.45-0.07
		c-0.9,0.01-1.79,0.03-2.71,0.04c-1.11,0.02-2.22,0.04-3.32,0.01c-0.9-0.03-1.81-0.2-2.7-0.18c-0.38,0.01-0.9,0.05-1.37,0.08
		c-1.33,0.03-2.56,0.2-3.96,0.12c-1.24-0.07-2.35-0.08-3.45-0.07c-0.9,0.01-1.79,0.03-2.71,0.04c-1.11,0.02-2.22,0.04-3.32,0.01
		c-0.9-0.03-1.81-0.2-2.71-0.18c-0.38,0.01-0.9,0.05-1.37,0.08c-1.33,0.03-2.56,0.2-3.96,0.12c-1.24-0.07-2.35-0.08-3.45-0.07
		c-0.9,0.01-1.79,0.03-2.71,0.04c-1.11,0.02-2.22,0.04-3.32,0.01c-0.9-0.03-1.81-0.2-2.7-0.18c-0.38,0.01-0.9,0.05-1.37,0.08
		c-1.33,0.03-2.56,0.2-3.96,0.12c-1.24-0.07-2.35-0.08-3.45-0.07c-0.9,0.01-1.79,0.03-2.71,0.04c-1.11,0.02-2.22,0.04-3.32,0.01
		c-0.9-0.03-1.81-0.2-2.71-0.18c-0.38,0.01-0.9,0.05-1.37,0.08c-1.33,0.03-2.56,0.2-3.96,0.12c-1.24-0.07-2.35-0.08-3.45-0.07
		c-0.9,0.01-1.78,0.03-2.71,0.04c-1.11,0.02-2.22,0.04-3.32,0.01c-0.9-0.03-1.81-0.2-2.7-0.18c-0.38,0.01-0.9,0.05-1.37,0.08
		c-1.33,0.03-2.56,0.2-3.96,0.12c-1.24-0.07-2.35-0.08-3.45-0.07c-0.9,0.01-1.79,0.03-2.71,0.04c-1.11,0.02-2.22,0.04-3.32,0.01
		c-0.9-0.03-1.8-0.2-2.7-0.18c-0.38,0.01-0.9,0.05-1.37,0.08c-1.33,0.03-2.56,0.2-3.96,0.12c-1.24-0.07-2.35-0.08-3.45-0.07
		c-0.9,0.01-1.78,0.03-2.71,0.04c-1.11,0.02-2.22,0.04-3.32,0.01c-0.9-0.03-1.81-0.2-2.7-0.18c-0.38,0.01-0.9,0.05-1.37,0.08
		c-1.33,0.03-2.56,0.2-3.96,0.12c-1.24-0.07-2.35-0.08-3.45-0.07c-0.9,0.01-1.79,0.03-2.71,0.04c-1.11,0.02-2.22,0.04-3.32,0.01
		c-0.9-0.03-1.81-0.2-2.7-0.18c-0.38,0.01-0.9,0.05-1.37,0.08c-1.33,0.03-2.56,0.2-3.96,0.12c-1.24-0.07-2.35-0.08-3.45-0.07
		c-0.25,0-0.5,0.01-0.75,0.01c-0.32,0.01-0.71-0.07-1.03-0.06c-0.47-0.06-0.96,0.05-1.36,0.31c-0.58,0.39-0.85,1.11-0.66,1.78
		c0.12,0.3,0.33,0.56,0.61,0.74c0.1,0.07,0.2,0.13,0.3,0.18c0.36,0.12,0.76,0.14,1.13,0.06c0.15-0.02,0.3-0.02,0.45-0.01
		c0.43,0.04,0.84,0.08,1.3,0.1s0.96,0.05,1.56,0.04c1.11-0.02,3.37-0.25,4.48-0.22c0.77,0.02,1.54,0.15,2.3,0.17l0.31,0.02
		c1.8,0.12,3.61-0.18,5.42-0.21c1.46-0.02,2.33,0.11,3.45,0.19c0.46,0.03,0.96,0.05,1.56,0.04c1.11-0.02,3.37-0.25,4.48-0.22
		c0.77,0.02,1.54,0.15,2.31,0.17l0.31,0.02c1.8,0.12,3.61-0.18,5.42-0.21c1.46-0.02,2.33,0.11,3.45,0.19
		c0.46,0.03,0.96,0.05,1.56,0.04c1.11-0.02,3.37-0.25,4.48-0.22c0.77,0.02,1.54,0.15,2.3,0.17l0.31,0.02
		c1.8,0.12,3.61-0.18,5.42-0.21c1.46-0.02,2.33,0.11,3.45,0.19c0.46,0.03,0.96,0.05,1.56,0.04c1.11-0.02,3.37-0.25,4.48-0.22
		c0.77,0.02,1.54,0.15,2.31,0.17l0.31,0.02c1.8,0.12,3.61-0.18,5.42-0.21c1.46-0.02,2.33,0.11,3.45,0.19
		c0.46,0.03,0.96,0.05,1.56,0.04c1.11-0.02,3.37-0.25,4.48-0.22c0.77,0.02,1.54,0.15,2.3,0.17l0.31,0.02
		c1.8,0.12,3.61-0.18,5.42-0.21c1.46-0.02,2.33,0.11,3.45,0.19c0.46,0.03,0.96,0.05,1.56,0.04c1.11-0.02,3.37-0.25,4.48-0.22
		c0.77,0.02,1.54,0.15,2.31,0.17l0.31,0.02c1.8,0.12,3.61-0.18,5.42-0.21c1.46-0.02,2.33,0.11,3.45,0.19
		c0.46,0.03,0.96,0.05,1.56,0.04c1.11-0.02,3.37-0.25,4.48-0.22c0.77,0.02,1.54,0.15,2.3,0.17l0.31,0.02
		c1.8,0.12,3.61-0.18,5.42-0.21c1.46-0.02,2.33,0.11,3.45,0.19c0.46,0.03,0.96,0.05,1.56,0.04c1.11-0.02,3.37-0.25,4.48-0.22
		c0.77,0.02,1.54,0.15,2.31,0.17l0.31,0.02c1.8,0.12,3.61-0.18,5.42-0.21c1.46-0.02,2.33,0.11,3.45,0.19
		c0.46,0.03,0.96,0.05,1.56,0.04c1.11-0.02,3.37-0.25,4.48-0.22c0.77,0.02,1.54,0.15,2.3,0.17l0.31,0.02
		c1.8,0.12,3.61-0.18,5.42-0.21c1.46-0.02,2.33,0.11,3.45,0.19c0.46,0.03,0.96,0.05,1.56,0.04c1.11-0.02,3.37-0.25,4.48-0.22
		c0.77,0.02,1.54,0.15,2.31,0.17l0.31,0.02c1.8,0.12,3.61-0.18,5.42-0.21c1.46-0.02,2.33,0.11,3.45,0.19
		c0.46,0.03,0.96,0.05,1.56,0.04c1.11-0.02,3.37-0.25,4.48-0.22c0.77,0.02,1.54,0.15,2.3,0.17l0.31,0.02
		c1.8,0.12,3.61-0.18,5.42-0.21c1.46-0.02,2.33,0.11,3.45,0.19c0.46,0.03,0.96,0.05,1.56,0.04c1.11-0.02,3.37-0.25,4.48-0.22
		c0.77,0.02,1.54,0.15,2.31,0.17l0.31,0.02c1.8,0.12,3.61-0.18,5.42-0.21c1.46-0.02,2.33,0.11,3.45,0.19
		c0.46,0.03,0.96,0.05,1.56,0.04c1.11-0.02,3.37-0.25,4.48-0.22c0.77,0.02,1.54,0.15,2.3,0.17l0.31,0.02
		c1.8,0.12,3.61-0.18,5.42-0.21c1.46-0.02,2.33,0.11,3.45,0.19c0.46,0.03,0.96,0.05,1.56,0.04c1.11-0.02,3.37-0.25,4.48-0.22
		c0.77,0.02,1.54,0.15,2.31,0.17l0.31,0.02c1.8,0.12,3.61-0.18,5.42-0.21c1.46-0.02,2.33,0.11,3.45,0.19
		c0.46,0.03,0.96,0.05,1.56,0.04c1.11-0.02,3.37-0.25,4.48-0.22c0.77,0.02,1.54,0.15,2.3,0.17l0.31,0.02
		c1.8,0.12,3.61-0.18,5.42-0.21c1.46-0.02,2.33,0.11,3.45,0.19c0.23,0.02,0.47,0.03,0.73,0.03s0.63,0.06,0.93,0.06
		c0.5-0.01,1.54-0.23,1.82-0.73C-2425.19,569.59-2425.07,569.06-2425.17,568.54z"/>
	<g id="그룹_20688">
		<g id="그룹_20683">
			<path id="패스_16822" class="st2" d="M-2528.92,565.75c0,0-1.06-7.41-9.92-6.26c-9.38,1.22-17.06,11.99-13.84,16.54
				s16.44-9.1,16.44-9.1L-2528.92,565.75z"/>
			<path id="패스_16823" class="st0" d="M-2527.48,565.55l-0.01-0.1l-0.05-0.31l-0.06-0.27l-0.06-0.27l-0.07-0.26l-0.07-0.25
				l-0.09-0.24l-0.09-0.24l-0.04-0.12l-0.05-0.12l-0.21-0.46l-0.05-0.11l-0.03-0.06l-0.03-0.05l-0.13-0.22l-0.25-0.43l-0.03-0.05
				l-0.03-0.05l-0.07-0.1l-0.15-0.2l-2.54,1.81l0.15,0.24c0.04,0.09,0.09,0.18,0.14,0.27l0.16,0.28c0.05,0.1,0.1,0.2,0.15,0.31l0,0
				v0.01v0.01l-0.02,0.01l-0.05,0.02l-0.05,0.01l-0.1,0.01l-1.43,0.11c-0.5,0.05-1.05,0.12-1.7,0.23l-2.63,0.54l-1.32,1.45
				c-0.32,0.34-0.63,0.65-0.87,0.87c-0.62,0.56-1.32,1.02-1.96,1.55l-0.26,0.2c-1.54,1.19-2.86,2.64-4.42,3.74
				c-0.96,0.68-2.02,1.21-3.14,1.57c-0.33,0.11-0.57,0.17-0.93,0.26c-0.29,0.07-0.59,0.09-0.89,0.06c-0.35-0.06-0.65-0.26-0.84-0.56
				c-0.18-0.26-0.29-0.55-0.33-0.86c0-0.57,0.1-1.14,0.3-1.68l0.1-0.27c0.54-1.7,1.35-3.3,2.41-4.73c0.75-0.91,1.63-1.71,2.61-2.37
				c0.38-0.28,0.79-0.57,1.28-0.93c1.18-0.94,2.5-1.7,3.9-2.26c0.74-0.21,1.49-0.34,2.25-0.41l0.3-0.03
				c1.75-0.11,3.54-0.38,5.04,0.31c0.93,0.42,1.7,1.14,2.19,2.04l2.54-1.81c-0.71-0.98-1.61-1.79-2.65-2.4
				c-1.26-0.69-2.65-1.13-4.08-1.29c-0.56-0.03-1.13-0.13-1.68-0.16c-0.55-0.02-1.11,0-1.66,0.06c-0.55,0.1-1.1,0.23-1.63,0.39
				c-1.52,0.47-2.98,1.09-4.38,1.85c-1.23,0.6-2.38,1.36-3.41,2.25c-0.81,0.7-1.57,1.45-2.27,2.26c-0.86,1-1.64,2.07-2.32,3.2
				c-0.64,0.92-1.15,1.92-1.51,2.98c-0.16,0.59-0.26,1.19-0.3,1.79c-0.15,1.44,0.2,2.88,0.98,4.09c0.32,0.47,0.73,0.88,1.2,1.21
				c1.6,1,3.53,0.5,5.02-0.13c0.98-0.45,1.93-0.98,2.82-1.58c1.07-0.71,2.07-1.48,3.08-2.23c0.82-0.61,1.72-1.13,2.47-1.81
				c0.32-0.29,0.73-0.71,1.1-1.08c0.53-0.5,1.01-1.02,1.5-1.53l0.74-0.77c0.15-0.16,0.31-0.31,0.47-0.45
				c0.01-0.01,0.04-0.01,0.06-0.01l0.59-0.05l0.92-0.13l1.82-0.29l2.69-0.48l0.27-0.05l0.28-0.07l0.27-0.08l0.26-0.09l0.12-0.05
				l0.11-0.05l0.11-0.05l0.1-0.06l0.09-0.06l0.07-0.06l0.03-0.03l0.03-0.03l0.02-0.03l0.02-0.03l0.04-0.07l0.03-0.07l0.03-0.07
				l0.02-0.07l0.02-0.07l0.01-0.07v-0.01v-0.02l0.02-0.12l0.01-0.11l0.01-0.1c0-0.07,0-0.13,0-0.18L-2527.48,565.55z
				 M-2530.78,564.51l0.03-0.1l0,0l0,0v0.01l0.01,0.03l0.01,0.06h-0.03L-2530.78,564.51z"/>
		</g>
		<g id="그룹_20684">
			<path id="패스_16824" class="st2" d="M-2513.51,568.53c0,0-1.77-12.59-13.36-11.09c-12.27,1.59-21.95,18.59-17.74,24.54
				s21.52-11.91,21.52-11.91L-2513.51,568.53z"/>
			<path id="패스_16825" class="st0" d="M-2512.07,568.34l-0.01-0.08c-0.02-0.18-0.05-0.36-0.07-0.53l-0.09-0.49l-0.05-0.24
				l-0.06-0.23l-0.11-0.46l-0.06-0.22l-0.07-0.22l-0.14-0.43l-0.07-0.22l-0.04-0.11l-0.04-0.1l-0.17-0.42
				c-0.17-0.43-0.36-0.85-0.57-1.25c-0.21-0.42-0.43-0.83-0.69-1.23c-0.61-0.99-1.32-1.91-2.11-2.76c-0.63-0.75-1.36-1.4-2.18-1.94
				c-0.2-0.13-0.41-0.24-0.63-0.34c-0.24-0.09-0.5-0.19-0.73-0.28c-0.33-0.14-0.66-0.27-1-0.37l-1.03-0.21
				c-0.7-0.14-1.4-0.23-2.11-0.29c-0.61-0.09-1.24-0.12-1.85-0.06c-0.58,0.01-1.16,0.06-1.73,0.17c-0.46,0.07-0.91,0.18-1.35,0.31
				c-0.45,0.11-0.89,0.26-1.34,0.42c-1.06,0.38-2.08,0.84-3.08,1.36c-0.84,0.36-1.65,0.78-2.41,1.28c-0.37,0.27-0.72,0.57-1.06,0.88
				c-1.03,0.84-1.82,1.79-2.83,2.74c-0.84,0.78-1.59,1.63-2.27,2.55c-0.53,0.71-1.02,1.44-1.49,2.23c-0.58,0.93-1.08,1.91-1.58,2.89
				c-0.47,0.78-0.87,1.6-1.2,2.44c-0.13,0.36-0.23,0.9-0.34,1.35c-0.29,1.36-0.43,2.74-0.44,4.13c-0.02,0.67,0.05,1.34,0.19,1.99
				c0.07,0.33,0.17,0.65,0.3,0.96c0.13,0.35,0.31,0.69,0.51,1.01l0.14,0.23c0.17,0.22,0.35,0.42,0.54,0.61
				c0.18,0.21,0.39,0.39,0.63,0.53c0.22,0.17,0.47,0.3,0.73,0.39c0.25,0.12,0.52,0.2,0.8,0.24c0.36,0.08,0.72,0.12,1.09,0.11
				c0.36,0.01,0.72-0.02,1.08-0.09c0.6-0.1,1.19-0.25,1.77-0.45c0.9-0.23,1.78-0.56,2.61-0.97c0.33-0.19,0.77-0.48,1.15-0.74
				c1.11-0.7,2.01-1.52,3.14-2.25c0.93-0.61,1.82-1.27,2.67-1.98c0.66-0.55,1.3-1.12,1.96-1.7l2.35-2.13c0.65-0.57,1.4-1.03,2-1.64
				l0.43-0.46l0.22-0.25l0.12-0.15c0.1-0.11,0.19-0.22,0.29-0.34l0.39-0.11c0.13-0.04,0.25-0.07,0.53-0.13
				c0.49-0.11,0.99-0.18,1.49-0.24c1.16-0.11,2.2-0.27,3.22-0.45l2.68-0.48l0.27-0.05l0.28-0.06l0.27-0.08l0.26-0.09l0.12-0.05
				l0.11-0.05l0.11-0.05l0.1-0.06l0.08-0.06l0.07-0.06l0.03-0.03l0.03-0.03l0.05-0.07l0.04-0.07l0.03-0.07l0.03-0.07l0.02-0.07
				l0.02-0.07l0.01-0.07v-0.01l0.01-0.02l0.02-0.12l0.01-0.11l0.01-0.1v-0.18L-2512.07,568.34z M-2515.53,567.33l-0.04,0.02
				l-0.04,0.02l-0.05,0.02l-0.05,0.01l-0.1,0.01l-1.43,0.11c-0.43,0.04-0.9,0.1-1.45,0.19c-0.51,0.09-1.28,0.28-2.06,0.46
				l-1.13,0.25c-0.29,0.07-0.86,0.16-1.19,0.21l-0.75,0.09l-1.57,1.37l-0.22,0.18c-1.28,1.08-2.3,2.43-3.54,3.56
				c-0.8,0.7-1.66,1.34-2.55,1.92c-0.35,0.24-0.71,0.52-1.14,0.86c-1.01,0.91-2.07,1.77-3.18,2.56c-0.59,0.36-1.25,0.62-1.85,0.92
				l-0.25,0.11l-2.07,1.01c-0.57,0.3-1.2,0.49-1.84,0.55c-0.63,0.04-1.21-0.34-1.43-0.93l-0.04-0.1c-0.05-0.11-0.1-0.22-0.13-0.33
				c-0.07-0.17-0.12-0.34-0.17-0.51c-0.17-0.53-0.27-1.09-0.31-1.65c-0.05-0.62-0.02-1.24,0.1-1.84c0.18-0.64,0.4-1.26,0.65-1.87
				c0.03-0.08,0.07-0.17,0.11-0.25c0.53-1.5,1.14-2.97,1.84-4.4c0.53-0.88,1.16-1.7,1.88-2.44c0.26-0.31,0.57-0.64,0.89-1.05
				c0.79-1.07,1.67-2.07,2.63-2.98c0.53-0.44,1.14-0.76,1.7-1.14l0.23-0.14c1.28-0.91,2.63-1.73,4.03-2.43
				c0.92-0.36,1.9-0.56,2.88-0.6c0.38-0.05,0.8-0.06,1.3-0.09c0.23-0.02,0.52-0.05,0.84-0.1c0.34-0.03,0.67-0.03,1.01-0.01
				c0.61-0.02,1.22,0.06,1.8,0.24c0.15,0.04,0.3,0.09,0.44,0.15l0.4,0.24l0.79,0.45l0.19,0.15c1.26,0.75,2.37,1.74,3.26,2.91
				c0.53,0.83,0.93,1.74,1.17,2.69l0.43,1.36l0.05,0.16v0.02l0,0l-0.02,0.02L-2515.53,567.33z"/>
		</g>
		<g id="그룹_20686">
			<path id="패스_16826" class="st2" d="M-2502.77,570.25c0,0-1.49-14.46-14.67-12.64c-13.95,1.92-25.06,23.55-17.06,27.81
				c8.15,4.33,20.83-13.31,20.83-13.31L-2502.77,570.25z"/>
			<g id="그룹_20685">
				<path id="패스_16827" class="st0" d="M-2506.9,569.29c-0.39,0.08-1.14,0.45-1.53,0.48c-0.27,0.03-0.56-0.05-0.84-0.03h-0.11
					c-0.64,0.11-1.26,0.28-1.86,0.53c-0.41,0.06-0.83,0.07-1.24,0.02l-0.15,0.01l-0.16,0.01l-0.17,0.02l-0.18,0.03l-0.19,0.05
					l-0.22,0.07l-0.47,0.16l0,0l0,0l-0.02,0.01l0,0l-0.01,0.01l-0.04,0.02l-0.03,0.03l-0.03,0.03l-0.03,0.04l-0.02,0.04l-0.02,0.04
					l-0.02,0.05l-0.01,0.05l-0.02,0.11v0.03l0,0h-0.02h-0.05h-0.09l-0.08,0.01l-0.07,0.02l-0.06,0.02l-0.05,0.03l-0.04,0.03
					l-0.03,0.03l-0.03,0.03l-0.02,0.03c-0.04,0.06-0.08,0.11-0.12,0.16l-0.12,0.15l-0.12,0.13l-0.13,0.12l-0.5,0.44l2.46,1.92
					l0.39-0.55l0.01-0.01l0.01-0.01l0.01-0.01l0.01-0.01l0.01-0.01h0.01h0.03h0.04l0.04,0.01l0.02,0.01l0,0l0.03-0.03l0,0l0,0v-0.01
					l0.01-0.03l0.02-0.03l0.02-0.02l0.02-0.02l0.03-0.02l0.02-0.01l0.29-0.04l0.34-0.06c0.31-0.06,0.62-0.14,0.94-0.2
					c0.38-0.09,0.77-0.17,1.16-0.21c0.32,0.03,0.65,0.03,0.98,0.02c0.13-0.03,0.31-0.1,0.47-0.16c0.44-0.17,0.9-0.29,1.37-0.35
					c0.41,0,0.82-0.05,1.22-0.14l-0.52-3.08C-2506.53,569.25-2506.71,569.26-2506.9,569.29z"/>
				<path id="패스_16828" class="st0" d="M-2501.32,570.03c-0.02-0.17-0.03-0.34-0.05-0.51l-0.03-0.24l-0.03-0.23l-0.07-0.45
					l-0.09-0.43l-0.09-0.43l-0.02-0.11l-0.03-0.1l-0.06-0.21l-0.24-0.82l-0.47-1.27c-0.19-0.41-0.38-0.83-0.57-1.26
					c-0.25-0.5-0.54-0.99-0.81-1.48l-0.94-1.42c-0.29-0.37-0.56-0.76-0.83-1.15c-0.28-0.39-0.61-0.74-0.98-1.04l-0.54-0.44
					l-0.66-0.39c-0.3-0.19-0.6-0.37-0.9-0.54c-0.31-0.15-0.64-0.26-0.96-0.39l-0.97-0.39c-0.34-0.09-0.68-0.18-1.03-0.3l-0.92-0.28
					c-0.3-0.06-0.6-0.1-0.9-0.13c-0.57-0.07-1.15-0.11-1.73-0.12c-0.91,0.08-1.82,0.11-2.75,0.27c-0.56,0.1-1.11,0.22-1.65,0.38
					c-0.55,0.14-1.08,0.31-1.6,0.49c-0.44,0.13-0.87,0.27-1.31,0.41c-0.44,0.13-0.86,0.3-1.26,0.52c-0.4,0.22-0.79,0.47-1.16,0.73
					c-1.13,0.7-2,1.57-3.13,2.36c-0.91,0.67-1.75,1.43-2.52,2.26c-0.61,0.64-1.16,1.3-1.73,2.01c-0.67,0.85-1.29,1.73-1.91,2.61
					c-0.56,0.69-1.07,1.41-1.53,2.16c-0.17,0.34-0.39,0.8-0.56,1.22c-0.56,1.18-0.86,2.38-1.38,3.67c-0.42,1.09-0.71,2.23-0.85,3.39
					c-0.11,0.96-0.11,1.92,0.01,2.88c0.15,1.28,0.6,2.5,1.32,3.57c0.58,0.96,1.44,1.72,2.45,2.2c0.5,0.21,1.03,0.36,1.56,0.44
					c1.47,0.17,2.96,0.04,4.38-0.41c1.15-0.29,2.26-0.75,3.28-1.36c0.77-0.46,1.52-0.96,2.23-1.5c0.87-0.65,1.68-1.36,2.51-2.03
					c0.7-0.51,1.38-1.06,2.03-1.64c0.26-0.26,0.58-0.64,0.87-0.98c0.86-0.93,1.53-1.92,2.46-2.87c0.76-0.79,1.48-1.62,2.14-2.5
					l-2.46-1.92c-0.28,0.31-0.58,0.65-0.92,1.08c-0.62,0.79-1.8,2.5-2.51,3.21c-0.49,0.5-1.07,0.91-1.58,1.38l-0.21,0.18
					c-1.24,1.05-2.25,2.36-3.51,3.36c-0.8,0.62-1.68,1.13-2.61,1.52l-1.18,0.57c-0.41,0.2-1.03,0.51-1.66,0.75
					c-0.53,0.21-1.1,0.31-1.68,0.32c-0.54-0.05-1.07-0.19-1.56-0.43l-0.18-0.11c-0.51-0.24-0.97-0.57-1.37-0.97
					c-0.44-0.45-0.74-1.01-0.86-1.63c-0.15-0.91-0.11-1.83,0.13-2.72c0.08-0.38,0.16-0.78,0.27-1.27c0.19-1.28,0.54-2.53,1.02-3.73
					c0.3-0.61,0.69-1.17,1.05-1.75l0.15-0.23c0.86-1.33,1.5-2.83,2.47-4.12c0.63-0.81,1.35-1.54,2.15-2.19
					c0.29-0.28,0.63-0.57,1-0.93c0.89-0.97,1.86-1.85,2.92-2.63c0.58-0.33,1.18-0.63,1.8-0.9l0.25-0.1
					c1.36-0.73,2.78-1.33,4.25-1.79c0.51-0.13,1.04-0.18,1.56-0.15l1.35,0.04c0.38,0.02,0.78,0.11,1.27,0.13
					c1.21,0.02,2.4,0.28,3.5,0.78c0.28,0.15,0.53,0.33,0.75,0.55c0.23,0.21,0.49,0.37,0.7,0.6l0.17,0.18
					c1.13,0.97,2.1,2.11,2.89,3.38c0.45,0.88,0.78,1.82,0.97,2.79c0.05,0.2,0.09,0.41,0.15,0.63c0.03,0.11,0.06,0.22,0.09,0.34
					s0.05,0.23,0.08,0.36l0,0l0,0v0.01l0.04,0.16V569l-0.02,0.02l-0.04,0.03l-0.04,0.02l-0.04,0.02l-0.04,0.02l-0.05,0.01
					l-0.05,0.01l-0.05,0.01l-1.36,0.11l0.52,3.08l2.55-0.48l0.26-0.05l0.26-0.07l0.26-0.08l0.25-0.09l0.12-0.05l0.11-0.05l0.1-0.05
					l0.09-0.06l0.08-0.06l0.07-0.06l0.03-0.03l0.03-0.03l0.05-0.07l0.04-0.07l0.03-0.07l0.03-0.07l0.02-0.07l0.02-0.07l0.02-0.07
					v-0.01l0.01-0.02l0.03-0.11l0.02-0.11l0.01-0.1l0.01-0.17v-0.08L-2501.32,570.03z"/>
			</g>
		</g>
		<g id="그룹_20687">
			<path id="패스_16829" class="st2" d="M-2494.8,568.53c0,0-1.39-9.71-12.98-8.2c-12.27,1.59-22.33,15.7-18.12,21.65
				s21.52-11.91,21.52-11.91L-2494.8,568.53z"/>
			<path id="패스_16830" class="st0" d="M-2493.36,568.34l-0.01-0.09l-0.04-0.3l-0.05-0.27c-0.04-0.17-0.08-0.34-0.12-0.51
				l-0.14-0.48l-0.04-0.12l-0.04-0.12l-0.08-0.23l-0.17-0.46l-0.2-0.44l-0.21-0.43l-0.03-0.05l-0.03-0.05l-0.06-0.1l-0.12-0.2
				c-0.58-1.01-1.31-1.91-2.17-2.69c-1.06-0.95-2.28-1.71-3.61-2.23c-0.54-0.18-1.07-0.43-1.61-0.6c-0.55-0.15-1.1-0.27-1.66-0.36
				c-0.47-0.02-1.12,0-1.69,0c-1.59,0.1-3.16,0.33-4.71,0.69c-1.35,0.27-2.66,0.7-3.91,1.27c-0.97,0.45-1.91,0.97-2.81,1.54
				c-1.1,0.7-2.15,1.46-3.17,2.28c-0.87,0.61-1.69,1.29-2.46,2.03c-0.31,0.32-0.69,0.82-1.04,1.24c-0.95,1.24-1.83,2.54-2.62,3.89
				c-0.76,1.18-1.35,2.46-1.74,3.8c-0.33,1.11-0.49,2.27-0.47,3.43c0.02,1.41,0.44,2.78,1.21,3.96c0.12,0.17,0.26,0.33,0.4,0.49
				c0.92,1.13,2.34,1.73,3.79,1.61l0.5-0.07c0.15-0.03,0.32-0.05,0.47-0.09c0.3-0.09,0.62-0.18,0.91-0.27
				c1.49-0.59,2.92-1.3,4.28-2.14c1.17-0.64,2.28-1.36,3.34-2.17c0.82-0.62,1.6-1.26,2.41-1.93l2.85-2.45
				c0.78-0.66,1.65-1.22,2.38-1.93c0.31-0.3,0.71-0.74,1.07-1.12c0.24-0.24,0.52-0.54,0.69-0.73l0.39-0.47
				c0.21-0.06,0.43-0.11,0.66-0.15c0.37-0.07,0.77-0.13,1.18-0.17c1.37-0.15,2.6-0.34,3.8-0.54l2.69-0.48l0.27-0.05l0.28-0.06
				l0.27-0.08l0.26-0.09l0.12-0.05l0.11-0.05l0.11-0.05l0.1-0.06l0.09-0.06l0.07-0.06l0.03-0.03l0.03-0.03l0.02-0.03l0.02-0.03
				l0.04-0.07l0.03-0.07l0.03-0.07l0.02-0.07l0.02-0.07l0.01-0.07v-0.01l0-0.02l0.02-0.12l0.01-0.11l0.01-0.1c0-0.07,0-0.13,0-0.18
				L-2493.36,568.34z M-2496.62,567.21h-0.01l0.01-0.02l0,0l0,0v0.01L-2496.62,567.21z M-2496.9,567.37l-0.05,0.02l-0.05,0.01
				l-0.1,0.01l-1.43,0.11c-0.51,0.05-1.06,0.12-1.72,0.24c-0.54,0.09-1.33,0.27-2.14,0.45l-1.24,0.27l-1.45,0.28l-0.51,0.52
				c-0.21,0.2-0.44,0.42-0.65,0.6l-0.49,0.41c-0.33,0.27-0.66,0.53-0.97,0.81l-0.26,0.22c-1.52,1.27-2.8,2.81-4.3,4.1
				c-0.97,0.8-1.99,1.53-3.06,2.18c-0.42,0.27-0.86,0.58-1.39,0.94c-1.23,0.98-2.55,1.83-3.95,2.53c-0.68,0.26-1.4,0.42-2.12,0.49
				l-0.22,0.01c-0.67,0.08-1.34-0.18-1.79-0.68c-0.08-0.09-0.14-0.18-0.21-0.28l-0.18-0.33c-0.12-0.28-0.2-0.58-0.25-0.88
				c-0.1-1.08,0.08-2.16,0.52-3.15c0.15-0.42,0.33-0.88,0.57-1.43c0.2-0.52,0.54-1.31,0.93-2.08c0.35-0.7,0.76-1.36,1.23-1.98
				c0.53-0.61,1.09-1.19,1.68-1.74l0.24-0.22c1.31-1.37,2.72-2.64,4.23-3.79c1.01-0.66,2.1-1.19,3.24-1.58
				c0.45-0.15,0.93-0.36,1.51-0.56c1.41-0.61,2.9-1.01,4.42-1.18c0.4-0.02,0.79-0.02,1.18,0c0.39,0.05,0.77,0.11,1.15,0.14l0.3,0.03
				c1.72,0.13,3.39,0.68,4.85,1.59c0.86,0.68,1.53,1.57,1.95,2.59c0.04,0.09,0.09,0.18,0.14,0.27s0.08,0.2,0.12,0.3l0.14,0.31
				l0.04,0.08l0.03,0.09l0.06,0.17l0,0v0.01l0.03,0.08l-0.03,0.02L-2496.9,567.37z"/>
		</g>
	</g>
	<g id="그룹_20689">
		<circle id="타원_299" class="st2" cx="-2562.02" cy="502.46" r="25.38"/>
		<path id="패스_16831" class="st0" d="M-2535.09,501.05c-0.07-0.41-0.14-0.86-0.21-1.3s-0.14-0.89-0.21-1.3
			c-0.08-0.4-0.18-0.77-0.23-1.06c-0.08-0.82-0.22-1.64-0.41-2.44c-0.02-0.11-0.05-0.22-0.08-0.32c-0.12-0.47-0.26-0.94-0.41-1.4
			c-0.19-0.45-0.41-0.88-0.63-1.32c-0.4-0.89-0.94-1.7-1.42-2.53c-0.36-0.69-0.69-1.21-0.98-1.72s-0.53-0.99-0.87-1.48
			c-0.29-0.4-0.61-0.83-1.03-1.32c-1.11-1.15-2.31-2.21-3.58-3.18c-0.31-0.26-0.59-0.57-0.91-0.84s-0.64-0.52-0.97-0.77l-0.26-0.2
			c-1.62-1.07-3.39-1.89-5.25-2.46c-0.73-0.27-1.32-0.45-1.86-0.67c-0.53-0.23-1.07-0.42-1.62-0.56c-0.48-0.13-1-0.26-1.63-0.37
			c-0.8-0.09-1.6-0.14-2.4-0.14c-0.9-0.07-1.8,0.07-2.39,0.03c-0.82-0.06-1.65-0.07-2.47-0.02l-0.33,0.01
			c-1.93,0.22-3.82,0.73-5.6,1.49c-0.74,0.25-1.3,0.51-1.86,0.68c-0.55,0.16-1.08,0.37-1.6,0.61c-0.45,0.21-0.93,0.45-1.49,0.76
			c-0.51,0.31-1.22,0.89-1.94,1.43c-0.71,0.56-1.34,1.21-1.81,1.56c-0.67,0.48-1.29,1.03-1.91,1.58l-0.25,0.22
			c-0.68,0.69-1.3,1.45-1.84,2.25l-1.48,2.5c-0.73,1.37-1.31,2.12-1.82,3.22c-0.26,0.49-0.48,1.01-0.65,1.54
			c-0.17,0.57-0.4,1.45-0.58,2.34c-0.13,0.9-0.26,1.79-0.39,2.36c-0.14,0.81-0.32,1.61-0.44,2.43c-0.02,0.11-0.04,0.22-0.05,0.33
			c-0.06,0.97-0.05,1.94,0.04,2.91l0.47,2.87c0.33,1.52,0.35,2.47,0.68,3.64c0.12,0.55,0.28,1.08,0.49,1.6
			c0.24,0.55,0.64,1.36,1.06,2.16c0.48,0.77,0.95,1.54,1.22,2.06c0.42,0.7,0.79,1.45,1.23,2.15c0.05,0.1,0.11,0.19,0.18,0.28
			c0.57,0.79,1.21,1.52,1.91,2.19c0.75,0.63,1.42,1.32,2.2,1.89c0.61,0.48,1.06,0.92,1.5,1.29l1.34,1.07
			c0.44,0.35,0.91,0.65,1.41,0.9c1.44,0.7,2.93,1.3,4.45,1.78c0.78,0.25,1.52,0.66,2.32,0.87l0.32,0.09
			c1.89,0.44,3.84,0.61,5.77,0.48c0.78-0.02,1.4,0.04,1.98,0.03l1.72-0.04l0.78-0.05l0.88-0.17c1.55-0.39,3.08-0.89,4.56-1.5
			c0.76-0.31,1.58-0.48,2.33-0.82l0.3-0.14c0.89-0.4,1.73-0.9,2.49-1.5l1.15-0.89c0.38-0.3,0.72-0.65,1.09-0.95
			c1.22-0.97,1.92-1.59,2.83-2.38c0.4-0.39,0.77-0.81,1.12-1.25c0.19-0.23,0.41-0.53,0.66-0.87c0.22-0.35,0.45-0.74,0.68-1.13
			l0.68-1.13c0.19-0.37,0.35-0.7,0.5-0.96c0.46-0.68,0.88-1.39,1.26-2.13l0.15-0.3c0.22-0.43,0.41-0.88,0.58-1.34
			c0.14-0.47,0.25-0.94,0.37-1.41c0.26-0.94,0.37-1.9,0.54-2.85c0.17-0.76,0.26-1.37,0.35-1.95s0.2-1.11,0.3-1.7
			c0.03-0.49,0.05-1.03,0.04-1.67C-2535.04,501.84-2535.07,501.47-2535.09,501.05z M-2538.43,506.22c-0.15,1.04-0.39,2.07-0.71,3.08
			c-0.14,0.41-0.32,0.8-0.48,1.19s-0.41,0.76-0.55,1.15l-0.44,1.22c-0.29,0.56-0.54,1.11-0.8,1.68c-0.28,0.57-0.63,1.11-1.03,1.61
			c-0.18,0.23-0.35,0.47-0.52,0.69l-0.55,0.62c-0.36,0.41-0.67,0.83-1.03,1.21c-0.62,0.59-1.15,1.26-1.83,1.82l-1.21,1.02
			c-0.41,0.33-0.87,0.6-1.31,0.89c-0.71,0.49-1.57,0.72-2.3,1.14c-0.36,0.23-0.74,0.44-1.13,0.63c-0.58,0.25-1.11,0.56-1.68,0.8
			c-0.6,0.23-1.2,0.42-1.82,0.58c-0.57,0.13-1.14,0.19-1.67,0.3c-0.52,0.12-1.04,0.2-1.57,0.25c-0.85,0.13-1.71,0.2-2.57,0.22
			l-1.58,0.03c-0.53-0.05-1.05-0.1-1.57-0.17c-0.86-0.07-1.66-0.47-2.5-0.61c-0.43-0.05-0.85-0.14-1.27-0.24
			c-0.6-0.18-1.2-0.3-1.8-0.46c-0.6-0.21-1.19-0.45-1.77-0.73c-0.53-0.26-0.99-0.59-1.47-0.84c-0.47-0.25-0.92-0.52-1.36-0.82
			c-0.73-0.45-1.44-0.94-2.11-1.48c-0.4-0.34-0.84-0.64-1.22-1.01s-0.75-0.75-1.11-1.13c-0.6-0.62-0.95-1.44-1.53-2.07
			c-0.24-0.27-0.52-0.68-0.8-1.02c-0.79-0.98-1.45-2.06-1.98-3.2c-0.39-1.12-0.82-2.08-1.1-3.09c-0.12-0.41-0.28-0.8-0.39-1.22
			s-0.19-0.84-0.28-1.27c-0.23-1.03-0.37-2.08-0.43-3.13c0-0.86,0.2-1.72,0.17-2.57c0.02-0.36,0.04-0.86,0.06-1.3
			c0.03-1.26,0.21-2.51,0.54-3.73c0.43-1.1,0.71-2.13,1.15-3.07l0.49-1.18l0.6-1.15c0.49-0.94,1.05-1.83,1.68-2.67
			c0.56-0.65,1.24-1.21,1.78-1.85c0.25-0.26,0.57-0.64,0.87-0.96c0.41-0.46,0.85-0.9,1.32-1.31c0.45-0.45,0.96-0.85,1.51-1.18
			c0.51-0.3,0.98-0.6,1.44-0.88c0.48-0.25,0.95-0.5,1.4-0.75l0.56-0.31l0.58-0.26l1.19-0.53c0.49-0.2,0.98-0.38,1.49-0.52
			c0.5-0.18,1.01-0.32,1.52-0.42c0.43-0.07,0.86-0.11,1.28-0.15l0.64-0.07c0.21-0.01,0.43-0.02,0.64-0.05
			c0.36-0.04,0.84-0.13,1.28-0.2c0.62-0.11,1.23-0.09,1.85-0.15l0.94-0.04c0.33,0.02,0.65,0.05,0.97,0.11l1.68,0.25
			c0.53,0.12,1.04,0.23,1.56,0.32c0.84,0.17,1.67,0.39,2.49,0.66c0.51,0.15,1,0.34,1.48,0.55c0.49,0.18,0.97,0.4,1.44,0.66
			c0.37,0.22,0.73,0.47,1.08,0.71s0.7,0.48,1.05,0.73c0.3,0.2,0.73,0.44,1.11,0.67c0.54,0.33,1,0.72,1.51,1.08
			c0.53,0.36,1,0.79,1.41,1.29c0.82,0.86,1.44,1.72,2.12,2.51c0.51,0.68,0.99,1.38,1.49,2.11c0.56,0.9,1.04,1.84,1.44,2.82
			c0.16,0.4,0.28,0.82,0.4,1.23c0.1,0.42,0.18,0.84,0.31,1.24c0.11,0.34,0.31,0.8,0.44,1.22c0.14,0.61,0.31,1.2,0.47,1.8
			c0.15,0.62,0.23,1.26,0.25,1.9c0.01,0.3,0.03,0.58,0.04,0.86c-0.01,0.28-0.02,0.56-0.02,0.83c-0.01,0.54-0.01,1.07,0,1.59
			C-2538.28,504.5-2538.33,505.35-2538.43,506.22z"/>
	</g>
	<ellipse id="타원_116" cx="-2567.81" cy="506.92" rx="2.36" ry="2.14"/>
	<ellipse id="타원_117" cx="-2558.47" cy="504.6" rx="2.36" ry="2.14"/>
	<path id="패스_16832" class="st0" d="M-2552.8,509.54c-0.41-0.31-0.93-0.45-1.44-0.4c-0.35,0.1-0.7,0.23-1.03,0.39
		c-0.28,0.12-0.27,0.41-0.28,0.62c0.01,0.18-0.03,0.35-0.1,0.51c-0.06,0.14-0.12,0.27-0.19,0.4c-0.24,0.47-0.53,0.9-0.88,1.29
		c-0.44,0.51-0.96,0.95-1.53,1.31c-0.49,0.29-1.06,0.41-1.55,0.64c-0.21,0.1-0.5,0.26-0.76,0.38c-0.73,0.36-1.53,0.56-2.34,0.59
		c-0.63-0.02-1.26-0.12-1.87-0.29l-0.33-0.13c-0.12-0.08-0.23-0.18-0.34-0.28c-0.16-0.16-0.39-0.23-0.61-0.18
		c-0.62,0.02-1.22,0.22-1.73,0.58c-0.22,0.23-0.35,0.54-0.34,0.86c0,0.12,0.02,0.24,0.05,0.35c0.08,0.4,0.49,0.66,0.8,0.85
		c0.13,0.08,0.26,0.16,0.38,0.25c0.34,0.25,0.71,0.46,1.1,0.64c0.44,0.19,0.91,0.31,1.39,0.36c0.65,0.06,1.3,0.03,1.93-0.08
		c0.7-0.1,1.36-0.3,1.8-0.38c0.62-0.1,1.23-0.24,1.83-0.42c0.08-0.03,0.16-0.05,0.24-0.08c1.37-0.58,2.59-1.46,3.57-2.59
		c0.71-0.67,1.36-1.41,1.93-2.21c0.12-0.18,0.22-0.37,0.31-0.56c0.14-0.24,0.26-0.49,0.35-0.76
		C-2552.27,510.8-2552.31,509.81-2552.8,509.54z"/>
	<g id="그룹_20690">
		<path id="패스_16833" class="st2" d="M-2609.43,555.63c0,0,7.96-5.73,8.6-12.9s1.67-18.37,3.02-23.36s1.67-12.55-3.74-11.68
			s-6.85,11.62-7.01,12.5s0.2,5.6-2.31,5.17s-2.95-4.7-3.58-6.37s-6.13-21.1-6.13-21.1s-1.57-6.44-6.21-5.33s-4.34,5.1-1.85,12.1
			s4.56,13.7,2.89,14.09s-3.12-2.65-4.67-5.23c-1.54-2.58-6.25-10.53-6.25-10.53s-3.9-8.61-8.68-6.3s-2.07,7.73,1.27,12.03
			s9.55,14.36,8.84,15.3s-1.75,0.7-3.26-0.81s-9.43-10.43-9.43-10.43s-4.27-5.89-7.77-2.23c-3.5,3.66,0.56,7.64,3.26,10.11
			s10.91,10.51,9.71,11.31s-2.15,0.08-3.5-0.64s-10.91-6.78-12.58-3.23s2.15,7.29,9.79,12.23s14.33,12.34,16.16,13.69
			S-2620.66,561.92-2609.43,555.63z"/>
		<path id="패스_16834" class="st0" d="M-2595.43,512.46c-0.07-0.77-0.23-1.53-0.46-2.27c-0.13-0.39-0.3-0.79-0.48-1.19
			c-0.22-0.44-0.48-0.85-0.79-1.23c-0.53-0.68-1.26-1.18-2.08-1.44c-0.4-0.1-0.8-0.17-1.21-0.21c-0.39,0-0.79,0.03-1.17,0.07
			c-1.21,0.2-2.34,0.74-3.24,1.57c-0.97,0.9-1.77,1.96-2.39,3.13c-0.54,0.85-1,1.75-1.37,2.69c-0.12,0.4-0.28,0.95-0.39,1.44
			c-0.38,1.39-0.5,2.72-0.84,4.16c-0.06,0.27-0.11,0.52-0.16,0.74c-0.08,0.53-0.12,1.06-0.15,1.6c-0.03,0.44-0.06,0.83-0.11,1.2
			c-0.04,0.33-0.11,0.66-0.23,0.97c-0.03,0.09-0.07,0.17-0.12,0.25c-0.1-0.02-0.19-0.05-0.28-0.1c-0.27-0.18-0.49-0.44-0.63-0.73
			c-0.29-0.74-0.52-1.5-0.68-2.28c-0.12-0.37-0.29-0.88-0.43-1.33c-0.11-0.37-0.24-0.73-0.38-1.08c-0.1-0.25-0.22-0.54-0.34-0.85
			c-0.24-0.64-0.45-1.29-0.61-1.95c-0.29-1.23-0.6-2.34-0.93-3.41c-0.27-0.88-0.54-1.75-0.81-2.66c-0.33-1.09-0.67-2.17-0.96-3.27
			c-0.23-0.9-0.31-1.84-0.59-2.72c-0.11-0.37-0.3-0.88-0.46-1.33c-0.4-1.3-0.92-2.48-1.23-3.88c-0.07-0.3-0.14-0.6-0.21-0.89
			c-0.09-0.36-0.19-0.67-0.3-0.99c-0.22-0.61-0.49-1.21-0.81-1.78c-0.55-1-1.3-1.88-2.2-2.57c-0.62-0.47-1.34-0.79-2.1-0.96
			c-0.75-0.17-1.53-0.18-2.29-0.04c-0.28,0.04-0.57,0.09-0.84,0.17c-0.28,0.05-0.56,0.13-0.83,0.23c-0.6,0.19-1.16,0.5-1.64,0.92
			c-0.51,0.45-0.91,1.01-1.18,1.64c-0.2,0.42-0.35,0.86-0.43,1.31c-0.06,0.41-0.1,0.83-0.1,1.25c0.01,0.79,0.06,1.57,0.15,2.35
			c0.14,1.25,0.41,2.48,0.8,3.68c0.29,0.91,0.61,1.79,0.94,2.69c0.39,1.06,0.79,2.12,1.12,3.2c0.27,0.88,0.38,1.8,0.67,2.66
			c0.13,0.36,0.31,0.86,0.47,1.3c0.46,1.21,0.8,2.46,1.01,3.74c0.01,0.15,0.02,0.3,0.03,0.45c-0.16-0.18-0.3-0.37-0.44-0.56
			c-0.63-0.9-1.2-1.84-1.72-2.81c-0.47-0.84-0.77-1.71-1.27-2.5c-0.21-0.33-0.51-0.77-0.78-1.17c-0.72-1.16-1.51-2.16-2.18-3.44
			c-0.58-1.13-1.16-2.12-1.75-3.08l-0.36-0.59c-0.11-0.16-0.2-0.33-0.28-0.51c-0.23-0.45-0.48-0.88-0.74-1.31
			c-0.64-1.06-1.37-2.06-2.17-3c-0.65-0.89-1.46-1.65-2.4-2.23c-0.55-0.3-1.15-0.51-1.76-0.62c-0.47-0.09-0.95-0.12-1.42-0.07
			l-0.7,0.1c-0.22,0.06-0.44,0.13-0.65,0.22l-0.64,0.26l-0.54,0.32c-0.39,0.22-0.76,0.48-1.1,0.77c-0.33,0.27-0.62,0.58-0.88,0.92
			c-0.24,0.35-0.44,0.71-0.6,1.1c-0.27,0.73-0.39,1.5-0.35,2.27c0.06,1.1,0.32,2.19,0.77,3.2c0.49,1.13,1.07,2.22,1.73,3.26
			c0.46,0.86,0.97,1.69,1.54,2.48l0.88,1.04c0.86,1.02,1.65,2.1,2.37,3.22c0.63,1.09,1.23,2.05,1.82,2.99
			c0.49,0.77,0.97,1.53,1.44,2.33c0.58,0.94,1.11,1.9,1.58,2.9c0.03,0.06,0.05,0.13,0.07,0.19l-0.01-0.01
			c-0.5-0.45-0.96-0.94-1.37-1.46c-0.8-0.99-1.55-1.84-2.31-2.66l-1.89-2.02c-0.77-0.83-1.55-1.65-2.28-2.51
			c-0.54-0.63-1.02-1.38-1.53-1.97l-0.03-0.04l-0.03-0.04l-0.05-0.06c-0.34-0.4-0.71-0.79-1.11-1.14c-1.19-1.16-2.65-2-4.25-2.46
			c-0.84-0.21-1.72-0.18-2.55,0.08c-0.39,0.13-0.76,0.31-1.11,0.53c-0.32,0.23-0.63,0.48-0.91,0.75c-0.88,0.86-1.49,1.97-1.75,3.17
			c-0.23,1.47,0.04,2.97,0.77,4.27c0.44,0.96,1,1.85,1.68,2.65c0.29,0.32,0.71,0.71,1.09,1.04c0.52,0.5,1.06,0.93,1.57,1.35
			l0.58,0.49c0.16,0.14,0.3,0.28,0.44,0.44c0.47,0.55,0.9,0.99,1.38,1.46l1.21,1.19c0.49,0.47,0.95,0.98,1.36,1.52
			c0.27,0.41,0.06,0.47,0.27,0.97c0.05,0.12,0.02,0.26-0.07,0.35c-0.06,0.09-0.15,0.17-0.25,0.22c-0.27,0.06-0.55,0.02-0.8-0.1
			c-0.36-0.15-0.7-0.34-1.02-0.56c-0.62-0.41-1.26-0.78-1.93-1.11c-0.46-0.22-0.93-0.41-1.44-0.6c-0.31-0.11-0.62-0.21-0.95-0.3
			l-0.25-0.06l-0.35-0.08c-0.33-0.06-0.66-0.12-1.01-0.16c-0.65-0.09-1.31-0.06-1.96,0.07c-0.85,0.19-1.59,0.73-2.03,1.48
			c-0.17,0.3-0.29,0.61-0.38,0.94c-0.1,0.33-0.17,0.67-0.2,1.02c-0.1,0.91,0.04,1.84,0.41,2.68c0.33,0.76,0.73,1.48,1.2,2.16
			c0.73,1.07,1.61,2.02,2.6,2.85c0.74,0.65,1.49,1.21,2.28,1.79c0.95,0.7,1.92,1.33,2.86,2.01c0.77,0.54,1.48,1.21,2.21,1.69
			l1.16,0.71c1.14,0.69,2.22,1.46,3.24,2.31c0.93,0.84,1.78,1.58,2.62,2.3l2.07,1.8c0.84,0.75,1.68,1.5,2.48,2.3
			c0.65,0.66,1.19,1.42,1.89,2.06c0.3,0.27,0.71,0.61,1.12,0.94c1.19,0.89,2.46,1.67,3.79,2.32c1.09,0.62,2.24,1.13,3.43,1.52
			c0.46,0.16,0.93,0.3,1.41,0.41c0.48,0.12,0.95,0.26,1.45,0.34c1.19,0.23,2.39,0.39,3.6,0.48c0.5,0.03,0.99,0.11,1.49,0.16
			c0.5,0.03,1,0.03,1.5,0c0.51-0.05,1.01-0.13,1.5-0.25c0.36-0.06,0.72-0.13,1.07-0.2l1.03-0.32l1.04-0.3
			c0.35-0.12,0.7-0.25,1.06-0.36c0.63-0.17,1.24-0.4,1.83-0.68l0.84-0.4l0.88-0.44l0.39-0.3l0.29-0.23l0.56-0.47
			c0.36-0.32,0.73-0.65,1.09-1c0.86-0.83,1.68-1.7,2.47-2.6c0.7-0.7,1.35-1.45,1.93-2.26c0.24-0.34,0.48-0.89,0.73-1.34
			c0.65-1.35,1.16-2.77,1.53-4.22c0.16-0.66,0.29-1.32,0.36-1.99c0.05-0.58,0.11-1.15,0.16-1.71c0.07-0.92,0.14-1.83,0.21-2.77
			c0.09-1.13,0.17-2.26,0.32-3.39c0.12-0.92,0.4-1.82,0.48-2.73c0.03-0.39,0.06-0.92,0.08-1.4c0.06-1.35,0.19-2.69,0.39-4.02
			c0.24-1.24,0.43-2.35,0.61-3.44c0.15-0.89,0.3-1.77,0.5-2.64l0.39-1.68c0.12-0.59,0.24-1.18,0.35-1.77
			c0.25-0.97,0.4-1.95,0.47-2.95C-2595.33,513.49-2595.36,512.98-2595.43,512.46z M-2610.55,523.92c-0.01-0.01-0.03,0-0.04,0
			C-2610.58,523.92-2610.57,523.9-2610.55,523.92z M-2626.03,517.27h0.01C-2626,517.28-2626.01,517.28-2626.03,517.27
			L-2626.03,517.27z M-2636.83,523.77c0,0.02,0.01,0.05,0.01,0.07c0.01,0.04-0.01,0.02-0.01,0.02v-0.01
			C-2636.83,523.82-2636.83,523.8-2636.83,523.77L-2636.83,523.77z M-2600.42,524.11c-0.17,1.15-0.25,3.5-0.42,4.63
			c-0.12,0.79-0.34,1.56-0.45,2.35c-0.02,0.1-0.04,0.21-0.06,0.32c-0.32,1.84-0.22,3.73-0.37,5.58c-0.12,1.49-0.34,2.38-0.52,3.52
			c-0.07,0.47-0.14,0.98-0.18,1.59c-0.01,0.14-0.02,0.3-0.03,0.48c-0.01,0.15-0.03,0.31-0.04,0.48c-0.01,0.36-0.06,0.73-0.13,1.08
			c-0.11,0.68-0.31,1.33-0.58,1.96c-0.17,0.32-0.36,0.63-0.55,0.93c-0.21,0.3-0.43,0.59-0.63,0.89c-0.05,0.08-0.11,0.16-0.17,0.23
			c-0.97,1.45-2.03,2.84-3.18,4.15c-0.43,0.43-0.88,0.83-1.37,1.18l-0.63,0.44l-0.32,0.21l-0.23,0.13
			c-0.12,0.04-0.34,0.14-0.57,0.24s-0.46,0.21-0.71,0.34c-1.24,0.69-2.57,1.23-3.95,1.59c-0.72,0.17-1.47,0.09-2.19,0.19h-0.29
			c-1.72,0.13-3.44,0.11-5.16-0.06c-1.09-0.2-2.16-0.55-3.16-1.02l-1.39-0.57c-1.36-0.46-2.67-1.06-3.9-1.8
			c-0.14-0.1-0.28-0.22-0.41-0.33l-0.34-0.35c-0.25-0.27-0.5-0.55-0.77-0.82l-0.21-0.23c-1.25-1.35-2.8-2.45-4.19-3.69
			c-1.12-1.01-1.71-1.72-2.54-2.54c-0.34-0.34-0.73-0.69-1.21-1.09c-0.89-0.74-2.88-2.04-3.8-2.75c-0.64-0.5-1.22-1.07-1.87-1.55
			l-0.26-0.2c-1.53-1.17-3.19-1.86-4.68-2.93c-0.92-0.67-1.78-1.43-2.55-2.26c-0.32-0.31-0.65-0.66-1.06-1.04
			c-0.49-0.46-0.95-0.95-1.39-1.46c-0.39-0.44-0.68-0.97-0.83-1.54c-0.08-0.49,0.02-1,0.28-1.42c0.02-0.05,0.05-0.11,0.08-0.16
			c0.08-0.06,0.02-0.01,0.14-0.09c0.23-0.09,0.47-0.14,0.72-0.13c0.18-0.01,0.36,0,0.54,0.01c0.24,0.01,0.47,0.05,0.7,0.1
			c0.64,0.15,1.28,0.35,1.89,0.6c0.93,0.39,1.84,0.84,2.71,1.36c0.83,0.47,1.69,1.01,2.43,1.33c0.55,0.25,1.12,0.44,1.71,0.59
			c1.01,0.18,2.02,0.42,3,0.73c0.32,0.1,0.66,0.14,0.99,0.12c0.4-0.05,0.78-0.22,1.08-0.49c-0.03-0.09,0.06-0.1,0.09-0.15
			c0.03-0.04,0.05-0.09,0.08-0.14c0.1-0.35,0.07-0.72-0.08-1.05c-0.13-0.36-0.29-0.7-0.48-1.03c-0.45-0.77-0.95-1.52-1.48-2.24
			c-0.91-1.26-1.47-2.07-2.38-3.19c-0.39-0.46-0.85-0.98-1.48-1.61c-0.57-0.58-1.53-1.45-2.46-2.27l-1.35-1.18
			c-0.34-0.29-0.59-0.51-0.79-0.71c-0.55-0.54-1.01-1.15-1.48-1.7l-0.18-0.23c-1.03-1.31-2.17-2.55-2.19-3.79
			c-0.01-0.22,0.02-0.44,0.09-0.65c0.07-0.18,0.16-0.35,0.27-0.51c0.23-0.31,0.5-0.6,0.79-0.85l0.36-0.27
			c0.13-0.06,0.26-0.14,0.41-0.21c0.4-0.17,0.84-0.22,1.27-0.14c0.57,0.14,1.1,0.4,1.55,0.77c0.5,0.47,0.96,0.99,1.36,1.55
			c0.05,0.07,0.11,0.15,0.16,0.22l0.1,0.15l0.08,0.1l0.08,0.1c1.16,1.37,2.49,2.46,3.68,3.74c1.03,1.1,1.53,1.87,2.26,2.78
			c0.3,0.37,0.63,0.77,1.05,1.22c0.39,0.42,1.02,1.02,1.64,1.63l0.9,0.89c0.3,0.29,0.62,0.57,0.88,0.79
			c0.41,0.37,0.86,0.68,1.35,0.92c0.35,0.17,0.73,0.26,1.12,0.27c0.48,0.02,0.95-0.1,1.37-0.33c0.2-0.11,0.39-0.25,0.56-0.4
			c0.08-0.07,0.16-0.15,0.24-0.24l0.11-0.12l0.03-0.04l0.08-0.13c0.05-0.09,0.1-0.18,0.14-0.27c0.11-0.24,0.16-0.51,0.16-0.78
			c0-0.14,0-0.28-0.03-0.42c-0.05-0.34-0.14-0.67-0.27-0.99c-0.19-0.48-0.42-0.95-0.67-1.4c-0.48-0.86-1-1.66-1.48-2.48
			c-0.77-1.32-1.13-2.17-1.67-3.2c-0.23-0.42-0.49-0.88-0.83-1.4c-0.63-0.97-2.12-2.8-2.76-3.76c-0.44-0.67-0.81-1.4-1.29-2.07
			l-0.18-0.27c-1.09-1.36-2.08-2.8-2.98-4.29c-0.45-0.88-0.66-1.87-0.61-2.86c0-0.17,0.02-0.34,0.05-0.5
			c0.02-0.17,0.06-0.34,0.11-0.5c0.12-0.45,0.37-0.86,0.72-1.16c0.23-0.21,0.48-0.39,0.75-0.54c0.24-0.07,0.45-0.22,0.62-0.21
			c0.49-0.01,0.98,0.12,1.4,0.38l0.19,0.13c1.34,0.86,2.5,1.98,3.4,3.29c0.33,0.49,0.61,1.02,0.83,1.56l0.14,0.35
			c0.06,0.17,0.14,0.33,0.22,0.48l0.37,0.74c0.22,0.42,0.46,0.87,0.78,1.4c0.59,0.97,1.98,2.86,2.53,3.85
			c0.39,0.69,0.68,1.44,1.06,2.13c0.05,0.1,0.1,0.19,0.14,0.28c0.87,1.67,1.98,3.05,3.03,4.71c0.44,0.66,0.79,1.23,1.23,1.77
			c0.23,0.29,0.49,0.56,0.78,0.8c0.39,0.33,0.85,0.56,1.34,0.67c0.26,0.06,0.53,0.08,0.8,0.06c0.14-0.01,0.29-0.03,0.43-0.05
			c0.24-0.06,0.46-0.15,0.67-0.28c0.37-0.24,0.67-0.58,0.85-0.98c0.13-0.27,0.21-0.56,0.26-0.85c0.09-0.95,0-1.9-0.26-2.82
			c-0.23-0.89-0.46-1.76-0.62-2.34c-0.18-0.8-0.29-1.61-0.5-2.38c-0.02-0.1-0.05-0.21-0.07-0.32c-0.55-1.8-1.21-3.56-1.97-5.27
			c-0.39-1.1-0.7-2.22-0.94-3.36c-0.09-0.44-0.23-0.92-0.37-1.48c-0.3-1.02-0.88-3.12-0.64-3.94c0.09-0.5,0.34-0.95,0.72-1.29
			c0.04-0.04,0.1-0.07,0.15-0.1c0.52-0.37,1.09-0.65,1.7-0.84c0.56-0.22,1.18-0.2,1.73,0.04c0.41,0.21,0.75,0.52,1.01,0.9
			c0.25,0.37,0.47,0.75,0.65,1.16c0.16,0.37,0.34,0.76,0.54,1.26c0.09,0.23,0.21,0.52,0.32,0.82c0.13,0.38,0.28,0.8,0.43,1.21
			c0.29,0.82,0.57,1.64,0.72,2.19c0.2,0.77,0.29,1.56,0.48,2.33c0.02,0.1,0.04,0.21,0.07,0.31c0.4,1.82,1.19,3.52,1.73,5.3
			c0.44,1.43,0.55,2.34,0.8,3.46c0.1,0.46,0.23,0.96,0.41,1.55c0.34,1.1,1.21,3.25,1.54,4.39c0.06,0.2,0.14,0.47,0.17,0.61
			s0.07,0.31,0.1,0.49c0.06,0.36,0.12,0.74,0.22,1.14l0.06,0.32c0.22,1.04,0.61,2.03,1.17,2.94c0.34,0.55,0.76,1.03,1.26,1.44
			c0.59,0.47,1.3,0.76,2.04,0.85c0.68,0.08,1.36-0.08,1.93-0.44c0.24-0.17,0.46-0.36,0.65-0.57c0.14-0.18,0.28-0.37,0.4-0.57
			c0.35-0.63,0.6-1.3,0.74-2.01c0.12-0.58,0.18-1.17,0.2-1.76c0-0.25,0.01-0.57,0.01-1.02c0.07-1.09,0.23-2.18,0.48-3.24
			c0.2-0.73,0.52-1.42,0.79-2.11l0.11-0.28c0.49-1.57,1.23-3.06,2.17-4.41c0.55-0.65,1.35-1.05,2.21-1.09h0.45
			c0.15,0.01,0.3,0.05,0.47,0.06c0.42,0.09,0.81,0.31,1.1,0.63c0.33,0.44,0.55,0.95,0.64,1.49c0.07,0.69,0.07,1.38,0.01,2.07
			c-0.01,0.1-0.02,0.19-0.03,0.29c-0.06,1.73-0.24,3.45-0.56,5.16c-0.38,1.53-0.66,2.41-0.96,3.55
			C-2600.21,522.98-2600.33,523.5-2600.42,524.11L-2600.42,524.11z M-2636.27,522.99c0.05,0.01,0.09,0.02,0.08,0.02
			C-2636.22,523.01-2636.24,523-2636.27,522.99L-2636.27,522.99z"/>
	</g>
	<path id="패스_16835" class="st0" d="M-2611.57,529.92c0.01-0.26-0.04-0.51-0.15-0.74c-0.32-0.29-0.7-0.5-1.11-0.63
		c-0.37-0.11-0.79,0.18-1.05,0.39c-0.2,0.19-0.42,0.36-0.65,0.5l-0.55,0.39c-0.61,0.45-1.19,0.95-1.73,1.49
		c-0.66,0.65-1.26,1.35-1.84,2.05c-0.52,0.53-1.01,1.1-1.45,1.71c-0.15,0.27-0.34,0.66-0.51,1.01c-0.25,0.47-0.47,0.96-0.65,1.46
		c-0.21,0.49-0.41,0.98-0.65,1.49c-0.42,0.83-0.76,1.7-1.01,2.59l-0.18,0.57c-0.07,0.24-0.21,0.53-0.27,0.78
		c-0.15,0.36-0.14,0.77,0.04,1.13c0.34,0.57,0.95,0.91,1.61,0.89c0.3-0.02,0.59-0.11,0.84-0.28c0.08-0.05,0.16-0.11,0.23-0.17
		c0.18-0.22,0.28-0.5,0.26-0.79c0.01-0.11,0.03-0.22,0.07-0.32c0.1-0.3,0.25-0.57,0.38-0.88c0.15-0.35,0.28-0.7,0.39-1.06
		c0.28-1.04,0.64-2.06,1.08-3.05c0.29-0.47,0.61-0.92,0.96-1.35l0.13-0.18c0.79-0.99,1.3-2.21,2.19-3.13
		c0.56-0.57,1.22-1.05,1.93-1.41c0.14-0.08,0.27-0.16,0.42-0.25s0.39-0.16,0.55-0.27c0.42-0.25,0.69-0.69,0.74-1.17
		C-2611.53,530.38-2611.56,530.15-2611.57,529.92z"/>
</g>
</svg>
