<?xml version="1.0" encoding="utf-8"?>
<!-- Generator: Adobe Illustrator 24.1.1, SVG Export Plug-In . SVG Version: 6.00 Build 0)  -->
<!DOCTYPE svg PUBLIC "-//W3C//DTD SVG 1.1//EN" "http://www.w3.org/Graphics/SVG/1.1/DTD/svg11.dtd" [
	<!ENTITY ns_extend "http://ns.adobe.com/Extensibility/1.0/">
	<!ENTITY ns_ai "http://ns.adobe.com/AdobeIllustrator/10.0/">
	<!ENTITY ns_graphs "http://ns.adobe.com/Graphs/1.0/">
	<!ENTITY ns_vars "http://ns.adobe.com/Variables/1.0/">
	<!ENTITY ns_imrep "http://ns.adobe.com/ImageReplacement/1.0/">
	<!ENTITY ns_sfw "http://ns.adobe.com/SaveForWeb/1.0/">
	<!ENTITY ns_custom "http://ns.adobe.com/GenericCustomNamespace/1.0/">
	<!ENTITY ns_adobe_xpath "http://ns.adobe.com/XPath/1.0/">
]>
<svg version="1.1" id="레이어_1" xmlns:x="&ns_extend;" xmlns:i="&ns_ai;" xmlns:graph="&ns_graphs;"
	 xmlns="http://www.w3.org/2000/svg" xmlns:xlink="http://www.w3.org/1999/xlink" x="0px" y="0px" viewBox="0 0 270.51 174.58"
	 style="enable-background:new 0 0 270.51 174.58;" xml:space="preserve">
<style type="text/css">
	.st0{fill:#212121;}
	.st1{fill:#FFCF4E;}
	.st2{fill:#FF7A00;}
	.st3{fill:#202020;}
	.st4{fill:#FFFFFF;}
	.st5{opacity:0.5;}
</style>
<metadata>
	<sfw  xmlns="&ns_sfw;">
		<slices></slices>
		<sliceSourceBounds  bottomLeftOrigin="true" height="174.58" width="270.51" x="547.78" y="-471.74"></sliceSourceBounds>
	</sfw>
</metadata>
<g id="그룹_20318" transform="translate(-45 -109)">
	<g id="그룹_20294" transform="translate(140.271 253.76)">
		<path id="패스_16423" class="st0" d="M43.8,8.15c0-0.02,0-0.04,0-0.05l0,0c0-0.2-0.01-0.39-0.02-0.61
			c-0.01-0.15-0.02-0.3-0.03-0.45c-0.03-0.17-0.07-0.33-0.11-0.5c-0.2-0.86-0.56-1.68-1.08-2.39c-0.51-0.7-1.12-1.33-1.81-1.85
			c-0.66-0.56-1.38-1.02-2.16-1.39l-0.31-0.15c-0.91-0.36-1.87-0.57-2.84-0.62c-0.48-0.03-0.97-0.02-1.45,0.03
			c-0.43,0.03-0.86,0.05-1.29,0.06c-0.92,0-1.84-0.04-2.75-0.14V0.06l-1.19-0.06L28.39,0H28l-0.43,0.02l-0.5,0.03l-1.14,0.08l0,0
			H25.9l-0.09,0.02l-0.08,0.02l-0.07,0.03l-0.07,0.03l-0.06,0.03l-0.06,0.04l-0.06,0.04l-0.05,0.04l-0.05,0.05l-0.04,0.05l-0.08,0.1
			l-0.04,0.05l-0.03,0.05l-0.06,0.11L25.01,0.9l-0.03,0.11l-0.03,0.11l-0.02,0.11l-0.01,0.1l-0.01,0.17
			c-0.01,0.17-0.01,0.32-0.02,0.47l-0.03,0.43c-0.03,0.28-0.06,0.53-0.08,0.78l-0.19,1.45l0,0c-0.05,0.52-0.09,1.09-0.12,1.77
			c-0.05,1.26,0.05,3.84-0.04,5.09c-0.06,0.87-0.23,1.74-0.29,2.61c-0.01,0.11-0.03,0.24-0.04,0.35c-0.21,2.04-0.03,4.11-0.1,6.16
			c-0.05,1.57-0.23,2.72-0.36,3.91l0,0c0,0.03-0.01,0.07-0.01,0.11s-0.01,0.06-0.01,0.09l0,0c-0.02,0.2-0.04,0.41-0.05,0.63
			c-0.02,0.29-0.09,0.71-0.11,1.05c-0.02,0.56,0.13,1.76,0.58,2.1c0.48,0.36,0.8,0.6,1.36,0.47c0.24-0.06,0.8-0.7,0.96-0.92
			c0.21-0.44,0.27-0.93,0.18-1.41c-0.04-0.36-0.05-0.71-0.03-1.07c0.01-0.3,0.03-0.6,0.04-0.9l0,0c0.04-0.98,0.07-2.1,0.11-3.08
			c0.05-1.26,0.08-2.52,0.17-3.77c0.01-0.13,0.02-0.26,0.04-0.39c0.31,0.09,0.65,0.1,0.97,0.04c0.14-0.02,0.28-0.02,0.43-0.01
			c0.36,0.03,0.83,0.07,1.25,0.09v0.01c0.02,0,0.04,0,0.07,0c0.04,0,0.09,0.01,0.13,0.01v-0.01c0.46,0.01,0.92,0,1.38-0.04
			c0.78-0.11,1.56-0.25,2.33-0.42c0.03,0.04,0.03,0.09,0.07,0.12c0.12,0.14,0.21,0.3,0.28,0.47c0.06,0.14,0.11,0.28,0.18,0.42h-0.01
			c0.2,0.48,0.42,0.94,0.63,1.43c0.25,0.59,0.52,1.17,0.74,1.77c0.18,0.49,0.22,1.04,0.43,1.51c0.09,0.2,0.24,0.47,0.36,0.71
			c0.37,0.67,0.7,1.36,0.97,2.08c0.18,0.57,0.39,1.14,0.63,1.69h-0.01c0.05,0.13,0.19,0.44,0.25,0.57c0.07,0.17,0.1,0.41,0.17,0.57
			c0.12,0.27,0.16,0.47,0.56,0.62c0.58,0.16,1.19,0.05,1.69-0.28c0.22-0.15,0.39-0.35,0.51-0.59c0.04-0.07,0.07-0.15,0.09-0.22
			c0.08-0.25-0.09-0.44-0.2-0.63c-0.05-0.07-0.09-0.15-0.11-0.23c-0.05-0.19-0.13-0.49-0.19-0.73l0,0c0-0.02-0.02-0.04-0.02-0.06
			c-0.01-0.04-0.03-0.09-0.04-0.13h-0.01c-0.07-0.22-0.14-0.44-0.24-0.66c-0.25-0.59-0.95-1.72-1.16-2.32
			c-0.15-0.42-0.21-0.88-0.35-1.29c-0.02-0.06-0.03-0.11-0.05-0.17c-0.39-0.97-0.85-1.92-1.36-2.83c-0.25-0.62-0.45-1.26-0.59-1.91
			h0.01c-0.04-0.13-0.08-0.26-0.13-0.4c-0.02-0.06-0.04-0.14-0.06-0.22c0.45-0.1,0.89-0.22,1.33-0.36l0.31-0.1
			c1.91-0.7,3.51-2.05,4.53-3.8c0.74-1.14,1.16-2.47,1.2-3.83h0.01C43.81,8.25,43.8,8.2,43.8,8.15z M40.83,9.33
			c-0.08,0.31-0.17,0.62-0.28,0.92c-0.34,0.75-0.88,1.4-1.55,1.88c-0.64,0.37-1.31,0.68-2.01,0.93c-0.29,0.13-0.69,0.34-1.07,0.48
			c-1.08,0.45-2.22,0.76-3.39,0.9c-1.08,0.09-2.06,0.16-3,0.2l-0.78,0.02c-0.3,0-0.68-0.06-0.98-0.06
			c-0.22-0.03-0.44-0.01-0.65,0.03c0.01-0.42,0-0.94,0-1.42c0.04-1.51-0.05-2.92,0.1-4.51c0.14-1.4,0.2-2.67,0.25-3.91l0,0
			c0.01-0.47,0.03-0.95,0.04-1.42V3.32l0.01-0.06l0.02-0.05l0.02-0.04l0.03-0.04l0.04-0.03l0.04-0.03l0.04-0.03l0.05-0.02l0.05-0.02
			l0.06-0.02l0.06-0.01l0.06-0.01h1.4l0,0h0.21h0.4V2.95l1.97-0.03l1.58-0.02h0.79c0.1,0,0.21,0,0.31,0.01
			c0.1,0.01,0.22,0.02,0.33,0.04c0.73,0.15,1.45,0.37,2.14,0.65c0.34,0.1,0.68,0.23,1.01,0.37c0.93,0.35,1.71,1.01,2.19,1.88
			c0.3,0.74,0.48,1.52,0.52,2.31C40.86,8.51,40.83,9.04,40.83,9.33L40.83,9.33z"/>
		<path id="패스_16424" class="st0" d="M67.67,8.67c0-0.28-0.01-0.56-0.04-0.83c-0.02-0.14-0.03-0.3-0.04-0.45
			c-0.03-0.14-0.08-0.31-0.12-0.48c-0.22-0.86-0.61-1.66-1.14-2.37c-0.53-0.69-1.15-1.3-1.85-1.81c-0.67-0.54-1.41-0.99-2.2-1.34
			l-0.31-0.14c-0.91-0.34-1.88-0.53-2.86-0.55c-0.48-0.02-0.97,0-1.45,0.06c-0.43,0.04-0.86,0.07-1.28,0.09
			c-1.38,0.05-2.22-0.06-3.28-0.1l0,0l-0.66-0.02h-0.36l-0.4,0.01l-0.43,0.03l-0.5,0.04l-1.13,0.1v0.01h-0.04l-0.08,0.02l-0.08,0.02
			l-0.07,0.03l-0.07,0.03L49.2,1.05l-0.06,0.04l-0.05,0.04l-0.05,0.05l-0.05,0.05l-0.04,0.05l-0.08,0.1l-0.03,0.05L48.8,1.49
			L48.74,1.6L48.7,1.71l-0.03,0.11l-0.02,0.11l-0.02,0.11l-0.01,0.1l-0.01,0.17c0,0.17-0.01,0.33-0.01,0.47s-0.01,0.3-0.02,0.43
			l-0.06,0.78c-0.05,0.49-0.1,0.95-0.16,1.46h0.01c-0.04,0.52-0.08,1.09-0.08,1.77c-0.02,1.26,0.14,3.84,0.08,5.09
			c-0.04,0.87-0.18,1.75-0.23,2.62c-0.01,0.11-0.02,0.24-0.03,0.35c-0.16,2.05,0.06,4.11,0.04,6.16c-0.02,1.59-0.17,2.71-0.27,3.92
			l0,0c0,0.03,0,0.06-0.01,0.08s0,0.05-0.01,0.08l0,0c-0.02,0.22-0.03,0.43-0.04,0.67c-0.01,0.29-0.08,0.71-0.08,1.05
			c-0.01,0.56,0.17,1.76,0.63,2.08c0.49,0.35,0.82,0.59,1.37,0.44c0.24-0.06,0.78-0.72,0.94-0.95c0.2-0.44,0.25-0.94,0.15-1.41
			c-0.04-0.36-0.06-0.71-0.06-1.07c0.01-0.26,0.01-0.51,0.02-0.76l0,0v-0.03v-0.11l0,0c0.01-0.99,0.02-2.08,0.04-3.08
			c0.02-1.26,0.02-2.52,0.08-3.78c0.01-0.13,0.02-0.26,0.03-0.39c0.32,0.08,0.65,0.09,0.96,0.01c0.14-0.02,0.28-0.03,0.43-0.02
			c0.38,0.02,0.82,0.05,1.25,0.06l0,0c0.01,0,0.02,0,0.03,0h0.08v-0.01c0.49,0.01,0.98-0.02,1.46-0.07c0.77-0.13,1.54-0.29,2.3-0.47
			c0.03,0.04,0.03,0.08,0.07,0.12c0.12,0.14,0.22,0.3,0.29,0.47c0.06,0.14,0.13,0.28,0.19,0.42h0.01c0.22,0.47,0.44,0.93,0.66,1.42
			c0.27,0.58,0.55,1.16,0.78,1.76c0.19,0.49,0.24,1.03,0.47,1.5c0.09,0.2,0.25,0.46,0.38,0.7c0.38,0.66,0.72,1.35,1.01,2.05
			c0.2,0.6,0.44,1.18,0.7,1.75H62c0.06,0.13,0.17,0.37,0.23,0.5c0.08,0.17,0.11,0.4,0.19,0.56c0.13,0.27,0.17,0.47,0.58,0.6
			c0.58,0.14,1.19,0.03,1.68-0.32c0.21-0.16,0.39-0.36,0.5-0.6c0.03-0.07,0.06-0.15,0.08-0.22c0.07-0.25-0.1-0.44-0.21-0.62
			c-0.05-0.07-0.09-0.15-0.11-0.23c-0.06-0.2-0.14-0.49-0.22-0.74l0,0c0-0.01-0.01-0.02-0.01-0.03c-0.01-0.03-0.02-0.07-0.03-0.1
			h-0.01c-0.08-0.24-0.17-0.47-0.27-0.7c-0.27-0.58-0.99-1.69-1.22-2.29c-0.16-0.42-0.22-0.87-0.38-1.29
			c-0.02-0.06-0.04-0.11-0.05-0.17c-0.41-0.96-0.89-1.9-1.43-2.79c-0.26-0.62-0.48-1.25-0.64-1.9h0c-0.04-0.13-0.08-0.26-0.14-0.4
			c-0.03-0.07-0.05-0.15-0.06-0.22c0.45-0.12,0.89-0.24,1.33-0.39l0.3-0.11c1.89-0.74,3.46-2.12,4.44-3.9
			c0.64-1.12,1.02-2.36,1.09-3.65h0.01C67.67,8.81,67.67,8.75,67.67,8.67l0-0.02L67.67,8.67z M64.72,9.77
			c-0.09,0.3-0.14,0.63-0.25,0.93c-0.33,0.76-0.84,1.42-1.5,1.91c-0.63,0.38-1.3,0.71-1.99,0.98c-0.29,0.14-0.68,0.36-1.06,0.5
			c-1.07,0.48-2.21,0.81-3.37,0.98c-1.09,0.11-2.09,0.21-3.03,0.27l-0.74,0.04c-0.3,0.01-0.68-0.05-0.97-0.03
			c-0.22-0.02-0.43,0-0.65,0.05c0-0.42-0.02-0.94-0.03-1.41c0.01-1.51-0.12-2.92,0-4.51c0.1-1.4,0.14-2.67,0.16-3.92h-0.01
			c0-0.47,0.01-0.95,0.01-1.42V4.07l0.01-0.06l0.02-0.05l0.02-0.04l0.03-0.04l0.03-0.03l0.04-0.03l0.04-0.03l0.05-0.02l0.05-0.02
			l0.06-0.02l0.06-0.01l0.06-0.01h0.23l0,0l1.18-0.03l0,0l2.56-0.1l1.58-0.06L58.1,3.5c0.1-0.01,0.21-0.01,0.31,0
			c0.1,0,0.22,0.02,0.33,0.03c0.73,0.14,1.45,0.34,2.15,0.6c0.35,0.09,0.69,0.21,1.03,0.34c0.94,0.33,1.73,0.97,2.24,1.83
			c0.35,0.87,0.55,1.8,0.59,2.74C64.74,9.27,64.72,9.52,64.72,9.77L64.72,9.77z"/>
		<path id="패스_16425" class="st0" d="M108.21,16.58c0.91-0.26,1.76-0.7,2.51-1.28c0.8-0.65,1.45-1.45,1.92-2.37
			c0.6-1.14,0.9-2.42,0.87-3.71h-0.01c-0.01-0.24-0.02-0.49-0.04-0.76c-0.05-0.3-0.12-0.6-0.2-0.89c-0.09-0.36-0.22-0.7-0.39-1.03
			c-0.18-0.41-0.41-0.79-0.68-1.15c-0.26-0.36-0.54-0.7-0.84-1.01l-0.76-0.74c-0.57-0.56-1.2-1.05-1.88-1.47l-0.27-0.16
			c-0.81-0.44-1.68-0.74-2.58-0.89c-0.23-0.04-0.43-0.07-0.74-0.11c-0.14-0.02-0.28-0.03-0.43-0.02l-0.37,0.02
			c-0.4,0.03-0.8,0.05-1.21,0.05c-1.03-0.01-2.05-0.08-3.07-0.19l0,0l-0.69-0.04l-0.38-0.01h-0.41l-0.44,0.01L97.6,0.86l-1.17,0.07
			l0,0h-0.04l-0.09,0.02l-0.08,0.02l-0.08,0.03l-0.07,0.03L96,1.05l-0.06,0.04l-0.06,0.04l-0.05,0.04l-0.05,0.05l-0.05,0.05
			l-0.08,0.11l-0.04,0.05l-0.03,0.06L95.53,1.6l-0.04,0.12l-0.03,0.12l-0.02,0.11l-0.02,0.11l-0.01,0.1c0,0.06,0,0.12-0.01,0.17
			c0,0.17-0.01,0.34-0.01,0.49s-0.01,0.3-0.02,0.45c-0.02,0.29-0.04,0.55-0.06,0.8c-0.04,0.36-0.07,0.71-0.11,1.07l0,0
			c-0.01,0.14-0.03,0.28-0.04,0.43h0.01c-0.03,0.51-0.08,1.18-0.08,1.67c-0.01,1.19,0.14,3.63,0.09,4.81
			c-0.04,0.83-0.18,1.65-0.23,2.47c-0.01,0.11-0.02,0.22-0.03,0.33c-0.16,1.93,0.07,3.88,0.05,5.83c-0.02,1.57-0.17,2.5-0.27,3.7
			l0,0c-0.02,0.25-0.04,0.5-0.05,0.78s-0.08,0.67-0.08,1c-0.01,0.54,0.18,1.66,0.64,1.97c0.5,0.33,0.82,0.55,1.37,0.42
			c0.24-0.06,0.78-0.68,0.94-0.89c0.19-0.42,0.25-0.88,0.15-1.33c-0.05-0.34-0.06-0.67-0.06-1.01c0.01-0.29,0.01-0.57,0.02-0.85l0,0
			c0.01-0.97,0.02-1.91,0.03-2.91c0.01-1.19,0.02-2.38,0.07-3.57c0.01-0.14,0.02-0.27,0.03-0.41c0.28,0.07,0.56,0.07,0.84,0
			c0.13-0.02,0.27-0.03,0.4-0.02l1.16,0.07v-0.01c0.47,0.02,0.93,0.02,1.4,0c0.83-0.08,1.65-0.19,2.47-0.32
			c0.08,0.09,0.14,0.2,0.2,0.31c0.06,0.14,0.11,0.27,0.18,0.4l0,0c0.21,0.45,0.42,0.89,0.64,1.35c0.26,0.55,0.52,1.1,0.74,1.67
			c0.18,0.47,0.23,0.99,0.44,1.44c0.09,0.19,0.24,0.44,0.36,0.66c0.37,0.63,0.7,1.28,0.98,1.96c0.2,0.6,0.43,1.2,0.7,1.77l0,0
			c0.05,0.13,0.11,0.25,0.17,0.37c0.07,0.16,0.1,0.39,0.18,0.54c0.12,0.26,0.16,0.45,0.56,0.57c0.58,0.12,1.19,0,1.67-0.34
			c0.21-0.15,0.39-0.34,0.51-0.57c0.04-0.07,0.07-0.15,0.09-0.22c0.07-0.24-0.09-0.42-0.2-0.6c-0.05-0.07-0.09-0.14-0.11-0.22
			c-0.06-0.22-0.12-0.45-0.2-0.69l0,0c-0.08-0.27-0.19-0.54-0.31-0.8c-0.26-0.55-0.95-1.61-1.17-2.18c-0.15-0.4-0.21-0.83-0.36-1.23
			c-0.02-0.05-0.03-0.11-0.05-0.16c-0.4-0.92-0.85-1.81-1.37-2.66c-0.25-0.59-0.45-1.2-0.6-1.82l0,0l-0.01-0.03
			c0.28-0.05,0.57-0.11,0.85-0.17L108.21,16.58z M106.3,14.03c-1.04,0.35-2.13,0.56-3.23,0.62c-1.06,0.02-2.01,0.03-3,0.07v0.01
			l-0.67,0.03c-0.28,0.01-0.63-0.05-0.92-0.03c-0.18-0.01-0.36,0-0.53,0.04c-0.01-0.35-0.02-0.75-0.03-1.12
			c0.01-1.42-0.12-2.76-0.01-4.26c0.09-1.22,0.13-2.58,0.14-3.71l0,0c0-0.49,0.01-0.97,0.01-1.47V4.14l0.01-0.06l0.02-0.05
			l0.02-0.05l0.03-0.04l0.03-0.03l0.04-0.03l0.04-0.03l0.05-0.02l0.05-0.02l0.06-0.02l0.06-0.01h0.03l1.48,0.01l0,0l2.42-0.03
			l1.48-0.02h0.66c0.17,0.02,0.34,0.05,0.51,0.1c0.66,0.24,1.3,0.52,1.92,0.85c0.25,0.13,0.63,0.27,0.93,0.45
			c0.86,0.43,1.57,1.1,2.05,1.94c0.35,0.74,0.56,1.55,0.62,2.37l0,0c0.04,0.3,0.04,0.61,0.01,0.92c-0.01,0.29-0.07,0.58-0.16,0.86
			c-0.24,0.68-0.69,1.27-1.28,1.67c-0.28,0.17-0.57,0.31-0.88,0.41c-0.34,0.09-0.63,0.22-0.97,0.33
			C107.04,13.76,106.67,13.93,106.3,14.03L106.3,14.03z"/>
		<path id="패스_16426" class="st0" d="M19.27,27.64c-0.07-0.26-0.2-0.51-0.39-0.7c-0.06-0.06-0.13-0.12-0.2-0.17
			c-0.23-0.12-0.49-0.13-0.74-0.05c-0.1,0.02-0.19,0.02-0.29,0.01c-0.28-0.03-0.55-0.07-0.84-0.1l0,0
			c-0.34-0.03-0.67-0.05-1.01-0.04c-0.72,0.02-2.19,0.22-2.91,0.2c-0.5-0.02-1-0.14-1.5-0.16l-0.2-0.02c-1.18,0-2.35,0.06-3.52,0.19
			c-0.75-0.01-1.5-0.06-2.24-0.17l0,0l-0.67-0.03l-0.37-0.01H3.98H3.75H3.73l-0.05-0.02l-0.04-0.02l-0.04-0.03l-0.03-0.03
			l-0.03-0.03l-0.02-0.04l-0.02-0.04L3.5,26.33l-0.01-0.04v-0.14c0.02-0.44,0.06-1.14,0.08-1.6H3.56c0.01-0.43,0.01-0.89-0.01-1.43
			c-0.05-1.2-0.34-3.66-0.35-4.86c0-0.52,0.02-1.05,0.05-1.57c0.07-0.02,0.14-0.03,0.21-0.03h0.43l0,0
			c0.49-0.01,0.97-0.03,1.46-0.04c0.6-0.02,1.2-0.04,1.8-0.01c0.49,0.02,0.98,0.19,1.47,0.17c0.21-0.01,0.49-0.04,0.74-0.07
			c0.71-0.09,1.43-0.13,2.14-0.11c0.62,0.06,1.24,0.08,1.87,0.07l0,0c0.14,0,0.27,0,0.4-0.01c0.17,0,0.39,0.06,0.56,0.06
			c0.28,0.05,0.56-0.06,0.73-0.29c0.34-0.48,0.47-1.09,0.36-1.67c-0.05-0.26-0.16-0.5-0.33-0.7c-0.05-0.06-0.11-0.12-0.17-0.17
			c-0.19-0.16-0.41-0.09-0.61-0.06c-0.08,0.02-0.16,0.02-0.24,0.01c-0.23-0.03-0.45-0.07-0.7-0.1l0,0
			c-0.28-0.03-0.56-0.04-0.84-0.04c-0.6,0.02-1.82,0.22-2.42,0.2c-0.42-0.02-0.83-0.14-1.25-0.16L8.68,13.7
			c-0.98,0-1.96,0.06-2.93,0.19c-0.62-0.01-1.25-0.06-1.86-0.18l0,0c-0.13-0.02-0.25-0.03-0.39-0.03c-0.07,0-0.16-0.02-0.25-0.03
			c-0.09-1.39-0.27-2.77-0.33-4.16C2.85,7.92,2.95,6.96,2.98,5.74l0,0c0-0.22,0.01-0.46,0.01-0.71S2.98,4.49,2.97,4.2h0.01
			L2.97,4.12V3.99l0.01-0.06L3,3.88l0.01-0.02l0.01-0.02L3.05,3.8l0.03-0.03l0.04-0.03l0.04-0.02L3.2,3.71L3.25,3.7L3.3,3.69h0.15
			l1.4,0.11v0.01C5.2,3.85,5.55,3.86,5.9,3.85c0.75-0.02,2.28-0.22,3.03-0.2c0.52,0.02,1.04,0.14,1.56,0.16l0.21,0.02
			c1.23,0,2.45-0.06,3.67-0.19c0.78,0,1.56,0.06,2.34,0.17l0,0c0.15,0.02,0.32,0.03,0.49,0.03s0.43,0.06,0.63,0.06
			c0.5,0,0.96-0.26,1.23-0.68c0.22-0.42,0.31-0.91,0.25-1.38c-0.14-0.34-0.33-0.65-0.58-0.91c-0.24-0.18-0.56-0.22-0.84-0.11
			c-0.21,0.05-0.42,0.08-0.64,0.08h-0.54C16.1,0.9,15.5,0.92,14.87,0.94c-0.75,0.02-1.5,0.04-2.25,0.01
			c-0.61-0.02-1.22-0.19-1.83-0.17c-0.26,0.01-0.61,0.04-0.93,0.07C8.97,0.94,8.07,0.98,7.18,0.96C6.34,0.89,5.59,0.88,4.85,0.9
			V0.89L2.17,0.93L1.9,0.94L1.62,0.96L1.35,0.99L1.08,1.03L0.95,1.06L0.83,1.09L0.72,1.12l-0.1,0.04L0.53,1.21L0.44,1.26L0.41,1.28
			L0.37,1.31L0.36,1.32L0.35,1.34L0.32,1.37L0.28,1.44L0.24,1.5L0.21,1.57L0.18,1.63L0.16,1.7L0.14,1.76L0.13,1.79L0.1,1.91
			L0.07,2.02l-0.02,0.1L0.03,2.3L0.02,2.43c0,0.31-0.01,0.6-0.01,0.9s0,0.58,0,0.86C0.03,4.75,0.04,5.3,0.06,5.84h0.01
			C0.1,6.82,0.16,7.78,0.2,8.78c0.05,1.2,0.11,2.41,0.12,3.61c0.01,0.98-0.13,1.97-0.08,2.95c0.02,0.41,0.07,0.98,0.11,1.49
			c0.07,1.44,0.27,2.78,0.25,4.31c-0.02,1.22,0,2.32,0.04,3.4l0,0l0.01,0.2c0,0.05,0,0.1,0,0.16l0,0c0.04,0.8,0.08,1.78,0.11,2.52
			c0,0.08,0.01,0.17,0.02,0.25l0.03,0.26l0.04,0.26c0.02,0.09,0.03,0.17,0.05,0.25l0.03,0.11l0.03,0.11L1,28.77l0.04,0.1l0.05,0.09
			l0.05,0.08l0.03,0.03l0.03,0.03l0.06,0.05l0.06,0.04l0.06,0.04l0.06,0.03l0.06,0.03l0.06,0.03l0.06,0.02l0.06,0.02l0.03,0.01
			l0.05,0.02l0.1,0.03l0.09,0.02l0.16,0.03l0.12,0.01l0.84,0.04l0.81,0.02h1.55v0.01c0.58-0.01,1.16-0.03,1.76-0.04
			c0.72-0.02,1.44-0.04,2.16-0.01c0.59,0.02,1.17,0.19,1.76,0.17c0.25-0.01,0.59-0.04,0.89-0.07c0.85-0.09,1.71-0.13,2.57-0.11
			c0.75,0.06,1.49,0.08,2.24,0.07l0,0l0.48-0.01c0.21,0,0.46,0.06,0.67,0.06c0.32,0.05,0.65-0.06,0.88-0.29
			C19.24,28.84,19.4,28.23,19.27,27.64z"/>
		<path id="패스_16427" class="st0" d="M90.46,10.94c-0.19-0.79-0.44-1.57-0.74-2.34c-0.14-0.29-0.34-0.69-0.51-1.04
			c-0.66-1.33-1.75-2.4-3.1-3.02c-1.03-0.52-2.15-0.83-3.29-0.9l0,0c-0.24-0.02-0.47-0.03-0.7-0.04c-0.29-0.01-0.66-0.09-0.95-0.08
			c-0.27-0.04-0.55,0-0.81,0.1c-0.02-0.02-0.05-0.05-0.07-0.06c-0.39-0.17-0.83-0.17-1.21,0c-0.3,0.1-0.59,0.18-0.89,0.25
			C78,3.86,77.7,3.94,77.45,4.01l0,0c-0.02,0.01-0.04,0.02-0.07,0.02l-0.17,0.05V4.1c-0.75,0.24-1.47,0.55-2.16,0.93
			c-0.95,0.52-1.84,1.16-2.63,1.9c-0.72,0.61-1.31,1.35-1.75,2.18c-0.18,0.42-0.33,0.85-0.44,1.29c-0.29,1.21-0.48,2.43-0.59,3.67
			c-0.15,1.04-0.18,2.09-0.11,3.14l0,0l0,0l0,0c0.06,0.82,0.17,1.64,0.32,2.45c0.18,1.04,0.48,2.07,0.87,3.05
			c0.31,0.94,0.86,1.79,1.58,2.47c0.39,0.31,0.81,0.58,1.27,0.79c1.18,0.49,2.4,0.85,3.66,1.07c1.03,0.26,2.1,0.39,3.16,0.39l0,0
			c0.85,0.01,1.7-0.06,2.54-0.19c1.1-0.17,2.16-0.52,3.15-1.02c0.89-0.39,1.68-0.97,2.31-1.7c0.29-0.39,0.54-0.81,0.74-1.25
			c0.48-1.17,0.85-2.38,1.09-3.62c0.27-0.99,0.46-2,0.57-3.02c0.09-0.82,0.13-1.65,0.12-2.48C90.94,13.07,90.78,11.98,90.46,10.94z
			 M87.91,16.28c-0.07,0.36-0.15,0.76-0.22,1.25c-0.09,1.19-0.3,2.37-0.62,3.51c-0.22,0.49-0.51,0.95-0.86,1.35l-0.13,0.15
			c-0.38,0.43-0.81,0.81-1.27,1.15c-0.52,0.37-1.1,0.63-1.72,0.78c-0.87,0.16-1.76,0.17-2.64,0.04l0,0l-1.21-0.11
			c-0.43-0.03-1.09-0.06-1.75-0.15c-0.58-0.06-1.14-0.18-1.69-0.37c-0.48-0.21-0.92-0.49-1.3-0.84l-0.13-0.13
			c-0.39-0.38-0.74-0.81-1.01-1.28c-0.34-0.58-0.58-1.21-0.73-1.86c-0.18-0.9-0.24-1.82-0.18-2.74l0,0c0-0.37,0-0.77,0-1.24
			c-0.08-1.18-0.03-2.36,0.16-3.52c0.17-0.55,0.39-1.07,0.66-1.58l0.11-0.19c0.28-0.53,0.61-1.04,0.98-1.52
			c0.41-0.51,0.9-0.95,1.45-1.3c0.83-0.46,1.75-0.78,2.69-0.93l0.27-0.05c0.19-0.03,0.46-0.03,0.68-0.07
			C79.73,6.6,80,6.5,80.24,6.34c0.01,0.01,0.03,0.02,0.04,0.02c0.29,0.1,0.61,0.12,0.92,0.04c0.12-0.02,0.24-0.02,0.35-0.01
			c0.34,0.04,0.65,0.1,0.99,0.15l0,0l1.13,0.21c0.5,0.08,0.99,0.22,1.46,0.39c0.42,0.16,0.8,0.43,1.09,0.78
			c0.24,0.48,0.43,0.98,0.56,1.5l0.09,0.26c0.54,1.52,1.31,2.56,1.35,3.88C88.24,14.48,88.14,15.4,87.91,16.28L87.91,16.28z"/>
	</g>
	<g id="그룹_20373" transform="translate(101 257.484)">
		<g id="그룹_20367">
			<path id="패스_16480" class="st1" d="M10.41,2.81L1.71,17.89c-0.84,1.46-0.34,3.33,1.12,4.18c0.46,0.27,0.99,0.41,1.53,0.41
				h17.41c1.69,0,3.06-1.37,3.06-3.06c0,0,0,0,0,0c0-0.54-0.14-1.07-0.41-1.53L15.71,2.81C14.87,1.35,13,0.85,11.54,1.69
				c0,0,0,0,0,0C11.07,1.96,10.68,2.35,10.41,2.81z"/>
			<path id="패스_16429" class="st0" d="M26.07,18.84c-0.05-0.32-0.13-0.63-0.24-0.93c-0.05-0.15-0.12-0.3-0.19-0.44l-0.1-0.21
				l-0.08-0.15c-0.35-0.65-0.58-1.36-0.96-1.99c-0.16-0.26-0.41-0.62-0.61-0.93c-0.56-0.92-1.2-1.72-1.71-2.75
				c-0.45-0.9-0.9-1.7-1.35-2.47l0,0l-1.14-1.89c-0.46-0.78-0.94-1.55-1.37-2.34c-0.35-0.65-0.58-1.36-0.96-1.99
				c-0.22-0.36-0.46-0.71-0.72-1.05c-1-1.21-2.55-1.84-4.11-1.66c-1.36,0.15-2.57,0.93-3.27,2.11l0,0L9.22,2.21v0.01l0,0
				C8.87,2.83,8.54,3.44,8.19,4.08C7.75,4.87,7.32,5.66,6.84,6.43C6.46,7.06,5.95,7.62,5.6,8.26c-0.15,0.27-0.34,0.66-0.5,1
				c-0.52,0.95-0.89,1.9-1.52,2.85c-0.53,0.8-0.97,1.54-1.39,2.27l0,0l-0.04,0.07l-0.04,0.06l0,0l-1.08,1.94
				c-0.26,0.44-0.5,0.9-0.71,1.36c-0.23,0.6-0.34,1.25-0.3,1.89c0,1.08,0.41,2.11,1.15,2.9c0.4,0.37,0.87,0.67,1.38,0.87
				c0.36,0.15,0.74,0.25,1.13,0.29c0.19,0.02,0.38,0.02,0.56,0.02c0.21,0,0.28-0.02,0.43-0.02c0.54-0.04,1.09-0.04,1.64-0.02
				c1.01,0.06,1.92,0.07,2.82,0.06l0,0l2.21-0.04c0.9-0.01,1.8-0.04,2.71-0.01c0.74,0.02,1.47,0.18,2.21,0.16
				c0.31-0.01,0.74-0.04,1.11-0.07c1.08-0.03,2.09-0.18,3.23-0.11l0.74,0.04l0.36,0.01c0.11,0.01,0.32-0.01,0.47-0.02
				c0.66-0.06,1.29-0.27,1.86-0.6l0.01,0.01c0.03-0.02,0.05-0.04,0.08-0.06s0.07-0.03,0.1-0.05l-0.01-0.01
				c0.82-0.56,1.43-1.38,1.73-2.33C26.13,20.14,26.17,19.48,26.07,18.84z M21.97,21.03c-0.07,0-0.14,0.01-0.21,0.03l-0.45,0.03
				l-1,0.07c-0.69,0.05-1.37,0.09-1.82,0.08c-0.63-0.02-1.26-0.13-1.88-0.15l-0.25-0.02c-1.47-0.1-2.95,0.16-4.42,0.18
				c-0.94,0-1.88-0.06-2.82-0.17l0,0c-0.37-0.03-0.78-0.05-1.26-0.04c-0.45,0.01-1.14,0.06-1.83,0.11l-1,0.06l-0.45,0.02
				c-0.11,0.01-0.21,0-0.32-0.01c-0.35-0.06-0.68-0.23-0.93-0.49l-0.09-0.11c-0.27-0.3-0.46-0.65-0.56-1.04
				c-0.05-0.2-0.06-0.41-0.04-0.61c0.02-0.11,0.04-0.21,0.08-0.31c0.02-0.05,0.03-0.09,0.07-0.17l0.13-0.24
				c0.48-0.81,1.13-1.67,1.62-2.47l0,0c0.19-0.28,0.39-0.59,0.6-0.98c0.44-0.79,1.19-2.49,1.66-3.26c0.33-0.53,0.74-1.02,1.07-1.55
				l0.14-0.21c0.82-1.22,1.34-2.63,2.05-3.92c0.46-0.79,0.96-1.55,1.5-2.28c0.16-0.2,0.34-0.39,0.53-0.56
				c0.26-0.21,0.57-0.36,0.9-0.41c0.35-0.07,0.72,0,1.03,0.2c0.15,0.11,0.27,0.25,0.36,0.41l0.31,0.64l0.11,0.22
				c0.65,1.33,1.61,2.48,2.37,3.74c0.47,0.82,0.89,1.66,1.26,2.52l0,0c0.18,0.39,0.38,0.76,0.6,1.12c0.46,0.78,1.56,2.27,1.99,3.07
				c0.3,0.55,0.52,1.15,0.81,1.7l0.11,0.22c0.33,0.66,0.72,1.29,1.14,1.89l0.24,0.36c0.06,0.09,0.11,0.18,0.15,0.28
				c0.08,0.2,0.11,0.42,0.09,0.63c-0.07,0.52-0.4,0.97-0.88,1.18C22.47,20.89,22.22,20.97,21.97,21.03L21.97,21.03z"/>
		</g>
		<path id="패스_16430" class="st0" d="M14.38,10.7c0.01-0.03,0.01-0.07,0.02-0.1c0-0.57-0.05-1.14-0.17-1.7
			c0.03-0.36,0.07-0.73,0.15-1.08l0,0V7.8l0.01-0.06l0,0c0.01-0.05,0.01-0.1,0.02-0.14c0.02-0.09,0.04-0.19,0.05-0.29
			c-0.06-0.29-0.3-0.52-0.59-0.57c-0.39-0.11-0.8-0.14-1.2-0.11c-0.27,0.06-0.54,0.15-0.79,0.27c-0.2,0.1-0.16,0.27-0.1,0.39
			c0.05,0.09,0.07,0.19,0.07,0.29v0.25l0,0c0.01,0.27,0.03,0.59,0.04,0.85c0.02,0.35,0.03,0.69,0.01,1.04
			c-0.07,0.28-0.12,0.56-0.15,0.85c0.01,0.12,0.04,0.28,0.06,0.43c0.08,0.41,0.11,0.82,0.1,1.24c-0.05,0.36-0.07,0.72-0.06,1.08l0,0
			c0,0.08,0,0.16,0.01,0.23c0,0.1-0.05,0.22-0.05,0.32c0.01,0.16-0.03,0.27,0.25,0.42c0.45,0.2,0.95,0.27,1.45,0.21
			c0.21-0.03,0.41-0.09,0.6-0.19c0.05-0.03,0.1-0.06,0.15-0.1c0.14-0.1,0.08-0.24,0.05-0.35c-0.01-0.05-0.02-0.09-0.01-0.14
			c0.03-0.13,0.06-0.26,0.08-0.41l0,0c0.03-0.16,0.04-0.32,0.03-0.49c-0.01-0.35-0.2-1.05-0.18-1.4
			C14.26,11.18,14.36,10.94,14.38,10.7z"/>
		<path id="패스_16431" class="st0" d="M15.12,17.23L15.12,17.23c0.03-0.38-0.07-0.77-0.28-1.09c-0.31-0.45-0.79-0.75-1.34-0.82
			c-0.51-0.06-1.03,0.07-1.45,0.35c-0.48,0.27-0.82,0.72-0.94,1.25c-0.02,0.07-0.03,0.15-0.04,0.22c-0.06,0.68,0.26,1.33,0.84,1.68
			c0.54,0.33,1.21,0.39,1.8,0.16c0.39-0.14,0.74-0.4,1-0.73C14.94,17.97,15.08,17.61,15.12,17.23L15.12,17.23z"/>
	</g>
	<g id="그룹_20298" transform="translate(0 -9)">
		<path id="패스_16490" class="st2" d="M221.93,231.56c0,0-4.02-17.2-15.44-28.97c-5.83-6.01-26.6-6.87-36.43-1.92
			c-3.28,1.72-5.95,4.41-7.65,7.7c-7.9,17.1-6.61,23.19-6.61,23.19"/>
		<path id="패스_16422" class="st3" d="M222.85,228.77c-0.15-0.32-0.29-0.66-0.4-1l-0.28-0.86l0,0c-0.34-0.97-0.68-1.91-1.07-2.89
			c-0.45-1.18-0.96-2.33-1.42-3.5c-0.39-0.95-0.63-1.97-1.1-2.88c-0.2-0.39-0.49-0.91-0.74-1.37c-0.73-1.33-1.52-2.5-2.26-3.91
			c-0.53-1.02-1.12-2.01-1.75-2.97l0.01-0.01c-0.14-0.23-0.29-0.45-0.46-0.66l0,0c-0.54-0.76-1.09-1.49-1.66-2.27
			c-0.8-0.99-1.59-1.98-2.41-2.95c-0.34-0.39-0.65-0.81-0.97-1.23c-0.31-0.45-0.67-0.86-1.09-1.21c-0.45-0.39-0.93-0.74-1.45-1.04
			c-0.68-0.42-1.41-0.78-2.16-1.07c-0.73-0.29-1.46-0.6-2.23-0.87c-1.25-0.49-2.55-0.88-3.87-1.14v-0.01
			c-1.03-0.16-2.04-0.39-3.1-0.48l-1.9-0.21c-0.63-0.04-1.27-0.09-1.9-0.15c-1.03-0.15-2.06-0.25-3.09-0.3
			c-0.44-0.01-1.04,0.05-1.57,0.09c-1.52,0.04-2.93,0.33-4.53,0.37c-1.33,0.07-2.64,0.24-3.95,0.5v0.01
			c-1.02,0.17-2.02,0.45-3.06,0.73c-0.63,0.14-1.24,0.38-1.85,0.59c-0.63,0.19-1.24,0.42-1.84,0.68c-0.5,0.21-1.02,0.36-1.53,0.57
			c-0.52,0.21-1.01,0.47-1.48,0.77c-0.46,0.32-0.9,0.66-1.32,1.03c-1.19,1.06-2.29,2.21-3.3,3.44c-0.77,0.86-1.41,1.81-1.93,2.84
			l-0.01,0.01c-0.19,0.35-0.35,0.71-0.49,1.08c-0.34,0.8-0.69,1.61-1.05,2.44l-1.41,3.48c-0.39,0.95-0.94,1.83-1.24,2.81
			c-0.14,0.41-0.3,0.99-0.44,1.49c-0.44,1.45-0.69,2.85-1.17,4.38c-0.4,1.27-0.69,2.58-0.88,3.9l0,0c-0.05,0.29-0.08,0.58-0.11,0.87
			c-0.04,0.37-0.17,0.83-0.18,1.22c-0.11,0.57-0.01,1.16,0.26,1.67c0.19,0.33,0.49,0.58,0.85,0.72c0.33,0.1,0.68,0.07,0.98-0.1
			c0.28-0.15,0.52-0.38,0.7-0.65c0.07-0.1,0.12-0.2,0.18-0.3c0.13-0.37,0.16-0.76,0.11-1.15c-0.01-0.15,0-0.31,0.02-0.46
			c0.09-0.45,0.17-0.87,0.28-1.34l0,0l0.34-1.62c0.24-1.6,0.58-3.19,1.02-4.74c0.27-0.8,0.64-1.56,0.95-2.34l0.13-0.31
			c0.76-1.82,1.22-3.78,1.97-5.63c0.48-1.11,1.02-2.2,1.61-3.25c0.15-0.24,0.32-0.59,0.35-0.65c0.15-0.27,0.29-0.53,0.49-0.87
			c0.73-1.34,1.66-2.57,2.75-3.64c0.61-0.49,1.27-0.94,1.95-1.34l0.27-0.16c0.78-0.46,1.56-0.89,2.41-1.31
			c0.84-0.45,1.72-0.82,2.62-1.12c1.19-0.34,2.41-0.56,3.64-0.66v0c0.5-0.04,1.02-0.15,1.66-0.23c0.59-0.07,1.48-0.27,2.39-0.41
			c0.91-0.12,1.82-0.24,2.42-0.26c0.84,0,1.68,0.11,2.51,0.11l0.33,0.03c1.95,0.15,3.93-0.06,5.88,0.16
			c1.23,0.15,2.45,0.41,3.64,0.77V200c0.48,0.12,0.98,0.29,1.6,0.43c0.58,0.11,1.43,0.34,2.29,0.57c0.74,0.21,1.47,0.48,2.17,0.81
			c0.33,0.2,0.64,0.44,0.94,0.66l0.46,0.34c0.13,0.13,0.25,0.26,0.38,0.37l0.2,0.2c0.15,0.15,0.3,0.26,0.46,0.43l0.49,0.54
			c0.33,0.35,0.68,0.7,1.03,1.03c0.7,0.68,1.37,1.41,1.99,2.17c0.7,0.92,1.33,1.89,1.89,2.9c0.12,0.23,0.25,0.46,0.4,0.67l0,0
			c0.18,0.32,0.38,0.65,0.63,1.03c0.34,0.49,0.86,1.25,1.36,2.03c0.47,0.67,0.89,1.37,1.26,2.1c0.38,0.75,0.66,1.55,0.98,2.33
			l0.13,0.31c0.76,1.82,1.78,3.53,2.54,5.36c0.45,1.18,0.82,2.39,1.1,3.62l0,0l0.21,0.76c0.07,0.27,0.14,0.67,0.24,0.99
			c0.17,0.52,0.69,1.54,1.24,1.7c0.48,0.24,1.04,0.25,1.53,0.03c0.32-0.34,0.55-0.75,0.7-1.19
			C223.2,229.7,223.1,229.2,222.85,228.77z"/>
		<path id="패스_16428" class="st3" d="M315.48,231.04c-0.22-0.38-0.51-0.71-0.85-0.98c-0.38-0.2-0.83-0.24-1.24-0.12
			c-0.31,0.06-0.63,0.09-0.94,0.09h-0.79l0,0c-0.86,0.01-1.85,0.03-2.71,0.05c-1.11,0.02-2.22,0.04-3.32,0.01
			c-0.9-0.03-1.81-0.2-2.7-0.18c-0.38,0.01-0.9,0.05-1.37,0.08c-1.33,0.03-2.56,0.2-3.96,0.12c-1.14-0.07-2.17-0.08-3.18-0.07l0,0
			h-0.19h-0.09l0,0c-0.86,0.01-1.88,0.03-2.72,0.04c-1.11,0.02-2.22,0.04-3.32,0.01c-0.9-0.03-1.81-0.2-2.7-0.18
			c-0.38,0.01-0.91,0.05-1.37,0.08c-1.33,0.03-2.56,0.2-3.96,0.12c-1.14-0.07-2.17-0.08-3.19-0.07l0,0h-0.18h-0.08l0,0
			c-0.86,0.01-1.88,0.03-2.72,0.04c-1.11,0.02-2.22,0.04-3.32,0.01c-0.9-0.03-1.81-0.2-2.7-0.18c-0.38,0.01-0.9,0.05-1.37,0.08
			c-1.33,0.03-2.56,0.2-3.96,0.12c-1.24-0.07-2.35-0.08-3.45-0.07l0,0c-0.9,0.01-1.78,0.03-2.71,0.04
			c-1.11,0.02-2.22,0.04-3.32,0.01c-0.9-0.03-1.8-0.2-2.7-0.18c-0.38,0.01-0.91,0.05-1.37,0.08c-1.33,0.03-2.56,0.2-3.96,0.12
			c-1.16-0.07-2.2-0.08-3.23-0.07l0,0h-0.16h-0.07c-0.86,0.01-1.87,0.03-2.72,0.04c-1.11,0.02-2.22,0.04-3.32,0.01
			c-0.9-0.03-1.8-0.2-2.7-0.18c-0.38,0.01-0.9,0.05-1.37,0.08c-1.33,0.03-2.56,0.2-3.96,0.12c-1.11-0.07-2.12-0.08-3.11-0.07l0,0
			h-0.22h-0.12l0,0c-0.85,0.01-1.9,0.03-2.72,0.04c-1.11,0.02-2.22,0.04-3.32,0.01c-0.9-0.03-1.81-0.2-2.7-0.18
			c-0.38,0.01-0.9,0.05-1.37,0.08c-1.33,0.03-2.56,0.2-3.96,0.12c-1.24-0.07-2.35-0.08-3.45-0.07l0,0c-0.9,0.01-1.79,0.03-2.71,0.04
			c-1.11,0.02-2.22,0.04-3.32,0.01c-0.9-0.03-1.81-0.2-2.7-0.18c-0.38,0.01-0.9,0.05-1.37,0.08c-1.33,0.03-2.56,0.2-3.96,0.12
			c-1.13-0.07-2.15-0.08-3.15-0.07l0,0h-0.2h-0.1l0,0c-0.86,0.01-1.89,0.03-2.72,0.04c-1.11,0.02-2.22,0.04-3.32,0.01
			c-0.9-0.03-1.8-0.2-2.7-0.18c-0.38,0.01-0.91,0.05-1.37,0.08c-1.33,0.03-2.56,0.2-3.96,0.12c-1.24-0.07-2.35-0.08-3.45-0.07l0,0
			c-0.9,0.01-1.79,0.03-2.71,0.04c-1.11,0.02-2.22,0.04-3.32,0.01c-0.9-0.03-1.81-0.2-2.7-0.18c-0.38,0.01-0.9,0.05-1.37,0.08
			c-1.33,0.03-2.56,0.2-3.96,0.12c-1.16-0.07-2.2-0.08-3.23-0.07l0,0h-0.16h-0.07c-0.86,0.01-1.86,0.03-2.72,0.04
			c-1.11,0.02-2.22,0.04-3.32,0.01c-0.9-0.03-1.81-0.2-2.7-0.18c-0.38,0.01-0.91,0.05-1.37,0.08c-1.33,0.03-2.56,0.2-3.96,0.12
			c-1.13-0.07-2.15-0.08-3.16-0.07l0,0h-0.2h-0.1l0,0c-0.86,0.01-1.89,0.03-2.72,0.04c-1.11,0.02-2.22,0.04-3.32,0.01
			c-0.9-0.03-1.8-0.2-2.7-0.18c-0.38,0.01-0.9,0.05-1.37,0.08c-1.33,0.03-2.56,0.2-3.96,0.12c-1.13-0.07-2.16-0.08-3.17-0.07l0,0
			h-0.19h-0.09l0,0c-0.85,0.01-1.88,0.03-2.72,0.04c-1.11,0.02-2.22,0.04-3.32,0.01c-0.9-0.03-1.81-0.2-2.7-0.18
			c-0.38,0.01-0.9,0.05-1.37,0.08c-1.33,0.03-2.56,0.2-3.96,0.12c-1.1-0.07-2.09-0.08-3.07-0.07l0,0h-0.24h-0.14l0,0
			c-0.86,0.01-1.91,0.03-2.72,0.04c-1.11,0.02-2.22,0.04-3.32,0.01c-0.9-0.03-1.8-0.2-2.7-0.18c-0.38,0.01-0.9,0.05-1.37,0.08
			c-1.33,0.03-2.56,0.2-3.96,0.12c-1.12-0.07-2.14-0.08-3.14-0.07l0,0H84h-0.11l0,0c-0.85,0.01-1.89,0.03-2.72,0.04
			c-1.11,0.02-2.22,0.04-3.32,0.01c-0.9-0.03-1.81-0.2-2.7-0.18c-0.38,0.01-0.91,0.05-1.37,0.08c-1.33,0.03-2.56,0.2-3.96,0.12
			c-1.15-0.07-2.19-0.08-3.21-0.07l0,0h-0.16h-0.07c-0.86,0.01-1.87,0.03-2.72,0.04c-1.11,0.02-2.22,0.04-3.32,0.01
			c-0.9-0.03-1.81-0.2-2.7-0.18c-0.38,0.01-0.9,0.05-1.37,0.08c-1.33,0.03-2.56,0.2-3.96,0.12c-0.99-0.06-1.9-0.07-2.79-0.07v-0.01
			h-0.55h-0.11l0,0l-0.75,0.01c-0.32,0.01-0.71-0.07-1.03-0.06c-0.47-0.06-0.95,0.05-1.36,0.31c-0.58,0.39-0.85,1.11-0.66,1.78
			c0.12,0.3,0.33,0.56,0.61,0.74c0.1,0.07,0.2,0.13,0.3,0.18c0.37,0.12,0.76,0.14,1.13,0.06c0.15-0.02,0.3-0.02,0.45-0.01
			c0.28,0.02,0.82,0.05,1.3,0.07v0.03c0.46,0.03,0.96,0.05,1.56,0.04c1.11-0.02,3.37-0.25,4.48-0.22c0.77,0.02,1.54,0.15,2.3,0.17
			l0.31,0.02c1.8,0.12,3.61-0.18,5.42-0.21c1.35-0.02,2.42,0.11,3.46,0.18l0,0l0.15,0.01l0.09,0.01l0,0
			c0.4,0.02,0.82,0.04,1.32,0.03c1.11-0.02,3.37-0.25,4.48-0.22c0.77,0.02,1.54,0.15,2.3,0.17l0.31,0.02
			c1.8,0.12,3.61-0.18,5.42-0.21c1.37-0.02,2.41,0.11,3.46,0.18l0,0c0.04,0,0.08,0,0.12,0.01l0.08,0.01l0,0
			c0.41,0.02,0.84,0.04,1.36,0.03c1.11-0.02,3.37-0.25,4.48-0.22c0.77,0.02,1.54,0.15,2.3,0.17l0.31,0.02
			c1.8,0.12,3.61-0.18,5.42-0.21c1.36-0.02,2.41,0.11,3.46,0.18l0,0l0.15,0.01l0.08,0.01l0,0c0.4,0.02,0.83,0.04,1.33,0.03
			c1.11-0.02,3.37-0.25,4.48-0.22c0.77,0.02,1.54,0.15,2.3,0.17l0.31,0.02c1.8,0.12,3.61-0.18,5.42-0.21
			c1.37-0.02,2.41,0.11,3.46,0.18l0,0c0.04,0,0.08,0,0.12,0.01l0.08,0.01l0,0c0.41,0.02,0.84,0.04,1.36,0.03
			c1.11-0.02,3.37-0.25,4.48-0.22c0.77,0.02,1.54,0.15,2.3,0.17l0.31,0.02c1.8,0.12,3.61-0.18,5.42-0.21
			c1.36-0.02,2.42,0.11,3.46,0.18l0,0l0.14,0.01c0.03,0,0.06,0.01,0.09,0.01l0,0c0.4,0.02,0.82,0.04,1.33,0.03
			c1.11-0.02,3.37-0.25,4.48-0.22c0.77,0.02,1.54,0.15,2.31,0.17l0.31,0.02c1.8,0.12,3.61-0.18,5.42-0.21
			c1.33-0.02,2.42,0.1,3.46,0.18v0.01c0.06,0,0.13,0.01,0.19,0.01l0.1,0.01l0,0c0.38,0.02,0.79,0.03,1.27,0.03
			c1.11-0.02,3.37-0.25,4.48-0.22c0.77,0.02,1.54,0.15,2.3,0.17l0.31,0.02c1.8,0.12,3.61-0.18,5.42-0.21
			c1.46-0.02,2.33,0.11,3.45,0.19l0,0c0.46,0.03,0.96,0.05,1.56,0.04c1.11-0.02,3.37-0.25,4.48-0.22c0.77,0.02,1.54,0.15,2.3,0.17
			l0.31,0.02c1.8,0.12,3.61-0.18,5.42-0.21c1.36-0.02,2.42,0.11,3.46,0.18l0,0l0.14,0.01c0.03,0,0.06,0.01,0.08,0.01l0,0
			c0.4,0.02,0.82,0.04,1.32,0.03c1.11-0.02,3.37-0.25,4.48-0.22c0.77,0.02,1.54,0.15,2.3,0.17l0.31,0.02
			c1.8,0.12,3.61-0.18,5.42-0.21c1.46-0.02,2.33,0.11,3.45,0.19l0,0c0.46,0.03,0.96,0.05,1.56,0.04c1.11-0.02,3.37-0.25,4.48-0.22
			c0.77,0.02,1.54,0.15,2.3,0.17l0.31,0.02c1.8,0.12,3.61-0.18,5.42-0.21c1.34-0.02,2.42,0.11,3.46,0.18l0,0
			c0.05,0,0.11,0.01,0.17,0.01l0.09,0.01l0,0c0.39,0.02,0.81,0.03,1.3,0.03c1.11-0.02,3.37-0.25,4.48-0.22
			c0.77,0.02,1.54,0.15,2.3,0.17l0.31,0.02c1.8,0.12,3.61-0.18,5.42-0.21c1.36-0.02,2.42,0.11,3.46,0.18l0,0l0.14,0.01l0.09,0.01
			l0,0c0.4,0.02,0.82,0.04,1.33,0.03c1.11-0.02,3.37-0.25,4.48-0.22c0.77,0.02,1.54,0.15,2.31,0.17l0.31,0.02
			c1.8,0.12,3.61-0.18,5.42-0.21c1.46-0.02,2.33,0.11,3.45,0.19l0,0c0.46,0.03,0.96,0.05,1.56,0.04c1.11-0.02,3.37-0.25,4.48-0.22
			c0.77,0.02,1.54,0.15,2.3,0.17l0.31,0.02c1.8,0.12,3.61-0.18,5.42-0.21c1.34-0.02,2.42,0.11,3.46,0.18l0,0
			c0.05,0,0.12,0.01,0.17,0.01l0.09,0.01l0,0c0.39,0.02,0.8,0.03,1.29,0.03c1.11-0.02,3.37-0.25,4.48-0.22
			c0.77,0.02,1.54,0.15,2.3,0.17l0.31,0.02c1.8,0.12,3.61-0.18,5.42-0.21c1.34-0.02,2.42,0.1,3.46,0.18l0,0
			c0.06,0,0.12,0.01,0.18,0.01l0.1,0.01l0,0c0.38,0.02,0.79,0.03,1.28,0.03c1.11-0.02,3.37-0.25,4.48-0.22
			c0.77,0.02,1.54,0.15,2.31,0.17l0.31,0.02c1.8,0.12,3.61-0.18,5.42-0.21c1.37-0.02,2.4,0.1,3.45,0.18l0,0c0.04,0,0.08,0,0.12,0.01
			l0.07,0.01l0,0c0.17,0.01,0.35,0.02,0.54,0.03c0.26,0.01,0.63,0.07,0.93,0.06c0.5-0.01,1.54-0.23,1.82-0.73
			C315.43,232.07,315.56,231.55,315.48,231.04z"/>
		<circle id="타원_286" class="st4" cx="180.25" cy="161.63" r="26.45"/>
		<circle id="타원_287" cx="186.89" cy="173.12" r="2.32"/>
		<circle id="타원_288" cx="176.89" cy="173.75" r="2.32"/>
		<g id="그룹_20513" transform="translate(3146.53 -482.168)" class="st5">
			<path id="패스_12852" class="st3" d="M-3013.18,617.15c-0.05-0.49-0.1-0.97-0.14-1.45c-0.08-0.78-0.22-1.39-0.28-1.97
				c-0.12-0.57-0.25-1.09-0.4-1.68c-0.19-0.53-0.41-1.04-0.66-1.55c-0.83-1.35-1.82-2.59-2.96-3.7l-0.4-0.46l-0.42-0.44
				c-0.28-0.29-0.56-0.59-0.86-0.86l-0.25-0.21c-1.5-1.15-3.18-2.03-4.97-2.61c-1.39-0.55-2.23-0.9-3.32-1.27
				c-0.46-0.12-0.96-0.25-1.57-0.36c-0.56-0.11-1.44-0.12-2.3-0.18c-0.87,0.02-1.73,0.02-2.29,0c-0.78,0.03-1.58-0.11-2.37-0.03
				l-0.32,0.02c-1.86,0.19-3.67,0.67-5.38,1.41c-1.4,0.53-2.26,0.81-3.33,1.28c-0.43,0.22-0.88,0.47-1.42,0.8
				c-0.64,0.45-1.24,0.95-1.81,1.49l-0.92,0.9l-0.72,0.78c-0.6,0.56-1.15,1.15-1.67,1.78c-0.07,0.08-0.14,0.17-0.2,0.26
				c-1.09,1.62-1.78,3.47-2.02,5.41c-0.06,0.39-0.16,0.73-0.19,1.05s-0.07,0.62-0.1,0.91c-0.09,0.57-0.12,1.15-0.1,1.73
				c0,0.26,0.01,0.53,0.03,0.79c0.04,0.28,0.1,0.57,0.16,0.89c0.18,0.79,0.44,1.56,0.77,2.29c0.42,0.8,0.81,1.61,1.14,2.1
				c0.21,0.35,0.37,0.73,0.58,1.08s0.44,0.69,0.67,1.02l0.19,0.27c1.25,1.44,2.74,2.64,4.41,3.56c1.29,0.78,2.05,1.28,3.08,1.83
				c0.43,0.2,0.91,0.4,1.49,0.61c0.74,0.22,1.49,0.4,2.25,0.54c0.86,0.11,1.71,0.28,2.27,0.34c0.78,0.11,1.55,0.36,2.34,0.39
				l0.32,0.03c0.17,0.02,0.25,0.03,0.38,0.04c0.06,0,0.12,0.01,0.18,0.02l0.15,0.09l0.94,0.51c0.77,0.41,1.56,0.8,2.31,1.26
				c1.21,0.72,1.86,1.28,2.75,1.91c0.36,0.26,0.76,0.53,1.26,0.83c1.34,0.77,4.11,2.42,5.09,2.59l1.05,0.37
				c0.42,0.11,0.86,0.02,1.2-0.24c0.1-0.07,0.19-0.14,0.28-0.22c0.27-0.25,0.47-0.57,0.58-0.92c0.08-0.32,0.12-0.65,0.11-0.98
				c0.01-0.82-0.08-1.65-0.28-2.44c-0.16-0.62-0.32-1.22-0.46-1.82c-0.11-0.48-0.2-0.91-0.28-1.31c-0.03-0.17-0.06-0.33-0.09-0.49
				c-0.02-0.14-0.04-0.27-0.06-0.4c-0.07-0.52-0.14-1-0.21-1.54c-0.01-0.08-0.02-0.16-0.03-0.24l-0.04-0.25
				c-0.02-0.09-0.03-0.17-0.05-0.27s-0.04-0.18-0.06-0.28l0,0v-0.01l-0.03-0.13v-0.07l0.01-0.02v-0.01l0.06-0.08l0,0v-0.12
				l0.01-0.04l0.01-0.03l0.02-0.03l0.02-0.03l0.02-0.03l0.03-0.03l0.03-0.02l0.03-0.02l0.45-0.26l0.11-0.07l0.11-0.07l0.23-0.15
				c0.44-0.32,0.86-0.68,1.25-1.07c0.54-0.57,1.04-1.19,1.48-1.85c0.52-0.73,0.94-1.52,1.24-2.02c0.45-0.69,0.84-1.42,1.17-2.18
				l0.13-0.31c0.35-0.92,0.55-1.89,0.58-2.88C-3013.14,618.13-3013.17,617.64-3013.18,617.15z M-3016.02,618.2
				c-0.15,0.76-0.36,1.5-0.64,2.22c-0.09,0.31-0.21,0.74-0.34,1.12c-0.38,1.09-0.95,2.11-1.69,2.99c-0.69,0.75-1.42,1.45-2.2,2.11
				l-0.32,0.28l-0.33,0.26l-0.34,0.27l-0.36,0.25l-0.14,0.1l-0.14,0.11l-0.13,0.13l-0.07,0.07l-0.06,0.07l-0.06,0.07l-0.05,0.07
				l-0.05,0.07l-0.04,0.07l-0.03,0.07l-0.02,0.07l-0.01,0.04v0.05l-0.01,0.01l-0.02,0.03l-0.03,0.05l-0.03,0.05l-0.02,0.05
				l-0.02,0.05l-0.02,0.05l-0.01,0.05l0,0v0.02l-0.02,0.08l-0.01,0.08l-0.01,0.07v0.12c0,0.03,0,0.06,0.01,0.09
				c0.03,0.21,0.06,0.41,0.09,0.61s0.07,0.4,0.1,0.59s0.08,0.38,0.12,0.57s0.08,0.37,0.13,0.55c0.19,0.79,0.37,1.57,0.56,2.38
				l0.28,1.18c0.05,0.23,0.1,0.46,0.13,0.67c0.1,0.42,0.04,0.85-0.17,1.22c-0.08,0.18-0.31,0.43-0.54,0.38
				c-0.65-0.26-1.27-0.59-1.84-0.99c-0.3-0.23-0.57-0.42-0.84-0.59l-0.65-0.41l-0.68-0.42l-2.25-1.35
				c-0.92-0.55-1.85-1.09-2.74-1.68c-0.4-0.26-0.63-0.46-1.21-0.87l-0.39-0.28c-0.06-0.05-0.13-0.09-0.2-0.13l-0.23-0.02
				c-0.31-0.03-0.63-0.05-0.95-0.05c-0.43-0.02-0.85,0.03-1.28,0.01c-0.6-0.07-1.18-0.07-1.77-0.13c-0.61-0.07-1.2-0.2-1.79-0.36
				c-0.53-0.2-1.04-0.35-1.53-0.52c-0.48-0.2-0.95-0.37-1.41-0.55c-0.75-0.31-1.48-0.67-2.19-1.07c-0.44-0.23-0.86-0.5-1.26-0.79
				c-0.41-0.27-0.81-0.58-1.17-0.91c-0.3-0.27-0.57-0.57-0.82-0.88c-0.23-0.32-0.49-0.63-0.76-0.91l-0.78-0.9
				c-0.37-0.45-0.65-0.93-0.99-1.38c-0.14-0.24-0.26-0.5-0.39-0.76c-0.14-0.26-0.25-0.54-0.32-0.83c-0.15-0.49-0.26-0.99-0.35-1.49
				c-0.1-0.47-0.17-0.94-0.2-1.41c-0.07-0.77-0.07-1.55,0-2.32c0.09-0.47,0.15-0.94,0.26-1.4c0.13-0.46,0.29-0.91,0.47-1.35
				c0.18-0.35,0.38-0.69,0.58-1.02c0.24-0.31,0.46-0.63,0.66-0.96c0.14-0.3,0.43-0.66,0.64-1c0.65-0.97,1.46-1.84,2.38-2.56
				c0.47-0.3,0.91-0.59,1.33-0.88c0.45-0.25,0.87-0.51,1.29-0.77c0.71-0.39,1.45-0.74,2.2-1.05c0.93-0.39,1.89-0.7,2.87-0.91
				c0.41-0.07,0.82-0.1,1.23-0.15s0.82-0.03,1.22-0.09c0.34-0.05,0.8-0.16,1.23-0.18c1.2-0.16,2.41-0.18,3.61-0.05l1.6,0.27
				c0.51,0.11,1,0.21,1.49,0.31c0.4,0.1,0.78,0.21,1.18,0.32l0.59,0.16l0.58,0.21c0.95,0.32,1.86,0.73,2.73,1.24
				c0.34,0.22,0.67,0.47,0.99,0.71c0.3,0.27,0.61,0.52,0.93,0.76c0.29,0.18,0.65,0.46,0.98,0.71c0.94,0.69,1.76,1.54,2.42,2.5
				l0.76,1.35c0.2,0.45,0.4,0.89,0.59,1.32l0.37,1.09c0.12,0.37,0.17,0.76,0.26,1.14C-3015.95,616.28-3015.92,617.24-3016.02,618.2
				L-3016.02,618.2z"/>
			<path id="패스_12853" class="st3" d="M-3023.25,614.99c-0.44-0.19-0.92-0.26-1.4-0.2c-0.33,0.11-0.65,0.27-0.93,0.47
				c-0.18,0.18-0.23,0.46-0.12,0.69c0.05,0.17,0.08,0.34,0.08,0.52v0.44c0,0.15,0,0.28,0.01,0.41c0,0.18-0.06,0.4-0.06,0.57
				c-0.05,0.29,0.07,0.58,0.3,0.75c0.49,0.35,1.1,0.48,1.69,0.36c0.26-0.05,0.5-0.17,0.71-0.34c0.06-0.05,0.12-0.11,0.17-0.17
				c0.17-0.19,0.09-0.42,0.06-0.63c-0.02-0.08-0.02-0.17-0.01-0.25c0.03-0.24,0.07-0.47,0.1-0.72c0.01-0.13,0.03-0.26,0.03-0.4
				s0.06-0.35,0.06-0.52C-3022.58,615.55-3022.84,615.16-3023.25,614.99z"/>
			<path id="패스_12854" class="st3" d="M-3042.59,614.99c-0.44-0.19-0.92-0.26-1.4-0.2c-0.33,0.11-0.65,0.27-0.93,0.47
				c-0.18,0.18-0.23,0.46-0.12,0.69c0.05,0.17,0.08,0.34,0.08,0.52v0.44c0,0.15,0,0.28,0.01,0.41c0,0.18-0.06,0.4-0.06,0.57
				c-0.05,0.29,0.07,0.58,0.3,0.75c0.49,0.35,1.1,0.48,1.69,0.36c0.26-0.05,0.5-0.17,0.71-0.34c0.06-0.05,0.12-0.11,0.17-0.17
				c0.17-0.19,0.09-0.42,0.06-0.63c-0.02-0.08-0.02-0.17-0.01-0.25c0.03-0.24,0.07-0.47,0.1-0.72c0.01-0.13,0.03-0.26,0.03-0.4
				s0.06-0.35,0.06-0.52C-3041.92,615.55-3042.19,615.16-3042.59,614.99z"/>
			<path id="패스_12855" class="st3" d="M-3032.44,617.35v-0.44c0-0.15-0.01-0.28-0.01-0.41c0-0.18,0.06-0.4,0.06-0.57
				c0.05-0.29-0.07-0.58-0.3-0.75c-0.49-0.35-1.1-0.48-1.69-0.36c-0.26,0.05-0.5,0.17-0.71,0.34c-0.06,0.05-0.12,0.11-0.17,0.17
				c-0.17,0.19-0.09,0.42-0.06,0.63c0.02,0.08,0.02,0.17,0.01,0.25c-0.03,0.24-0.07,0.47-0.1,0.72c-0.01,0.13-0.03,0.26-0.03,0.4
				s-0.06,0.35-0.06,0.51c0.02,0.44,0.3,0.83,0.7,1.01c0.44,0.19,0.92,0.25,1.4,0.2c0.33-0.11,0.65-0.27,0.93-0.47
				c0.18-0.18,0.23-0.46,0.12-0.69C-3032.41,617.7-3032.44,617.53-3032.44,617.35z"/>
		</g>
		<path id="패스_16432" class="st3" d="M185.59,178.76c-0.42-0.23-0.91-0.28-1.37-0.14c-0.34,0.07-0.66,0.13-0.99,0.16
			c-0.07,0.01-0.13,0.02-0.2,0.03l0,0c-0.43,0.05-0.86,0.13-1.28,0.23l0,0l-0.1,0.02c-0.32,0.08-0.75,0.11-1.07,0.21
			c-0.52,0.09-0.99,0.39-1.3,0.82c-0.21,0.31-0.29,0.68-0.23,1.05c0.07,0.33,0.26,0.62,0.53,0.83c0.22,0.19,0.48,0.33,0.75,0.42
			c0.09,0.03,0.19,0.06,0.28,0.07c0.3,0.01,0.6-0.08,0.86-0.24c0.11-0.05,0.23-0.09,0.35-0.11c0.34-0.05,0.68-0.08,1.04-0.11
			l0.53-0.05l0.12-0.01c0.21-0.02,0.53,0.01,0.77-0.01c0.56-0.02,1.09-0.27,1.48-0.67c0.34-0.38,0.55-0.87,0.6-1.38
			C186.39,179.6,185.83,178.94,185.59,178.76z"/>
		<path id="패스_16433" class="st3" d="M208.27,162.86c0.02-0.46,0.04-0.96,0.03-1.56c0-0.31-0.02-0.7-0.04-1.13
			c-0.07-0.42-0.14-0.89-0.22-1.36s-0.15-0.93-0.21-1.35c-0.09-0.42-0.18-0.79-0.23-1.1c-0.09-0.85-0.23-1.7-0.43-2.53
			c-0.03-0.11-0.05-0.23-0.08-0.34c-0.12-0.49-0.27-0.97-0.43-1.45c-0.2-0.47-0.43-0.92-0.65-1.37c-0.21-0.46-0.44-0.91-0.7-1.34
			c-0.27-0.43-0.52-0.86-0.77-1.3c-0.37-0.72-0.72-1.26-1.02-1.78s-0.55-1.03-0.91-1.54l-0.01,0.01c-0.3-0.42-0.63-0.86-1.06-1.37
			c-1.15-1.2-2.4-2.31-3.72-3.31c-0.33-0.28-0.62-0.6-0.95-0.87s-0.66-0.54-1.01-0.79l-0.27-0.21c-1.69-1.11-3.53-1.97-5.46-2.56
			c-0.76-0.28-1.38-0.47-1.94-0.69c-0.45-0.19-0.91-0.35-1.38-0.49v-0.01l-0.24-0.06c-0.02-0.01-0.05-0.02-0.07-0.02l0,0h0l0,0
			l-0.13-0.03l-0.31-0.08l0,0c-0.38-0.09-0.78-0.19-1.25-0.28c-0.61-0.11-1.56-0.11-2.5-0.16c-0.45-0.03-0.91-0.03-1.36,0.01
			c-0.43,0.02-0.81,0.03-1.12,0.02c-0.85-0.06-1.71-0.07-2.57-0.02l-0.35,0.01c-2.01,0.23-3.97,0.75-5.82,1.54
			c-0.77,0.26-1.35,0.53-1.93,0.71c-0.57,0.17-1.13,0.39-1.67,0.64v0.01c-0.46,0.21-0.97,0.46-1.55,0.79
			c-0.53,0.32-1.27,0.92-2.01,1.48c-0.74,0.58-1.4,1.25-1.89,1.62c-0.69,0.5-1.33,1.07-1.98,1.64l-0.26,0.23
			c-0.71,0.72-1.35,1.5-1.92,2.34l-1.54,2.6c-0.76,1.42-1.36,2.21-1.88,3.35l0,0c-0.27,0.51-0.5,1.05-0.68,1.6
			c-0.17,0.6-0.41,1.51-0.61,2.43c-0.14,0.93-0.27,1.86-0.41,2.46c-0.14,0.84-0.33,1.68-0.45,2.53c-0.02,0.11-0.04,0.23-0.05,0.34
			c-0.06,1.01-0.05,2.02,0.04,3.02c0.16,1,0.32,2,0.49,2.98c0.33,1.51,0.38,2.48,0.68,3.62v0.01c0,0,0.09,0.36,0.11,0.39h0.01
			c0.11,0.48,0.26,0.96,0.44,1.43c0.25,0.57,0.66,1.42,1.1,2.25c0.5,0.8,0.98,1.6,1.26,2.15c0.44,0.73,0.82,1.5,1.28,2.23
			c0.06,0.1,0.12,0.2,0.19,0.29c0.59,0.82,1.26,1.58,1.99,2.28c0.77,0.65,1.48,1.37,2.28,1.97c0.63,0.5,1.1,0.95,1.56,1.34l1.39,1.1
			l0,0c0.21,0.15,0.42,0.32,0.66,0.48l0.82,0.45c1.49,0.73,3.04,1.35,4.63,1.85c0.81,0.26,1.58,0.68,2.41,0.9l0.33,0.09
			c0.97,0.28,1.98,0.44,2.99,0.47c1.01,0.03,2.01,0.1,3.01,0.04c0.81-0.02,1.46,0.04,2.06,0.03l1.56-0.04l0,0
			c0.15,0.01,0.31,0,0.46-0.01l0.59-0.04l0.91-0.19c1.61-0.4,3.2-0.92,4.74-1.55c0.79-0.32,1.65-0.51,2.42-0.86l0.31-0.15
			c0.92-0.41,1.79-0.94,2.59-1.56l1.2-0.92c0.4-0.31,0.75-0.67,1.14-0.98c1.26-1.01,1.99-1.66,2.94-2.47v-0.01
			c0.42-0.4,0.81-0.84,1.16-1.29c0.2-0.24,0.43-0.55,0.69-0.9c0.23-0.36,0.47-0.77,0.71-1.18s0.49-0.8,0.71-1.17
			c0.2-0.38,0.37-0.73,0.52-0.99c0.48-0.71,0.91-1.45,1.3-2.22l0.15-0.31c0.22-0.45,0.42-0.92,0.6-1.39
			c0.14-0.49,0.27-0.98,0.39-1.47c0.28-0.97,0.39-1.98,0.57-2.96c0.17-0.79,0.27-1.43,0.36-2.02c0.08-0.54,0.18-1.05,0.27-1.59l0,0
			c0,0,0.02-0.07,0.03-0.17h0.01c0-0.04,0-0.09,0-0.13C208.27,162.87,208.27,162.87,208.27,162.86L208.27,162.86z M204.16,168.77
			c-0.15,0.43-0.33,0.84-0.5,1.25s-0.42,0.79-0.57,1.21c-0.13,0.35-0.31,0.84-0.47,1.27c-0.3,0.58-0.56,1.16-0.84,1.75
			c-0.3,0.6-0.66,1.16-1.07,1.68c-0.19,0.24-0.36,0.49-0.55,0.72l-0.57,0.65c-0.38,0.42-0.7,0.87-1.08,1.26l0.01,0.01
			c-0.64,0.62-1.2,1.31-1.91,1.9l-1.26,1.07c-0.43,0.35-0.91,0.63-1.36,0.93c-0.74,0.52-1.64,0.76-2.4,1.2
			c-0.38,0.24-0.78,0.46-1.19,0.65c-0.6,0.26-1.16,0.58-1.76,0.83c-0.62,0.24-1.26,0.44-1.9,0.61c-0.6,0.14-1.19,0.2-1.74,0.31
			c-0.51,0.11-1.03,0.2-1.56,0.25l-0.09,0.01l0,0c-0.89,0.13-1.78,0.21-2.68,0.23l-1.65,0.03c-0.55-0.05-1.1-0.11-1.65-0.18
			c-0.9-0.07-1.74-0.48-2.61-0.63c-0.45-0.06-0.89-0.14-1.33-0.26c-0.63-0.19-1.26-0.31-1.88-0.49c-0.63-0.22-1.25-0.47-1.85-0.76
			c-0.55-0.27-1.04-0.61-1.54-0.88c-0.49-0.25-0.96-0.54-1.42-0.85l0,0c-0.77-0.47-1.5-0.99-2.2-1.55
			c-0.42-0.35-0.88-0.67-1.27-1.05s-0.78-0.78-1.16-1.18c-0.63-0.64-1-1.5-1.6-2.16c-0.25-0.28-0.55-0.71-0.83-1.07
			c-0.82-1.03-1.51-2.15-2.06-3.35c-0.4-1.13-0.83-2.12-1.12-3.14c-0.02-0.08-0.04-0.15-0.08-0.22l0,0
			c-0.12-0.38-0.26-0.75-0.36-1.14c-0.11-0.43-0.19-0.88-0.29-1.32c-0.24-1.08-0.39-2.17-0.44-3.27c-0.01-0.9,0.2-1.8,0.17-2.68
			c0.02-0.37,0.04-0.89,0.06-1.35c0.03-1.32,0.22-2.62,0.57-3.89c0.45-1.15,0.74-2.22,1.2-3.21l0,0l0.51-1.23
			c0.21-0.4,0.42-0.79,0.63-1.2c0.51-0.98,1.1-1.91,1.76-2.79c0.59-0.68,1.28-1.27,1.86-1.94c0.26-0.27,0.6-0.66,0.91-1.01
			c0.43-0.48,0.89-0.94,1.38-1.37c0.47-0.47,1-0.89,1.57-1.23c0.53-0.31,1.02-0.63,1.51-0.93c0.5-0.26,0.99-0.52,1.46-0.79v-0.01
			l0.58-0.33l0.61-0.27l1.24-0.55c0.51-0.21,1.03-0.4,1.56-0.55c0.52-0.19,1.05-0.33,1.59-0.44c0.44-0.08,0.89-0.12,1.34-0.16
			l0.67-0.08c0.22-0.01,0.45-0.02,0.67-0.05c0.37-0.04,0.88-0.14,1.34-0.21c0.65-0.11,1.29-0.09,1.94-0.15l0.98-0.04
			c0.34,0.02,0.68,0.06,1.01,0.11l1.75,0.26c0.5,0.11,0.98,0.21,1.46,0.3l0,0l0.24,0.05c0.86,0.18,1.71,0.4,2.54,0.67
			c0.53,0.16,1.04,0.35,1.55,0.58c0.52,0.19,1.02,0.42,1.5,0.69c0.39,0.23,0.76,0.49,1.13,0.74l0.56,0.37
			c0.18,0.13,0.36,0.27,0.54,0.39c0.31,0.2,0.77,0.46,1.16,0.7c0.56,0.34,1.05,0.76,1.58,1.13c0.26,0.2,0.53,0.38,0.77,0.61
			c0.25,0.23,0.48,0.48,0.7,0.74c0.85,0.89,1.51,1.79,2.22,2.62l0.01-0.01c0.53,0.71,1.03,1.44,1.55,2.2
			c0.58,0.94,1.08,1.92,1.5,2.94c0.16,0.42,0.29,0.85,0.42,1.28c0.11,0.43,0.19,0.88,0.33,1.3c0.11,0.36,0.33,0.84,0.46,1.28
			c0.14,0.64,0.32,1.25,0.49,1.88c0.15,0.65,0.24,1.31,0.25,1.98c0.02,0.31,0.03,0.61,0.05,0.9c-0.01,0.3-0.02,0.58-0.02,0.87
			c-0.01,0.5-0.01,0.98,0,1.46l0,0c0,0-0.02,0.36-0.02,0.37l0,0c-0.08,0.83-0.13,1.66-0.23,2.51
			C204.75,166.65,204.49,167.72,204.16,168.77L204.16,168.77z"/>
		<path id="패스_16567" d="M212.16,137.11c-0.91,12.22-13.04,20.93-34.54,23.77c-18.79,2.47-33.7-0.89-34.43-12.91
			s13.18-26.8,32.1-27.96S213.48,119.41,212.16,137.11z"/>
		<path id="패스_16434" class="st3" d="M213.85,135.52c-0.03-0.83-0.13-1.66-0.28-2.48c-0.07-0.46-0.17-0.91-0.29-1.35
			c-0.11-0.42-0.18-0.8-0.28-1.1c-0.19-0.87-0.44-1.71-0.77-2.53c-0.05-0.11-0.1-0.22-0.15-0.33c-0.98-1.86-2.43-3.43-4.2-4.56
			c-1.04-0.76-2.12-1.46-3.24-2.1l0.01-0.01c-0.51-0.26-1.04-0.49-1.58-0.69c-1.55-0.45-3.12-0.82-4.72-1.09
			c-0.8-0.19-1.59-0.44-2.39-0.59l-0.32-0.07c-1.89-0.26-3.8-0.36-5.7-0.29c-1.39-0.04-2.28-0.17-3.31-0.26l0,0l-0.08-0.01
			l-0.22-0.02l0,0h-0.01l0,0c-0.04,0-0.08,0-0.12-0.01l-0.32-0.02v0.01c-0.36-0.02-0.74-0.03-1.18-0.02
			c-1.16,0.02-3.5,0.31-4.64,0.33c-0.8,0.01-1.6-0.08-2.39-0.06l-0.32-0.01c-1.91,0.1-3.8,0.33-5.67,0.71
			c-1.38,0.28-2.29,0.35-3.34,0.49l0,0c-0.03,0-0.05,0.01-0.08,0.01l-0.23,0.03v0.01l0,0l-0.04,0.01c-0.21,0.04-0.38,0.08-0.38,0.08
			v0.01c-0.37,0.09-0.75,0.19-1.19,0.32c-0.77,0.23-1.51,0.51-2.24,0.84c-0.82,0.38-1.64,0.75-2.19,0.95
			c-0.77,0.28-1.54,0.57-2.3,0.9l-0.31,0.13c-0.89,0.39-1.73,0.88-2.5,1.47c-0.4,0.28-0.8,0.54-1.18,0.84s-0.75,0.61-1.14,0.89
			c-1.17,0.83-1.92,1.34-2.78,1.98l0,0l-0.48,0.36l0.01,0.01c-0.36,0.27-0.7,0.57-1.02,0.9c-0.41,0.43-1.01,1.12-1.6,1.8
			c-0.54,0.73-1.08,1.46-1.47,1.91c-0.55,0.62-1.08,1.27-1.58,1.93c-0.07,0.09-0.14,0.18-0.21,0.27c-0.56,0.81-1.04,1.68-1.42,2.59
			c-0.39,0.91-0.66,1.87-1.03,2.78c-0.42,1.54-0.9,2.41-1.11,3.66l0,0c-0.14,0.57-0.23,1.15-0.26,1.73c0,0.85,0.04,1.69,0.13,2.53
			c0.12,0.84,0.3,1.68,0.52,2.5c0.17,0.88,0.42,1.74,0.77,2.56c0.05,0.11,0.08,0.23,0.14,0.33c1,1.85,2.47,3.41,4.26,4.51
			c1.04,0.76,2.12,1.46,3.24,2.09l0,0c0.51,0.27,1.03,0.5,1.57,0.69c1.55,0.46,3.12,0.83,4.72,1.09c0.8,0.17,1.59,0.44,2.4,0.57
			l0.32,0.07c1.9,0.25,3.82,0.31,5.73,0.21c1.53,0.01,2.45,0.13,3.63,0.17c0.48,0.02,1.01,0.01,1.63-0.03
			c1.16-0.08,3.5-0.48,4.65-0.59c0.8-0.06,1.61-0.04,2.41-0.11l0.32-0.02c1.87-0.25,3.73-0.64,5.55-1.14
			c0.75-0.16,1.35-0.25,1.91-0.32l1.44-0.24l0,0l0.22-0.04l0,0l0,0l0,0l0.09-0.02l0.12-0.02l0,0c0.42-0.08,0.86-0.17,1.39-0.31
			c0.56-0.14,1.39-0.49,2.23-0.79l2.21-0.82c0.77-0.26,1.57-0.43,2.35-0.68l0.31-0.11c0.9-0.35,1.77-0.75,2.61-1.22
			c0.83-0.51,1.64-1.03,2.48-1.5c0.66-0.42,1.2-0.73,1.71-1.01c0.52-0.25,1.02-0.55,1.49-0.87l0,0c0.42-0.28,0.86-0.59,1.37-0.99
			c0.47-0.38,1.09-1.08,1.73-1.73s1.16-1.43,1.59-1.86c0.58-0.62,1.13-1.27,1.65-1.94l0.21-0.27c1.07-1.71,1.81-3.6,2.2-5.58
			c0.44-1.55,0.59-2.51,0.85-3.73l0,0C213.8,136.72,213.84,136.17,213.85,135.52z M210.63,137.01L210.63,137.01l-0.15,1.25
			c-0.03,0.43-0.09,0.86-0.2,1.28l-0.37,1.53c-0.19,0.49-0.38,0.98-0.59,1.46c-0.17,0.39-0.39,0.76-0.65,1.1
			c-0.25,0.34-0.47,0.71-0.67,1.08c-0.2,0.3-0.45,0.72-0.68,1.1c-0.18,0.26-0.33,0.53-0.51,0.78l-0.57,0.74
			c-0.37,0.53-0.82,1-1.32,1.41l-1.31,1.11c-0.45,0.33-0.88,0.66-1.3,0.98l0,0c-0.7,0.54-1.43,1.05-2.18,1.51
			c-0.92,0.59-1.88,1.12-2.86,1.6c-0.82,0.36-1.72,0.55-2.52,0.93c-0.33,0.17-0.81,0.38-1.24,0.57c-0.61,0.24-1.2,0.51-1.79,0.77
			c-0.62,0.25-1.26,0.46-1.92,0.62l-3.07,0.77l0,0l-0.3,0.08l0,0l0,0l0,0c-0.87,0.23-1.74,0.47-2.65,0.65
			c-1.1,0.22-2.18,0.52-3.29,0.63c-0.91,0.11-1.84,0.08-2.73,0.23l-1.36,0.25c-1.31,0.26-2.64,0.43-3.98,0.52
			c-1.25,0.02-2.38,0.07-3.48,0.12c-0.91,0.03-1.8,0.07-2.73,0.07c-1.11,0-2.23-0.01-3.33-0.11c-0.9-0.09-1.77-0.35-2.66-0.44
			c-0.37-0.05-0.89-0.08-1.35-0.12c-1.29-0.11-2.58-0.35-3.82-0.72c-1.14-0.4-2.14-0.79-3.1-1.21l0,0
			c-0.78-0.34-1.54-0.74-2.26-1.19c-0.87-0.53-1.66-1.19-2.34-1.94c-0.47-0.65-0.89-1.34-1.25-2.06c-0.17-0.29-0.4-0.69-0.58-1.06
			c-0.53-1.08-0.82-2.27-0.86-3.47c0.05-0.58,0.08-1.12,0.09-1.65c0.03-0.52,0.09-1.04,0.19-1.55l0,0c0.11-0.85,0.29-1.68,0.55-2.5
			c0.13-0.51,0.3-1.02,0.52-1.5c0.21-0.49,0.39-0.99,0.64-1.46c0.46-0.75,0.99-1.45,1.45-2.18c0.2-0.31,0.46-0.75,0.69-1.14
			l0.51-0.81l0.56-0.77c0.37-0.54,0.8-1.05,1.26-1.51c0.93-0.8,1.64-1.63,2.49-2.31l0,0h0l0,0l0.02-0.02l0.1-0.08l0,0
			c0.61-0.58,1.25-1.12,1.93-1.62c0.85-0.68,1.75-1.3,2.7-1.85c0.79-0.42,1.6-0.79,2.41-1.16c0.33-0.17,0.78-0.43,1.18-0.66
			l0.85-0.47l0.87-0.4c0.6-0.28,1.22-0.53,1.84-0.74c1.09-0.29,2.08-0.54,3.04-0.84l0,0l0.63-0.17l2.24-0.48
			c1.08-0.21,2.16-0.35,3.26-0.42c0.87-0.09,1.84,0.07,2.74-0.01c0.39-0.03,0.92-0.09,1.39-0.15c1.34-0.16,2.68-0.25,4.03-0.26
			c1.26,0.04,2.39,0.04,3.51,0.04h0.01c0.91-0.01,1.81-0.01,2.74,0.01c1.12,0.03,2.24,0.06,3.34,0.18c0.9,0.11,1.78,0.38,2.67,0.48
			l1.35,0.13c1.3,0.11,2.58,0.35,3.83,0.73c1.14,0.39,2.14,0.79,3.1,1.2l-0.01,0.01c0.78,0.34,1.53,0.74,2.25,1.2
			c0.86,0.53,1.64,1.19,2.31,1.96c0.48,0.65,0.89,1.35,1.23,2.08c0.22,0.34,0.41,0.7,0.58,1.07c0.54,1.1,0.86,2.29,0.95,3.51
			c0.05,0.58,0,1.15,0.02,1.68C210.67,135.95,210.65,136.48,210.63,137.01z"/>
		<g id="그룹_20295" transform="translate(3146.53 -482.168)">
			<g id="그룹_20512">
				<g id="그룹_20477">
					<path id="패스_16580" class="st4" d="M-2993.72,709.75c0,0,1.1-7.73,10.33-6.53c9.77,1.27,17.78,12.5,14.43,17.24
						s-17.13-9.48-17.13-9.48L-2993.72,709.75z"/>
					<path id="패스_16435" class="st3" d="M-2966.87,715.6c-0.03-0.13-0.06-0.27-0.09-0.4c-0.68-2.21-1.87-4.23-3.48-5.89
						c-0.9-1.1-1.85-2.15-2.87-3.15l0,0l0,0l0,0c-0.48-0.43-0.98-0.83-1.52-1.2c-0.78-0.51-1.6-0.95-2.45-1.33
						c-0.96-0.43-1.94-0.79-2.6-1.02c-0.9-0.38-1.83-0.67-2.78-0.88l-0.39-0.08c-2.37-0.41-4.81-0.04-6.95,1.05
						c-1.44,0.67-2.71,1.67-3.7,2.92l2.57,1.77c0.45-0.71,1.06-1.31,1.76-1.76c0.9-0.56,1.92-0.91,2.98-1.01
						c0.46-0.01,0.91,0.02,1.36,0.05c0.46,0.09,0.92,0.15,1.38,0.18c0.39,0.05,0.92,0.09,1.4,0.18c1.38,0.23,2.7,0.71,3.92,1.4
						c1.05,0.64,2.05,1.36,3.01,2.13c0.75,0.61,1.46,1.27,2.12,1.98c0.81,0.86,1.52,1.81,2.1,2.83c0.4,0.83,0.71,1.69,0.95,2.58
						c0.14,0.41,0.25,0.82,0.34,1.24c0.04,0.24,0.06,0.48,0.07,0.72c0.01,0.22-0.01,0.44-0.05,0.66c-0.07,0.47-0.34,0.88-0.75,1.11
						c-0.38,0.14-0.8,0.17-1.19,0.07c-0.18-0.04-0.36-0.09-0.54-0.15l-0.27-0.09l-0.38-0.16l0,0c-0.88-0.38-1.73-0.83-2.54-1.35
						c-1.05-0.65-2.05-1.37-3-2.15c-0.78-0.65-1.45-1.44-2.22-2.09l-1.2-0.97l-1.6-1.36c-0.27-0.23-0.53-0.46-0.79-0.71
						c-0.37-0.35-0.73-0.72-1.1-1.12c-0.1-0.03-0.21-0.04-0.32-0.07l-2.39-0.45l-1.9-0.31l0,0l-1.55-0.22l-0.07-0.01l-0.06-0.02
						l-0.05-0.03l0,0l0.01-0.03l0.02-0.06l0.06-0.12l-0.02-0.01l0.01-0.02l0.07-0.16l0.02-0.04l0.02-0.04l0.04-0.07l0.17-0.3
						l0.08-0.15l0.1-0.14l-2.57-1.77l-0.13,0.16l-0.03,0.04l-0.03,0.04l-0.06,0.09l-0.24,0.38l-0.12,0.2l-0.06,0.1l-0.05,0.11
						l-0.21,0.47l-0.05,0.12l-0.05,0.13c-0.03,0.09-0.06,0.18-0.1,0.28s-0.07,0.2-0.1,0.3s-0.06,0.22-0.09,0.33l-0.04,0.17
						l-0.04,0.18c-0.02,0.12-0.05,0.24-0.07,0.37l-0.06,0.44l-0.02,0.32h0.01v0.13l0.01,0.09l0.01,0.09l0.02,0.08l0.03,0.08
						l0.03,0.07l0.03,0.07l0.04,0.06l0.04,0.06l0.05,0.05l0.1,0.1l0.05,0.05l0.05,0.04l0.12,0.08l0.12,0.06l0.12,0.05l0.12,0.04
						l0.11,0.03l0.11,0.03l0.18,0.03l0.52,0.08l0.47,0.09l0.84,0.18l1.56,0.38l0,0c0.52,0.11,1.09,0.22,1.77,0.33l1.08,0.13
						l0.84,0.06l0.34,0.28l0.18,0.15l0.28,0.25c0.36,0.32,0.69,0.62,0.93,0.86c0.64,0.63,1.22,1.34,1.88,1.96l0.26,0.26
						c1.6,1.43,3.34,2.71,5.18,3.82c1.16,0.83,2.37,1.59,3.61,2.28l0,0c0.73,0.36,1.51,0.6,2.32,0.73c0.54,0.07,1.09,0.06,1.63-0.03
						c0.64-0.13,1.24-0.42,1.74-0.84c0.84-0.84,1.38-1.92,1.57-3.1c0.13-0.6,0.19-1.21,0.18-1.83
						C-2966.72,716.65-2966.77,716.12-2966.87,715.6z"/>
				</g>
				<g id="그룹_20487">
					<path id="패스_16588" class="st4" d="M-3009.78,712.65c0,0,1.84-13.12,13.93-11.55c12.79,1.66,22.87,19.37,18.49,25.57
						s-22.42-12.41-22.42-12.41L-3009.78,712.65z"/>
					<path id="패스_16436" class="st3" d="M-2974.82,722.77c-0.07-0.82-0.18-1.63-0.34-2.43c-0.1-0.82-0.25-1.63-0.44-2.42
						c-0.02-0.11-0.06-0.21-0.08-0.32c-0.62-1.79-1.48-3.47-2.58-5.02c-0.8-1.26-1.2-2.09-1.84-3.05l0,0
						c-0.3-0.45-0.62-0.88-0.97-1.28c-1.07-1.11-2.21-2.16-3.4-3.14c-0.58-0.54-1.13-1.13-1.77-1.63l-0.25-0.2
						c-1.55-1.11-3.27-1.97-5.1-2.52c-1.13-0.48-2.31-0.87-3.51-1.14l0,0l-0.04-0.01c-0.07-0.01-0.14-0.03-0.21-0.05v0.01
						c-0.47-0.1-0.95-0.15-1.43-0.16c-0.3-0.01-0.68-0.02-1.1-0.02c-0.42,0.02-0.89,0.12-1.34,0.18c-0.82,0.13-1.62,0.32-2.41,0.56
						c-0.42,0.09-0.84,0.22-1.24,0.37c-0.42,0.12-0.82,0.28-1.21,0.48l-0.31,0.17c-1.73,1.05-3.14,2.55-4.09,4.33
						c-0.62,0.98-1.2,1.99-1.72,3.03l0,0l-0.08,0.16l-0.02,0.03l0,0l-0.18,0.35l-0.04,0.09l-0.03,0.09l-0.07,0.19
						c-0.04,0.13-0.09,0.27-0.14,0.41l-0.07,0.22l-0.03,0.11l-0.02,0.11c-0.03,0.15-0.08,0.32-0.12,0.5
						c-0.02,0.09-0.04,0.19-0.06,0.28l-0.05,0.31c-0.02,0.11-0.03,0.21-0.05,0.32s-0.03,0.23-0.05,0.35l-0.04,0.38l-0.02,0.32h0.01
						v0.12l0.01,0.09l0.01,0.09l0.02,0.08l0.03,0.08l0.03,0.07l0.03,0.07l0.04,0.06l0.04,0.06l0.05,0.05l0.1,0.1l0.05,0.05
						l0.05,0.04l0.12,0.08l0.12,0.06l0.12,0.05l0.12,0.04l0.11,0.03l0.11,0.03l0.18,0.03l0.52,0.08l0.47,0.09l0.84,0.18l1.56,0.38
						l0,0c0.44,0.1,0.92,0.2,1.5,0.28c0.54,0.08,1.37,0.15,2.19,0.23l1.2,0.12l0.52,0.06c0.1,0.01,0.19,0.03,0.27,0.04
						c0.13,0.03,0.26,0.06,0.39,0.11l0.28,0.39c0.05,0.07,0.1,0.14,0.16,0.2l0.27,0.3l0.21,0.23c1.29,1.26,2.66,2.44,4.1,3.52
						c1.03,0.89,1.75,1.65,2.52,2.38l0,0c0.02,0.02,0.04,0.03,0.06,0.05s0.06,0.06,0.09,0.09l0-0.01c0.33,0.3,0.68,0.6,1.03,0.87
						c0.88,0.69,2.86,1.84,3.79,2.48c0.64,0.45,1.25,0.97,1.93,1.38l0.27,0.17c0.83,0.51,1.72,0.9,2.65,1.17
						c0.49,0.15,0.99,0.26,1.5,0.34c0.26,0.05,0.53,0.08,0.8,0.1c0.3,0.04,0.6,0.05,0.9,0.03c1.51,0.05,2.95-0.63,3.89-1.82
						l0.17-0.25l0,0c0.2-0.28,0.37-0.57,0.5-0.89c0.15-0.31,0.27-0.64,0.35-0.98C-2974.8,724.52-2974.74,723.64-2974.82,722.77z
						 M-2978.03,724.47c-0.05,0.2-0.12,0.4-0.2,0.59c-0.05,0.15-0.12,0.3-0.21,0.44l0,0l-0.06,0.1c-0.25,0.41-0.66,0.7-1.13,0.8
						c-0.34,0.07-0.69,0.07-1.03,0.01c-0.45-0.07-0.89-0.19-1.32-0.36c-0.73-0.29-1.39-0.79-2.12-1.16
						c-0.31-0.15-0.75-0.36-1.14-0.56c-1.12-0.57-2.18-1.23-3.18-1.99c-0.87-0.73-1.78-1.46-2.58-2.1l0,0
						c-0.68-0.54-1.35-1.08-2.03-1.65c-0.82-0.69-1.64-1.39-2.4-2.14c-0.63-0.61-1.14-1.34-1.77-1.93c-0.29-0.27-0.59-0.5-1.14-1.02
						l-0.7-0.67l-2.08-0.24c-0.54-0.06-1.08-0.14-1.62-0.26c-1.19-0.27-2.27-0.45-3.33-0.61l0,0l-1.55-0.22l-0.07-0.01l-0.06-0.02
						l-0.05-0.03l-0.05-0.03l-0.04-0.04v-0.02v-0.06l0.01-0.06l0.01-0.07l0.01-0.07l0.02-0.07l0.03-0.07h-0.02l0.01-0.02l0.12-0.37
						l0.12-0.36l0.14-0.36l0.01,0.01c0.13-0.38,0.29-0.75,0.46-1.12c0.16-0.38,0.34-0.74,0.54-1.09c0.46-0.86,1.03-1.64,1.71-2.33
						c0.58-0.49,1.21-0.92,1.88-1.28l0.44-0.32l0.52-0.28c0.25-0.12,0.49-0.24,0.73-0.37l0.78-0.26c0.26-0.1,0.53-0.18,0.81-0.22
						c0.29-0.03,0.58-0.05,0.89-0.06c0.26-0.02,0.52-0.02,0.79-0.01l0.77,0.07c0.48,0.02,0.96,0.06,1.44,0.13
						c0.39,0.06,0.88,0.15,1.21,0.23c0.4,0.08,0.79,0.19,1.18,0.32c0.96,0.29,1.89,0.69,2.76,1.18c0.72,0.41,1.33,0.99,2.01,1.45
						c0.29,0.19,0.71,0.44,1.05,0.69c1.03,0.68,1.97,1.48,2.8,2.38c0.75,0.88,1.41,1.68,2.04,2.49l0,0
						c0.51,0.66,1.01,1.32,1.48,2.05c0.58,0.86,1.08,1.76,1.51,2.7c0.34,0.77,0.5,1.6,0.78,2.36c0.14,0.32,0.29,0.76,0.44,1.15
						c0.41,1.08,0.61,2.23,0.58,3.39C-2977.84,723.55-2977.92,724.01-2978.03,724.47L-2978.03,724.47z"/>
				</g>
				<g id="그룹_20501">
					<path id="패스_16598" class="st4" d="M-3020.97,714.43c0,0,1.55-15.06,15.28-13.17c14.53,2,26.12,24.54,17.77,28.97
						c-8.49,4.51-21.71-13.86-21.71-13.86L-3020.97,714.43z"/>
					<path id="패스_16437" class="st3" d="M-2983.65,722.93h0.01c0-0.06-0.02-0.13-0.02-0.19c0-0.03,0-0.07,0-0.1h-0.01
						c-0.05-0.46-0.12-0.91-0.22-1.36c-0.44-1.49-1-2.94-1.68-4.34c-0.3-0.72-0.52-1.5-0.88-2.19c-0.04-0.1-0.09-0.2-0.13-0.29
						c-0.89-1.62-1.97-3.12-3.22-4.48c-0.93-1.15-1.43-1.89-2.17-2.77l0,0c-0.34-0.41-0.71-0.79-1.11-1.15
						c-1.18-0.98-2.42-1.88-3.72-2.7c-0.64-0.46-1.26-0.98-1.95-1.39l-0.28-0.17c-1.68-0.9-3.52-1.49-5.41-1.74
						c-0.38-0.06-0.72-0.13-1.04-0.2l-0.9-0.11l-1.68-0.24l0,0c-0.57,0-1.14,0.03-1.7,0.09c-0.37,0.02-0.73,0.09-1.09,0.19
						l-1.29,0.41c-0.43,0.13-0.85,0.3-1.24,0.52c-0.38,0.19-0.73,0.35-1,0.47c-0.39,0.17-0.74,0.4-1.12,0.6
						c-0.39,0.18-0.75,0.41-1.08,0.68l-0.27,0.21c-0.4,0.3-0.77,0.64-1.09,1.02c-0.31,0.38-0.61,0.78-0.9,1.17
						c-0.5,0.82-0.97,1.67-1.38,2.54c-0.65,1.31-1.07,2.12-1.48,3.14l0,0c-0.12,0.28-0.23,0.56-0.31,0.85l-0.06,0.19l-0.03,0.1
						l-0.03,0.1l-0.09,0.43c-0.03,0.14-0.06,0.3-0.1,0.48s-0.05,0.37-0.08,0.57c-0.01,0.1-0.02,0.2-0.04,0.31l-0.03,0.33l-0.03,0.36
						l-0.01,0.31l0,0v0.03l0.01,0.09l0.01,0.09l0.02,0.08l0.02,0.08l0.03,0.07l0.03,0.07l0.04,0.06l0.04,0.06l0.05,0.05l0.05,0.05
						l0.03,0.02l0.02,0.03l0.05,0.05l0.05,0.05l0.05,0.04l0.11,0.08l0.11,0.06l0.11,0.05l0.11,0.04l0.11,0.03l0.1,0.03l0.17,0.03
						l0.49,0.08l0.45,0.09l0.8,0.19l1.4,0.36c0.22,0.07,0.45,0.13,0.68,0.16c0.42,0.06,1.31-0.03,1.72,0.07
						c0.28,0.07,0.55,0.24,0.84,0.32l0.11,0.04c0.68,0.12,1.38,0.17,2.07,0.15c0.44,0.08,0.86,0.22,1.27,0.41l0,0l0.14,0.04
						l0.15,0.04l0.17,0.04l0.18,0.03l0,0h0.02l0.06,0.01l0,0l0.01,0.01l0.01,0.01l0.02,0.02l0.03,0.03h0.01l0.02-0.01l0.04-0.01
						l0.03-0.01h0.06l0.02,0.01l0.02,0.01l0.02,0.01l0.02,0.01l0.01,0.02l0.01,0.02l0.14,0.28c0.05,0.09,0.15,0.37,0.25,0.43
						l0.01-0.01c0.26,0.38,0.54,0.75,0.83,1.1c0.7,0.85,2.35,2.4,3.08,3.22c0.51,0.57,0.95,1.21,1.47,1.78l0.21,0.23
						c1.29,1.29,2.71,2.45,4.24,3.45c1.19,0.88,1.87,1.48,2.85,2.13v0.01c0.46,0.31,0.95,0.58,1.46,0.8
						c0.75,0.32,1.54,0.56,2.34,0.73c0.84,0.16,1.68,0.25,2.54,0.25c0.93,0.06,1.86-0.03,2.75-0.29l0.36-0.13
						c1.1-0.39,2.04-1.13,2.68-2.11c0.61-0.92,1.01-1.97,1.17-3.06C-2983.67,725.5-2983.59,724.22-2983.65,722.93z M-3019.13,713.21
						L-3019.13,713.21l0.02,0.04L-3019.13,713.21z M-2986.66,725.6c-0.04,0.83-0.31,1.63-0.79,2.31c-0.41,0.45-0.93,0.78-1.51,0.98
						c-0.29,0.15-0.59,0.28-0.9,0.38c-1.01,0.27-2.09,0.23-3.07-0.13c-0.94-0.36-1.85-0.79-2.72-1.28v-0.01
						c-0.72-0.4-1.42-0.84-2.1-1.31c-0.85-0.59-1.66-1.23-2.42-1.93c-0.62-0.59-1.12-1.29-1.74-1.87l-0.97-0.86
						c-0.94-0.83-1.82-1.74-2.63-2.7c-0.69-0.91-1.33-1.7-1.95-2.49l0,0l-0.79-0.95l-0.07-0.08l-0.08-0.08l-0.09-0.07l-0.05-0.03
						l-0.05-0.03l-0.05-0.03l-0.06-0.02l-0.06-0.02l-0.06-0.01l-0.06-0.01h-0.06l-0.06,0.01h-0.02v-0.02l-0.01-0.02l-0.04-0.1
						l-0.02-0.04l-0.02-0.04l-0.02-0.03l-0.02-0.03l-0.02-0.02l-0.01-0.01l-0.02-0.02l-0.04-0.04l-0.04-0.03l-0.03-0.02l-0.03-0.02
						l-0.05-0.02l-0.37-0.11l-0.36-0.09l-0.35-0.07l-0.34-0.05l0,0c-0.34-0.05-0.68-0.08-1.03-0.13c-0.42-0.04-0.84-0.11-1.25-0.2
						c-0.32-0.14-0.65-0.26-0.99-0.35c-0.14-0.02-0.35-0.01-0.53-0.01c-0.51,0.01-1.01-0.03-1.51-0.14
						c-0.48-0.14-0.96-0.25-1.46-0.31l-1.31-0.2l-0.06-0.01l-0.06-0.02l-0.05-0.03l-0.04-0.03l-0.04-0.04l-0.01-0.01v-0.02V713
						l0.01-0.06l0.01-0.07l0.04-0.14h0l0.01-0.03l0.04-0.18l0.05-0.18c0.06-0.21,0.15-0.5,0.22-0.73c0.23-0.78,0.51-1.54,0.83-2.28
						c0.19-0.46,0.44-0.88,0.66-1.32c0.25-0.42,0.53-0.81,0.81-1.21c0.53-0.56,1.1-1.09,1.7-1.57c0.26-0.28,0.54-0.54,0.85-0.77
						c0.42-0.35,0.88-0.65,1.36-0.9l0.74-0.38c0.27-0.1,0.56-0.17,0.84-0.21c0.97-0.18,1.95-0.3,2.93-0.34l0,0
						c0.79,0.06,1.58,0.05,2.4,0.15c0.98,0.13,1.94,0.37,2.85,0.73c0.38,0.15,0.74,0.33,1.09,0.55c0.35,0.2,0.7,0.4,1.06,0.59
						c0.3,0.15,0.75,0.33,1.11,0.53c1.09,0.54,2.1,1.2,3.03,1.99c0.82,0.8,1.58,1.49,2.29,2.22l0,0c0.59,0.59,1.15,1.2,1.71,1.84
						c0.67,0.78,1.29,1.61,1.85,2.47c0.45,0.71,0.73,1.52,1.15,2.23c0.17,0.3,0.45,0.7,0.65,1.08c0.63,1.04,1.13,2.14,1.49,3.3
						c0.27,1.04,0.45,1.97,0.6,2.87C-2986.65,723.99-2986.62,724.8-2986.66,725.6L-2986.66,725.6z"/>
				</g>
				<path id="패스_16613" class="st4" d="M-3029.28,712.65c0,0,1.44-10.11,13.53-8.54c12.79,1.66,23.27,16.36,18.88,22.56
					s-22.42-12.41-22.42-12.41L-3029.28,712.65z"/>
			</g>
			<path id="패스_16438" class="st3" d="M-2994.46,722.61c0-0.82-0.07-1.64-0.23-2.44l-0.07-0.32c-0.52-1.76-1.36-3.41-2.48-4.87
				c-0.8-1.19-1.2-1.96-1.85-2.86l0,0c-0.3-0.42-0.63-0.81-0.98-1.18c-1.07-1-2.19-1.95-3.37-2.83c-0.57-0.49-1.11-1.03-1.72-1.48
				l-0.24-0.19c-1.49-1-3.11-1.77-4.82-2.31c-1.21-0.45-1.98-0.8-2.9-1.11v-0.01c-0.6-0.22-1.22-0.37-1.85-0.44
				c-1.5-0.13-3.02-0.13-4.52,0.01c-0.8,0.01-1.6,0.07-2.39,0.18l-0.32,0.08c-1.89,0.48-3.6,1.5-4.92,2.95
				c-0.73,0.71-1.4,1.48-2,2.31c-0.02,0.01-0.03,0.01-0.04,0.02c-0.2,0.21-0.37,0.45-0.5,0.72l-0.05,0.09
				c-0.06,0.12-0.13,0.25-0.2,0.38l-0.2,0.41c-0.04,0.14-0.1,0.3-0.17,0.46c-0.03,0.08-0.06,0.16-0.09,0.24l-0.04,0.13l-0.04,0.14
				c-0.05,0.19-0.11,0.4-0.17,0.62l-0.07,0.34l-0.03,0.18l-0.03,0.19l-0.06,0.42l-0.02,0.23v0.02v0.01l0,0.07h0v0.13l0.01,0.09
				l0.01,0.09l0.02,0.08l0.03,0.08l0.03,0.07l0.04,0.07l0.04,0.06l0.04,0.06l0.05,0.05l0.1,0.1l0.05,0.05l0.06,0.04l0.12,0.08
				l0.12,0.06l0.12,0.05l0.12,0.04l0.11,0.03l0.11,0.03l0.18,0.03l0.52,0.08l0.47,0.09l0.84,0.18l1.56,0.38v0.01
				c0.42,0.09,0.88,0.18,1.43,0.27c0.51,0.07,1.3,0.14,2.08,0.21l1.14,0.11l0.5,0.06l0.35,0.06c0.19,0.04,0.37,0.1,0.55,0.17
				c0.13,0.2,0.27,0.38,0.42,0.56l0.19,0.22c1.22,1.2,2.51,2.32,3.87,3.35c1.02,0.88,1.56,1.52,2.3,2.23l0,0l0.02,0.02l0.03,0.03
				l0,0c0.36,0.34,0.73,0.67,1.12,0.97c0.82,0.66,2.68,1.78,3.54,2.4c0.59,0.44,1.14,0.95,1.76,1.37l0.25,0.17
				c1.55,0.99,3.26,1.7,5.06,2.08c1.35,0.43,2.81,0.42,4.16-0.04l0,0c0.01,0,0.02-0.01,0.02-0.01s0.03-0.01,0.04-0.01v-0.01
				c0.3-0.13,0.58-0.3,0.83-0.5c0.27-0.25,0.53-0.52,0.77-0.8c0.03-0.04,0.06-0.08,0.12-0.17c0.24-0.37,0.44-0.77,0.59-1.18
				c0.16-0.44,0.28-0.89,0.36-1.35C-2994.44,724.2-2994.41,723.41-2994.46,722.61z M-2997.52,724.66c-0.07,0.19-0.15,0.38-0.25,0.55
				c-0.07,0.14-0.15,0.26-0.24,0.39c-0.09,0.13-0.19,0.24-0.3,0.36c-0.13,0.1-0.27,0.19-0.41,0.27c-0.2,0.09-0.42,0.15-0.64,0.18
				c-0.27,0.02-0.55,0.01-0.82-0.03c-0.89-0.15-1.74-0.43-2.54-0.85c-0.69-0.35-1.3-0.89-1.99-1.28l-1.07-0.58
				c-1.05-0.57-2.05-1.23-2.98-1.97c-0.85-0.75-1.7-1.43-2.48-2.07l0,0l-1.85-1.54c-0.77-0.66-1.55-1.32-2.27-2.04
				c-0.59-0.59-1.06-1.29-1.67-1.85l-1.2-1.1c-0.1-0.1-0.21-0.2-0.31-0.3c-0.4-0.06-0.8-0.1-1.2-0.15l-0.97-0.1
				c-0.57-0.05-1.14-0.14-1.7-0.26c-1.12-0.26-2.15-0.43-3.16-0.58v0l-1.55-0.22l-0.07-0.01l-0.06-0.02l-0.05-0.03l-0.03-0.02
				l0.01-0.04l0.02-0.06l0.02-0.06l0.06-0.13l-0.02-0.01l0.01-0.02l0.03-0.09l0.04-0.08l0.08-0.16l0.11-0.23l0.24-0.44
				c0.16-0.31,0.35-0.61,0.55-0.9l0.31-0.45l0.36-0.41c0.57-0.67,1.26-1.22,2.03-1.65c0.33-0.14,0.68-0.25,1.01-0.36
				c0.35-0.09,0.71-0.14,1.04-0.27c0.35-0.13,0.7-0.23,1.06-0.31l0.79-0.17l0.81-0.09l0.83-0.08c0.29,0.01,0.58,0.04,0.88,0.09
				c0.99,0.11,1.98,0.28,2.95,0.5c0.75,0.16,1.5,0.37,2.23,0.62c0.92,0.3,1.81,0.69,2.65,1.16c0.69,0.39,1.28,0.94,1.95,1.36
				c0.28,0.17,0.69,0.39,1.03,0.62c1,0.6,1.93,1.32,2.76,2.14c0.74,0.8,1.4,1.53,2.02,2.26l0,0c0.52,0.6,1.01,1.22,1.46,1.87
				c0.56,0.78,1.05,1.61,1.45,2.48c0.26,0.71,0.48,1.44,0.66,2.18c0.1,0.3,0.24,0.7,0.34,1.05
				C-2997.27,722.66-2997.25,723.69-2997.52,724.66L-2997.52,724.66z"/>
		</g>
		<g id="그룹_20296" transform="translate(3146.53 -482.168)">
			<g id="그룹_20512-2">
				<g id="그룹_20477-2">
					<path id="패스_16580-2" class="st4" d="M-2939.52,710.97c0,0-13.78,14.22-17.13,9.48s4.66-15.97,14.43-17.24
						c9.24-1.2,10.34,6.53,10.34,6.53L-2939.52,710.97z"/>
					<path id="패스_16439" class="st3" d="M-2958.74,715.6c0.03-0.13,0.06-0.27,0.09-0.4c0.68-2.21,1.87-4.23,3.48-5.89
						c0.9-1.1,1.85-2.15,2.87-3.15l0,0l0,0l0,0c0.48-0.43,0.98-0.83,1.51-1.2c0.78-0.51,1.6-0.95,2.45-1.33
						c0.96-0.43,1.94-0.79,2.6-1.02c0.9-0.38,1.83-0.67,2.78-0.88l0.39-0.08c2.37-0.41,4.81-0.04,6.95,1.05
						c1.44,0.67,2.71,1.67,3.7,2.92l-2.57,1.77c-0.45-0.71-1.06-1.31-1.76-1.76c-0.9-0.56-1.92-0.91-2.98-1.01
						c-0.46-0.01-0.91,0.02-1.36,0.05c-0.46,0.09-0.92,0.15-1.38,0.18c-0.39,0.05-0.92,0.09-1.4,0.18c-1.38,0.23-2.7,0.71-3.92,1.4
						c-1.05,0.64-2.05,1.36-3.01,2.13c-0.75,0.61-1.46,1.27-2.12,1.98c-0.81,0.86-1.52,1.81-2.1,2.83c-0.4,0.83-0.71,1.69-0.95,2.58
						c-0.14,0.41-0.26,0.82-0.34,1.24c-0.04,0.24-0.06,0.48-0.07,0.72c-0.01,0.22,0.01,0.44,0.05,0.66
						c0.07,0.47,0.34,0.88,0.75,1.11c0.38,0.14,0.8,0.17,1.19,0.07c0.18-0.04,0.36-0.09,0.54-0.15l0.27-0.09l0.38-0.16l0,0
						c0.88-0.38,1.73-0.83,2.54-1.35c1.05-0.65,2.05-1.37,3-2.15c0.78-0.65,1.45-1.44,2.22-2.09l1.2-0.97l1.61-1.36
						c0.27-0.23,0.53-0.46,0.79-0.71c0.37-0.35,0.73-0.72,1.1-1.12c0.1-0.03,0.21-0.04,0.32-0.07l2.39-0.45l1.9-0.31l0,0l1.55-0.22
						l0.07-0.01l0.06-0.02l0.05-0.03l0,0l-0.01-0.03l-0.02-0.06l-0.06-0.12l0.02-0.01l-0.01-0.02l-0.08-0.16l-0.02-0.04l-0.02-0.04
						l-0.04-0.07l-0.17-0.3l-0.08-0.15l-0.1-0.14l2.57-1.77l0.13,0.16l0.03,0.04l0.03,0.04l0.06,0.09l0.24,0.38l0.12,0.2l0.06,0.1
						l0.05,0.11l0.21,0.47l0.05,0.12l0.05,0.13c0.03,0.09,0.06,0.18,0.1,0.28s0.07,0.2,0.1,0.3s0.06,0.22,0.09,0.33l0.04,0.17
						l0.04,0.18c0.02,0.12,0.05,0.24,0.07,0.37l0.06,0.44l0.02,0.32h-0.01v0.13l-0.01,0.09l-0.01,0.09l-0.02,0.08l-0.03,0.08
						l-0.03,0.07l-0.03,0.07l-0.04,0.06l-0.04,0.06l-0.05,0.05l-0.1,0.1l-0.05,0.05l-0.05,0.04l-0.12,0.08l-0.12,0.06l-0.12,0.05
						l-0.12,0.04l-0.11,0.03l-0.11,0.03l-0.18,0.03l-0.52,0.08l-0.47,0.09l-0.84,0.18l-1.56,0.38l0,0
						c-0.52,0.11-1.09,0.22-1.77,0.33l-1.08,0.13l-0.84,0.06l-0.34,0.28l-0.18,0.15l-0.28,0.25c-0.36,0.32-0.69,0.62-0.93,0.86
						c-0.64,0.63-1.22,1.34-1.88,1.96l-0.26,0.26c-1.6,1.43-3.34,2.71-5.18,3.82c-1.16,0.83-2.36,1.59-3.61,2.28l0,0
						c-0.73,0.36-1.51,0.6-2.32,0.73c-0.54,0.07-1.09,0.06-1.63-0.03c-0.64-0.13-1.24-0.42-1.74-0.84
						c-0.84-0.84-1.39-1.92-1.58-3.09c-0.13-0.6-0.19-1.21-0.18-1.83C-2958.91,716.65-2958.85,716.12-2958.74,715.6z"/>
				</g>
				<g id="그룹_20487-2">
					<path id="패스_16588-2" class="st4" d="M-2925.83,714.26c0,0-18.04,18.61-22.42,12.41s5.7-23.91,18.49-25.57
						c12.09-1.57,13.93,11.55,13.93,11.55L-2925.83,714.26z"/>
					<path id="패스_16440" class="st3" d="M-2950.59,725.38c0.08,0.34,0.2,0.67,0.35,0.98c0.13,0.31,0.3,0.61,0.5,0.89l0,0
						l0.17,0.25c0.94,1.19,2.38,1.86,3.89,1.82c0.3,0.02,0.6,0.01,0.9-0.03c0.27-0.02,0.54-0.05,0.8-0.1
						c0.51-0.08,1.01-0.19,1.5-0.34c0.93-0.27,1.82-0.66,2.65-1.17l0.27-0.17c0.68-0.41,1.29-0.94,1.93-1.38
						c0.93-0.63,2.91-1.79,3.79-2.48c0.36-0.27,0.7-0.57,1.03-0.87l0,0.01c0.03-0.03,0.06-0.06,0.09-0.09s0.04-0.03,0.06-0.05l0,0
						c0.76-0.73,1.48-1.49,2.52-2.38c1.44-1.08,2.81-2.26,4.1-3.52l0.21-0.23l0.27-0.3c0.06-0.06,0.11-0.13,0.16-0.2l0.28-0.39
						c0.13-0.04,0.25-0.08,0.39-0.11c0.08-0.02,0.17-0.03,0.27-0.04l0.52-0.06l1.2-0.12c0.83-0.08,1.65-0.15,2.19-0.23
						c0.58-0.09,1.06-0.18,1.5-0.28l0,0l1.56-0.38l0.84-0.18l0.47-0.09l0.52-0.08l0.18-0.03l0.11-0.03l0.11-0.03l0.12-0.04
						l0.12-0.05l0.12-0.06l0.12-0.08l0.05-0.04l0.05-0.05l0.1-0.1l0.05-0.05l0.04-0.06l0.04-0.06l0.03-0.07l0.03-0.07l0.03-0.08
						l0.02-0.08l0.01-0.09l0.01-0.09v-0.12h0.01l-0.02-0.32l-0.04-0.38c-0.02-0.12-0.03-0.23-0.05-0.35s-0.04-0.22-0.05-0.32
						l-0.05-0.31c-0.02-0.1-0.04-0.19-0.06-0.28c-0.04-0.18-0.09-0.35-0.12-0.5l-0.02-0.11l-0.03-0.11l-0.07-0.22
						c-0.05-0.14-0.1-0.28-0.14-0.41l-0.07-0.19l-0.03-0.09l-0.04-0.09l-0.18-0.35l0,0l-0.02-0.03l-0.08-0.16l0,0
						c-0.52-1.04-1.09-2.05-1.72-3.03c-0.95-1.79-2.36-3.28-4.09-4.33l-0.31-0.17c-0.39-0.2-0.79-0.36-1.21-0.48
						c-0.4-0.15-0.82-0.28-1.24-0.37c-0.79-0.24-1.6-0.43-2.41-0.56c-0.46-0.06-0.93-0.16-1.34-0.18c-0.42,0-0.8,0-1.1,0.02
						c-0.48,0.01-0.96,0.06-1.43,0.16v-0.01c-0.07,0.01-0.14,0.03-0.21,0.05l-0.04,0.01l0,0c-1.2,0.28-2.38,0.66-3.51,1.14
						c-1.83,0.56-3.55,1.41-5.1,2.52l-0.25,0.2c-0.63,0.5-1.19,1.09-1.77,1.63c-1.19,0.98-2.33,2.03-3.4,3.14
						c-0.35,0.41-0.68,0.84-0.97,1.28l0,0c-0.65,0.96-1.04,1.79-1.84,3.05c-1.09,1.54-1.96,3.23-2.58,5.02
						c-0.03,0.1-0.06,0.21-0.08,0.32c-0.19,0.8-0.34,1.61-0.44,2.42c-0.16,0.8-0.27,1.62-0.34,2.43
						C-2950.86,723.64-2950.8,724.52-2950.59,725.38z M-2947.83,723.07c-0.02-1.16,0.17-2.31,0.58-3.39
						c0.15-0.39,0.31-0.84,0.44-1.15c0.28-0.76,0.44-1.59,0.78-2.36c0.43-0.94,0.94-1.84,1.51-2.7c0.47-0.73,0.96-1.39,1.48-2.05
						l0,0c0.63-0.81,1.29-1.61,2.04-2.49c0.83-0.9,1.77-1.7,2.8-2.38c0.35-0.25,0.76-0.5,1.05-0.69c0.68-0.46,1.29-1.04,2.01-1.45
						c0.87-0.5,1.8-0.89,2.76-1.18c0.39-0.13,0.78-0.24,1.18-0.32c0.33-0.08,0.82-0.17,1.21-0.23c0.48-0.07,0.96-0.11,1.44-0.13
						l0.77-0.07c0.26-0.01,0.52-0.01,0.79,0.01c0.3,0.01,0.6,0.03,0.89,0.06c0.28,0.05,0.55,0.12,0.81,0.22l0.78,0.26
						c0.24,0.13,0.48,0.26,0.73,0.37l0.52,0.28l0.44,0.32c0.67,0.36,1.3,0.79,1.88,1.28c0.68,0.69,1.26,1.48,1.71,2.33
						c0.21,0.35,0.39,0.71,0.54,1.09c0.17,0.36,0.33,0.74,0.46,1.12l0.01-0.01l0.14,0.36l0.12,0.36l0.12,0.37l0.01,0.02h-0.02
						l0.03,0.07l0.02,0.07l0.01,0.07l0.01,0.07l0.01,0.06v0.06v0.02l-0.04,0.04l-0.05,0.03l-0.05,0.03l-0.06,0.02l-0.07,0.01
						l-1.55,0.22l0,0c-1.06,0.16-2.15,0.34-3.33,0.61c-0.53,0.12-1.07,0.2-1.62,0.26l-2.08,0.24l-0.7,0.67
						c-0.55,0.52-0.85,0.75-1.14,1.02c-0.64,0.59-1.15,1.32-1.77,1.93c-0.76,0.75-1.58,1.45-2.4,2.14
						c-0.69,0.58-1.35,1.11-2.03,1.65l0,0c-0.8,0.64-1.72,1.37-2.58,2.1c-1,0.76-2.06,1.43-3.18,1.99
						c-0.38,0.21-0.82,0.41-1.14,0.56c-0.73,0.38-1.39,0.88-2.12,1.16c-0.42,0.17-0.87,0.29-1.32,0.36
						c-0.34,0.06-0.69,0.06-1.03-0.01c-0.47-0.1-0.88-0.39-1.13-0.8l-0.06-0.1l0,0c-0.09-0.14-0.16-0.29-0.21-0.44
						c-0.08-0.19-0.15-0.39-0.2-0.59C-2947.7,724-2947.79,723.54-2947.83,723.07L-2947.83,723.07z"/>
				</g>
				<g id="그룹_20501-2">
					<path id="패스_16598-2" class="st4" d="M-2915.99,716.37c0,0-13.22,18.38-21.71,13.86c-8.34-4.43,3.24-26.97,17.77-28.97
						c13.73-1.89,15.28,13.17,15.28,13.17L-2915.99,716.37z"/>
					<path id="패스_16441" class="st3" d="M-2941.69,726.76c0.16,1.09,0.56,2.14,1.17,3.06c0.64,0.98,1.58,1.72,2.68,2.11
						l0.36,0.13c0.89,0.26,1.82,0.35,2.75,0.29c0.85-0.01,1.7-0.09,2.54-0.25c0.8-0.17,1.58-0.41,2.34-0.73
						c0.51-0.22,0.99-0.49,1.46-0.8v-0.01c0.98-0.66,1.66-1.26,2.85-2.13c1.53-1,2.95-2.16,4.24-3.45l0.21-0.23
						c0.52-0.56,0.97-1.2,1.47-1.78c0.73-0.82,2.39-2.36,3.08-3.22c0.3-0.35,0.57-0.72,0.84-1.1l0.01,0.01
						c0.1-0.06,0.2-0.34,0.25-0.43l0.14-0.28l0.01-0.02l0.01-0.02l0.02-0.01l0.02-0.01l0.02-0.01l0.02-0.01h0.06l0.03,0.01
						l0.04,0.01l0.02,0.01h0.01l0.03-0.03l0.02-0.02l0.01-0.01l0.01-0.01l0,0l0.06-0.01h0.02l0,0l0.18-0.03l0.17-0.04l0.15-0.04
						l0.14-0.04l0,0c0.4-0.19,0.83-0.32,1.27-0.41c0.69,0.02,1.39-0.03,2.07-0.15l0.11-0.04c0.28-0.08,0.55-0.25,0.84-0.32
						c0.41-0.1,1.3-0.02,1.72-0.07c0.23-0.03,0.45-0.08,0.67-0.16l1.4-0.36l0.8-0.19l0.45-0.09l0.49-0.08l0.17-0.03l0.1-0.03
						l0.11-0.03l0.11-0.04l0.11-0.05l0.11-0.06l0.11-0.08l0.05-0.04l0.05-0.05l0.05-0.05l0.02-0.03l0.03-0.02l0.05-0.05l0.05-0.05
						l0.04-0.06l0.04-0.06l0.03-0.07l0.03-0.07l0.02-0.08l0.02-0.08l0.01-0.09l0.01-0.09v-0.03h0l-0.01-0.31l-0.03-0.36l-0.03-0.33
						c-0.01-0.11-0.03-0.21-0.04-0.31c-0.03-0.2-0.04-0.39-0.08-0.57s-0.07-0.34-0.1-0.48l-0.09-0.43l-0.03-0.1l-0.03-0.1
						l-0.06-0.19c-0.08-0.29-0.18-0.58-0.31-0.85l0,0c-0.42-1.02-0.84-1.83-1.48-3.14c-0.42-0.87-0.88-1.72-1.38-2.54
						c-0.29-0.4-0.59-0.79-0.9-1.17c-0.33-0.38-0.69-0.72-1.09-1.02l-0.27-0.21c-0.33-0.27-0.7-0.49-1.08-0.68
						c-0.38-0.2-0.73-0.43-1.12-0.6c-0.28-0.12-0.62-0.28-1-0.47c-0.39-0.22-0.81-0.4-1.24-0.52l-1.29-0.41
						c-0.35-0.1-0.72-0.16-1.09-0.19c-0.56-0.06-1.13-0.09-1.7-0.09l0,0l-1.68,0.24l-0.9,0.11c-0.32,0.07-0.66,0.14-1.04,0.2
						c-1.89,0.25-3.72,0.84-5.41,1.74l-0.28,0.17c-0.69,0.4-1.31,0.93-1.95,1.39c-1.3,0.82-2.54,1.72-3.72,2.7
						c-0.4,0.36-0.77,0.74-1.11,1.15l0,0c-0.74,0.88-1.24,1.63-2.17,2.77c-1.25,1.36-2.33,2.86-3.22,4.48
						c-0.04,0.09-0.09,0.19-0.13,0.29c-0.36,0.69-0.58,1.47-0.88,2.19c-0.68,1.4-1.24,2.85-1.68,4.34c-0.1,0.45-0.18,0.9-0.22,1.36
						h-0.01c0,0.03,0,0.07,0,0.1c-0.01,0.06-0.02,0.13-0.02,0.19h0.01C-2942.02,724.21-2941.93,725.5-2941.69,726.76z
						 M-2906.5,713.25l0.02-0.04l0,0L-2906.5,713.25z M-2938.85,723.18c0.15-0.9,0.33-1.83,0.6-2.87c0.36-1.16,0.87-2.26,1.49-3.3
						c0.2-0.38,0.49-0.78,0.65-1.08c0.42-0.71,0.7-1.52,1.15-2.23c0.56-0.87,1.17-1.69,1.85-2.47c0.56-0.65,1.12-1.26,1.7-1.84l0,0
						c0.71-0.73,1.47-1.42,2.29-2.22c0.93-0.78,1.94-1.45,3.03-1.99c0.37-0.21,0.81-0.38,1.11-0.53c0.36-0.19,0.71-0.39,1.06-0.59
						c0.34-0.22,0.71-0.4,1.09-0.55c0.92-0.36,1.88-0.6,2.85-0.73c0.82-0.1,1.61-0.08,2.4-0.15l0,0c0.98,0.04,1.97,0.15,2.93,0.34
						c0.29,0.04,0.57,0.11,0.84,0.21l0.74,0.38c0.48,0.25,0.94,0.55,1.37,0.9c0.31,0.23,0.59,0.48,0.85,0.77
						c0.6,0.48,1.17,1,1.7,1.57c0.27,0.4,0.56,0.79,0.81,1.21c0.22,0.44,0.47,0.86,0.66,1.32c0.32,0.74,0.6,1.5,0.83,2.28
						c0.07,0.23,0.16,0.52,0.22,0.73l0.05,0.18l0.04,0.18l0.01,0.03h0l0.04,0.14l0.01,0.07l0.01,0.06v0.12v0.02l-0.01,0.01
						l-0.04,0.04l-0.04,0.03l-0.05,0.03l-0.06,0.02l-0.06,0.01l-1.31,0.2c-0.49,0.06-0.98,0.17-1.46,0.31c-0.5,0.1-1,0.15-1.51,0.14
						c-0.18,0-0.38,0-0.53,0.01c-0.34,0.1-0.67,0.22-0.99,0.35c-0.41,0.09-0.83,0.16-1.25,0.2c-0.35,0.05-0.69,0.08-1.03,0.13l0,0
						l-0.34,0.05l-0.35,0.07l-0.36,0.09l-0.37,0.11l-0.05,0.02l-0.03,0.02l-0.03,0.02l-0.04,0.03l-0.04,0.04l-0.02,0.02l-0.01,0.01
						l-0.02,0.02l-0.02,0.03l-0.02,0.03l-0.02,0.04l-0.02,0.04l-0.04,0.1l-0.01,0.02v0.02h-0.02l-0.06-0.01h-0.06l-0.06,0.01
						l-0.06,0.01l-0.06,0.02l-0.06,0.02l-0.05,0.03l-0.05,0.03l-0.05,0.03l-0.09,0.07l-0.08,0.08l-0.07,0.08l-0.79,0.95l0,0
						c-0.63,0.78-1.27,1.58-1.96,2.49c-0.81,0.96-1.68,1.87-2.63,2.7l-0.96,0.86c-0.61,0.58-1.12,1.28-1.74,1.87
						c-0.76,0.69-1.57,1.34-2.42,1.93c-0.68,0.47-1.38,0.91-2.1,1.31v0.01c-0.87,0.5-1.78,0.93-2.72,1.28
						c-0.99,0.35-2.06,0.4-3.07,0.13c-0.31-0.1-0.61-0.23-0.9-0.38c-0.58-0.19-1.1-0.53-1.51-0.98c-0.48-0.68-0.75-1.48-0.79-2.31
						C-2939.01,724.79-2938.97,723.98-2938.85,723.18z"/>
				</g>
				<path id="패스_16613-2" class="st4" d="M-2906.33,714.26c0,0-18.03,18.61-22.42,12.41s6.09-20.9,18.88-22.56
					c12.08-1.57,13.53,8.54,13.53,8.54L-2906.33,714.26z"/>
			</g>
			<path id="패스_16442" class="st3" d="M-2931.07,725c0.08,0.46,0.2,0.91,0.36,1.35c0.16,0.41,0.35,0.81,0.59,1.18
				c0.06,0.08,0.09,0.13,0.12,0.17c0.24,0.28,0.5,0.55,0.77,0.8c0.25,0.21,0.53,0.37,0.83,0.5v0.01c0.01,0.01,0.03,0.01,0.04,0.01
				s0.02,0.01,0.02,0.01l0,0c1.35,0.46,2.8,0.47,4.16,0.04c1.8-0.38,3.51-1.09,5.06-2.08l0.25-0.17c0.62-0.42,1.17-0.93,1.76-1.37
				c0.86-0.62,2.72-1.74,3.54-2.4c0.39-0.3,0.76-0.63,1.12-0.97l0,0l0.03-0.03l0.02-0.02l0,0c0.74-0.72,1.28-1.35,2.3-2.23
				c1.36-1.03,2.66-2.15,3.87-3.35l0.19-0.22c0.15-0.18,0.29-0.37,0.42-0.56c0.18-0.07,0.36-0.13,0.55-0.17l0.35-0.06l0.5-0.06
				l1.14-0.11c0.78-0.07,1.57-0.13,2.08-0.21c0.55-0.08,1.01-0.17,1.43-0.27v-0.01l1.56-0.38l0.84-0.18l0.47-0.09l0.52-0.08
				l0.18-0.03l0.11-0.03l0.11-0.03l0.12-0.04l0.12-0.05l0.12-0.06l0.12-0.08l0.06-0.04l0.05-0.05l0.1-0.1l0.05-0.05l0.04-0.06
				l0.04-0.06l0.03-0.07l0.03-0.07l0.03-0.08l0.02-0.08l0.01-0.09l0.01-0.09v-0.13h0l0-0.07v-0.01v-0.02l-0.02-0.23l-0.06-0.42
				l-0.03-0.19l-0.03-0.18l-0.07-0.34c-0.06-0.22-0.11-0.42-0.16-0.62l-0.04-0.14l-0.05-0.13c-0.03-0.08-0.06-0.16-0.09-0.24
				c-0.06-0.16-0.12-0.31-0.16-0.46l-0.2-0.41c-0.07-0.13-0.14-0.26-0.2-0.38l-0.05-0.09c-0.13-0.26-0.3-0.51-0.5-0.72
				c-0.01-0.01-0.03-0.02-0.04-0.02c-0.6-0.83-1.27-1.6-2-2.31c-1.32-1.44-3.03-2.47-4.92-2.95l-0.32-0.08
				c-0.79-0.11-1.59-0.17-2.39-0.18c-1.5-0.14-3.01-0.14-4.52-0.01c-0.63,0.08-1.25,0.23-1.85,0.44v0.01
				c-0.92,0.31-1.69,0.66-2.9,1.11c-1.71,0.54-3.33,1.32-4.82,2.31l-0.24,0.19c-0.61,0.45-1.15,0.99-1.72,1.48
				c-1.17,0.88-2.3,1.82-3.37,2.83c-0.35,0.37-0.68,0.77-0.98,1.18l0,0c-0.65,0.89-1.05,1.67-1.85,2.86
				c-1.12,1.46-1.96,3.11-2.48,4.87l-0.07,0.32c-0.16,0.8-0.23,1.62-0.23,2.44C-2931.21,723.42-2931.18,724.22-2931.07,725z
				 M-2928.03,721.7c0.09-0.35,0.24-0.76,0.34-1.05c0.18-0.74,0.4-1.46,0.66-2.18c0.4-0.87,0.89-1.7,1.45-2.48
				c0.46-0.65,0.94-1.27,1.46-1.87l0,0c0.62-0.73,1.28-1.46,2.02-2.26c0.83-0.82,1.76-1.54,2.76-2.14c0.34-0.22,0.75-0.44,1.03-0.62
				c0.66-0.42,1.25-0.97,1.94-1.36c0.85-0.47,1.73-0.86,2.65-1.16c0.73-0.25,1.47-0.46,2.23-0.62c0.97-0.22,1.96-0.39,2.95-0.5
				c0.3-0.04,0.59-0.07,0.88-0.09l0.83,0.08l0.81,0.09l0.79,0.17c0.36,0.07,0.72,0.18,1.06,0.31c0.33,0.13,0.7,0.17,1.04,0.27
				c0.33,0.11,0.68,0.22,1.01,0.36c0.77,0.43,1.45,0.99,2.03,1.65l0.36,0.41l0.31,0.45c0.2,0.29,0.38,0.59,0.55,0.9l0.24,0.44
				l0.11,0.23l0.08,0.16l0.04,0.08l0.03,0.09l0.01,0.02l-0.02,0.01l0.06,0.13l0.02,0.06l0.02,0.06l0.01,0.04l-0.03,0.02l-0.05,0.03
				l-0.06,0.02l-0.07,0.01l-1.55,0.22v0.01c-1.01,0.15-2.03,0.33-3.16,0.58c-0.56,0.12-1.13,0.21-1.7,0.26l-0.97,0.1
				c-0.4,0.05-0.8,0.09-1.2,0.15c-0.1,0.1-0.21,0.2-0.31,0.3l-1.2,1.1c-0.6,0.56-1.08,1.26-1.67,1.85c-0.72,0.72-1.5,1.38-2.27,2.04
				l-1.85,1.54l0,0c-0.78,0.64-1.63,1.32-2.48,2.07c-0.94,0.74-1.94,1.4-2.98,1.97l-1.07,0.58c-0.69,0.39-1.29,0.93-1.99,1.28
				c-0.8,0.41-1.65,0.7-2.54,0.85c-0.27,0.05-0.54,0.06-0.82,0.03c-0.22-0.03-0.44-0.09-0.64-0.18c-0.14-0.08-0.28-0.17-0.41-0.27
				c-0.11-0.11-0.21-0.23-0.3-0.36c-0.09-0.12-0.17-0.25-0.24-0.39c-0.1-0.18-0.18-0.36-0.25-0.55
				C-2928.36,723.69-2928.34,722.66-2928.03,721.7z"/>
		</g>
	</g>
</g>
</svg>
