<?xml version="1.0" encoding="utf-8"?>
<!-- Generator: Adobe Illustrator 24.1.1, SVG Export Plug-In . SVG Version: 6.00 Build 0)  -->
<!DOCTYPE svg PUBLIC "-//W3C//DTD SVG 1.1//EN" "http://www.w3.org/Graphics/SVG/1.1/DTD/svg11.dtd" [
	<!ENTITY ns_extend "http://ns.adobe.com/Extensibility/1.0/">
	<!ENTITY ns_ai "http://ns.adobe.com/AdobeIllustrator/10.0/">
	<!ENTITY ns_graphs "http://ns.adobe.com/Graphs/1.0/">
	<!ENTITY ns_vars "http://ns.adobe.com/Variables/1.0/">
	<!ENTITY ns_imrep "http://ns.adobe.com/ImageReplacement/1.0/">
	<!ENTITY ns_sfw "http://ns.adobe.com/SaveForWeb/1.0/">
	<!ENTITY ns_custom "http://ns.adobe.com/GenericCustomNamespace/1.0/">
	<!ENTITY ns_adobe_xpath "http://ns.adobe.com/XPath/1.0/">
]>
<svg version="1.1" id="레이어_1" xmlns:x="&ns_extend;" xmlns:i="&ns_ai;" xmlns:graph="&ns_graphs;"
	 xmlns="http://www.w3.org/2000/svg" xmlns:xlink="http://www.w3.org/1999/xlink" x="0px" y="0px" viewBox="0 0 32.55 19.3"
	 style="enable-background:new 0 0 32.55 19.3;" xml:space="preserve">
<style type="text/css">
	.st0{fill:#202020;}
	.st1{fill:#FFFFFF;}
</style>
<metadata>
	<sfw  xmlns="&ns_sfw;">
		<slices></slices>
		<sliceSourceBounds  bottomLeftOrigin="true" height="19.28" width="32.56" x="0" y="0.02"></sliceSourceBounds>
	</sfw>
</metadata>
<g>
	<g id="XMLID_1_">
		<g>
			<path class="st0" d="M20.02,10.16c-0.1,0.11-0.19,0.24-0.27,0.37c-0.09,0.13-0.15,0.27-0.24,0.39c-0.04,0.05-0.09,0.11-0.13,0.18
				l-0.13,0.2l-0.08,0.14l-0.07,0.15c-0.04,0.1-0.1,0.2-0.14,0.3c-0.09,0.21-0.15,0.43-0.18,0.66c-0.04,0.21-0.03,0.41-0.05,0.6
				c0,0.1,0,0.19,0,0.29v0.28c0.01,0.15,0.03,0.3,0.04,0.45c0.03,0.15,0.06,0.3,0.09,0.46c0.02,0.09,0.05,0.18,0.08,0.27
				c0.03,0.09,0.06,0.18,0.09,0.27l0.11,0.26c0.02,0.04,0.04,0.09,0.06,0.13l0.07,0.12c0.08,0.13,0.17,0.26,0.27,0.37
				c0.1,0.12,0.19,0.24,0.29,0.35c0.08,0.1,0.18,0.25,0.29,0.36c0.29,0.35,0.64,0.63,1.04,0.84c0.1,0.04,0.19,0.09,0.28,0.13
				c0.1,0.03,0.19,0.07,0.28,0.1l0.13,0.05c0.05,0.02,0.09,0.03,0.14,0.04L22.26,18c0.13,0.04,0.28,0.06,0.42,0.1
				c0.15,0.04,0.3,0.04,0.46,0.06c0.18,0.02,0.37,0,0.56,0.01c0.19-0.01,0.37-0.04,0.56-0.07c0.15-0.03,0.3-0.08,0.44-0.14
				c0.14-0.07,0.28-0.12,0.42-0.17c0.12-0.05,0.29-0.1,0.43-0.16c0.41-0.17,0.79-0.42,1.12-0.73c0.13-0.16,0.28-0.3,0.39-0.46
				l0.18-0.22l0.16-0.24c0.08-0.12,0.16-0.25,0.23-0.39c0.08-0.14,0.14-0.28,0.2-0.42c0.08-0.17,0.14-0.35,0.19-0.53
				c0.02-0.04,0.02-0.08,0.03-0.12c-0.25-0.08-0.48-0.17-0.64-0.23c-0.29-0.1-0.58-0.17-0.86-0.29l-0.11-0.05
				c-0.63-0.31-1.22-0.68-1.77-1.12c-0.45-0.31-0.75-0.46-1.11-0.68c-0.17-0.11-0.33-0.22-0.49-0.34c-0.34-0.26-0.96-0.87-1.28-1.15
				c-0.22-0.19-0.47-0.37-0.69-0.58L21.01,10c-0.12-0.13-0.23-0.26-0.34-0.4c-0.08,0.05-0.16,0.11-0.24,0.17l-0.22,0.18
				C20.15,10.02,20.08,10.09,20.02,10.16z M17.86,15.23c-0.1-0.29-0.14-0.53-0.21-0.75c-0.05-0.22-0.09-0.43-0.13-0.66
				c-0.02-0.22-0.03-0.44-0.02-0.66c0.02-0.12,0.04-0.27,0.06-0.43c0.01-0.08,0.03-0.17,0.05-0.25l0.07-0.26
				c0.05-0.16,0.1-0.33,0.16-0.49l0.07-0.22c0.02-0.07,0.05-0.13,0.07-0.18c0.03-0.08,0.05-0.15,0.08-0.23
				c0.02-0.08,0.05-0.16,0.08-0.23c0.06-0.15,0.12-0.31,0.2-0.45l0.06-0.11c0.19-0.34,0.44-0.64,0.72-0.9
				c0.14-0.13,0.29-0.26,0.44-0.37c0.15-0.12,0.3-0.24,0.46-0.34l0.08-0.05c-0.09-0.19-0.16-0.39-0.21-0.6
				c-0.07-0.28-0.12-0.57-0.12-0.86c-0.01-0.26,0.03-0.52,0.11-0.77c0.03-0.1,0.07-0.2,0.12-0.31c0.06-0.11,0.12-0.22,0.19-0.33
				c0.19-0.28,0.44-0.53,0.72-0.72c0.55-0.35,1.15-0.63,1.78-0.81l0.13-0.03c0.72-0.11,1.47-0.07,2.18,0.1
				c0.57,0.1,0.92,0.14,1.35,0.24V4.55c0.2,0.05,0.4,0.11,0.59,0.19c0.27,0.12,0.53,0.25,0.79,0.4c0.29,0.17,0.57,0.35,0.76,0.46
				c0.27,0.16,0.54,0.29,0.79,0.47l0.1,0.07c0.57,0.45,1.06,0.98,1.46,1.57c0.35,0.46,0.58,0.73,0.83,1.1
				c0.1,0.18,0.2,0.35,0.29,0.54c0.12,0.28,0.22,0.57,0.29,0.86c0.09,0.34,0.14,0.68,0.18,0.9c0.08,0.32,0.12,0.65,0.13,0.98
				c0,0.05,0,0.1,0,0.14c-0.02,0.42-0.14,0.82-0.35,1.18c-0.22,0.38-0.53,0.69-0.91,0.92c-0.25,0.15-0.51,0.27-0.79,0.35
				c-0.23,0.07-0.46,0.12-0.7,0.14c-0.23,0.02-0.45,0.02-0.67-0.01c-0.02,0.07-0.04,0.14-0.07,0.21l-0.09,0.27
				c-0.15,0.46-0.34,0.91-0.56,1.34l-0.01-0.01c-0.05,0.09-0.09,0.17-0.15,0.26c-0.06,0.1-0.13,0.19-0.21,0.28
				c-0.21,0.24-0.44,0.46-0.69,0.65c-0.15,0.11-0.28,0.22-0.42,0.31c-0.13,0.09-0.26,0.17-0.35,0.24c-0.26,0.19-0.54,0.36-0.83,0.51
				l-0.12,0.06c-0.35,0.16-0.73,0.26-1.11,0.3l-0.14,0.02l-0.14,0.01l-0.29,0.01c-0.19,0.02-0.38,0-0.57,0h-0.22l-0.2-0.01
				c-0.13,0-0.25-0.01-0.36-0.01c-0.22-0.02-0.44-0.03-0.67-0.08c-0.1-0.03-0.19-0.05-0.29-0.08c-0.12-0.02-0.23-0.06-0.34-0.11
				c-0.11-0.05-0.24-0.11-0.39-0.18l-0.44-0.27c-0.15-0.1-0.29-0.21-0.42-0.3c-0.13-0.09-0.24-0.19-0.33-0.26l-0.2-0.14l-0.19-0.15
				c-0.13-0.1-0.25-0.21-0.36-0.33l-0.09-0.09c-0.06-0.07-0.13-0.14-0.19-0.22c-0.06-0.08-0.11-0.16-0.16-0.24
				c-0.05-0.08-0.11-0.15-0.15-0.24l-0.13-0.26c-0.04-0.09-0.09-0.17-0.12-0.26l-0.1-0.27c-0.03-0.09-0.07-0.18-0.1-0.27
				L17.86,15.23z"/>
			<path class="st1" d="M28.05,14.52c-0.01,0.04-0.01,0.08-0.03,0.12c-0.05,0.18-0.11,0.36-0.19,0.53c-0.06,0.14-0.12,0.28-0.2,0.42
				c-0.07,0.14-0.15,0.27-0.23,0.39l-0.16,0.24l-0.18,0.22c-0.11,0.16-0.26,0.3-0.39,0.46c-0.33,0.31-0.71,0.56-1.12,0.73
				c-0.14,0.06-0.31,0.11-0.43,0.16c-0.14,0.05-0.28,0.1-0.42,0.17c-0.14,0.06-0.29,0.11-0.44,0.14c-0.19,0.03-0.37,0.06-0.56,0.07
				c-0.19-0.01-0.38,0.01-0.56-0.01c-0.16-0.02-0.31-0.02-0.46-0.06c-0.14-0.04-0.29-0.06-0.42-0.1l-0.27-0.08
				c-0.05-0.01-0.09-0.02-0.14-0.04l-0.13-0.05c-0.09-0.03-0.18-0.07-0.28-0.1c-0.09-0.04-0.18-0.09-0.28-0.13
				c-0.4-0.21-0.75-0.49-1.04-0.84c-0.11-0.11-0.21-0.26-0.29-0.36c-0.1-0.11-0.19-0.23-0.29-0.35c-0.1-0.11-0.19-0.24-0.27-0.37
				l-0.07-0.12c-0.02-0.04-0.04-0.09-0.06-0.13l-0.11-0.26c-0.03-0.09-0.06-0.18-0.09-0.27c-0.03-0.09-0.06-0.18-0.08-0.27
				c-0.03-0.16-0.06-0.31-0.09-0.46c-0.01-0.15-0.03-0.3-0.04-0.45v-0.28c0-0.1,0-0.19,0-0.29c0.02-0.19,0.01-0.39,0.05-0.6
				c0.03-0.23,0.09-0.45,0.18-0.66c0.04-0.1,0.1-0.2,0.14-0.3l0.07-0.15l0.08-0.14l0.13-0.2c0.04-0.07,0.09-0.13,0.13-0.18
				c0.09-0.12,0.15-0.26,0.24-0.39c0.08-0.13,0.17-0.26,0.27-0.37c0.06-0.07,0.13-0.14,0.19-0.21l0.22-0.18
				c0.08-0.06,0.16-0.12,0.24-0.17c0.11,0.14,0.22,0.27,0.34,0.4l0.09,0.08c0.22,0.21,0.47,0.39,0.69,0.58
				c0.32,0.28,0.94,0.89,1.28,1.15c0.16,0.12,0.32,0.23,0.49,0.34c0.36,0.22,0.66,0.37,1.11,0.68c0.55,0.44,1.14,0.81,1.77,1.12
				L26.55,14c0.28,0.12,0.57,0.19,0.86,0.29C27.57,14.35,27.8,14.44,28.05,14.52z"/>
			<path class="st0" d="M14.4,6.66c0,0,0,0.01-0.01,0.01c0,0.01,0,0.01,0,0.01s0,0,0,0.01c0,0.01-0.01,0.01-0.01,0.03l-0.01,0.02
				c0,0,0,0,0,0.01l-0.01,0.04c-0.02,0.11-0.04,0.22-0.05,0.33c-0.01,0.13-0.01,0.26-0.02,0.39c0,0.07,0,0.15,0,0.22
				c0.01,0.29-0.01,0.59-0.05,0.88c-0.03,0.19-0.08,0.38-0.14,0.56c-0.1,0.29-0.17,0.5-0.24,0.74c-0.04,0.14-0.09,0.28-0.15,0.41
				c-0.03,0.05-0.08,0.1-0.14,0.14l-0.03,0.01l-0.01,0.01h-0.01v-0.01c-0.01,0-0.03,0-0.05,0c-0.03,0-0.05-0.01-0.08-0.02
				c-0.07-0.03-0.14-0.07-0.19-0.11c-0.01,0-0.02-0.01-0.03-0.02c-0.12-0.09-0.25-0.22-0.35-0.33c-0.22-0.25-0.41-0.52-0.56-0.81
				c-0.22-0.4-0.42-0.87-0.57-1.13c-0.2-0.37-0.44-0.71-0.66-1.09l-0.09-0.15c-0.39-0.57-0.65-1.22-1.08-1.71
				c-0.14-0.16-0.3-0.31-0.48-0.43C9.31,4.62,9.24,4.58,9.17,4.53L9.06,4.48c-0.03-0.01-0.07-0.02-0.1-0.03
				C8.91,4.44,8.87,4.42,8.82,4.42H8.81c0.06,0.06,0.12,0.11,0.17,0.17c0.08,0.1,0.18,0.25,0.26,0.38C9.5,5.33,9.68,5.69,9.98,6.06
				c0.23,0.29,0.44,0.6,0.63,0.92l0.12,0.21c0.05,0.09,0.14,0.18,0.19,0.27c0.1,0.12,0.14,0.28,0.12,0.44
				c-0.05,0.26-0.24,0.46-0.49,0.53c-0.11,0.03-0.23,0.02-0.34-0.02c-0.04-0.02-0.08-0.03-0.11-0.05C10,8.29,9.93,8.19,9.9,8.07
				C9.88,8.03,9.86,7.99,9.83,7.95L9.58,7.62L9.57,7.6C9.49,7.49,9.4,7.36,9.3,7.2C9.12,6.91,8.79,6.27,8.58,6
				C8.43,5.82,8.25,5.66,8.1,5.48L8.04,5.41c-0.1-0.09-0.19-0.19-0.27-0.3c-0.09-0.09-0.17-0.2-0.25-0.3
				C7.38,4.62,7.21,4.46,7.01,4.34C6.98,4.32,6.94,4.31,6.91,4.3c-0.04-0.01-0.07-0.03-0.1-0.04H6.74c-0.03-0.01-0.05-0.01-0.07,0
				c-0.01,0-0.03,0.01-0.05,0.01S6.59,4.28,6.58,4.29C6.55,4.3,6.48,4.35,6.46,4.36C6.45,4.37,6.43,4.38,6.42,4.39
				C6.4,4.42,6.37,4.48,6.33,4.53C6.32,4.54,6.31,4.55,6.3,4.56C6.4,4.63,6.49,4.7,6.57,4.78C6.84,4.99,7.1,5.22,7.33,5.46
				c0.09,0.11,0.2,0.26,0.3,0.4c0.29,0.38,0.5,0.78,0.82,1.16c0.26,0.31,0.49,0.63,0.71,0.96l0.16,0.24c0.06,0.1,0.17,0.2,0.23,0.29
				c0.11,0.13,0.17,0.3,0.16,0.47c-0.02,0.26-0.2,0.48-0.46,0.56C9.14,9.57,9.01,9.56,8.9,9.52C8.86,9.51,8.82,9.49,8.79,9.47
				C8.68,9.4,8.6,9.29,8.55,9.16C8.53,9.11,8.5,9.07,8.47,9.03L8.18,8.68c-0.09-0.12-0.2-0.26-0.32-0.43c-0.21-0.32-0.6-1-0.84-1.29
				C6.85,6.75,6.65,6.58,6.48,6.39L6.41,6.32c-0.22-0.21-0.4-0.44-0.59-0.64c-0.08-0.1-0.17-0.19-0.27-0.27
				C5.53,5.39,5.51,5.38,5.49,5.37L5.46,5.35L5.45,5.34L5.44,5.33c0.01,0,0.01,0,0.02,0c0.03-0.01-0.02-0.01-0.04-0.01
				C5.31,5.3,5.2,5.33,5.12,5.4C5.09,5.46,5.07,5.51,5.06,5.57C5.05,5.6,5.05,5.62,5.05,5.65c0,0.05,0.02,0.14,0.02,0.22
				c0,0.04-0.01,0.07-0.01,0.11c0.2,0.06,0.4,0.15,0.57,0.27c0.26,0.18,0.48,0.39,0.68,0.63C6.5,7.1,6.67,7.32,6.86,7.54
				C7.15,7.9,7.43,8.27,7.68,8.67l0.16,0.24c0.07,0.11,0.18,0.22,0.25,0.32C8.31,9.45,8.36,9.8,8.2,10.08
				c-0.05,0.12-0.15,0.21-0.27,0.26c-0.13,0.03-0.27,0.03-0.39-0.02c-0.04-0.02-0.09-0.04-0.13-0.06c-0.13-0.09-0.24-0.22-0.3-0.37
				c-0.03-0.05-0.06-0.1-0.1-0.15C6.9,9.61,6.8,9.48,6.68,9.34c-0.11-0.15-0.22-0.31-0.35-0.5C6.21,8.66,6.05,8.38,5.87,8.12
				C5.72,7.9,5.55,7.69,5.36,7.5C5.2,7.36,5,7.25,4.79,7.19c-0.02,0-0.03,0-0.05,0c-0.05-0.01-0.11,0-0.16,0.02
				c-0.02,0.01-0.02,0-0.02,0s-0.02,0-0.03,0.02C4.48,7.32,4.46,7.41,4.46,7.51c0,0.14,0.01,0.29,0.05,0.43
				c0.05,0.21,0.12,0.42,0.22,0.62C4.82,8.74,4.91,8.9,5.01,9.08C5.1,9.23,5.19,9.39,5.29,9.59c0.1,0.19,0.24,0.48,0.39,0.76
				c0.13,0.25,0.28,0.5,0.44,0.73c0.18,0.24,0.39,0.44,0.58,0.67l0.07,0.1c0.46,0.52,0.84,1.11,1.32,1.6
				c0.31,0.3,0.65,0.57,1.02,0.8l0.47,0.32c0.21,0.16,0.43,0.3,0.66,0.43c0.12,0.07,0.25,0.12,0.38,0.17
				c0.11,0.05,0.22,0.08,0.34,0.1c0.13,0.03,0.27,0.04,0.4,0.04c0.14,0,0.27,0,0.4-0.01l0.11-0.01c0.08,0,0.15-0.01,0.23-0.02
				l0.23-0.02c0.15-0.02,0.31-0.02,0.46-0.06c0.31-0.05,0.6-0.15,0.88-0.29c0.18-0.1,0.35-0.23,0.5-0.38
				c0.06-0.07,0.13-0.13,0.18-0.2l0.14-0.18c0.03-0.04,0.06-0.09,0.1-0.14c0.04-0.07,0.08-0.14,0.13-0.22
				c0.02-0.04,0.04-0.08,0.06-0.13c0.02-0.05,0.05-0.1,0.07-0.15c0.05-0.13,0.11-0.26,0.15-0.41l0.07-0.21
				c0.02-0.07,0.03-0.14,0.05-0.21c0.02-0.12,0.04-0.25,0.05-0.37c0.01-0.29,0-0.57-0.02-0.86c0-0.04-0.01-0.08-0.01-0.12
				c-0.05-0.67,0-1.37-0.08-2.07c-0.03-0.29-0.08-0.51-0.12-0.75c-0.03-0.2-0.07-0.39-0.12-0.58c-0.03-0.16-0.08-0.33-0.13-0.53
				c-0.05-0.22-0.12-0.43-0.22-0.63C14.43,6.7,14.4,6.67,14.4,6.66z M16.4,11.25c0,0.16-0.03,0.38-0.04,0.57
				c-0.05,0.56-0.15,1.12-0.28,1.67c-0.03,0.13-0.07,0.26-0.1,0.39c-0.04,0.13-0.1,0.26-0.15,0.39c-0.06,0.12-0.13,0.24-0.2,0.35
				s-0.15,0.22-0.23,0.32l-0.01-0.01c-0.26,0.29-0.56,0.56-0.89,0.78c-0.42,0.27-0.88,0.47-1.36,0.61
				c-0.38,0.13-0.78,0.22-1.19,0.24c-0.2-0.01-0.41-0.03-0.61-0.06c-0.14-0.02-0.29-0.04-0.43-0.08c-0.14-0.04-0.29-0.07-0.42-0.12
				l-0.41-0.15c-0.14-0.06-0.28-0.12-0.42-0.18c-0.45-0.2-0.87-0.46-1.26-0.77c-0.3-0.24-0.57-0.49-0.85-0.75
				c-0.33-0.32-0.64-0.65-0.95-0.98c-0.27-0.25-0.53-0.52-0.77-0.8c-0.1-0.12-0.22-0.3-0.32-0.46c-0.31-0.45-0.54-0.9-0.87-1.37
				c-0.27-0.39-0.51-0.81-0.71-1.24c-0.16-0.35-0.3-0.71-0.41-1.08C3.44,8.28,3.39,8.03,3.36,7.78C3.34,7.64,3.33,7.5,3.34,7.36
				c0-0.17,0.03-0.33,0.08-0.48c0.04-0.16,0.11-0.3,0.21-0.43c0.05-0.07,0.11-0.13,0.18-0.19C3.79,6.17,3.78,6.07,3.8,5.97
				l0.04-0.43c0.01-0.1,0.03-0.2,0.06-0.3H3.89C3.9,5.23,3.9,5.22,3.91,5.21c0-0.02,0-0.04,0.01-0.06h0.02
				c0.08-0.22,0.23-0.45,0.41-0.6C4.56,4.38,4.8,4.27,5.06,4.23h0.01C5.08,4.07,5.15,3.91,5.28,3.8c0.1-0.1,0.2-0.2,0.31-0.3
				c0.08-0.07,0.17-0.13,0.27-0.19V3.3h0.01C5.89,3.29,5.9,3.28,5.91,3.27l0.01,0.01c0.1-0.04,0.23-0.08,0.32-0.11
				c0.12-0.03,0.23-0.05,0.35-0.05c0.12-0.01,0.23,0,0.33,0.03c0.1,0.01,0.2,0.04,0.3,0.08c0.21,0.08,0.41,0.19,0.6,0.32l0.1,0.08
				c0.04-0.11,0.12-0.21,0.22-0.28C8.2,3.31,8.25,3.28,8.31,3.26c0.05-0.02,0.11-0.04,0.17-0.05C8.52,3.2,8.57,3.19,8.61,3.19h0.13
				C8.82,3.19,8.91,3.2,9,3.21c0.15,0.03,0.3,0.07,0.45,0.14l0.16,0.08l0.14,0.09L9.9,3.61c0.04,0.03,0.08,0.07,0.12,0.1
				c0.16,0.13,0.32,0.26,0.46,0.41c0.33,0.34,0.62,0.72,0.89,1.11c0.23,0.29,0.44,0.6,0.64,0.91l0.03,0.05l0.01,0.03l0.03,0.07
				l0.06,0.15c0.07,0.13,0.12,0.28,0.19,0.43c0.06,0.15,0.13,0.29,0.21,0.43c0.13,0.19,0.25,0.43,0.37,0.65
				c0.03,0.08,0.08,0.14,0.13,0.21c0.02,0.01,0.03,0.03,0.05,0.04c0.02,0.01,0.04,0,0.06-0.01c0.03-0.02,0.05-0.05,0.06-0.09
				c0.01-0.05,0.02-0.09,0.03-0.14c0.03-0.25,0.03-0.51,0.02-0.76c-0.01-0.11-0.02-0.25-0.03-0.37c-0.02-0.1-0.01-0.21,0-0.32
				c0.02-0.1,0.05-0.19,0.1-0.27c0.01-0.02,0.03-0.05,0.04-0.07l0.01-0.02l0.02-0.03l0.05-0.07c0.03-0.04,0.07-0.09,0.11-0.13
				c0.05-0.04,0.09-0.08,0.14-0.12s0.1-0.08,0.16-0.11l0.09-0.05c0.03-0.01,0.05-0.02,0.08-0.03c0.06-0.02,0.11-0.03,0.17-0.05
				c0.06-0.01,0.13-0.02,0.19-0.02c0.13-0.01,0.27,0.01,0.4,0.05c0.12,0.04,0.23,0.1,0.33,0.18c0.16,0.13,0.3,0.29,0.41,0.46
				c0.15,0.24,0.27,0.5,0.35,0.77c0.07,0.23,0.11,0.45,0.12,0.68c0.04,0.19,0.05,0.42,0.07,0.61c0,0.08,0.01,0.17,0.02,0.25
				l0.03,0.26c0.05,0.44,0.1,0.88,0.15,1.34C16.34,10.51,16.38,10.88,16.4,11.25z"/>
			<path class="st1" d="M15.15,11.44c0.02,0.29,0.03,0.57,0.02,0.86c-0.01,0.12-0.03,0.25-0.05,0.37c-0.02,0.07-0.03,0.14-0.05,0.21
				L15,13.09c-0.04,0.15-0.1,0.28-0.15,0.41c-0.02,0.05-0.05,0.1-0.07,0.15c-0.02,0.05-0.04,0.09-0.06,0.13
				c-0.05,0.08-0.09,0.15-0.13,0.22c-0.04,0.05-0.07,0.1-0.1,0.14l-0.14,0.18c-0.05,0.07-0.12,0.13-0.18,0.2
				c-0.15,0.15-0.32,0.28-0.5,0.38c-0.28,0.14-0.57,0.24-0.88,0.29c-0.15,0.04-0.31,0.04-0.46,0.06l-0.23,0.02
				c-0.08,0.01-0.15,0.02-0.23,0.02l-0.11,0.01c-0.13,0.01-0.26,0.01-0.4,0.01c-0.13,0-0.27-0.01-0.4-0.04
				c-0.12-0.02-0.23-0.05-0.34-0.1c-0.13-0.05-0.26-0.1-0.38-0.17c-0.23-0.13-0.45-0.27-0.66-0.43l-0.47-0.32
				c-0.37-0.23-0.71-0.5-1.02-0.8c-0.48-0.49-0.86-1.08-1.32-1.6l-0.07-0.1c-0.19-0.23-0.4-0.43-0.58-0.67
				c-0.16-0.23-0.31-0.48-0.44-0.73c-0.15-0.28-0.29-0.57-0.39-0.76c-0.1-0.2-0.19-0.36-0.28-0.51C4.91,8.9,4.82,8.74,4.73,8.56
				c-0.1-0.2-0.17-0.41-0.22-0.62C4.47,7.8,4.46,7.65,4.46,7.51c0-0.1,0.02-0.19,0.07-0.28c0.01-0.02,0.03-0.02,0.03-0.02
				s0,0.01,0.02,0c0.05-0.02,0.11-0.03,0.16-0.02c0.02,0,0.03,0,0.05,0C5,7.25,5.2,7.36,5.36,7.5c0.19,0.19,0.36,0.4,0.51,0.62
				c0.18,0.26,0.34,0.54,0.46,0.72c0.13,0.19,0.24,0.35,0.35,0.5C6.8,9.48,6.9,9.61,7.01,9.74c0.04,0.05,0.07,0.1,0.1,0.15
				c0.06,0.15,0.17,0.28,0.3,0.37c0.04,0.02,0.09,0.04,0.13,0.06c0.12,0.05,0.26,0.05,0.39,0.02c0.12-0.05,0.22-0.14,0.27-0.26
				C8.36,9.8,8.31,9.45,8.09,9.23c-0.07-0.1-0.18-0.21-0.25-0.32L7.68,8.67C7.43,8.27,7.15,7.9,6.86,7.54
				C6.67,7.32,6.5,7.1,6.31,6.88c-0.2-0.24-0.42-0.45-0.68-0.63C5.46,6.13,5.26,6.04,5.06,5.98c0-0.04,0.01-0.07,0.01-0.11
				c0-0.08-0.02-0.17-0.02-0.22c0-0.03,0-0.05,0.01-0.08C5.07,5.51,5.09,5.46,5.12,5.4c0.08-0.07,0.19-0.1,0.3-0.08
				c0.02,0,0.07,0,0.04,0.01c-0.01,0-0.01,0-0.02,0l0.01,0.01l0.01,0.01l0.03,0.02c0.02,0.01,0.04,0.02,0.06,0.04
				c0.1,0.08,0.19,0.17,0.27,0.27c0.19,0.2,0.37,0.43,0.59,0.64l0.07,0.07c0.17,0.19,0.37,0.36,0.54,0.57
				c0.24,0.29,0.63,0.97,0.84,1.29c0.12,0.17,0.23,0.31,0.32,0.43l0.29,0.35C8.5,9.07,8.53,9.11,8.55,9.16
				C8.6,9.29,8.68,9.4,8.79,9.47C8.82,9.49,8.86,9.51,8.9,9.52c0.11,0.04,0.24,0.05,0.35,0.02c0.26-0.08,0.44-0.3,0.46-0.56
				c0.01-0.17-0.05-0.34-0.16-0.47C9.49,8.42,9.38,8.32,9.32,8.22L9.16,7.98C8.94,7.65,8.71,7.33,8.45,7.02
				C8.13,6.64,7.92,6.24,7.63,5.86c-0.1-0.14-0.21-0.29-0.3-0.4C7.1,5.22,6.84,4.99,6.57,4.78C6.49,4.7,6.4,4.63,6.3,4.56
				c0.01-0.01,0.02-0.02,0.03-0.03C6.37,4.48,6.4,4.42,6.42,4.39c0.01-0.01,0.03-0.02,0.04-0.03C6.48,4.35,6.55,4.3,6.58,4.29
				C6.59,4.28,6.6,4.27,6.62,4.27s0.04-0.01,0.05-0.01c0.02-0.01,0.04-0.01,0.07,0h0.07c0.03,0.01,0.06,0.03,0.1,0.04
				c0.03,0.01,0.07,0.02,0.1,0.04c0.2,0.12,0.37,0.28,0.51,0.47c0.08,0.1,0.16,0.21,0.25,0.3c0.08,0.11,0.17,0.21,0.27,0.3L8.1,5.48
				C8.25,5.66,8.43,5.82,8.58,6C8.79,6.27,9.12,6.91,9.3,7.2c0.1,0.16,0.19,0.29,0.27,0.4l0.01,0.02l0.25,0.33
				C9.86,7.99,9.88,8.03,9.9,8.07c0.03,0.12,0.1,0.22,0.2,0.29c0.03,0.02,0.07,0.03,0.11,0.05c0.11,0.04,0.23,0.05,0.34,0.02
				c0.25-0.07,0.44-0.27,0.49-0.53c0.02-0.16-0.02-0.32-0.12-0.44c-0.05-0.09-0.14-0.18-0.19-0.27l-0.12-0.21
				c-0.19-0.32-0.4-0.63-0.63-0.92C9.68,5.69,9.5,5.33,9.24,4.97C9.16,4.84,9.06,4.69,8.98,4.59C8.93,4.53,8.87,4.48,8.81,4.42h0.01
				c0.05,0,0.09,0.02,0.14,0.03c0.03,0.01,0.07,0.02,0.1,0.03l0.11,0.05c0.07,0.05,0.14,0.09,0.21,0.14
				C9.56,4.79,9.72,4.94,9.86,5.1c0.43,0.49,0.69,1.14,1.08,1.71l0.09,0.15c0.22,0.38,0.46,0.72,0.66,1.09
				c0.15,0.26,0.35,0.73,0.57,1.13c0.15,0.29,0.34,0.56,0.56,0.81c0.1,0.11,0.23,0.24,0.35,0.33c0.01,0.01,0.02,0.02,0.03,0.02
				c0.05,0.04,0.12,0.08,0.19,0.11c0.03,0.01,0.05,0.02,0.08,0.02c0.02,0,0.04,0,0.05,0v0.01h0.01l0.01-0.01l0.03-0.01
				c0.06-0.04,0.11-0.09,0.14-0.14c0.06-0.13,0.11-0.27,0.15-0.41C13.93,9.67,14,9.46,14.1,9.17c0.06-0.18,0.11-0.37,0.14-0.56
				c0.04-0.29,0.06-0.59,0.05-0.88c0-0.07,0-0.15,0-0.22c0.01-0.13,0.01-0.26,0.02-0.39c0.01-0.11,0.03-0.22,0.05-0.33l0.01-0.04
				c0-0.01,0-0.01,0-0.01l0.01-0.02c0-0.02,0.01-0.02,0.01-0.03c0-0.01,0-0.01,0-0.01s0,0,0-0.01c0.01,0,0.01-0.01,0.01-0.01
				c0,0.01,0.03,0.04,0.07,0.1c0.1,0.2,0.17,0.41,0.22,0.63c0.05,0.2,0.1,0.37,0.13,0.53c0.05,0.19,0.09,0.38,0.12,0.58
				c0.04,0.24,0.09,0.46,0.12,0.75c0.08,0.7,0.03,1.4,0.08,2.07C15.14,11.36,15.15,11.4,15.15,11.44z M11.86,10.7
				c0.04-0.03,0.09-0.08,0.07-0.14c-0.03-0.06-0.06-0.13-0.1-0.19c-0.07-0.07-0.16-0.12-0.25-0.14c-0.1-0.01-0.2,0.04-0.26,0.12
				c-0.02,0.04-0.05,0.07-0.06,0.11c-0.02,0.03-0.03,0.06-0.05,0.09c-0.07,0.14-0.11,0.25-0.22,0.43c-0.15,0.21-0.27,0.43-0.36,0.67
				l-0.01,0.04c-0.03,0.1-0.04,0.22-0.07,0.32c-0.01,0.08-0.05,0.19-0.09,0.31c-0.03,0.11-0.05,0.22-0.06,0.33
				c0,0.08,0,0.16,0.01,0.24c0.01,0.07,0.03,0.13,0.05,0.2c0,0.02,0.01,0.05,0.01,0.07c0,0.06,0.02,0.12,0.06,0.17
				c0.01,0.01,0.03,0.02,0.05,0.03c0.05,0.03,0.11,0.04,0.16,0.04c0.12-0.02,0.23-0.09,0.3-0.19c0.05-0.07,0.03-0.1,0.02-0.16
				c0-0.03-0.02-0.08-0.03-0.11l-0.01-0.08c0-0.06,0-0.13,0-0.19c0-0.06,0.01-0.13,0.01-0.21c0.02-0.16,0.07-0.31,0.13-0.46
				c0.02-0.05,0.05-0.11,0.07-0.15c0.04-0.1,0.05-0.22,0.1-0.32c0.06-0.13,0.12-0.25,0.2-0.37c0.06-0.1,0.12-0.19,0.19-0.29
				l0.06-0.08C11.8,10.76,11.83,10.73,11.86,10.7z"/>
			<path class="st0" d="M12.82,1.85c0.01,0.05-0.03,0.07-0.05,0.09c-0.02,0.01-0.02,0.02-0.03,0.03c-0.02,0.04-0.03,0.07-0.05,0.11
				c-0.02,0.04-0.04,0.08-0.07,0.12c-0.06,0.08-0.22,0.22-0.27,0.3c-0.03,0.06-0.05,0.13-0.09,0.19l-0.01,0.02
				c-0.09,0.13-0.2,0.26-0.31,0.37c-0.06,0.09-0.11,0.18-0.15,0.27c-0.01,0.02-0.02,0.04-0.03,0.06s-0.03,0.05-0.04,0.07
				c-0.05,0.06-0.14,0.08-0.21,0.05c-0.09-0.03-0.18-0.08-0.25-0.14c-0.05-0.05-0.08-0.11-0.11-0.17c-0.02-0.05,0.02-0.08,0.05-0.1
				c0.02-0.02,0.04-0.04,0.06-0.06C11.27,3.04,11.29,3.02,11.3,3c0.05-0.06,0.1-0.13,0.17-0.2c0.06-0.08,0.12-0.16,0.17-0.24
				c0.03-0.08,0.07-0.15,0.11-0.22c0.02-0.03,0.05-0.06,0.08-0.09c0.08-0.08,0.15-0.17,0.22-0.27c0.05-0.09,0.11-0.18,0.17-0.26
				c0.01-0.02,0.03-0.03,0.04-0.05c0.01-0.02,0.02-0.06,0.04-0.08c0.03-0.03,0.04-0.06,0.12-0.06c0.12,0.01,0.23,0.07,0.31,0.15
				c0.03,0.04,0.06,0.08,0.08,0.13C12.81,1.82,12.82,1.84,12.82,1.85z"/>
			<path class="st0" d="M11.93,10.56c0.02,0.06-0.03,0.11-0.07,0.14c-0.03,0.03-0.06,0.06-0.08,0.09l-0.06,0.08
				c-0.07,0.1-0.13,0.19-0.19,0.29c-0.08,0.12-0.14,0.24-0.2,0.37c-0.05,0.1-0.06,0.22-0.1,0.32c-0.02,0.04-0.05,0.1-0.07,0.15
				c-0.06,0.15-0.11,0.3-0.13,0.46c0,0.08-0.01,0.15-0.01,0.21c0,0.06,0,0.13,0,0.19l0.01,0.08c0.01,0.03,0.03,0.08,0.03,0.11
				c0.01,0.06,0.03,0.09-0.02,0.16c-0.07,0.1-0.18,0.17-0.3,0.19c-0.05,0-0.11-0.01-0.16-0.04c-0.02-0.01-0.04-0.02-0.05-0.03
				c-0.04-0.05-0.06-0.11-0.06-0.17c0-0.02-0.01-0.05-0.01-0.07c-0.02-0.07-0.04-0.13-0.05-0.2c-0.01-0.08-0.01-0.16-0.01-0.24
				c0.01-0.11,0.03-0.22,0.06-0.33c0.04-0.12,0.08-0.23,0.09-0.31c0.03-0.1,0.04-0.22,0.07-0.32l0.01-0.04
				c0.09-0.24,0.21-0.46,0.36-0.67c0.11-0.18,0.15-0.29,0.22-0.43c0.02-0.03,0.03-0.06,0.05-0.09c0.01-0.04,0.04-0.07,0.06-0.11
				c0.06-0.08,0.16-0.13,0.26-0.12c0.09,0.02,0.18,0.07,0.25,0.14C11.87,10.43,11.9,10.5,11.93,10.56z"/>
			<path class="st0" d="M8.93,0.11c0.03,0.03,0.01,0.07,0,0.1C8.92,0.22,8.92,0.24,8.92,0.25c0.01,0.04,0.01,0.08,0.01,0.12
				c0,0.05,0,0.09-0.01,0.14C8.9,0.61,8.84,0.8,8.83,0.9c0,0.07,0.01,0.14,0.01,0.21c0,0.01,0,0.02,0,0.03
				C8.82,1.3,8.79,1.46,8.75,1.62c-0.01,0.05-0.01,0.1-0.01,0.15c0,0.05,0,0.11,0.01,0.16c0,0.02,0,0.05,0,0.06
				c0,0.02,0,0.05,0,0.08C8.73,2.14,8.67,2.2,8.59,2.21c-0.1,0.02-0.2,0.02-0.29,0c-0.07-0.02-0.13-0.06-0.18-0.1
				c-0.04-0.03-0.04-0.07-0.01-0.1c0.02-0.02,0.03-0.05,0.03-0.08c0-0.02,0.01-0.06,0.01-0.08C8.16,1.77,8.17,1.7,8.18,1.61
				C8.2,1.52,8.21,1.42,8.22,1.32C8.21,1.24,8.21,1.16,8.21,1.08C8.22,1.05,8.23,1,8.24,0.96C8.27,0.85,8.29,0.73,8.3,0.62
				c0-0.11,0.01-0.21,0.02-0.31c0-0.03,0.01-0.05,0.01-0.07c0-0.03-0.01-0.06,0-0.09c0.01-0.04,0.01-0.07,0.08-0.11
				c0.11-0.05,0.23-0.05,0.35-0.02c0.05,0.01,0.09,0.04,0.13,0.07C8.9,0.1,8.91,0.11,8.93,0.11z"/>
			<path class="st0" d="M5.71,2.13C5.73,2.2,5.7,2.28,5.63,2.33c-0.07,0.06-0.16,0.1-0.25,0.13c-0.06,0.01-0.13,0.01-0.2,0
				C5.13,2.45,5.12,2.4,5.12,2.36c0-0.03,0-0.06-0.01-0.09C5.1,2.25,5.09,2.23,5.08,2.21C5.05,2.13,5.03,2.06,5,1.98
				C4.97,1.88,4.94,1.79,4.9,1.7C4.86,1.63,4.82,1.56,4.78,1.49C4.77,1.46,4.76,1.41,4.75,1.37c-0.02-0.12-0.06-0.23-0.1-0.34
				C4.6,0.94,4.56,0.85,4.53,0.75L4.51,0.69C4.5,0.66,4.48,0.63,4.47,0.6C4.44,0.56,4.45,0.51,4.49,0.47
				c0.08-0.09,0.18-0.16,0.3-0.18c0.05-0.01,0.1-0.01,0.15,0C4.95,0.3,4.97,0.3,4.98,0.31C5.03,0.33,5.02,0.37,5.03,0.4
				c0,0.01,0,0.02,0.01,0.04C5.06,0.47,5.08,0.5,5.1,0.54c0.02,0.04,0.04,0.08,0.06,0.12c0.03,0.1,0.06,0.3,0.1,0.39
				c0.02,0.06,0.07,0.12,0.1,0.18l0.01,0.03c0.06,0.15,0.1,0.3,0.13,0.46C5.54,1.82,5.59,1.91,5.64,2c0.01,0.01,0.02,0.03,0.03,0.05
				C5.68,2.07,5.7,2.1,5.71,2.13z"/>
			<path class="st0" d="M3.08,4.06C3.14,4.12,3.16,4.2,3.13,4.27C3.1,4.36,3.06,4.45,2.99,4.52C2.94,4.56,2.88,4.6,2.82,4.63
				c-0.05,0.02-0.08-0.02-0.1-0.05C2.7,4.56,2.68,4.54,2.66,4.52C2.64,4.51,2.62,4.49,2.6,4.48c-0.06-0.05-0.12-0.1-0.19-0.15
				C2.33,4.27,2.26,4.2,2.18,4.15C2.1,4.12,2.03,4.08,1.96,4.04C1.93,4.02,1.9,3.98,1.87,3.96C1.79,3.87,1.7,3.8,1.6,3.73
				C1.51,3.68,1.42,3.62,1.34,3.56L1.29,3.52C1.27,3.5,1.23,3.5,1.2,3.48C1.17,3.45,1.14,3.44,1.14,3.36
				C1.16,3.24,1.21,3.13,1.3,3.05c0.04-0.04,0.08-0.07,0.13-0.09c0.01,0,0.03-0.01,0.04-0.01C1.51,2.94,1.53,2.98,1.56,3
				c0.01,0.01,0.02,0.02,0.03,0.02c0.03,0.02,0.06,0.03,0.1,0.05C1.74,3.1,1.77,3.12,1.81,3.15c0.08,0.06,0.22,0.22,0.3,0.27
				c0.06,0.03,0.13,0.06,0.18,0.09l0.03,0.01c0.13,0.1,0.25,0.2,0.37,0.32C2.77,3.9,2.86,3.95,2.95,3.99C2.97,4,2.99,4.01,3.01,4.02
				C3.03,4.03,3.06,4.05,3.08,4.06z"/>
			<path class="st0" d="M2.25,6.87C2.24,6.93,2.22,7,2.19,7.06C2.17,7.1,2.12,7.12,2.08,7.1C2.06,7.09,2.03,7.09,2,7.09L1.93,7.1
				C1.85,7.11,1.77,7.11,1.69,7.12C1.6,7.13,1.5,7.13,1.4,7.15C1.32,7.17,1.24,7.19,1.16,7.21c-0.03,0-0.08,0-0.12,0
				c-0.12,0-0.24,0-0.36,0.01c-0.1,0.03-0.2,0.04-0.3,0.05L0.31,7.28c-0.03,0-0.06,0.02-0.09,0.02c-0.04,0.02-0.09,0-0.12-0.04
				C0.03,7.16,0,7.04,0,6.92c0-0.05,0.02-0.1,0.04-0.15c0-0.01,0.01-0.02,0.02-0.04c0.03-0.03,0.07-0.02,0.1-0.02
				c0.01,0,0.03,0,0.04,0C0.24,6.7,0.27,6.69,0.31,6.67C0.36,6.66,0.4,6.65,0.45,6.65c0.1,0,0.3,0.02,0.4,0
				c0.07-0.02,0.13-0.05,0.2-0.06h0.03C1.24,6.57,1.4,6.56,1.56,6.57c0.1-0.01,0.2-0.03,0.3-0.07c0.02,0,0.04-0.01,0.06-0.01
				C1.95,6.48,1.98,6.47,2,6.47c0.08,0,0.15,0.04,0.19,0.12C2.23,6.68,2.25,6.77,2.25,6.87z"/>
		</g>
		<g>
		</g>
	</g>
	<path d="M21.95,11.88c-0.29,0-0.52,0.23-0.52,0.52c0,0.29,0.23,0.52,0.52,0.52c0.29,0,0.52-0.23,0.52-0.52
		C22.47,12.12,22.24,11.88,21.95,11.88z"/>
	<path d="M20.25,12.51c0.29,0,0.52-0.23,0.52-0.52s-0.23-0.52-0.52-0.52s-0.52,0.23-0.52,0.52C19.72,12.27,19.96,12.51,20.25,12.51z
		"/>
	<path class="st0" d="M22.24,14.13c-0.12-0.02-0.24-0.01-0.35,0.02c-0.08,0.01-0.07,0.02-0.09,0.04c-0.01,0.02-0.03,0.04-0.04,0.06
		c-0.02,0.01-0.04,0.02-0.06,0.04c-0.11,0.06-0.23,0.11-0.36,0.14c-0.16,0.04-0.32,0.04-0.48,0.02c-0.06-0.01-0.12-0.02-0.16-0.03
		c-0.1,0-0.2-0.02-0.29-0.05c-0.11-0.04-0.21-0.1-0.29-0.18c-0.05-0.06-0.08-0.14-0.1-0.22L20,13.88c-0.01-0.04-0.01-0.09-0.01-0.13
		c0.01-0.06-0.01-0.13-0.06-0.17c-0.06-0.04-0.14-0.07-0.21-0.08c-0.1,0.01-0.19,0.05-0.27,0.11c-0.07,0.07-0.11,0.17-0.09,0.27
		c0.01,0.04,0.03,0.09,0.04,0.13c0.01,0.04,0.02,0.07,0.03,0.11c0.07,0.21,0.2,0.39,0.37,0.53c0.12,0.1,0.25,0.18,0.38,0.25
		l0.09,0.05c0.04,0.02,0.08,0.03,0.12,0.05c0.08,0.02,0.15,0.04,0.23,0.04h0.05c0.12,0,0.25-0.01,0.37-0.03
		c0.09-0.01,0.22-0.01,0.35-0.02c0.12-0.01,0.24-0.04,0.36-0.07c0.05-0.01,0.09-0.03,0.13-0.06c0.04-0.02,0.08-0.04,0.11-0.07
		c0.03-0.02,0.07-0.05,0.1-0.08c0.03-0.03,0.06-0.06,0.09-0.09c0.02-0.02,0.04-0.04,0.06-0.07c0.03-0.03,0.06-0.06,0.08-0.1
		c0.02-0.04,0.03-0.08,0.03-0.13c0-0.03,0-0.05-0.01-0.07C22.34,14.2,22.29,14.15,22.24,14.13z"/>
</g>
<path d="M30.62,9.4c-0.15-0.27-0.32-0.54-0.5-0.79C29.89,8.29,29.65,8,29.37,7.73c-0.23-0.21-0.5-0.37-0.74-0.57
	c-0.1-0.09-0.23-0.21-0.36-0.31c-0.34-0.3-0.73-0.54-1.15-0.73c-0.4-0.16-0.76-0.29-1.12-0.41c-0.3-0.1-0.61-0.18-0.92-0.24
	c-0.37-0.08-0.75-0.13-1.13-0.13c-0.3,0.02-0.6,0.06-0.89,0.12c-0.12,0.01-0.29,0.03-0.43,0.06c-0.2,0.05-0.39,0.11-0.58,0.18
	c-0.18,0.07-0.35,0.18-0.5,0.32C21.31,6.26,21.13,6.54,21,6.85c-0.08,0.22-0.11,0.46-0.08,0.69c0.06,0.33,0.19,0.65,0.38,0.92
	c0.19,0.24,0.39,0.46,0.61,0.67c0.09,0.1,0.2,0.24,0.31,0.36c0.31,0.35,0.66,0.67,1.03,0.96c0.37,0.26,0.7,0.49,1.02,0.73
	c0.26,0.2,0.52,0.39,0.8,0.58l0.5,0.34c0.17,0.11,0.34,0.21,0.51,0.31c0.28,0.15,0.59,0.24,0.87,0.39c0.12,0.06,0.28,0.16,0.42,0.23
	c0.4,0.22,0.83,0.39,1.28,0.49c0.37,0.07,0.74,0.1,1.12,0.1c0.26,0,0.52-0.05,0.76-0.14c0.27-0.11,0.49-0.31,0.62-0.57
	c0.09-0.24,0.14-0.49,0.15-0.75c0.02-0.14,0.03-0.28,0.04-0.42c0.01-0.44-0.06-0.87-0.21-1.28C30.96,10.07,30.8,9.73,30.62,9.4z"/>
</svg>
