<?xml version="1.0" encoding="utf-8"?>
<!-- Generator: Adobe Illustrator 24.1.1, SVG Export Plug-In . SVG Version: 6.00 Build 0)  -->
<!DOCTYPE svg PUBLIC "-//W3C//DTD SVG 1.1//EN" "http://www.w3.org/Graphics/SVG/1.1/DTD/svg11.dtd" [
	<!ENTITY ns_extend "http://ns.adobe.com/Extensibility/1.0/">
	<!ENTITY ns_ai "http://ns.adobe.com/AdobeIllustrator/10.0/">
	<!ENTITY ns_graphs "http://ns.adobe.com/Graphs/1.0/">
	<!ENTITY ns_vars "http://ns.adobe.com/Variables/1.0/">
	<!ENTITY ns_imrep "http://ns.adobe.com/ImageReplacement/1.0/">
	<!ENTITY ns_sfw "http://ns.adobe.com/SaveForWeb/1.0/">
	<!ENTITY ns_custom "http://ns.adobe.com/GenericCustomNamespace/1.0/">
	<!ENTITY ns_adobe_xpath "http://ns.adobe.com/XPath/1.0/">
]>
<svg version="1.1" id="레이어_1" xmlns:x="&ns_extend;" xmlns:i="&ns_ai;" xmlns:graph="&ns_graphs;"
	 xmlns="http://www.w3.org/2000/svg" xmlns:xlink="http://www.w3.org/1999/xlink" x="0px" y="0px" viewBox="0 0 67.81 33.44"
	 style="enable-background:new 0 0 67.81 33.44;" xml:space="preserve">
<style type="text/css">
	.st0{fill:#FDF8E8;}
</style>
<metadata>
	<sfw  xmlns="&ns_sfw;">
		<slices></slices>
		<sliceSourceBounds  bottomLeftOrigin="true" height="33.44" width="67.81" x="649.6" y="-400.72"></sliceSourceBounds>
	</sfw>
</metadata>
<g id="그룹_19064" transform="translate(126.34 -199.669)">
	<path id="패스_15460" class="st0" d="M-114.55,205.68h-0.93v2.38h0.93c0.66,0.04,1.22-0.46,1.26-1.12c0-0.02,0-0.05,0-0.07v-0.01
		c0-0.66-0.53-1.19-1.19-1.19C-114.5,205.68-114.52,205.68-114.55,205.68z M-113.83,206.88c0.02,0.37-0.27,0.69-0.64,0.71
		c-0.02,0-0.05,0-0.07,0h-0.4v-1.43h0.4c0.38-0.02,0.7,0.27,0.72,0.65C-113.83,206.83-113.83,206.85-113.83,206.88L-113.83,206.88z"
		/>
	<path id="패스_15461" class="st0" d="M-112.17,207.53h1.01l0.22,0.53h0.55l-1.02-2.4h-0.48l-1.02,2.4h0.53L-112.17,207.53z
		 M-111.67,206.29l0.32,0.77h-0.63L-111.67,206.29z"/>
	<path id="패스_15462" class="st0" d="M-109.32,206.52l0.66,1.01h0.01l0.67-1.02v1.55h0.52v-2.38h-0.57l-0.63,1.01l-0.63-1.01
		h-0.57v2.38h0.51V206.52z"/>
	<path id="패스_15463" class="st0" d="M-114.55,208.84h-0.93v2.38h0.93c0.66,0.04,1.22-0.46,1.26-1.12c0-0.02,0-0.05,0-0.07v-0.01
		c0-0.66-0.53-1.19-1.19-1.19C-114.5,208.83-114.52,208.83-114.55,208.84z M-113.83,210.04c0.02,0.37-0.27,0.69-0.64,0.71
		c-0.02,0-0.05,0-0.07,0h-0.4v-1.43h0.4c0.38-0.02,0.7,0.27,0.72,0.65C-113.83,209.98-113.83,210-113.83,210.04L-113.83,210.04z"/>
	<path id="패스_15464" class="st0" d="M-112.04,208.82l-1.02,2.4h0.54l0.22-0.53h1.01l0.22,0.53h0.55l-1.02-2.4H-112.04z
		 M-112.12,210.22l0.32-0.77l0.32,0.77H-112.12z"/>
	<path id="패스_15465" class="st0" d="M-115.06,199.67c-6.22,0-11.28,3.94-11.28,8.79v16.56c0,4.69,4.74,8.09,11.28,8.09
		c6.08,0,11.05-3.77,11.27-8.47v-2.15c0-0.03,0.01-0.06,0.01-0.08h-0.01l0.01-13.94C-103.78,203.61-108.84,199.67-115.06,199.67z
		 M-125.29,218.77h4.7l-0.06,3.63c0.03,1.13-0.86,2.08-1.99,2.12c-0.11,0-0.22,0-0.33-0.02c-1.16,0.1-2.19-0.75-2.29-1.91
		c-0.01-0.08-0.01-0.16-0.01-0.25h-0.02L-125.29,218.77z M-115.06,232.06c-5.93,0-10.23-2.96-10.23-7.04v-0.3
		c0.64,0.57,1.47,0.86,2.32,0.82c1.7,0.15,3.2-1.1,3.35-2.8c0.01-0.11,0.01-0.23,0.01-0.34l0.08-4.69h-5.77v-2.65
		c0.64,0.57,1.47,0.86,2.32,0.82c1.7,0.15,3.2-1.1,3.36-2.8c0.01-0.11,0.01-0.23,0.01-0.35h-1.05c0.03,1.13-0.86,2.08-1.99,2.12
		c-0.11,0-0.22,0-0.33-0.02c-1.16,0.1-2.19-0.75-2.29-1.91c-0.01-0.08-0.01-0.16-0.01-0.25h-0.02v-3.56h5.23v-1.05h-5.21
		c0.22-3.24,3.08-5.96,6.99-6.95v11.7c-0.04,1.71,1.32,3.12,3.02,3.16c0.12,0,0.23,0,0.35-0.01c1.75,0.1,3.24-1.23,3.34-2.98
		c0.01-0.09,0.01-0.17,0-0.26h-1.05c0.04,1.17-0.88,2.15-2.05,2.19c-0.08,0-0.16,0-0.25-0.01c-1.13,0.15-2.15-0.65-2.3-1.77
		c-0.01-0.11-0.02-0.22-0.02-0.33V200.9c0.71-0.12,1.44-0.18,2.16-0.18c5.64,0,10.23,3.47,10.23,7.74v13.94
		c0.03,1.13-0.86,2.08-1.99,2.12c-0.11,0-0.22,0-0.33-0.02c-1.11,0.11-2.1-0.71-2.21-1.82c-0.01-0.11-0.01-0.22,0-0.34l0.04-4.62
		h-1.04l-0.05,4.61c-0.08,1.7,1.24,3.14,2.94,3.21c0.11,0,0.22,0,0.32,0c0.82,0.04,1.64-0.22,2.28-0.74
		C-105.21,228.85-109.64,232.05-115.06,232.06L-115.06,232.06z"/>
	<path id="패스_15466" class="st0" d="M-115.06,224.5c-1.11,0.11-2.1-0.71-2.21-1.82c-0.01-0.11-0.01-0.22,0-0.33l0.04-3.57h5.08
		v-1.05h-6.12l-0.05,4.61c-0.07,1.7,1.24,3.14,2.94,3.21c0.11,0,0.21,0,0.32,0c1.7,0.15,3.2-1.1,3.36-2.8
		c0.01-0.11,0.01-0.23,0.01-0.34h-1.05c0.03,1.13-0.86,2.08-1.99,2.11C-114.84,224.52-114.95,224.51-115.06,224.5z"/>
	<path id="패스_15467" class="st0" d="M-97.8,226.23v0.51h-1.03v0.54h2.66v-0.54h-1.01v-0.51H-97.8z"/>
	<path id="패스_15468" class="st0" d="M-97.44,229.59h-0.64v1.3h3.01v-0.54h-2.37V229.59z"/>
	<path id="패스_15469" class="st0" d="M-96.37,228.48v-0.19c0-0.45-0.41-0.84-1.11-0.84s-1.11,0.39-1.11,0.84v0.19
		c0,0.45,0.41,0.84,1.11,0.84S-96.37,228.93-96.37,228.48z M-98,228.44v-0.12c0-0.17,0.18-0.38,0.51-0.38s0.52,0.21,0.52,0.38v0.12
		c0,0.17-0.18,0.38-0.52,0.38S-98,228.61-98,228.44z"/>
	<path id="패스_15470" class="st0" d="M-95.18,226.27h-0.63v3.37h0.63v-1.48h0.61v-0.55h-0.61V226.27z"/>
	<rect id="사각형_4670" x="-91.08" y="226.27" class="st0" width="0.64" height="4.65"/>
	<rect id="사각형_4671" x="-83.93" y="226.27" class="st0" width="0.63" height="2.72"/>
	<path id="패스_15471" class="st0" d="M-86.38,229.74h2.45v1.25h0.63v-1.78h-3.08V229.74z"/>
	<path id="패스_15472" class="st0" d="M-85.7,227.97L-85.7,227.97c0.03,0.09,0.16,0.19,0.34,0.33c0.24,0.19,0.46,0.37,0.65,0.51
		l0.37-0.44c-0.24-0.17-0.5-0.37-0.74-0.57c-0.24-0.18-0.36-0.46-0.33-0.76v-0.59h-0.64v0.62c0.02,0.3-0.11,0.59-0.34,0.78
		c-0.25,0.23-0.5,0.46-0.77,0.66l0.39,0.46c0.31-0.25,0.53-0.44,0.75-0.65C-85.88,228.23-85.78,228.11-85.7,227.97z"/>
	<rect id="사각형_4672" x="-79.72" y="226.27" class="st0" width="0.64" height="4.65"/>
	<path id="패스_15473" class="st0" d="M-75.27,226.43v1.93h2.31v-1.93h-0.61v0.51h-1.08v-0.51H-75.27z M-73.57,227.44v0.42h-1.08
		v-0.42H-73.57z"/>
	<path id="패스_15474" class="st0" d="M-75.56,228.75v0.54c0.43,0,0.81,0,1.15-0.01v1.51h0.63v-1.52c0.42,0,0.83-0.03,1.25-0.07
		l-0.04-0.54C-73.18,228.73-74.03,228.75-75.56,228.75z"/>
	<rect id="사각형_4673" x="-72.35" y="226.27" class="st0" width="0.63" height="4.65"/>
	<rect id="사각형_4674" x="-67.56" y="226.27" class="st0" width="0.64" height="4.65"/>
	<path id="패스_15475" class="st0" d="M-60.74,227.89h-0.42v0.55h0.42v2.26h0.6v-4.33h-0.6V227.89z"/>
	<rect id="사각형_4675" x="-59.86" y="226.27" class="st0" width="0.6" height="4.65"/>
	<path id="패스_15476" class="st0" d="M-61.36,229.15v-1.92h0.35v-0.5h-2.31v0.5h0.38v1.95h-0.38v0.51h1.07
		c0.45,0,0.9-0.02,1.35-0.08l-0.06-0.5C-61.1,229.12-61.23,229.14-61.36,229.15z M-61.96,229.18h-0.39v-1.95h0.39V229.18z"/>
	<path id="패스_15477" class="st0" d="M-84.21,220.47l0.34-1.47l-0.17,0.02c-0.19,0.02-0.38,0.04-0.6,0.06
		c0.12-1.63,0.32-3.97,0.54-5.41l0.02-0.16l-0.16,0.01c-3.52,0.4-7.06,0.42-10.58,0.07l-0.09-0.01l-0.35,0.79l0.14,0.04
		c1.18,0.31,1.28,0.42,1.36,1.43l0.26,3.43c0.03,0.7,0.12,1.39,0.26,2.07l0.03,0.11l1.14-0.18l0.02-0.08
		c0.06-0.23,0.1-0.5,0.14-0.76c2.07-0.09,5.25-0.13,7.61,0.02L-84.21,220.47z M-86.13,214.89l-0.06,4.31
		c-1.65,0.12-3.71,0.18-5.69,0.18l-0.08-4.39C-90.33,214.88-87.81,214.81-86.13,214.89z"/>
	<path id="패스_15478" class="st0" d="M-84.06,206.82v-3.09c0.02-0.59,0.09-1.17,0.21-1.75l0.03-0.12l-0.13-0.02
		c-0.9-0.18-2.63-0.5-4.13-0.68l-0.1-0.01l-0.32,0.82l0.14,0.03c1.83,0.43,2.51,0.91,2.51,1.74v5.12c-3.05,0.98-6.19,1.63-9.38,1.93
		c-0.17,0.03-0.34-0.01-0.48-0.12c-0.1-0.12-0.15-0.28-0.14-0.44v-5.11c2.21-0.17,4.42-0.22,6.64-0.14h0.11l0.31-1.58l-0.18,0.03
		c-3.34,0.56-6.75,0.66-10.12,0.28l-0.1-0.01l-0.36,0.8l0.14,0.04c1.53,0.39,1.76,0.75,1.76,1.78v4.31
		c-0.06,0.52,0.11,1.05,0.46,1.43c0.43,0.3,0.96,0.4,1.47,0.27c3.36-0.51,6.66-1.35,9.85-2.5v0.67c0,0.83,0.05,1.67,0.15,2.49
		l0.02,0.12l1.26-0.15l0.02-0.09c0.2-1.16,0.32-2.33,0.34-3.51v-1.39c0.33,0,0.7,0,1.09-0.01c0.93-0.01,1.98-0.02,2.73,0.01h0.11
		l0.23-1.63l-0.17,0.03C-81.36,206.57-82.88,206.75-84.06,206.82z"/>
	<path id="패스_15479" class="st0" d="M-58.7,208.07c-1.35,0.23-2.71,0.38-4.08,0.46v-4.8c0.02-0.59,0.09-1.17,0.21-1.75
		l0.03-0.12l-0.12-0.02c-0.9-0.18-2.63-0.5-4.13-0.68l-0.1-0.01l-0.32,0.82l0.14,0.03c1.83,0.43,2.51,0.9,2.51,1.74v7.16
		c-2.8,1-5.7,1.67-8.65,2c-0.17,0.03-0.34-0.02-0.48-0.12c-0.1-0.12-0.15-0.28-0.14-0.44v-7.01c1.94-0.17,3.88-0.22,5.82-0.14
		l0.11,0.01l0.31-1.58l-0.18,0.03c-3.07,0.57-6.21,0.67-9.31,0.28l-0.09-0.01l-0.36,0.8l0.14,0.04c1.53,0.39,1.76,0.75,1.76,1.78
		v6.25c-0.06,0.52,0.11,1.05,0.46,1.43c0.43,0.3,0.96,0.4,1.47,0.27c3.13-0.54,6.19-1.41,9.12-2.61v2.77c0,0.96,0.06,3.1,0.15,4.09
		l0.01,0.13l1.27-0.18l0.01-0.09c0.22-1.63,0.34-3.27,0.34-4.91v-3.95c0.33,0,0.7-0.01,1.1-0.01c0.96-0.01,2.04-0.02,2.81,0.01h0.11
		l0.23-1.67L-58.7,208.07z"/>
</g>
</svg>
