<?xml version="1.0" encoding="utf-8"?>
<!-- Generator: Adobe Illustrator 24.0.2, SVG Export Plug-In . SVG Version: 6.00 Build 0)  -->
<svg version="1.1" id="레이어_1" xmlns="http://www.w3.org/2000/svg" xmlns:xlink="http://www.w3.org/1999/xlink" x="0px"
	 y="0px" viewBox="0 0 46.85 66.91" style="enable-background:new 0 0 46.85 66.91;" xml:space="preserve">
<g id="그룹_261" transform="translate(-290.742 -46.143)">
	<path id="패스_221" d="M290.74,46.14h5.04l11.64,15.29V46.14h5.39v24.84h-4.65l-12.03-15.79v15.79h-5.39V46.14z"/>
	<path id="패스_222" d="M290.74,73.78h9.34c1.76-0.02,3.51,0.3,5.15,0.94c1.51,0.59,2.88,1.48,4.04,2.61
		c1.13,1.11,2.02,2.45,2.62,3.92c0.63,1.55,0.94,3.21,0.92,4.88v0.07c0.01,1.68-0.3,3.34-0.92,4.9c-0.59,1.48-1.48,2.82-2.62,3.94
		c-1.16,1.13-2.53,2.02-4.04,2.63c-1.64,0.65-3.39,0.98-5.15,0.96h-9.34V73.78z M300.21,93.68c1.01,0.01,2-0.17,2.94-0.53
		c0.86-0.34,1.64-0.86,2.28-1.53c0.64-0.68,1.14-1.47,1.47-2.34c0.36-0.96,0.54-1.99,0.53-3.02V86.2c0.01-1.03-0.17-2.05-0.53-3.02
		c-0.33-0.88-0.83-1.69-1.47-2.38c-0.64-0.67-1.42-1.2-2.28-1.54c-0.94-0.38-1.94-0.56-2.94-0.55h-4.08v14.98L300.21,93.68z"/>
	<path id="패스_223" d="M315.52,46.14h5.04l11.64,15.29V46.14h5.39v24.84h-4.65l-12.03-15.79v15.79h-5.39V46.14z"/>
	<g id="그룹_260" transform="translate(290.742 104.167)">
		<path id="패스_224" d="M4.94,6.5C4.65,6.56,4.25,6.64,3.71,6.71C3.16,6.79,2.6,6.82,2.03,6.82H0v-6.4h1.21v5.32h0.85
			c0.5,0,1-0.03,1.5-0.09c0.46-0.04,0.92-0.11,1.38-0.21L4.94,6.5z M6.62,0.05V3.3h1.17v1.15H6.62v4.44H5.41V0.05L6.62,0.05z"/>
		<path id="패스_225" d="M14.01,5.96v2.92h-1.25V5.96h-3.5V4.9h8.25v1.07H14.01z M10.23,3.86V0.29h1.2v2.5h5.24v1.08L10.23,3.86z"
			/>
		<path id="패스_226" d="M24.7,6.55c-0.01,0-0.35,0.05-1.02,0.14c-0.72,0.1-1.46,0.15-2.19,0.14h-1.76V0.6h4.08v1.07h-2.86v4.1
			h1.17c0.53-0.01,1.06-0.05,1.58-0.13c0.65-0.09,0.98-0.13,0.99-0.14L24.7,6.55z M26.36,4.22v4.66h-1.21V0.05h1.21v3.03h1.15v1.15
			L26.36,4.22z"/>
		<path id="패스_227" d="M33.96,0.58c0,0.69-0.08,1.38-0.25,2.04c-0.15,0.6-0.37,1.18-0.67,1.73c-0.33,0.62-0.75,1.19-1.24,1.69
			c-0.48,0.49-1.01,0.93-1.58,1.3c-0.14-0.15-0.29-0.28-0.45-0.41c-0.19-0.15-0.37-0.29-0.56-0.42c0.58-0.32,1.12-0.72,1.6-1.18
			c0.48-0.42,0.86-0.93,1.13-1.5c-0.32,0.04-0.67,0.07-1.08,0.09c-0.4,0.02-0.87,0.03-1.39,0.03v-1c0.57,0,1.12-0.01,1.67-0.03
			c0.41-0.01,0.83-0.04,1.24-0.1c0.06-0.2,0.1-0.41,0.12-0.62c0.04-0.25,0.06-0.45,0.07-0.6h-2.82V0.57L33.96,0.58z M35.43,8.88
			V0.04h1.23v8.84H35.43z"/>
		<path id="패스_228" d="M42.55,2.43c0.07,0.53,0.36,1,0.79,1.32c0.42,0.36,0.91,0.61,1.45,0.74c-0.14,0.16-0.27,0.32-0.39,0.47
			c-0.13,0.16-0.24,0.31-0.36,0.46c-0.42-0.15-0.82-0.36-1.17-0.62c-0.36-0.24-0.68-0.55-0.93-0.9C41.7,4.3,41.4,4.64,41.04,4.9
			c-0.39,0.32-0.83,0.57-1.3,0.74c-0.14-0.16-0.27-0.32-0.41-0.46c-0.14-0.14-0.29-0.29-0.46-0.45c0.59-0.19,1.14-0.49,1.62-0.88
			c0.43-0.34,0.7-0.86,0.72-1.41h-1.69v-1h4.75v1L42.55,2.43z M40.49,0.94V0h2.8v0.95H40.49z M40.57,8.72v-2.7h1.23v1.62h5.05v1.08
			L40.57,8.72z M45.47,6.46V0.05h1.2v6.42H45.47z"/>
	</g>
</g>
</svg>
