<?xml version="1.0" encoding="utf-8"?>
<!-- Generator: Adobe Illustrator 24.1.1, SVG Export Plug-In . SVG Version: 6.00 Build 0)  -->
<!DOCTYPE svg PUBLIC "-//W3C//DTD SVG 1.1//EN" "http://www.w3.org/Graphics/SVG/1.1/DTD/svg11.dtd" [
	<!ENTITY ns_extend "http://ns.adobe.com/Extensibility/1.0/">
	<!ENTITY ns_ai "http://ns.adobe.com/AdobeIllustrator/10.0/">
	<!ENTITY ns_graphs "http://ns.adobe.com/Graphs/1.0/">
	<!ENTITY ns_vars "http://ns.adobe.com/Variables/1.0/">
	<!ENTITY ns_imrep "http://ns.adobe.com/ImageReplacement/1.0/">
	<!ENTITY ns_sfw "http://ns.adobe.com/SaveForWeb/1.0/">
	<!ENTITY ns_custom "http://ns.adobe.com/GenericCustomNamespace/1.0/">
	<!ENTITY ns_adobe_xpath "http://ns.adobe.com/XPath/1.0/">
]>
<svg version="1.1" id="레이어_1" xmlns:x="&ns_extend;" xmlns:i="&ns_ai;" xmlns:graph="&ns_graphs;"
	 xmlns="http://www.w3.org/2000/svg" xmlns:xlink="http://www.w3.org/1999/xlink" x="0px" y="0px" viewBox="0 0 84.58 45.6"
	 style="enable-background:new 0 0 84.58 45.6;" xml:space="preserve">
<style type="text/css">
	.st0{fill:#FDF8E8;}
</style>
<metadata>
	<sfw  xmlns="&ns_sfw;">
		<slices></slices>
		<sliceSourceBounds  bottomLeftOrigin="true" height="45.6" width="84.58" x="641.21" y="-407.07"></sliceSourceBounds>
	</sfw>
</metadata>
<g id="그룹_16650" transform="translate(-151 -1828)">
	<g id="그룹_16649" transform="translate(151 1828)">
		<g id="그룹_16310" transform="translate(0)">
			<path id="패스_12622" class="st0" d="M42.29,45.6c-10.56-0.03-20.99-2.25-30.65-6.51c-4.08-1.74-7.95-3.93-11.54-6.52L0,32.49
				V13.11l0.1-0.08c3.59-2.59,7.46-4.78,11.54-6.52c19.51-8.68,41.79-8.68,61.3,0c4.08,1.74,7.95,3.93,11.54,6.52l0.1,0.08v19.39
				l-0.1,0.08c-3.59,2.59-7.46,4.78-11.54,6.52C63.28,43.35,52.85,45.57,42.29,45.6z M0.53,32.23c3.54,2.53,7.35,4.66,11.34,6.38
				c19.37,8.61,41.49,8.61,60.85-0.01c3.99-1.71,7.79-3.85,11.33-6.37V13.37c-3.54-2.53-7.35-4.67-11.34-6.38
				C53.34-1.62,31.22-1.62,11.85,6.99c-3.99,1.71-7.79,3.85-11.33,6.37V32.23z"/>
			<g id="그룹_16310-2" transform="translate(7.326 17.934)">
				<path id="패스_12623" class="st0" d="M6.83,1.11v0.63C6.8,2.31,6.73,2.89,6.63,3.45L5.4,11.12c-0.02,0.3-0.28,0.53-0.58,0.51
					c-0.01,0-0.02,0-0.02,0H3.2c-0.43,0-0.61-0.23-0.53-0.69l0.65-3.8H0.63C0.35,7.17,0.1,6.98,0.06,6.71
					c-0.01-0.04-0.01-0.09,0-0.13V5.63C0.03,5.36,0.22,5.1,0.5,5.07c0.04-0.01,0.09-0.01,0.13,0h3.04l0.32-1.88
					c0.04-0.2,0.07-0.4,0.09-0.59H0.59C0.3,2.64,0.04,2.45,0,2.16c-0.01-0.05-0.01-0.1,0-0.15V0.99C-0.04,0.7,0.16,0.44,0.44,0.4
					c0.05-0.01,0.1-0.01,0.15,0h5.53c0.34-0.05,0.66,0.19,0.71,0.53C6.83,0.99,6.83,1.05,6.83,1.11z M12,6.72h-0.67v4.44
					c0.04,0.29-0.16,0.56-0.45,0.6c-0.05,0.01-0.1,0.01-0.15,0H8.97c-0.29,0.04-0.56-0.16-0.6-0.45c-0.01-0.05-0.01-0.1,0-0.15V0.6
					C8.33,0.31,8.53,0.04,8.82,0c0.05-0.01,0.1-0.01,0.15,0h1.76c0.29-0.04,0.56,0.16,0.6,0.45c0.01,0.05,0.01,0.1,0,0.15v3.8H12
					c0.22-0.03,0.42,0.12,0.45,0.34c0.01,0.04,0.01,0.08,0,0.11v1.41c0.03,0.22-0.12,0.42-0.33,0.46C12.08,6.73,12.04,6.73,12,6.72z
					"/>
				<path id="패스_12624" class="st0" d="M22.16,6.84v2.48l2.39-0.2c0.37-0.03,0.56,0.15,0.56,0.53v1.01
					c0.04,0.27-0.15,0.52-0.41,0.56c-0.02,0-0.03,0-0.05,0l-4.01,0.33c-0.59,0.04-0.88-0.18-0.89-0.68V5.33c0-0.4,0.19-0.6,0.56-0.6
					h2.2V2.37h-2.2c-0.27,0.04-0.53-0.16-0.56-0.43c-0.01-0.05-0.01-0.1,0-0.14V0.84c-0.04-0.27,0.14-0.53,0.42-0.57
					c0.05-0.01,0.1-0.01,0.14,0h3.96c0.37,0,0.56,0.2,0.56,0.6v5.38c0,0.4-0.19,0.6-0.56,0.6L22.16,6.84z M28.45,0.6v10.56
					c0,0.4-0.18,0.6-0.53,0.6h-1.35c-0.35,0-0.52-0.2-0.52-0.6V6.86h-0.52c-0.21,0.03-0.41-0.12-0.44-0.33
					c-0.01-0.04-0.01-0.07,0-0.11V5.03c-0.03-0.21,0.12-0.41,0.33-0.44c0.04-0.01,0.07-0.01,0.11,0h0.52V0.6
					c0-0.4,0.17-0.6,0.52-0.6h1.35C28.27,0,28.45,0.2,28.45,0.6L28.45,0.6z M28.98,11.16V0.6c0-0.4,0.18-0.6,0.53-0.6h1.41
					c0.36,0,0.55,0.2,0.55,0.6v10.56c0,0.4-0.18,0.6-0.55,0.6h-1.41C29.16,11.76,28.98,11.56,28.98,11.16L28.98,11.16z"/>
				<path id="패스_12625" class="st0" d="M50.53,9.31c0.29-0.04,0.55,0.15,0.6,0.44c0.01,0.05,0.01,0.1,0,0.15v1.01
					c0.04,0.29-0.17,0.55-0.45,0.59c-0.05,0.01-0.1,0.01-0.15,0H40.21c-0.29,0.04-0.55-0.15-0.6-0.44c-0.01-0.05-0.01-0.1,0-0.15
					V9.9c-0.04-0.29,0.17-0.55,0.45-0.59c0.05-0.01,0.1-0.01,0.15,0h3.68V8.44c0-0.36,0.2-0.55,0.6-0.55h1.76
					c0.4,0,0.6,0.18,0.6,0.55v0.87H50.53z M50.81,6.83c0.05,0.32-0.18,0.62-0.5,0.67c-0.05,0.01-0.11,0.01-0.17,0h-9.56
					c-0.32,0.05-0.62-0.18-0.67-0.5c-0.01-0.05-0.01-0.11,0-0.17V0.73c-0.04-0.29,0.16-0.56,0.45-0.6c0.05-0.01,0.1-0.01,0.15,0
					h1.69c0.29-0.04,0.56,0.16,0.6,0.45c0.01,0.05,0.01,0.1,0,0.15v1.01h5.11V0.73c-0.04-0.29,0.16-0.56,0.45-0.6
					c0.05-0.01,0.1-0.01,0.15,0h1.69c0.29-0.04,0.56,0.16,0.6,0.45c0.01,0.05,0.01,0.1,0,0.15L50.81,6.83z M42.81,5.41h5.11V3.83
					h-5.11V5.41z"/>
				<path id="패스_12626" class="st0" d="M58.55,9.38V2.52c-0.02-0.64,0.22-1.25,0.68-1.69c0.45-0.46,1.07-0.71,1.71-0.69h2.47
					c0.63-0.01,1.24,0.25,1.67,0.71c0.45,0.45,0.7,1.05,0.7,1.68v6.85c0,0.63-0.25,1.23-0.7,1.68c-0.43,0.46-1.04,0.72-1.67,0.71
					h-2.47c-0.64,0.01-1.26-0.24-1.71-0.69C58.77,10.63,58.52,10.01,58.55,9.38z M61.17,9.02c-0.02,0.32,0.22,0.59,0.53,0.61
					c0.03,0,0.05,0,0.08,0h0.79c0.32,0.02,0.59-0.21,0.61-0.53c0-0.03,0-0.06,0-0.09V2.88c0.02-0.32-0.21-0.59-0.53-0.61
					c-0.03,0-0.06,0-0.08,0h-0.79c-0.32-0.02-0.59,0.22-0.61,0.53c0,0.03,0,0.05,0,0.08V9.02z M70.28,0.6v10.56
					c0.04,0.29-0.16,0.56-0.45,0.6c-0.05,0.01-0.1,0.01-0.15,0h-1.76c-0.29,0.04-0.56-0.16-0.6-0.45c-0.01-0.05-0.01-0.1,0-0.15V0.6
					c-0.04-0.29,0.16-0.56,0.45-0.6c0.05-0.01,0.1-0.01,0.15,0h1.76c0.29-0.04,0.56,0.16,0.6,0.45C70.29,0.5,70.29,0.55,70.28,0.6
					L70.28,0.6z"/>
			</g>
			<g id="그룹_16311" transform="translate(19.617 8.76)">
				<path id="패스_12627" class="st0" d="M0,2.06c-0.02-1.12,0.87-2.05,2-2.06c0.04,0,0.08,0,0.11,0
					c0.57-0.01,1.12,0.22,1.52,0.62c0.05,0.05,0.05,0.09,0.01,0.13l-0.45,0.4C3.16,1.18,3.11,1.18,3.08,1.15
					c0,0-0.01-0.01-0.01-0.01C2.56,0.63,1.73,0.62,1.21,1.13C0.69,1.63,0.68,2.47,1.19,2.98S2.53,3.51,3.05,3
					C3.06,3,3.06,2.99,3.07,2.98C3.1,2.95,3.15,2.95,3.18,2.98c0,0,0.01,0,0.01,0.01l0.45,0.4c0.04,0.04,0.04,0.08-0.01,0.13
					c-0.4,0.4-0.95,0.63-1.52,0.62C0.99,4.17,0.04,3.3,0,2.18C0,2.14,0,2.1,0,2.06z"/>
				<path id="패스_12628" class="st0" d="M8.78,0.12v2.46C8.7,3.49,7.9,4.17,6.99,4.09c-0.8-0.07-1.44-0.71-1.51-1.51V0.12
					c0-0.04,0.03-0.08,0.08-0.08c0,0,0.01,0,0.01,0h0.6c0.04,0,0.08,0.03,0.08,0.07c0,0,0,0.01,0,0.01v2.32
					C6.21,2.92,6.57,3.35,7.06,3.39c0.49,0.04,0.92-0.32,0.96-0.81c0-0.05,0-0.1,0-0.14V0.12c0-0.04,0.03-0.08,0.07-0.08
					c0,0,0.01,0,0.01,0h0.6C8.74,0.04,8.78,0.07,8.78,0.12C8.78,0.12,8.78,0.12,8.78,0.12z"/>
				<path id="패스_12629" class="st0" d="M13.81,4.09h-0.54c-0.06,0-0.12-0.03-0.15-0.08l-0.71-1.13h-0.9V4
					c0,0.05-0.03,0.09-0.08,0.09c0,0,0,0-0.01,0h-0.6c-0.05,0-0.09-0.03-0.09-0.08c0,0,0-0.01,0-0.01V0.12
					c0-0.04,0.03-0.08,0.08-0.08c0,0,0.01,0,0.01,0h1.62c0.79-0.01,1.44,0.63,1.45,1.42c0.01,0.54-0.29,1.03-0.77,1.28l0.77,1.21
					C13.94,4.03,13.91,4.09,13.81,4.09z M11.5,2.19h0.93c0.4,0,0.73-0.33,0.72-0.74c0-0.4-0.33-0.72-0.72-0.72H11.5V2.19z"/>
				<path id="패스_12630" class="st0" d="M18.82,4.09h-0.55c-0.06,0-0.12-0.03-0.15-0.08l-0.71-1.13h-0.9V4
					c0,0.05-0.03,0.09-0.08,0.09c0,0,0,0-0.01,0h-0.6c-0.05,0-0.09-0.04-0.09-0.08c0,0,0,0,0-0.01V0.12c0-0.04,0.03-0.08,0.08-0.08
					c0,0,0.01,0,0.01,0h1.62c0.79-0.01,1.44,0.63,1.45,1.42c0.01,0.54-0.29,1.03-0.77,1.28l0.77,1.21
					C18.94,4.03,18.91,4.09,18.82,4.09z M16.5,2.19h0.93c0.4,0,0.73-0.33,0.72-0.74c0-0.4-0.33-0.72-0.72-0.72H16.5V2.19z"/>
				<path id="패스_12631" class="st0" d="M24.1,0.16l-1.41,2.31v1.53c0,0.04-0.03,0.08-0.07,0.08c0,0-0.01,0-0.01,0h-0.6
					c-0.04,0.01-0.08-0.02-0.08-0.06c0-0.01,0-0.01,0-0.02V2.47l-1.42-2.31c-0.04-0.06-0.03-0.13,0.06-0.13h0.61
					c0.06,0,0.12,0.03,0.15,0.09l0.98,1.6l0.98-1.6c0.03-0.06,0.08-0.09,0.15-0.09h0.61C24.14,0.04,24.15,0.1,24.1,0.16z"/>
				<path id="패스_12632" class="st0" d="M31.36,2.96c-0.03,0.65-0.58,1.16-1.23,1.13c-0.02,0-0.03,0-0.05,0h-1.65
					c-0.05,0-0.09-0.03-0.09-0.08c0,0,0-0.01,0-0.01V0.12c0-0.04,0.03-0.08,0.08-0.08c0,0,0.01,0,0.01,0h1.56
					c0.57-0.06,1.09,0.35,1.15,0.93c0,0.03,0.01,0.06,0.01,0.09c0,0.36-0.19,0.69-0.5,0.86C31.07,2.09,31.36,2.5,31.36,2.96z
					 M29.82,0.73h-0.71v1h0.71c0.28,0.03,0.53-0.17,0.56-0.45c0-0.02,0-0.04,0-0.06c0-0.28-0.23-0.5-0.5-0.5
					C29.86,0.72,29.84,0.72,29.82,0.73z M30.55,2.88c-0.01-0.31-0.26-0.55-0.56-0.54c-0.02,0-0.04,0-0.06,0h-0.82V3.4h0.82
					c0.29,0.04,0.57-0.17,0.61-0.46C30.55,2.92,30.55,2.9,30.55,2.88L30.55,2.88z"/>
				<path id="패스_12633" class="st0" d="M33.07,2.06c-0.01-1.15,0.91-2.1,2.06-2.12c1.15-0.01,2.1,0.91,2.12,2.06
					c0.01,1.15-0.91,2.1-2.06,2.12c-0.01,0-0.02,0-0.03,0c-1.13,0.03-2.06-0.86-2.09-1.99C33.07,2.11,33.07,2.09,33.07,2.06z
					 M36.46,2.06c-0.01-0.72-0.6-1.29-1.31-1.29c-0.72,0.01-1.29,0.6-1.29,1.31c0.01,0.71,0.59,1.29,1.3,1.29
					c0.7,0.01,1.28-0.54,1.3-1.25C36.46,2.11,36.46,2.09,36.46,2.06L36.46,2.06z"/>
				<path id="패스_12634" class="st0" d="M42.44,0.16l-1.41,2.31v1.53c0,0.04-0.03,0.08-0.07,0.08c-0.01,0-0.01,0-0.02,0h-0.6
					c-0.04,0.01-0.08-0.02-0.08-0.06c0-0.01,0-0.01,0-0.02V2.47l-1.42-2.31c-0.04-0.06-0.03-0.13,0.06-0.13h0.61
					c0.06,0,0.12,0.03,0.15,0.09l0.98,1.6l0.98-1.6c0.03-0.06,0.08-0.09,0.15-0.09h0.61C42.47,0.04,42.48,0.1,42.44,0.16z"/>
			</g>
			<g id="그룹_16312" transform="translate(27.73 35.4)">
				<path id="패스_12635" class="st0" d="M4.23,5.47L4.14,5.45C3.89,5.4,3.64,5.32,3.41,5.22C3.2,5.13,3.01,5.02,2.83,4.9
					c-0.15-0.11-0.28-0.23-0.4-0.38C2.37,4.44,2.32,4.35,2.28,4.26C2.2,4.33,2.12,4.38,2.02,4.43C1.86,4.51,1.68,4.56,1.5,4.6
					C1.29,4.63,1.07,4.65,0.85,4.64c-0.26-0.01-0.51-0.04-0.76-0.1L0,4.52l0.06-0.28l0.09,0.02c0.23,0.05,0.47,0.08,0.72,0.09
					C1.08,4.36,1.3,4.34,1.52,4.29c0.18-0.04,0.34-0.11,0.49-0.22c0.12-0.09,0.21-0.22,0.24-0.36l0.12-0.54l0.3,0.07L2.55,3.78
					c-0.04,0.15-0.01,0.3,0.06,0.43C2.7,4.36,2.81,4.5,2.96,4.61c0.17,0.14,0.36,0.25,0.56,0.33c0.22,0.1,0.45,0.17,0.69,0.22
					l0.09,0.02L4.23,5.47z M4.26,3.89l-0.3-0.07l0.63-2.8L4.9,1.1L4.66,2.14l0.61,0.14L5.21,2.56L4.6,2.42L4.26,3.89z M3.18,2.98
					l-2.7-0.61l0.48-2.11l2.7,0.61L3.18,2.98z M0.84,2.16l2.1,0.47L3.3,1.08L1.2,0.61L0.84,2.16z"/>
				<path id="패스_12636" class="st0" d="M11.89,6.23L7.82,5.96L7.96,4l0.31,0.02L8.22,4.72l3.45,0.23l0.05-0.69l0.31,0.02
					L11.89,6.23z M8.15,5.69l3.45,0.23l0.05-0.69L8.2,5L8.15,5.69z M12.03,4.09l-0.31-0.02l0.15-2.26l0.31,0.02L12.03,4.09z
					 M11.08,3.96l-0.09-0.01c-0.18-0.02-0.35-0.06-0.52-0.12c-0.17-0.06-0.33-0.14-0.48-0.25C9.83,3.48,9.71,3.35,9.61,3.2
					C9.56,3.13,9.52,3.05,9.5,2.97C9.46,3.05,9.41,3.12,9.35,3.18C9.24,3.32,9.1,3.43,8.94,3.51C8.78,3.6,8.6,3.66,8.43,3.69
					C8.25,3.73,8.07,3.74,7.89,3.74H7.8l0.02-0.29H7.9c0.16,0,0.32-0.01,0.47-0.04C8.54,3.37,8.7,3.31,8.84,3.23
					C8.99,3.13,9.12,3,9.21,2.85c0.11-0.19,0.17-0.4,0.18-0.62l0.02-0.25L8,1.89L8.02,1.6l3.13,0.21L11.12,2.1L9.71,2.01L9.7,2.26
					C9.68,2.47,9.71,2.69,9.8,2.89c0.07,0.16,0.18,0.3,0.32,0.42c0.13,0.11,0.28,0.19,0.44,0.24c0.15,0.05,0.3,0.09,0.46,0.11
					l0.08,0.01L11.08,3.96z"/>
				<path id="패스_12637" class="st0" d="M15.73,6.17l-0.11-1.51l0.31-0.02l0.09,1.22l3.81-0.28l0.02,0.29L15.73,6.17z M19.37,4.9
					l-0.25-3.35l0.31-0.02l0.25,3.35L19.37,4.9z M16.21,4.28c-0.09,0-0.18-0.01-0.26-0.04c-0.1-0.03-0.19-0.09-0.26-0.16
					c-0.07-0.07-0.13-0.16-0.17-0.25c-0.04-0.1-0.06-0.21-0.07-0.31l-0.06-0.82c-0.01-0.11,0-0.22,0.03-0.32
					c0.02-0.1,0.07-0.19,0.13-0.28c0.06-0.08,0.14-0.15,0.24-0.19c0.1-0.05,0.22-0.08,0.33-0.09l1.19-0.09
					c0.11-0.01,0.23,0,0.34,0.04c0.1,0.03,0.19,0.09,0.26,0.16c0.08,0.07,0.13,0.16,0.17,0.25c0.04,0.1,0.06,0.21,0.07,0.31
					l0.06,0.82c0.01,0.11,0,0.22-0.03,0.32c-0.02,0.1-0.07,0.19-0.13,0.28c-0.06,0.08-0.14,0.15-0.24,0.19
					c-0.1,0.05-0.22,0.08-0.33,0.09l-1.19,0.09C16.26,4.27,16.23,4.28,16.21,4.28L16.21,4.28z M17.36,2.01h-0.05L16.12,2.1
					c-0.07,0-0.14,0.02-0.21,0.06c-0.05,0.03-0.1,0.07-0.14,0.12c-0.04,0.05-0.06,0.11-0.08,0.18c-0.02,0.07-0.02,0.14-0.02,0.21
					l0.06,0.82c0,0.07,0.02,0.14,0.05,0.21c0.02,0.06,0.06,0.12,0.1,0.16c0.04,0.04,0.1,0.08,0.16,0.1
					c0.07,0.03,0.14,0.03,0.22,0.03l1.19-0.09c0.07,0,0.14-0.02,0.21-0.06c0.06-0.03,0.1-0.07,0.14-0.12
					c0.04-0.05,0.06-0.11,0.08-0.18c0.02-0.07,0.02-0.14,0.02-0.21l-0.06-0.82c0-0.07-0.02-0.14-0.05-0.21
					c-0.02-0.06-0.06-0.11-0.1-0.16c-0.04-0.04-0.1-0.08-0.16-0.1C17.47,2.02,17.42,2.01,17.36,2.01L17.36,2.01z"/>
				<path id="패스_12638" class="st0" d="M24.07,5.16c-0.11,0-0.21-0.02-0.31-0.07c-0.17-0.09-0.3-0.25-0.34-0.44l-0.1-0.38
					c-0.06-0.18-0.03-0.38,0.08-0.55c0.11-0.15,0.28-0.26,0.46-0.3l2.56-0.68c0.18-0.06,0.38-0.04,0.55,0.04
					c0.17,0.09,0.3,0.25,0.34,0.44l0.1,0.38c0.06,0.18,0.03,0.38-0.08,0.55c-0.11,0.15-0.28,0.26-0.46,0.3l-2.56,0.68
					C24.24,5.15,24.16,5.16,24.07,5.16z M26.66,3c-0.06,0-0.11,0.01-0.16,0.02L23.94,3.7c-0.11,0.02-0.22,0.09-0.28,0.18
					c-0.06,0.09-0.07,0.21-0.03,0.31l0.1,0.38c0.02,0.11,0.09,0.2,0.18,0.26c0.11,0.05,0.23,0.05,0.34,0.02l2.56-0.68
					c0.11-0.02,0.22-0.09,0.28-0.18c0.06-0.09,0.07-0.21,0.03-0.31l-0.1-0.38c-0.02-0.11-0.09-0.2-0.18-0.26
					C26.78,3.01,26.72,3,26.66,3L26.66,3z M22.9,3.26l-0.07-0.28l0.08-0.03c0.15-0.05,0.29-0.11,0.43-0.19
					c0.15-0.08,0.28-0.2,0.38-0.33c0.11-0.14,0.19-0.31,0.23-0.48c0.04-0.21,0.03-0.44-0.03-0.65l-0.07-0.27L22.48,1.4l-0.07-0.28
					l3.03-0.8l0.07,0.28l-1.37,0.36l0.07,0.27c0.05,0.21,0.15,0.41,0.3,0.57c0.12,0.13,0.27,0.23,0.44,0.3
					c0.16,0.06,0.32,0.1,0.49,0.1c0.16,0,0.32-0.01,0.47-0.05L26,2.14l0.07,0.28l-0.09,0.02c-0.18,0.04-0.36,0.06-0.54,0.05
					c-0.18,0-0.36-0.03-0.54-0.09c-0.17-0.06-0.33-0.14-0.47-0.25c-0.07-0.05-0.12-0.11-0.18-0.18c-0.01,0.08-0.04,0.16-0.07,0.24
					c-0.07,0.17-0.16,0.32-0.28,0.45c-0.12,0.14-0.27,0.25-0.42,0.35c-0.15,0.09-0.32,0.17-0.49,0.22L22.9,3.26z M26.77,2.46
					l-0.33-1.25l-1.22,0.32l-0.07-0.28l1.22-0.32l-0.23-0.85L26.43,0l0.63,2.38L26.77,2.46z"/>
			</g>
		</g>
	</g>
</g>
</svg>
