<?xml version="1.0" encoding="utf-8"?>
<!-- Generator: Adobe Illustrator 24.1.1, SVG Export Plug-In . SVG Version: 6.00 Build 0)  -->
<!DOCTYPE svg PUBLIC "-//W3C//DTD SVG 1.1//EN" "http://www.w3.org/Graphics/SVG/1.1/DTD/svg11.dtd" [
	<!ENTITY ns_extend "http://ns.adobe.com/Extensibility/1.0/">
	<!ENTITY ns_ai "http://ns.adobe.com/AdobeIllustrator/10.0/">
	<!ENTITY ns_graphs "http://ns.adobe.com/Graphs/1.0/">
	<!ENTITY ns_vars "http://ns.adobe.com/Variables/1.0/">
	<!ENTITY ns_imrep "http://ns.adobe.com/ImageReplacement/1.0/">
	<!ENTITY ns_sfw "http://ns.adobe.com/SaveForWeb/1.0/">
	<!ENTITY ns_custom "http://ns.adobe.com/GenericCustomNamespace/1.0/">
	<!ENTITY ns_adobe_xpath "http://ns.adobe.com/XPath/1.0/">
]>
<svg version="1.1" id="레이어_1" xmlns:x="&ns_extend;" xmlns:i="&ns_ai;" xmlns:graph="&ns_graphs;"
	 xmlns="http://www.w3.org/2000/svg" xmlns:xlink="http://www.w3.org/1999/xlink" x="0px" y="0px" viewBox="0 0 65 13.36"
	 style="enable-background:new 0 0 65 13.36;" xml:space="preserve">
<style type="text/css">
	.st0{enable-background:new    ;}
	.st1{fill:#FFFFFF;}
</style>
<metadata>
	<sfw  xmlns="&ns_sfw;">
		<slices></slices>
		<sliceSourceBounds  bottomLeftOrigin="true" height="13.36" width="65" x="647.59" y="-389.39"></sliceSourceBounds>
	</sfw>
</metadata>
<g class="st0">
	<path class="st1" d="M0,1.86h1.12l3.57,5.35l3.57-5.35h1.12v9.8H8.27V3.72L4.7,8.97H4.65L1.08,3.74v7.92H0V1.86z"/>
	<path class="st1" d="M15.22,7.78l-4.07-5.92h1.34l3.3,4.9l3.33-4.9h1.29l-4.07,5.91v3.89h-1.11V7.78z"/>
</g>
<g class="st0">
	<path class="st1" d="M38.12,10.32v1.2H25.26v-1.2H38.12z M27.03,7.97V0.76h1.47v2.45h6.37V0.76h1.47v7.21H27.03z M34.87,6.75V4.41
		H28.5v2.34H34.87z"/>
	<path class="st1" d="M45.28,7.62c-0.3,0.03-0.66,0.06-1.09,0.08c-0.42,0.03-0.89,0.05-1.39,0.08s-1.03,0.04-1.59,0.05
		c-0.55,0.01-1.12,0.01-1.69,0.01V3.67h3.53V1.89h-3.53V0.73h4.98v4.05h-3.53v1.88c0.92,0,1.75-0.01,2.49-0.04
		c0.73-0.03,1.34-0.07,1.81-0.13V7.62z M50.72,13.36h-9.63V9.03h1.5v3.11h8.13V13.36z M50.34,9.87h-1.47V4.73h-1.44V9.6h-1.44V0.08
		h1.44v3.43h1.44V0h1.47V9.87z"/>
	<path class="st1" d="M65,11.52H52.14V10.3H65V11.52z M53.9,7.48V0.92h9.41v1.2H55.4v4.13h8.09v1.22H53.9z"/>
</g>
</svg>
