<?xml version="1.0" encoding="utf-8"?>
<!-- Generator: Adobe Illustrator 24.1.1, SVG Export Plug-In . SVG Version: 6.00 Build 0)  -->
<!DOCTYPE svg PUBLIC "-//W3C//DTD SVG 1.1//EN" "http://www.w3.org/Graphics/SVG/1.1/DTD/svg11.dtd" [
	<!ENTITY ns_extend "http://ns.adobe.com/Extensibility/1.0/">
	<!ENTITY ns_ai "http://ns.adobe.com/AdobeIllustrator/10.0/">
	<!ENTITY ns_graphs "http://ns.adobe.com/Graphs/1.0/">
	<!ENTITY ns_vars "http://ns.adobe.com/Variables/1.0/">
	<!ENTITY ns_imrep "http://ns.adobe.com/ImageReplacement/1.0/">
	<!ENTITY ns_sfw "http://ns.adobe.com/SaveForWeb/1.0/">
	<!ENTITY ns_custom "http://ns.adobe.com/GenericCustomNamespace/1.0/">
	<!ENTITY ns_adobe_xpath "http://ns.adobe.com/XPath/1.0/">
]>
<svg version="1.1" id="레이어_1" xmlns:x="&ns_extend;" xmlns:i="&ns_ai;" xmlns:graph="&ns_graphs;"
	 xmlns="http://www.w3.org/2000/svg" xmlns:xlink="http://www.w3.org/1999/xlink" x="0px" y="0px" viewBox="0 0 98.05 17.63"
	 style="enable-background:new 0 0 98.05 17.63;" xml:space="preserve">
<style type="text/css">
	.st0{fill:#FFFFFF;}
</style>
<metadata>
	<sfw  xmlns="&ns_sfw;">
		<slices></slices>
		<sliceSourceBounds  bottomLeftOrigin="true" height="17.63" width="98.05" x="634.47" y="-392.8"></sliceSourceBounds>
	</sfw>
</metadata>
<path id="패스_11086" class="st0" d="M17.46,0.43L17.46,0.43c0-0.24-0.2-0.44-0.44-0.43h-3.15c-0.24,0-0.44,0.19-0.44,0.43
	c0,0.01,0,0.03,0,0.04c0,2.2,0,2.75,0,4.95H4.03V0.44C4.03,0.19,3.84,0,3.59,0H0.44C0.2,0,0,0.19,0,0.43c0,0.01,0,0.03,0,0.04
	c0,7.74,0,11.18,0,16.27c0,0.11,0.01,0.23,0,0.34C0,17.26,0.08,17.33,0.25,17.33H15c0.73,0,1.47,0,2.21,0
	c0.13,0,0.24-0.11,0.24-0.24c0-0.12,0-0.25,0-0.37C17.46,11.62,17.46,8.18,17.46,0.43z M13.42,9.44v3.85H4.03V9.45L13.42,9.44z"/>
<g id="그룹_14841" transform="translate(24.062 11.182)">
	<path id="패스_11087" class="st0" d="M2.08-0.01c1.13,0.02,2.03,0.96,2.01,2.09C4.07,3.21,3.14,4.11,2,4.09
		C0.88,4.07-0.01,3.15,0,2.03C0.02,0.89,0.95-0.01,2.08-0.01z"/>
</g>
<g id="그룹_14842" transform="translate(24.062 2.899)">
	<path id="패스_11088" class="st0" d="M2.08-0.01c1.13,0.02,2.03,0.96,2.01,2.09C4.07,3.22,3.14,4.11,2,4.09
		C0.88,4.07-0.01,3.15,0,2.03C0.02,0.89,0.95-0.01,2.08-0.01z"/>
</g>
<path id="패스_11089" class="st0" d="M47.88,9.35c-0.58,1.24-1.15,2.49-1.73,3.73c-0.66,1.42-1.32,2.84-1.97,4.26
	c-0.06,0.18-0.25,0.3-0.44,0.28c-0.61-0.01-1.22-0.02-1.83,0c-0.23,0.03-0.44-0.11-0.51-0.33c-1.18-2.57-2.36-5.14-3.55-7.7
	c-0.04-0.09-0.1-0.18-0.17-0.24v0.34c0,2.49,0,4.98,0,7.46c0,0.46,0,0.46-0.47,0.46c-1.03,0-2.06-0.01-3.09,0.01
	c-0.35,0.01-0.43-0.11-0.43-0.45c0.01-5.4,0.01-10.8,0-16.21c0-0.32,0.08-0.43,0.42-0.43c0.95,0.02,1.9,0.01,2.85,0
	c0.2-0.02,0.4,0.1,0.46,0.3c1.72,3.74,3.45,7.48,5.19,11.22c0.01,0.03,0.03,0.06,0.04,0.09c0.05,0.08,0.05,0.23,0.17,0.22
	c0.1-0.01,0.11-0.13,0.15-0.21c0.4-0.87,0.8-1.74,1.21-2.61c1.35-2.91,2.69-5.83,4.04-8.74c0.06-0.18,0.25-0.3,0.44-0.28
	c0.93,0.01,1.85,0,2.78,0c0.49,0,0.49,0,0.49,0.48c0,4.32,0,8.65,0,12.97c0,1.08-0.01,2.16,0.01,3.24c0,0.3-0.09,0.39-0.39,0.39
	c-1.06-0.02-2.13-0.02-3.19,0c-0.33,0.01-0.42-0.11-0.42-0.43c0.01-2.49,0.01-4.98,0.01-7.46c0-0.12,0-0.25,0-0.37L47.88,9.35z"/>
<path id="패스_11090" class="st0" d="M55.12,9.09c0-2.69,0-5.38,0-8.07c0-0.46,0-0.46,0.47-0.46h11.33c0.46,0,0.46,0,0.46,0.47
	c0,0.96,0,1.91,0,2.87c0,0.49,0,0.49-0.48,0.49c-2.45,0-4.91,0.01-7.36-0.01c-0.33,0-0.46,0.07-0.45,0.43
	c0.03,0.62,0.02,1.24,0,1.86c-0.01,0.3,0.09,0.39,0.39,0.38c2.24-0.01,4.48-0.01,6.72-0.01c0.5,0,0.5,0,0.5,0.5
	c0,0.98-0.01,1.96,0.01,2.94c0.01,0.31-0.1,0.4-0.41,0.4c-2.26-0.01-4.52,0-6.78-0.01c-0.33,0-0.43,0.09-0.42,0.42
	c0.02,0.71,0.02,1.42,0,2.13c-0.01,0.33,0.11,0.39,0.41,0.39c2.55-0.01,5.11-0.01,7.67-0.01c0.48,0,0.48,0,0.48,0.49
	c0,0.99-0.01,1.98,0,2.97c0,0.27-0.08,0.38-0.36,0.38c-3.93-0.01-7.87-0.01-11.8,0c-0.32,0-0.37-0.13-0.37-0.4
	C55.12,14.51,55.13,11.8,55.12,9.09z"/>
<path id="패스_11091" class="st0" d="M76.76,0.55c0.55,0,1.11,0.01,1.66-0.01c0.23-0.04,0.45,0.11,0.5,0.34
	c1.61,4.53,3.24,9.05,4.86,13.57c0.33,0.93,0.66,1.87,1.01,2.8c0.1,0.28,0.06,0.38-0.26,0.37c-1.14-0.01-2.28-0.01-3.42,0
	c-0.22,0.03-0.42-0.12-0.46-0.34c-0.28-0.87-0.58-1.73-0.86-2.6c-0.03-0.21-0.23-0.35-0.43-0.32c-1.75,0.01-3.5,0.01-5.26,0
	c-0.21-0.03-0.4,0.11-0.43,0.32c-0.28,0.86-0.58,1.7-0.85,2.57c-0.05,0.25-0.29,0.42-0.54,0.37c-1.1-0.02-2.19-0.01-3.29-0.01
	c-0.45,0-0.45,0-0.3-0.43c1.48-4.13,2.96-8.27,4.44-12.39c0.46-1.29,0.94-2.58,1.39-3.88c0.05-0.25,0.29-0.41,0.54-0.37
	C75.62,0.57,76.19,0.55,76.76,0.55z M76.73,5.58c-0.08,0.02-0.09,0.1-0.11,0.16c-0.55,1.63-1.09,3.26-1.64,4.89
	c-0.09,0.27,0,0.33,0.26,0.33c0.98-0.01,1.96,0,2.95,0c0.38,0,0.39-0.02,0.27-0.38c-0.52-1.57-1.05-3.13-1.58-4.7
	C76.83,5.77,76.83,5.65,76.73,5.58L76.73,5.58z"/>
<path id="패스_11092" class="st0" d="M86.33,9.09c0-2.69,0-5.38,0-8.07c0-0.46,0-0.46,0.47-0.47c1.03,0,2.06,0.01,3.09-0.01
	c0.35-0.01,0.44,0.1,0.44,0.44C90.3,5.09,90.3,9.2,90.31,13.31c0,0.48,0,0.48,0.48,0.48c2.27,0,4.54,0.01,6.82-0.01
	c0.33,0,0.46,0.08,0.45,0.43c-0.02,1.01-0.02,2.02,0,3.04c0,0.27-0.08,0.37-0.37,0.37c-3.66-0.01-7.32-0.01-10.99,0
	c-0.32,0-0.37-0.13-0.37-0.4C86.33,14.51,86.33,11.8,86.33,9.09z"/>
</svg>
