<?xml version="1.0" encoding="utf-8"?>
<!-- Generator: Adobe Illustrator 24.0.2, SVG Export Plug-In . SVG Version: 6.00 Build 0)  -->
<svg version="1.1" id="레이어_1" xmlns="http://www.w3.org/2000/svg" xmlns:xlink="http://www.w3.org/1999/xlink" x="0px"
	 y="0px" viewBox="0 0 104.77 142.94" style="enable-background:new 0 0 104.77 142.94;" xml:space="preserve">
<style type="text/css">
	.st0{opacity:0.5;}
	.st1{fill:#202020;}
	.st2{fill:#FFFFFF;}
</style>
<g id="그룹_16455" transform="translate(-113.232 -497.188)">
	<g id="그룹_16453" transform="translate(-2456.337 854.76)" class="st0">
		<g>
			<path d="M2664.64-319.67c-0.03-0.2-0.06-0.41-0.09-0.61l-0.15-0.54c-0.09-0.37-0.13-0.76-0.25-1.14
				c-0.07-0.39-0.19-0.78-0.36-1.14c-0.2-0.46-0.44-0.9-0.73-1.31l-0.42-0.63l-0.49-0.6c-0.26-0.34-0.54-0.66-0.84-0.96
				c-0.3-0.3-0.57-0.63-0.89-0.91c-0.75-0.73-1.55-1.46-2.44-2.29c-1-0.84-2.06-1.6-3.17-2.29c-0.39-0.25-0.83-0.52-1.15-0.74
				c-0.37-0.25-0.7-0.48-1.03-0.76c-0.32-0.28-0.67-0.53-1.04-0.74c-0.46-0.25-0.92-0.5-1.39-0.72l-1.46-0.57
				c-0.41-0.16-0.83-0.25-1.24-0.38c-0.4-0.13-0.81-0.23-1.23-0.31c-0.51-0.09-1.01-0.24-1.55-0.32l-1.66-0.27
				c-1.24-0.11-2.49-0.06-3.71,0.15l-1.25,0.24c-0.4,0.09-0.81,0.16-1.23,0.19c-0.41,0.06-0.82,0.14-1.21,0.26
				c-0.95,0.3-1.84,0.75-2.66,1.31c-0.63,0.44-1.2,0.97-1.68,1.57c-0.16,0.16-0.29,0.35-0.4,0.55c-0.12,0.19-0.24,0.38-0.38,0.58
				c-0.23,0.44-0.43,0.9-0.6,1.37c-0.33,1.07-0.34,2.21-0.03,3.29c0.08,0.38,0.27,0.81,0.35,1.12c0.14,0.37,0.25,0.75,0.35,1.13
				c0.14,0.38,0.29,0.76,0.46,1.14c0.26,0.44,0.52,0.88,0.82,1.29c0.33,0.4,0.62,0.83,0.98,1.21c0.3,0.32,0.57,0.65,0.87,0.95
				l0.93,0.89c0.77,0.71,1.58,1.41,2.49,2.19c1.02,0.79,2.11,1.48,3.25,2.07c0.39,0.23,0.87,0.43,1.19,0.61
				c0.38,0.22,0.76,0.46,1.11,0.72c0.37,0.24,0.74,0.49,1.13,0.7c0.47,0.27,0.96,0.51,1.46,0.72c0.5,0.22,0.99,0.46,1.49,0.64
				c0.84,0.32,1.64,0.64,2.47,0.9c1,0.35,2.03,0.64,3.17,0.97c0.61,0.18,1.24,0.28,1.88,0.31l0.91,0.06c0.3-0.01,0.6-0.01,0.9-0.01
				c0.21-0.01,0.44-0.01,0.65-0.03l0.58-0.07c0.2-0.02,0.4-0.03,0.6-0.02c0.2,0,0.38-0.04,0.58-0.05c0.39,0,0.78-0.06,1.15-0.18
				l0.67-0.21l0.6-0.33l0.3-0.16c0.09-0.07,0.18-0.13,0.26-0.21l0.52-0.42c0.25-0.27,0.47-0.56,0.71-0.83l0,0
				c0.17-0.32,0.35-0.64,0.55-0.94c0.19-0.47,0.39-0.95,0.61-1.43c0.2-0.49,0.35-1,0.56-1.53
				C2664.76-317.33,2664.82-318.51,2664.64-319.67z"/>
			<path class="st1" d="M2667.62-321c-0.02-0.12-0.04-0.24-0.06-0.35c-0.43-2.01-1.36-3.87-2.7-5.43c-0.98-1.24-1.51-2.02-2.3-2.92
				c-0.37-0.41-0.76-0.8-1.17-1.17c-0.88-0.77-2.83-2.1-3.74-2.78c-0.61-0.5-1.18-1.06-1.8-1.54l-0.25-0.2
				c-0.38-0.3-0.78-0.57-1.2-0.81c-0.41-0.26-0.84-0.5-1.29-0.7c-0.9-0.4-1.78-0.78-2.7-1.1l-0.99-0.4l-0.86-0.32
				c-0.53-0.23-1.07-0.42-1.62-0.58c-0.54-0.16-1.08-0.29-1.64-0.38c-1.6-0.17-3.21-0.2-4.82-0.1c-0.83-0.03-1.67-0.02-2.5,0.05
				l-0.34,0.02c-1.99,0.33-3.88,1.06-5.57,2.17l-0.96,0.58l-0.8,0.58c-0.52,0.36-0.99,0.78-1.42,1.24l-0.29,0.3l-0.26,0.37
				c-0.18,0.26-0.36,0.54-0.54,0.85c-0.39,0.8-0.67,1.65-0.83,2.52c-0.15,0.87-0.21,1.74-0.18,2.62c-0.01,0.45,0,0.9,0.04,1.34
				c0.02,0.45,0.08,0.89,0.2,1.32l0.07,0.35c0.61,1.93,1.65,3.69,3.03,5.16c0.99,1.21,1.55,1.97,2.36,2.85
				c0.38,0.4,0.78,0.78,1.21,1.13c0.44,0.4,1.2,0.87,1.92,1.38c0.76,0.46,1.49,0.94,1.97,1.26c0.67,0.44,1.27,1,1.95,1.41l0.27,0.18
				c0.39,0.26,0.8,0.49,1.21,0.72c0.41,0.22,0.85,0.4,1.28,0.59c0.85,0.39,1.75,0.7,2.61,1.08c1.4,0.57,2.2,1.06,3.3,1.49
				c0.5,0.22,1.02,0.4,1.56,0.54c1.56,0.36,3.14,0.61,4.73,0.74c0.41,0.08,0.83,0.11,1.25,0.17c0.42,0.07,0.85,0.1,1.27,0.1h0.35
				c2.13-0.06,4.19-0.81,5.85-2.15c1.12-0.84,2.07-1.88,2.78-3.08c0.22-0.45,0.46-0.94,0.7-1.55c0.14-0.35,0.25-0.71,0.32-1.07
				c0.09-0.42,0.23-0.86,0.3-1.33c0.07-0.47,0.12-0.94,0.18-1.37c0.05-0.43,0.03-0.83,0.06-1.14c0.05-0.44,0.08-0.87,0.07-1.31
				C2667.69-320.11,2667.67-320.56,2667.62-321z M2663.89-314.66c-0.22,0.49-0.42,0.96-0.61,1.43c-0.2,0.3-0.37,0.62-0.55,0.94l0,0
				c-0.24,0.26-0.46,0.56-0.71,0.83l-0.52,0.42c-0.08,0.07-0.17,0.14-0.26,0.21l-0.3,0.16l-0.6,0.33l-0.67,0.21
				c-0.37,0.11-0.76,0.17-1.15,0.18c-0.2,0.01-0.39,0.04-0.58,0.05c-0.2,0-0.4,0.01-0.6,0.02l-0.58,0.07
				c-0.21,0.02-0.44,0.02-0.65,0.03c-0.3,0-0.6,0-0.9,0.01l-0.91-0.06c-0.63-0.03-1.26-0.13-1.88-0.31
				c-1.14-0.33-2.17-0.63-3.17-0.97c-0.83-0.25-1.63-0.57-2.47-0.9c-0.5-0.19-0.99-0.43-1.49-0.64c-0.5-0.21-0.98-0.45-1.46-0.72
				c-0.39-0.21-0.76-0.46-1.13-0.7c-0.36-0.26-0.73-0.5-1.11-0.72c-0.32-0.18-0.8-0.39-1.19-0.61c-1.14-0.59-2.23-1.28-3.25-2.07
				c-0.91-0.78-1.72-1.49-2.49-2.19l-0.93-0.89c-0.3-0.3-0.58-0.63-0.87-0.95c-0.36-0.38-0.65-0.81-0.98-1.21
				c-0.3-0.42-0.56-0.85-0.82-1.29c-0.17-0.37-0.32-0.76-0.46-1.14c-0.1-0.38-0.22-0.76-0.35-1.13c-0.08-0.31-0.27-0.73-0.35-1.12
				c-0.31-1.08-0.3-2.22,0.03-3.29c0.17-0.47,0.37-0.93,0.6-1.37c0.13-0.19,0.26-0.38,0.38-0.58c0.11-0.2,0.24-0.39,0.4-0.55
				c0.49-0.6,1.05-1.12,1.68-1.57c0.82-0.57,1.71-1.01,2.66-1.31c0.4-0.12,0.8-0.21,1.21-0.26c0.41-0.04,0.82-0.1,1.23-0.19
				l1.25-0.24c1.22-0.22,2.47-0.27,3.71-0.15l1.66,0.27c0.53,0.08,1.04,0.22,1.55,0.32c0.42,0.08,0.83,0.18,1.23,0.31
				c0.41,0.13,0.83,0.22,1.24,0.38l1.46,0.57c0.48,0.22,0.93,0.47,1.39,0.72c0.37,0.21,0.72,0.46,1.04,0.74
				c0.33,0.27,0.66,0.51,1.03,0.76c0.31,0.21,0.76,0.49,1.15,0.74c1.11,0.69,2.17,1.45,3.17,2.29c0.88,0.83,1.69,1.56,2.44,2.29
				c0.33,0.29,0.59,0.61,0.89,0.91c0.3,0.3,0.58,0.62,0.84,0.96l0.49,0.6l0.42,0.63c0.29,0.41,0.53,0.85,0.73,1.31
				c0.17,0.36,0.29,0.75,0.36,1.14c0.12,0.38,0.16,0.77,0.25,1.14l0.15,0.54c0.03,0.2,0.06,0.41,0.09,0.61
				c0.19,1.16,0.12,2.35-0.19,3.48C2664.23-315.66,2664.09-315.15,2663.89-314.66z"/>
		</g>
		<g>
			<path class="st2" d="M2654.46-311.76c-0.06-0.43-0.19-0.85-0.27-1.28c-0.27-1.09-0.62-2.16-1.03-3.2
				c-0.26-0.6-0.57-1.18-0.95-1.72c-0.41-0.49-0.75-1.01-1.19-1.49l-0.92-0.96c-0.64-0.58-1.13-1.35-1.84-1.88
				c-0.41-0.35-0.86-0.66-1.33-0.93c-0.46-0.29-0.94-0.55-1.43-0.77c-0.21-0.1-0.41-0.2-0.61-0.29l-0.62-0.22
				c-0.41-0.16-0.82-0.3-1.24-0.41c-0.52-0.13-1.03-0.32-1.58-0.39c-0.55-0.1-1.11-0.25-1.71-0.3c-0.33-0.05-0.67-0.08-1-0.09
				c-0.33,0.01-0.65,0.03-0.97,0.05c-0.64,0.01-1.25,0.2-1.89,0.26c-0.44,0.09-0.93,0.25-1.29,0.33c-0.43,0.08-0.84,0.2-1.28,0.28
				l-0.65,0.13c-0.21,0.07-0.42,0.14-0.62,0.22c-0.51,0.18-1,0.41-1.47,0.69c-0.48,0.25-0.94,0.54-1.38,0.86
				c-0.72,0.51-1.41,1.07-2.05,1.67c-0.81,0.78-1.56,1.62-2.26,2.5c-0.76,1.05-1.34,2.21-1.72,3.45c-0.14,0.43-0.27,0.92-0.36,1.28
				c-0.29,0.83-0.53,1.68-0.72,2.53c-0.16,1.07-0.19,2.16-0.08,3.24c0.07,0.88,0.22,1.75,0.43,2.61c0.27,1.09,0.61,2.16,1.03,3.2
				c0.53,1.18,1.25,2.26,2.13,3.21c0.29,0.34,0.68,0.68,0.92,0.96c0.32,0.3,0.61,0.63,0.89,0.97c0.3,0.33,0.61,0.63,0.95,0.92
				c0.43,0.34,0.87,0.65,1.32,0.94c0.47,0.27,0.95,0.52,1.43,0.77l1.23,0.52l1.25,0.41c1.08,0.3,2.19,0.53,3.3,0.69
				c1.29,0.13,2.59,0.06,3.85-0.23c0.44-0.11,0.94-0.21,1.29-0.32c0.42-0.13,0.85-0.19,1.28-0.28c0.42-0.11,0.86-0.21,1.28-0.35
				c0.49-0.22,1-0.42,1.47-0.69c0.46-0.28,0.94-0.53,1.38-0.85c0.72-0.51,1.41-1.07,2.04-1.68c0.37-0.39,0.74-0.78,1.14-1.17
				c0.35-0.43,0.72-0.87,1.12-1.33c0.75-1.06,1.32-2.22,1.7-3.46c0.15-0.42,0.27-0.84,0.37-1.27c0.09-0.42,0.28-0.82,0.4-1.25
				c0.12-0.42,0.24-0.85,0.34-1.28c0.06-0.54,0.11-1.08,0.15-1.62l-0.06-1.63C2654.58-310.89,2654.53-311.33,2654.46-311.76z"/>
			<path class="st1" d="M2657.5-309.78c-0.02-1.33-0.12-2.65-0.31-3.96c-0.1-0.6-0.25-1.18-0.46-1.75c-0.3-0.81-0.66-1.6-1.08-2.35
				c-0.52-0.83-1-1.66-1.38-2.17c-0.25-0.37-0.45-0.77-0.7-1.13s-0.51-0.72-0.79-1.07c-0.07-0.1-0.15-0.19-0.22-0.29
				c-1.43-1.53-3.14-2.77-5.03-3.67c-1.16-0.64-2.37-1.21-3.6-1.7c-0.57-0.21-1.15-0.37-1.74-0.48c-0.32-0.05-0.72-0.11-1.16-0.16
				s-0.94-0.04-1.42-0.06c-0.24,0-0.49-0.02-0.72-0.01l-0.69,0.04c-0.44,0.03-0.84,0.03-1.16,0.04c-0.89,0.02-1.77,0.08-2.65,0.21
				l-0.35,0.05c-2.04,0.46-3.98,1.32-5.7,2.51c-0.69,0.47-1.26,0.82-1.78,1.16l-1.49,1.1c-0.46,0.39-0.89,0.81-1.28,1.27
				c-0.56,0.66-1.05,1.37-1.49,2.12c-0.5,0.84-0.92,1.71-1.21,2.27c-0.44,0.77-0.83,1.57-1.16,2.4c-0.05,0.11-0.09,0.23-0.13,0.34
				c-0.62,2-0.84,4.1-0.66,6.19c0.02,1.33,0.13,2.65,0.32,3.96c0.1,0.59,0.25,1.18,0.45,1.75c0.1,0.3,0.27,0.67,0.45,1.09
				c0.2,0.4,0.41,0.84,0.66,1.26c0.48,0.85,1.02,1.65,1.37,2.18c0.24,0.37,0.46,0.76,0.71,1.12c0.23,0.38,0.5,0.74,0.78,1.08
				l0.22,0.28c1.43,1.53,3.14,2.78,5.04,3.66c1.16,0.64,2.36,1.22,3.59,1.72c0.57,0.19,1.15,0.35,1.74,0.48
				c0.85,0.14,1.72,0.21,2.58,0.21c0.47,0.02,0.94,0.01,1.41-0.03c0.44-0.02,0.84-0.02,1.16-0.06c0.44-0.03,0.89-0.03,1.33-0.04
				c0.44-0.04,0.89-0.08,1.32-0.15c0.12-0.02,0.24-0.02,0.36-0.05c2.05-0.46,3.98-1.32,5.69-2.53c1.14-0.68,2.24-1.43,3.28-2.25
				c0.39-0.36,0.81-0.76,1.28-1.27c1.06-1.36,1.97-2.83,2.69-4.4c0.44-0.77,0.84-1.57,1.18-2.39c0.04-0.11,0.08-0.23,0.12-0.34
				C2657.48-305.58,2657.7-307.69,2657.5-309.78z M2654.54-307.19c-0.09,0.43-0.22,0.86-0.34,1.28c-0.12,0.42-0.31,0.82-0.4,1.25
				c-0.1,0.43-0.22,0.86-0.37,1.27c-0.38,1.24-0.95,2.4-1.7,3.46c-0.4,0.46-0.77,0.9-1.12,1.33c-0.4,0.39-0.77,0.78-1.14,1.17
				c-0.64,0.61-1.32,1.18-2.04,1.68c-0.44,0.32-0.92,0.57-1.38,0.85c-0.47,0.27-0.98,0.47-1.47,0.69c-0.42,0.14-0.85,0.24-1.28,0.35
				c-0.43,0.09-0.87,0.15-1.28,0.28c-0.35,0.1-0.85,0.2-1.29,0.32c-1.26,0.29-2.56,0.36-3.85,0.23c-1.11-0.16-2.22-0.39-3.3-0.69
				l-1.25-0.41l-1.23-0.52c-0.48-0.24-0.96-0.5-1.43-0.77c-0.46-0.29-0.9-0.6-1.32-0.94c-0.33-0.29-0.65-0.6-0.95-0.92
				c-0.27-0.34-0.57-0.66-0.89-0.97c-0.24-0.27-0.63-0.61-0.92-0.96c-0.88-0.95-1.6-2.03-2.13-3.21c-0.42-1.04-0.77-2.11-1.03-3.2
				c-0.22-0.86-0.36-1.73-0.43-2.61c-0.11-1.08-0.08-2.17,0.08-3.24c0.19-0.86,0.44-1.7,0.72-2.53c0.09-0.35,0.22-0.85,0.36-1.28
				c0.38-1.24,0.96-2.4,1.72-3.45c0.7-0.88,1.45-1.72,2.26-2.5c0.65-0.6,1.33-1.16,2.05-1.67c0.44-0.32,0.9-0.61,1.38-0.86
				c0.47-0.27,0.96-0.5,1.47-0.69c0.21-0.08,0.41-0.16,0.62-0.22l0.65-0.13c0.43-0.08,0.85-0.21,1.28-0.28
				c0.36-0.08,0.84-0.24,1.29-0.33c0.64-0.07,1.25-0.25,1.89-0.26c0.32-0.02,0.64-0.04,0.97-0.05c0.33,0.01,0.67,0.04,1,0.09
				c0.6,0.06,1.16,0.2,1.71,0.3c0.55,0.08,1.06,0.27,1.58,0.39c0.42,0.11,0.84,0.25,1.24,0.41l0.62,0.22
				c0.2,0.09,0.4,0.19,0.61,0.29c0.5,0.22,0.97,0.47,1.43,0.77c0.47,0.27,0.92,0.58,1.33,0.93c0.71,0.54,1.2,1.3,1.84,1.88
				l0.92,0.96c0.44,0.48,0.78,1,1.19,1.49c0.37,0.54,0.69,1.12,0.95,1.72c0.41,1.04,0.76,2.11,1.03,3.2
				c0.08,0.43,0.21,0.85,0.27,1.28s0.11,0.88,0.17,1.32l0.06,1.63C2654.65-308.27,2654.61-307.73,2654.54-307.19z"/>
		</g>
		<circle id="타원_218" cx="2634.71" cy="-315.07" r="1.56"/>
		<circle id="타원_219" cx="2628.91" cy="-316.64" r="1.56"/>
		<g id="그룹_16449" transform="translate(2610.341 -285.523)">
			<path id="패스_12843" class="st1" d="M63.85,68.6c-0.09-0.3-0.16-0.61-0.2-0.93c-0.04-0.27-0.07-0.53-0.11-0.79
				c-0.14-0.89-0.27-1.77-0.42-2.69c-0.18-1.1-0.36-2.19-0.5-3.29c-0.12-0.9-0.08-1.82-0.24-2.71c-0.07-0.38-0.2-0.89-0.3-1.34
				c-0.25-1.31-0.62-2.5-0.8-3.89c-0.16-1.23-0.34-2.34-0.57-3.41c-0.19-0.88-0.38-1.75-0.57-2.66c-0.22-1.09-0.49-2.17-0.7-3.26
				c-0.17-0.89-0.19-1.81-0.4-2.69c-0.09-0.37-0.25-0.87-0.39-1.32c-0.34-1.29-0.78-2.46-1.04-3.84c-0.25-1.22-0.52-2.31-0.81-3.37
				c-0.23-0.87-0.48-1.73-0.76-2.62c-0.32-1.07-0.66-2.13-0.94-3.2c-0.22-0.88-0.36-1.79-0.65-2.65c-0.13-0.36-0.32-0.85-0.49-1.29
				c-0.22-0.63-0.46-1.23-0.71-1.84c-0.27-0.62-0.51-1.25-0.71-1.9c-0.33-1.12-0.71-2.21-1.14-3.29l-1.08-2.52l-0.66-1.54
				c-0.26-0.53-0.5-1.09-0.8-1.61c-0.24-0.43-0.43-0.89-0.69-1.31c-0.23-0.44-0.51-0.85-0.83-1.23c-0.32-0.38-0.67-0.74-1.05-1.07
				c-1.06-0.96-2.19-1.84-3.39-2.63c-1.01-0.72-2.1-1.31-3.25-1.78c-0.9-0.36-1.81-0.66-2.75-0.9c-1.14-0.28-2.3-0.5-3.46-0.66
				c-0.94-0.2-1.9-0.32-2.85-0.37c-0.41,0-0.96,0.07-1.45,0.1c-1.41,0.11-2.69,0.45-4.15,0.69C23.78,1,22.59,1.34,21.46,1.8
				c-0.44,0.18-0.88,0.39-1.31,0.59c-0.43,0.23-0.86,0.45-1.29,0.69c-1.02,0.61-2,1.28-2.94,2.01c-0.81,0.55-1.56,1.18-2.25,1.87
				c-0.32,0.38-0.62,0.78-0.9,1.19c-0.85,1.16-1.4,2.35-2.16,3.59c-0.62,1.02-1.16,2.09-1.61,3.19c-0.35,0.86-0.67,1.71-0.98,2.61
				c-0.38,1.07-0.69,2.17-1.03,3.26c-0.33,0.88-0.62,1.77-0.85,2.68c-0.07,0.38-0.13,0.9-0.2,1.36c-0.24,1.31-0.31,2.55-0.67,3.91
				c-0.32,1.2-0.53,2.3-0.72,3.38c-0.15,0.89-0.3,1.76-0.46,2.68C3.87,35.9,3.73,37,3.51,38.09C3.33,38.97,3,39.83,2.86,40.72
				c-0.05,0.38-0.1,0.9-0.14,1.37c-0.18,1.32-0.21,2.57-0.5,3.94c-0.25,1.22-0.41,2.33-0.56,3.42c-0.12,0.9-0.2,1.78-0.31,2.7
				c-0.13,1.1-0.23,2.21-0.38,3.31c-0.12,0.9-0.4,1.78-0.46,2.69c-0.03,0.38-0.04,0.91-0.05,1.38c-0.09,1.33-0.01,2.59-0.18,3.99
				c-0.13,1.16-0.21,2.32-0.22,3.49v0.76c0,0.32-0.08,0.72-0.06,1.05c-0.06,0.49,0.06,0.98,0.33,1.39c0.39,0.58,1.13,0.81,1.79,0.57
				c0.29-0.13,0.53-0.35,0.7-0.62c0.06-0.1,0.12-0.2,0.17-0.3c0.11-0.35,0.13-0.73,0.04-1.09c-0.02-0.14-0.02-0.29-0.01-0.43
				c0.04-0.42,0.08-0.82,0.12-1.26s0.08-0.94,0.09-1.52c0.02-1.08-0.06-3.32,0.05-4.41c0.07-0.76,0.27-1.5,0.37-2.26l0.05-0.3
				c0.28-1.76,0.19-3.57,0.38-5.35c0.15-1.13,0.35-2.26,0.62-3.37c0.09-0.45,0.18-0.93,0.26-1.52c0.13-1.09,0.24-3.35,0.45-4.43
				c0.14-0.75,0.38-1.49,0.53-2.23c0.02-0.1,0.05-0.2,0.07-0.3c0.42-1.75,0.44-3.57,0.72-5.34c0.25-1.43,0.54-2.26,0.82-3.34
				c0.11-0.44,0.22-0.93,0.33-1.51c0.18-1.08,0.42-3.33,0.66-4.4c0.17-0.75,0.45-1.47,0.62-2.21l0.08-0.3
				c0.47-1.66,0.66-3.41,1.2-5.08c0.37-1.05,0.82-2.07,1.37-3.04c0.21-0.39,0.41-0.83,0.65-1.34c0.52-1.32,1.15-2.59,1.88-3.8
				c0.43-0.56,0.9-1.09,1.41-1.58l0.2-0.2c1.12-1.22,2.36-2.33,3.7-3.3c0.92-0.55,1.9-0.98,2.94-1.26c0.41-0.11,0.84-0.28,1.37-0.44
				c1.3-0.51,2.65-0.86,4.03-1.07c0.72-0.05,1.45,0.02,2.16,0.04l0.29,0.01c1.69,0.01,3.37,0.14,5.03,0.4
				c1.04,0.25,2.05,0.64,2.99,1.16l1.28,0.64c0.46,0.22,1.16,0.54,1.83,0.93c0.6,0.33,1.16,0.72,1.68,1.17
				c0.49,0.5,0.94,1.04,1.36,1.6l0.16,0.23c0.24,0.33,0.49,0.65,0.72,0.98c0.25,0.32,0.48,0.65,0.71,0.99
				c0.49,0.69,0.89,1.43,1.22,2.21c0.57,1.32,0.77,2.17,1.12,3.21c0.15,0.43,0.3,0.9,0.51,1.45c0.38,1.02,1.37,3.04,1.69,4.08
				c0.21,0.73,0.33,1.49,0.54,2.22l0.07,0.3c0.46,1.72,1.23,3.36,1.75,5.07c0.32,1.1,0.57,2.21,0.74,3.34
				c0.09,0.45,0.19,0.93,0.35,1.5c0.15,0.53,0.42,1.32,0.68,2.12s0.49,1.6,0.6,2.14c0.16,0.75,0.21,1.52,0.36,2.26
				c0.02,0.1,0.03,0.2,0.05,0.3c0.26,1.77,0.94,3.46,1.33,5.21c0.3,1.41,0.34,2.29,0.49,3.4c0.06,0.45,0.14,0.94,0.25,1.52
				c0.21,1.08,0.86,3.24,1,4.33c0.11,0.76,0.11,1.53,0.21,2.29c0.01,0.1,0.02,0.21,0.03,0.3c0.17,1.79,0.74,3.51,1.02,5.29
				c0.16,1.13,0.26,2.27,0.29,3.42c0.02,0.23,0.04,0.46,0.06,0.72s0.01,0.63,0.06,0.92c0.07,0.49,0.41,1.48,0.93,1.7
				c0.45,0.27,0.98,0.35,1.49,0.2c0.35-0.26,0.64-0.59,0.86-0.96C64.05,69.44,64.03,68.99,63.85,68.6z"/>
		</g>
		<path id="패스_12844" class="st2" d="M2617.64-313.42c5.83-2.55,1.66,6.24,14.45,23.15l-0.72-1.14
			c3.31-3.77,13.23-8.11,15.52-5.48c3.75,4.31-3.54,6.51-6.85,9.48s-0.05,9.14-12.65,16.11c-10.54,5.83-20.44-1.32-24.13-7.69
			c-1.74-3-3.53-8.97-1.38-10.43c4.29-2.93,5.51,5.1,5.51,5.1c-5.5-8.34-0.72-12.37,3.32-11.04l0.76-3.62l5.35-1.12l-2.13-10
			L2617.64-313.42z"/>
		<g id="그룹_16452" transform="translate(2627.749 -311.206)">
			<g id="그룹_16450" transform="translate(2.193 0.266)">
				<path id="패스_12845" class="st1" d="M0.86,2.57c0.36,0.13,0.76,0.09,1.1-0.09c0.33-0.26,0.61-0.39,0.78-0.79
					C2.77,1.36,2.7,1.03,2.55,0.74c-0.2-0.26-0.5-0.43-0.82-0.45C1.5,0.25,1.28,0.2,1.06,0.14C0.88,0.09,0.7,0.04,0.51,0L0,2.25
					l0.39,0.12C0.52,2.42,0.71,2.52,0.86,2.57z"/>
			</g>
			<g id="그룹_16451">
				<path id="패스_12846" class="st1" d="M0.5,2.09c0.05,0.05,0.1,0.09,0.15,0.13C0.84,2.3,1.05,2.33,1.25,2.29
					c0.08,0,0.17,0,0.25,0.02c0.23,0.06,0.46,0.13,0.7,0.21l0.51-2.25C2.53,0.23,2.36,0.2,2.19,0.17c-0.22-0.04-0.5-0.13-0.73-0.15
					C1.1-0.06,0.72,0.01,0.42,0.22C0.21,0.38,0.06,0.61,0.01,0.87c-0.03,0.25,0.01,0.5,0.13,0.71C0.24,1.77,0.36,1.94,0.5,2.09z"/>
			</g>
		</g>
		<path id="패스_12847" class="st1" d="M2648.8-296.74c-0.34-0.64-0.81-1.2-1.38-1.65c-0.6-0.41-1.28-0.67-2-0.77
			c-0.61-0.09-1.22-0.14-1.84-0.13c-0.31,0-0.65,0.04-0.95,0.07c-0.27,0.03-0.54,0.08-0.8,0.15c-0.48,0.13-0.95,0.28-1.41,0.46
			c-1.34,0.45-2.47,1.1-3.81,1.67c-1.11,0.47-2.17,1.05-3.17,1.73c-0.22,0.15-0.43,0.3-0.65,0.46c-0.27,0.2-0.65,0.4-0.92,0.61
			c-0.16,0.14-0.3,0.26-0.43,0.39l-0.16-0.23c-0.45-0.63-0.88-1.26-1.32-1.92c-0.52-0.8-1.04-1.6-1.49-2.43
			c-0.36-0.69-0.58-1.45-0.95-2.12l-0.59-1.01c-0.58-0.97-1.08-1.99-1.5-3.04c-0.34-1.01-0.66-1.9-0.99-2.79
			c-0.26-0.73-0.53-1.44-0.79-2.21l-0.5-1.47l-0.33-0.93c-0.12-0.32-0.24-0.63-0.38-0.94c-0.32-1.02-1-1.9-1.93-2.45
			c-0.5-0.19-1.05-0.24-1.58-0.15c-0.76,0.1-1.5,0.36-2.16,0.76c-0.7,0.38-1.32,0.87-1.85,1.46c-0.48,0.54-0.86,1.16-1.1,1.84
			c-0.11,0.33-0.2,0.68-0.28,1.01c-0.05,0.31-0.1,0.63-0.13,0.93c-0.06,0.9-0.02,1.79,0.1,2.68c0.14,1.06,0.38,2.06,0.6,3.06
			c0.14,0.63,0.22,1.29,0.37,1.91c-0.17,0-0.33,0.02-0.5,0.04c-0.82,0.08-1.62,0.34-2.34,0.75c-0.93,0.53-1.64,1.35-2.04,2.34
			c-0.08,0.2-0.17,0.4-0.26,0.6s-0.12,0.4-0.18,0.6c-0.02,0.07-0.03,0.15-0.05,0.22c-0.18,0.03-0.35,0.06-0.53,0.07
			c-0.22,0.01-0.44,0.04-0.66,0.09c-0.75,0.16-1.46,0.47-2.09,0.92c-0.77,0.55-1.39,1.28-1.82,2.12c-0.39,0.64-0.65,1.34-0.78,2.08
			c0,0.04,0,0.1,0,0.14c-0.16,0-0.31,0.01-0.47,0.04c-0.29,0.1-0.58,0.22-0.85,0.37c-0.37,0.25-0.72,0.52-1.04,0.82
			c-0.28,0.25-0.52,0.53-0.72,0.85c-0.34,0.53-0.58,1.12-0.71,1.74c-0.07,0.29-0.12,0.58-0.13,0.87c-0.03,0.28-0.04,0.56-0.03,0.83
			c0.05,1.25,0.27,2.48,0.67,3.67c0.22,0.94,0.53,1.86,0.93,2.75c0.17,0.37,0.49,0.82,0.74,1.24c0.36,0.6,0.76,1.17,1.19,1.72
			c0.45,0.53,0.86,1.1,1.33,1.66l0.6,0.75l0.64,0.67c0.21,0.21,0.42,0.43,0.64,0.63l0.67,0.57c0.74,0.61,1.52,1.17,2.33,1.68
			c0.51,0.29,1.01,0.61,1.53,0.88l1.59,0.78c0.86,0.45,1.77,0.82,2.7,1.1c0.48,0.13,0.97,0.21,1.47,0.24
			c0.7,0.11,1.41,0.16,2.12,0.14h1.07c0.36,0,0.73-0.05,1.1-0.05l0.99-0.04c0.32-0.03,0.63-0.1,0.93-0.15
			c0.6-0.09,1.19-0.23,1.76-0.43l1.37-0.49c0.46-0.16,0.87-0.42,1.32-0.62c1.1-0.5,2.01-1.14,3.01-1.69
			c0.83-0.44,1.64-0.92,2.42-1.44c0.31-0.26,0.72-0.64,1.08-0.97c1.02-0.98,1.98-2.02,2.87-3.11c0.82-0.96,1.49-2.03,1.99-3.19
			c0.38-0.88,0.69-1.79,0.94-2.72c0.21-0.98,0.54-1.93,0.97-2.83l0.29-0.38c0.11-0.1,0.22-0.2,0.34-0.29
			c0.21-0.18,0.59-0.42,0.89-0.66c0.26-0.21,0.64-0.52,0.99-0.78c1.04-0.72,2.02-1.49,3.27-2.28c0.68-0.43,1.3-0.93,1.86-1.51
			c0.53-0.53,0.94-1.17,1.2-1.87C2649.54-294.46,2649.42-295.71,2648.8-296.74z M2645.72-293.8c-0.16,0.24-0.35,0.46-0.55,0.66
			l-0.38,0.39c-0.21,0.21-0.44,0.41-0.68,0.6c-0.56,0.45-1.15,0.87-1.76,1.25c-0.66,0.39-1.39,0.71-2.07,1.16l-0.28,0.18
			c-0.43,0.28-0.84,0.6-1.2,0.96c-0.21,0.23-0.41,0.46-0.6,0.69c-0.16,0.25-0.3,0.51-0.45,0.76c-0.41,0.93-0.73,1.89-0.95,2.88
			c-0.28,1.04-0.69,2.04-1.23,2.97c-0.2,0.36-0.4,0.75-0.67,1.2c-0.31,0.58-0.65,1.15-1.02,1.7l-0.67,0.89
			c-0.2,0.23-0.42,0.46-0.65,0.66c-0.55,0.46-1.12,0.88-1.72,1.27l-0.24,0.16c-0.71,0.46-1.39,0.97-2.06,1.49
			c-0.69,0.51-1.41,0.99-2.15,1.42c-0.6,0.3-1.09,0.5-1.55,0.68l-1.41,0.34c-0.39,0.13-0.84,0.17-1.36,0.29
			c-1.29,0.36-2.63,0.51-3.97,0.46c-0.34-0.05-0.69-0.13-1.02-0.23c-0.33-0.1-0.67-0.15-1-0.27l-0.26-0.09
			c-1.59-0.4-3.14-0.98-4.61-1.72c-0.29-0.17-0.55-0.33-0.78-0.49c-0.22-0.17-0.42-0.34-0.61-0.5l-0.55-0.48l-0.53-0.53
			c-0.3-0.29-0.65-0.6-1.03-0.99c-1.05-0.88-1.99-1.9-2.79-3.01c-0.18-0.3-0.34-0.62-0.49-0.94c-0.14-0.33-0.28-0.67-0.44-0.98
			c-0.04-0.09-0.08-0.17-0.11-0.26c-0.74-1.43-1.3-2.94-1.66-4.51c-0.03-0.27-0.04-0.54-0.02-0.81c0.03-0.23,0.07-0.44,0.11-0.64
			c0.1-0.29,0.24-0.56,0.44-0.8c0.08-0.1,0.17-0.2,0.28-0.28c0.14-0.1,0.28-0.18,0.44-0.24c0.12-0.07,0.23-0.15,0.33-0.23
			c0.05,0.21,0.1,0.41,0.15,0.63c0.11,0.42,0.24,0.81,0.36,1.19c0.14,0.35,0.3,0.7,0.48,1.04l0.23,0.45
			c0.08,0.22,0.18,0.43,0.29,0.63c0.19,0.29,0.27,0.52,0.73,0.62c0.63,0.08,1.26-0.14,1.7-0.59c0.2-0.2,0.34-0.44,0.43-0.71
			c0.03-0.08,0.05-0.16,0.06-0.25c0.04-0.26-0.15-0.43-0.29-0.6c-0.06-0.06-0.11-0.14-0.15-0.22c-0.1-0.23-0.15-0.47-0.24-0.71
			c-0.1-0.28-0.21-0.54-0.34-0.81c-0.1-0.28-0.33-0.69-0.53-1.11c-0.16-0.36-0.27-0.75-0.33-1.14c0-0.2,0-0.39,0.02-0.59
			c0.01-0.2,0.09-0.37,0.1-0.55l0.03-0.14c0.05-0.75,0.32-1.47,0.76-2.09c0.37-0.3,0.84-0.45,1.31-0.43c0.1-0.01,0.2-0.01,0.3,0
			c0.13,0.01,0.25,0.02,0.38,0.04c0.09,0,0.18-0.02,0.26-0.06l0.14,0.4c0.15,0.48,0.36,0.92,0.5,1.42c0.12,0.42,0.28,0.83,0.46,1.23
			c0.16,0.38,0.34,0.74,0.55,1.09l0.27,0.47c0.12,0.2,0.19,0.49,0.32,0.67c0.21,0.3,0.31,0.54,0.78,0.65
			c0.63,0.1,1.27-0.12,1.71-0.59c0.19-0.21,0.33-0.47,0.4-0.74c0.02-0.09,0.04-0.17,0.04-0.26c0.02-0.28-0.19-0.46-0.34-0.65
			c-0.07-0.07-0.12-0.15-0.16-0.24c-0.1-0.26-0.2-0.51-0.31-0.77s-0.25-0.55-0.41-0.89c-0.48-0.78-0.87-1.61-1.15-2.48
			c-0.05-0.22-0.07-0.44-0.05-0.67c0.01-0.22-0.02-0.45,0.01-0.64l0.02-0.16c0.02-0.23,0.01-0.47,0.04-0.64l0.01-0.29l0.04-0.26
			c0.05-0.37,0.23-0.71,0.5-0.96c0.21-0.16,0.45-0.26,0.71-0.28c0.25-0.03,0.51-0.03,0.76-0.01c0.13-0.01,0.25-0.01,0.38,0.01
			c0.17,0.03,0.33,0.05,0.5,0.07c0.18-0.02,0.36-0.06,0.53-0.12c0.3,0.62,0.57,1.25,0.8,1.89c0.34,0.97,0.73,1.92,1.17,2.85
			l0.28,0.6c0.12,0.25,0.2,0.6,0.32,0.85c0.12,0.4,0.39,0.74,0.76,0.95c0.6,0.3,1.31,0.23,1.84-0.16c0.23-0.21,0.39-0.49,0.46-0.79
			c0.03-0.11,0.04-0.21,0.05-0.32c-0.02-0.34-0.15-0.67-0.36-0.94c-0.07-0.11-0.13-0.23-0.18-0.36c-0.12-0.36-0.25-0.7-0.38-1.08
			s-0.3-0.78-0.52-1.25c-0.41-0.87-1.38-2.59-1.68-3.49c-0.22-0.63-0.33-1.29-0.51-1.91l-0.06-0.26c-0.38-1.48-1.05-2.87-1.31-4.33
			c-0.15-0.89-0.13-1.8,0.05-2.68c0.06-0.3,0.12-0.58,0.19-0.84c0.08-0.37,0.22-0.73,0.41-1.05c0.22-0.34,0.53-0.61,0.9-0.77
			c0.37-0.12,0.77-0.12,1.13,0.01c0.05,0.02,0.09,0.05,0.14,0.08c0.34,0.27,0.61,0.61,0.8,0.99c0.11,0.18,0.22,0.38,0.32,0.59
			c0.05,0.09,0.11,0.25,0.18,0.41s0.12,0.31,0.19,0.51c0.41,1.21,0.53,2.01,0.79,2.98c0.12,0.45,0.27,0.9,0.45,1.33
			c0.36,0.94,1.36,2.74,1.76,3.65c0.27,0.64,0.47,1.32,0.76,1.95l0.11,0.26c0.74,1.46,1.61,2.84,2.59,4.15
			c0.71,1.1,1.04,1.83,1.54,2.7l0.35,0.56c0.13,0.19,0.27,0.5,0.43,0.72c0.27,0.36,1.01,0.98,1.55,0.88c0.51-0.02,1-0.24,1.35-0.62
			c0.08-0.13,0.15-0.27,0.18-0.41c0.03,0,0.05,0,0.08,0c0.11-0.01,0.21-0.03,0.31-0.06c0.32-0.13,0.59-0.34,0.8-0.61
			c0.1-0.1,0.2-0.18,0.31-0.26c0.33-0.21,0.67-0.4,1.03-0.6l1.25-0.73c1.16-0.78,2.4-1.45,3.69-2c0.68-0.21,1.37-0.37,2.07-0.49
			l0.27-0.05l0.94-0.16c0.24-0.04,0.49-0.09,0.76-0.11c0.55-0.11,1.12,0.07,1.49,0.49C2646.11-295.17,2646.16-294.37,2645.72-293.8
			L2645.72-293.8z"/>
		<path id="패스_12848" class="st2" d="M2666.24-280.55"/>
	</g>
	<g id="그룹_16454" transform="translate(-2508.304 921.847)" class="st0">
		<path id="패스_12852" class="st1" d="M2662.9-407.86c-0.05-0.49-0.09-0.97-0.14-1.45c-0.08-0.78-0.22-1.39-0.28-1.97
			c-0.12-0.57-0.25-1.09-0.4-1.68c-0.19-0.53-0.41-1.04-0.66-1.55c-0.83-1.35-1.82-2.59-2.96-3.7l-0.4-0.46l-0.42-0.44
			c-0.28-0.29-0.56-0.59-0.86-0.86l-0.25-0.21c-1.5-1.15-3.18-2.03-4.97-2.61c-1.39-0.55-2.23-0.9-3.32-1.27
			c-0.46-0.12-0.96-0.25-1.57-0.36c-0.56-0.11-1.44-0.12-2.3-0.18c-0.87,0.02-1.73,0.02-2.29,0c-0.78,0.02-1.58-0.11-2.37-0.03
			l-0.32,0.02c-1.86,0.19-3.67,0.67-5.38,1.41c-1.4,0.53-2.26,0.81-3.33,1.28c-0.43,0.22-0.88,0.47-1.42,0.8
			c-0.64,0.45-1.24,0.95-1.81,1.49l-0.92,0.9l-0.72,0.77c-0.6,0.56-1.15,1.15-1.67,1.78c-0.07,0.08-0.14,0.17-0.2,0.26
			c-1.09,1.62-1.78,3.47-2.02,5.41c-0.06,0.39-0.16,0.73-0.19,1.05s-0.07,0.62-0.1,0.92c-0.08,0.57-0.12,1.15-0.09,1.73
			c0,0.26,0.01,0.53,0.03,0.79c0.04,0.28,0.1,0.57,0.16,0.89c0.18,0.79,0.44,1.56,0.77,2.29c0.42,0.8,0.81,1.61,1.14,2.1
			c0.21,0.35,0.37,0.73,0.58,1.08s0.44,0.69,0.67,1.02l0.19,0.27c1.25,1.44,2.74,2.64,4.41,3.56c1.29,0.78,2.05,1.28,3.08,1.83
			c0.43,0.2,0.91,0.4,1.49,0.61c0.74,0.22,1.49,0.4,2.25,0.54c0.86,0.11,1.71,0.28,2.27,0.34c0.78,0.11,1.55,0.36,2.34,0.39
			l0.32,0.03c0.17,0.02,0.25,0.03,0.38,0.04c0.06,0,0.12,0.01,0.18,0.02l0.15,0.09l0.94,0.51c0.77,0.41,1.56,0.8,2.31,1.26
			c1.21,0.72,1.86,1.28,2.75,1.91c0.36,0.26,0.76,0.53,1.26,0.83c1.34,0.77,4.11,2.42,5.09,2.59l1.05,0.37
			c0.42,0.11,0.86,0.02,1.2-0.24c0.1-0.07,0.19-0.14,0.28-0.22c0.27-0.25,0.47-0.57,0.58-0.92c0.08-0.32,0.12-0.65,0.11-0.98
			c0.01-0.82-0.08-1.65-0.28-2.44c-0.16-0.62-0.32-1.22-0.46-1.82c-0.11-0.48-0.2-0.91-0.28-1.31c-0.03-0.17-0.06-0.33-0.09-0.49
			c-0.02-0.14-0.04-0.27-0.06-0.4c-0.07-0.52-0.14-1-0.21-1.54c-0.01-0.08-0.02-0.16-0.03-0.24l-0.04-0.25
			c-0.02-0.09-0.03-0.17-0.05-0.27s-0.04-0.18-0.06-0.28l0,0v-0.01l-0.03-0.13v-0.03v-0.02v-0.02l0.01-0.02v-0.01l0.06-0.08l0,0
			v-0.01v-0.02v-0.04v-0.04l0.01-0.04l0.01-0.04l0.02-0.03l0.02-0.03l0.02-0.03l0.03-0.02l0.03-0.02l0.03-0.02l0.45-0.26l0.11-0.07
			l0.11-0.07l0.23-0.15c0.44-0.32,0.86-0.68,1.25-1.07c0.54-0.57,1.04-1.19,1.48-1.85c0.52-0.73,0.94-1.52,1.24-2.02
			c0.45-0.69,0.84-1.42,1.17-2.18l0.13-0.31c0.35-0.92,0.55-1.89,0.58-2.88C2662.94-406.89,2662.9-407.38,2662.9-407.86z
			 M2660.05-406.82c-0.15,0.76-0.36,1.5-0.64,2.22c-0.09,0.31-0.21,0.74-0.34,1.12c-0.38,1.09-0.95,2.11-1.69,2.99
			c-0.69,0.75-1.42,1.45-2.2,2.11l-0.32,0.28l-0.33,0.26l-0.34,0.27l-0.36,0.25l-0.14,0.1l-0.14,0.11l-0.13,0.13l-0.07,0.07
			l-0.06,0.07l-0.06,0.07l-0.05,0.07l-0.05,0.07l-0.04,0.07l-0.03,0.07l-0.02,0.07l-0.01,0.04v0.04v0.02l-0.01,0.01l-0.02,0.03
			l-0.03,0.05l-0.03,0.05l-0.02,0.05l-0.02,0.05l-0.02,0.05l-0.01,0.05l0,0v0.02l-0.02,0.08l-0.01,0.08l-0.01,0.07v0.06v0.06
			c0,0.04,0.01,0.07,0.01,0.09c0.03,0.21,0.06,0.41,0.09,0.61s0.07,0.39,0.1,0.59s0.08,0.38,0.12,0.57s0.08,0.37,0.13,0.55
			c0.19,0.79,0.37,1.57,0.56,2.38l0.28,1.18c0.05,0.23,0.1,0.46,0.13,0.67c0.1,0.42,0.04,0.85-0.17,1.23
			c-0.08,0.18-0.31,0.43-0.54,0.38c-0.65-0.26-1.26-0.59-1.84-0.99c-0.3-0.23-0.57-0.42-0.84-0.59l-0.65-0.41l-0.68-0.42l-2.25-1.35
			c-0.92-0.55-1.85-1.09-2.74-1.68c-0.4-0.26-0.63-0.46-1.21-0.87l-0.39-0.28c-0.06-0.05-0.13-0.09-0.2-0.13l-0.23-0.02
			c-0.31-0.03-0.63-0.05-0.95-0.05c-0.43-0.02-0.85,0.03-1.28,0.01c-0.6-0.07-1.18-0.07-1.77-0.13c-0.61-0.07-1.2-0.2-1.79-0.36
			c-0.53-0.2-1.04-0.35-1.53-0.52c-0.48-0.2-0.95-0.37-1.41-0.55c-0.75-0.31-1.48-0.67-2.19-1.07c-0.44-0.23-0.86-0.5-1.26-0.79
			c-0.41-0.27-0.8-0.58-1.17-0.92c-0.3-0.27-0.57-0.57-0.82-0.88c-0.23-0.32-0.48-0.63-0.76-0.91l-0.78-0.9
			c-0.37-0.45-0.65-0.93-0.99-1.38c-0.14-0.24-0.26-0.5-0.39-0.76c-0.14-0.26-0.25-0.54-0.32-0.83c-0.15-0.49-0.26-0.99-0.35-1.49
			c-0.1-0.47-0.17-0.94-0.2-1.42c-0.07-0.77-0.07-1.55,0-2.32c0.09-0.47,0.15-0.94,0.26-1.4c0.13-0.46,0.29-0.91,0.47-1.35
			c0.18-0.35,0.38-0.69,0.58-1.02c0.24-0.31,0.46-0.63,0.66-0.96c0.14-0.3,0.43-0.66,0.64-1c0.65-0.97,1.46-1.84,2.38-2.56
			c0.47-0.3,0.91-0.59,1.33-0.88c0.45-0.25,0.87-0.51,1.29-0.77c0.71-0.39,1.45-0.74,2.2-1.05c0.93-0.39,1.89-0.7,2.87-0.91
			c0.41-0.07,0.82-0.11,1.22-0.15s0.82-0.03,1.22-0.09c0.34-0.05,0.81-0.16,1.23-0.18c1.2-0.16,2.41-0.18,3.61-0.05l1.6,0.27
			c0.51,0.11,1,0.21,1.49,0.31c0.4,0.1,0.78,0.21,1.18,0.32l0.59,0.16l0.58,0.21c0.95,0.32,1.86,0.73,2.73,1.24
			c0.34,0.22,0.67,0.47,0.99,0.71c0.3,0.27,0.61,0.52,0.93,0.76c0.29,0.18,0.65,0.46,0.98,0.71c0.94,0.69,1.76,1.54,2.42,2.5
			l0.76,1.35c0.2,0.45,0.4,0.89,0.59,1.32l0.37,1.1c0.12,0.37,0.17,0.76,0.26,1.14C2660.12-408.73,2660.16-407.77,2660.05-406.82
			L2660.05-406.82z"/>
		<path id="패스_12853" class="st1" d="M2652.83-410.03c-0.44-0.19-0.92-0.25-1.4-0.2c-0.33,0.11-0.65,0.27-0.93,0.47
			c-0.18,0.18-0.23,0.46-0.12,0.69c0.05,0.17,0.08,0.34,0.08,0.52c0,0.15,0,0.3,0,0.44s0,0.28,0.01,0.41c0,0.18-0.06,0.39-0.06,0.57
			c-0.05,0.29,0.07,0.58,0.3,0.75c0.49,0.35,1.1,0.48,1.69,0.36c0.26-0.05,0.5-0.17,0.71-0.34c0.06-0.05,0.12-0.11,0.17-0.17
			c0.17-0.19,0.09-0.42,0.06-0.63c-0.02-0.08-0.02-0.17-0.01-0.25c0.03-0.24,0.07-0.47,0.1-0.72c0.01-0.13,0.03-0.26,0.03-0.4
			s0.06-0.35,0.06-0.52C2653.5-409.46,2653.23-409.85,2652.83-410.03z"/>
		<path id="패스_12854" class="st1" d="M2633.48-410.03c-0.44-0.19-0.92-0.25-1.4-0.2c-0.33,0.11-0.65,0.27-0.93,0.47
			c-0.18,0.18-0.23,0.46-0.12,0.69c0.05,0.17,0.08,0.34,0.08,0.52c0,0.15,0,0.3,0,0.44s0,0.28,0.01,0.41c0,0.18-0.06,0.39-0.06,0.57
			c-0.05,0.29,0.07,0.58,0.3,0.75c0.49,0.35,1.1,0.48,1.69,0.36c0.26-0.05,0.5-0.17,0.71-0.34c0.06-0.05,0.12-0.11,0.17-0.17
			c0.17-0.19,0.09-0.42,0.06-0.63c-0.02-0.08-0.02-0.17-0.01-0.25c0.03-0.24,0.07-0.47,0.1-0.72c0.01-0.13,0.03-0.26,0.03-0.4
			s0.06-0.35,0.06-0.52C2634.15-409.46,2633.88-409.85,2633.48-410.03z"/>
		<path id="패스_12855" class="st1" d="M2643.63-407.66c0-0.15,0-0.3,0-0.44s-0.01-0.28-0.01-0.41c0-0.18,0.06-0.39,0.06-0.57
			c0.05-0.29-0.07-0.58-0.3-0.75c-0.49-0.35-1.1-0.48-1.69-0.36c-0.26,0.05-0.5,0.17-0.71,0.34c-0.06,0.05-0.12,0.11-0.17,0.17
			c-0.17,0.19-0.09,0.42-0.06,0.63c0.02,0.08,0.02,0.17,0.01,0.25c-0.03,0.24-0.07,0.47-0.1,0.72c-0.01,0.13-0.03,0.26-0.03,0.4
			s-0.06,0.35-0.06,0.51c0.02,0.44,0.29,0.83,0.7,1.01c0.44,0.19,0.92,0.26,1.4,0.2c0.33-0.11,0.65-0.27,0.93-0.47
			c0.18-0.18,0.23-0.46,0.12-0.69C2643.66-407.31,2643.63-407.49,2643.63-407.66z"/>
	</g>
</g>
</svg>
