<?xml version="1.0" encoding="utf-8"?>
<!-- Generator: Adobe Illustrator 24.1.3, SVG Export Plug-In . SVG Version: 6.00 Build 0)  -->
<!DOCTYPE svg PUBLIC "-//W3C//DTD SVG 1.1//EN" "http://www.w3.org/Graphics/SVG/1.1/DTD/svg11.dtd" [
	<!ENTITY ns_extend "http://ns.adobe.com/Extensibility/1.0/">
	<!ENTITY ns_ai "http://ns.adobe.com/AdobeIllustrator/10.0/">
	<!ENTITY ns_graphs "http://ns.adobe.com/Graphs/1.0/">
	<!ENTITY ns_vars "http://ns.adobe.com/Variables/1.0/">
	<!ENTITY ns_imrep "http://ns.adobe.com/ImageReplacement/1.0/">
	<!ENTITY ns_sfw "http://ns.adobe.com/SaveForWeb/1.0/">
	<!ENTITY ns_custom "http://ns.adobe.com/GenericCustomNamespace/1.0/">
	<!ENTITY ns_adobe_xpath "http://ns.adobe.com/XPath/1.0/">
]>
<svg version="1.1" id="레이어_1" xmlns:x="&ns_extend;" xmlns:i="&ns_ai;" xmlns:graph="&ns_graphs;"
	 xmlns="http://www.w3.org/2000/svg" xmlns:xlink="http://www.w3.org/1999/xlink" x="0px" y="0px" viewBox="0 0 125.99 133.36"
	 style="enable-background:new 0 0 125.99 133.36;" xml:space="preserve">
<style type="text/css">
	.st0{fill:#202020;}
	.st1{fill:#FFFFFF;}
	.st2{fill:#FF7D00;}
</style>
<metadata>
	<sfw  xmlns="&ns_sfw;">
		<slices></slices>
		<sliceSourceBounds  bottomLeftOrigin="true" height="133.36" width="125.99" x="620.87" y="-451.16"></sliceSourceBounds>
	</sfw>
</metadata>
<g id="그룹_28264" transform="translate(-5594.563 -5639.694)">
	<path id="패스_23571" class="st0" d="M5704.6,5654.53c-0.03-0.26-0.1-0.51-0.15-0.77l-0.04-0.19l-0.04-0.16l-0.08-0.32
		c-0.11-0.42-0.22-0.85-0.31-1.28c-0.16-0.7-0.19-1.43-0.38-2.12c-0.08-0.29-0.21-0.69-0.33-1.04c-0.28-1.02-0.66-1.93-0.87-3.02
		c-0.18-0.97-0.39-1.83-0.62-2.67l-0.47-1.71c-0.02-0.06-0.03-0.11-0.05-0.17l-0.06-0.17l-0.07-0.17l-0.04-0.08l-0.04-0.08
		l-0.04-0.08l-0.04-0.07l-0.05-0.06l-0.05-0.06l-0.02-0.03l-0.03-0.02l-0.03-0.02l-0.03-0.02l-0.03-0.02l-0.03-0.02l-0.02-0.01
		l-0.01-0.01l-0.02-0.02l-0.04-0.04l-0.04-0.03l-0.04-0.03l-0.04-0.03l-0.04-0.02l-0.04-0.02l0,0l-0.01-0.01l-0.07-0.03l-0.07-0.02
		l-0.07-0.02l-0.06-0.01l-0.06-0.01l-0.08-0.01l-0.59-0.04l-0.57-0.02l-0.55-0.01h-0.54c-0.22,0.01-0.44,0.03-0.66,0.04
		c-0.27,0.02-0.54,0.03-0.81,0.01c-0.22-0.02-0.44-0.17-0.66-0.15c-0.09,0.01-0.22,0.04-0.33,0.06c-0.32,0.08-0.64,0.11-0.97,0.1
		c-0.28-0.05-0.56-0.07-0.84-0.06l-2.65,0.04l-0.27,0.01l-0.28,0.02l-0.14,0.01l-0.04-0.01l-0.1-0.01l-0.65-0.04l-0.63-0.02
		l-0.61-0.01h-0.6c-0.22,0.01-0.44,0.03-0.67,0.04c-0.27,0.02-0.55,0.03-0.83,0.01c-0.23-0.02-0.45-0.17-0.67-0.15
		c-0.1,0.01-0.23,0.04-0.34,0.06c-0.32,0.08-0.65,0.11-0.99,0.1c-0.28-0.05-0.57-0.07-0.86-0.06l-2.4,0.04l-0.24,0.01l-0.25,0.02
		l-0.12,0.01h-0.03l-0.1-0.01l-0.73-0.04l-0.7-0.02l-0.68-0.01h-0.66c-0.23,0.01-0.45,0.03-0.68,0.04
		c-0.28,0.02-0.56,0.03-0.83,0.01c-0.23-0.02-0.45-0.17-0.68-0.15c-0.1,0.01-0.23,0.04-0.34,0.06c-0.32,0.08-0.66,0.11-0.99,0.1
		c-0.29-0.05-0.58-0.07-0.87-0.06l-2.17,0.04l-0.22,0.01l-0.23,0.02l-0.09,0.01h-0.02l-0.12-0.01l-0.8-0.04l-0.77-0.02l-0.75-0.01
		h-0.73c-0.22,0.01-0.44,0.03-0.67,0.04c-0.28,0.02-0.55,0.03-0.83,0.01c-0.23-0.02-0.45-0.17-0.67-0.15
		c-0.09,0.01-0.23,0.04-0.34,0.06c-0.32,0.08-0.65,0.11-0.99,0.1c-0.28-0.05-0.57-0.07-0.86-0.06l-1.96,0.04l-0.2,0.01l-0.2,0.02
		l-0.08,0.01h-0.02l-0.13-0.01l-0.89-0.04l-0.85-0.02l-0.83-0.01h-0.81c-0.22,0.01-0.44,0.03-0.66,0.04
		c-0.27,0.02-0.54,0.03-0.81,0.01c-0.22-0.02-0.44-0.17-0.66-0.15c-0.09,0.01-0.22,0.04-0.33,0.06c-0.32,0.08-0.64,0.11-0.97,0.1
		c-0.28-0.05-0.56-0.07-0.84-0.06l-1.77,0.04l-0.18,0.01l-0.19,0.02l-0.18,0.03l-0.09,0.02l-0.09,0.02l-0.08,0.02l-0.08,0.03
		l-0.07,0.03l-0.07,0.03l-0.03,0.02l-0.03,0.02l-0.03,0.02l-0.03,0.02l-0.02,0.02l-0.02,0.02l-0.01,0.01l-0.01,0.01l-0.03,0.01
		l-0.05,0.03l-0.04,0.03l-0.04,0.03l-0.04,0.04l-0.03,0.04l-0.03,0.04l0,0l-0.01,0.01l-0.05,0.06l-0.04,0.06l-0.04,0.06l-0.03,0.06
		c-0.01,0.02-0.02,0.04-0.02,0.05c-0.01,0.03-0.02,0.06-0.03,0.08c-0.06,0.19-0.12,0.38-0.18,0.57s-0.11,0.37-0.16,0.55
		s-0.1,0.36-0.14,0.54s-0.09,0.35-0.13,0.53l-0.49,2.1c-0.2,0.85-0.4,1.71-0.63,2.56c-0.2,0.69-0.51,1.35-0.67,2.04
		c-0.07,0.29-0.14,0.7-0.21,1.07c-0.12,0.51-0.2,1.02-0.3,1.52c-0.05,0.25-0.1,0.51-0.16,0.77s-0.14,0.54-0.21,0.83
		c-0.28,1.06-0.3,2.18-0.04,3.25c0.2,0.84,0.55,1.64,1.04,2.35c0.6,0.88,1.37,1.63,2.28,2.19c0.72,0.51,1.55,0.85,2.42,1.01
		c0.01,0.04,0.01,0.09,0.02,0.13c0.01,0.1,0.02,0.2,0.01,0.3c-0.03,0.29-0.06,0.56-0.09,0.86s-0.04,0.64-0.03,1.03
		c0.01,0.73,0.2,2.24,0.18,2.97c-0.02,0.51-0.12,1.02-0.14,1.53c-0.01,0.07-0.01,0.14-0.02,0.21c-0.1,1.2,0.15,2.4,0.17,3.6
		c0,0.77-0.06,1.53-0.15,2.29c-0.02,0.31-0.04,0.64-0.03,1.03c0.01,0.73,0.2,2.24,0.18,2.97c-0.02,0.51-0.12,1.02-0.14,1.53
		c-0.01,0.07-0.01,0.14-0.02,0.21c-0.1,1.2,0.15,2.4,0.17,3.6c0,0.77-0.06,1.53-0.15,2.29c-0.01,0.1-0.01,0.2-0.02,0.3
		s-0.01,0.21-0.01,0.31s0,0.22-0.01,0.34s0,0.24,0,0.36s0.01,0.25,0.01,0.4s0.02,0.3,0.02,0.46c0.02,0.3,0.04,0.64,0.06,0.97v0.02
		v0.05l0,0v0.02l0.01,0.08l0.02,0.07l0.02,0.07l0.03,0.06l0.03,0.06l0.03,0.06l0.04,0.05l0.04,0.05l0.04,0.04l0.04,0.04l0.05,0.04
		l0.05,0.03l0.05,0.03l0.05,0.03l0.05,0.02l0.05,0.02l0.05,0.02l0.05,0.02l0.11,0.03l0.1,0.02l0.1,0.01l0.09,0.01h0.15h0.44
		l0.4,0.01l0.37,0.02l0.35,0.02l1.35,0.11c0.34,0.02,0.71,0.04,1.16,0.03c0.82-0.01,2.51-0.2,3.33-0.18
		c0.57,0.02,1.15,0.12,1.71,0.14l0.23,0.02c1.34,0.1,2.69-0.15,4.03-0.17c0.86,0,1.72,0.06,2.57,0.15c0.34,0.02,0.71,0.04,1.16,0.03
		c0.82-0.01,2.51-0.2,3.33-0.18c0.57,0.02,1.15,0.12,1.71,0.14l0.23,0.02c1.34,0.1,2.69-0.15,4.03-0.17c0.86,0,1.72,0.06,2.57,0.15
		c0.34,0.02,0.71,0.04,1.16,0.03c0.82-0.01,2.51-0.2,3.33-0.18c0.57,0.02,1.15,0.12,1.71,0.14l0.23,0.02
		c1.34,0.1,2.69-0.15,4.03-0.17c0.86,0,1.72,0.06,2.57,0.15v1.64h5.89v-5.89h-1.64c0.03-0.34,0.04-0.69,0.03-1.03
		c-0.01-0.73-0.2-2.24-0.18-2.97c0.02-0.51,0.12-1.02,0.14-1.53c0.01-0.07,0.01-0.14,0.02-0.2c0.1-1.2-0.15-2.4-0.17-3.6
		c0-0.77,0.06-1.53,0.15-2.29c0.03-0.34,0.04-0.69,0.03-1.03c-0.01-0.73-0.2-2.24-0.18-2.97c0.02-0.51,0.12-1.02,0.14-1.53
		c0.01-0.07,0.01-0.14,0.02-0.21c0.1-1.2-0.15-2.4-0.17-3.6c0-0.77,0.06-1.53,0.15-2.29c0.01-0.15,0.02-0.31,0.03-0.48
		s0.05-0.42,0.05-0.62c0-0.07-0.01-0.15-0.02-0.22c0.38-0.08,0.76-0.19,1.12-0.34c1.19-0.49,2.23-1.27,3.04-2.27
		c0.73-0.83,1.24-1.83,1.47-2.91C5704.67,5656.27,5704.71,5655.39,5704.6,5654.53z M5681.43,5642.5v-0.02l0.01-0.02l0.01-0.02v-0.01
		l0-0.01l0.01-0.02l0.01-0.02l0.01-0.02l0.01-0.01l0.02-0.01l0.02-0.01l0.02-0.01l0.04-0.02l0.04-0.01l0.04-0.01l0.04-0.01h0.04
		h0.04h0.04l1.26,0.1c0.13,0.03,0.26,0.04,0.39,0.03c0.28-0.01,0.84-0.2,1.12-0.18c0.19,0.02,0.38,0.12,0.57,0.14l0.08,0.02
		c0.46,0,0.91-0.05,1.35-0.17c0.29,0.01,0.58,0.06,0.86,0.15l0.25,0.02l0.27,0.01l0.29,0.01h0.31h0.14h0.01h0.02l0.02,0.01
		l0.02,0.01l0.02,0.01h0.01h0.01l0.02,0.01l0.02,0.01l0.02,0.01l0.02,0.01l0.02,0.01l0.01,0.01l0.01,0.01l0.02,0.03l0,0
		c0.02,0.16,0.04,0.33,0.06,0.49c0.01,0.06,0.02,0.11,0.02,0.16c0.01,0.19,0.02,0.38,0.03,0.58c0.03,0.36,0.07,0.76,0.15,1.22
		c0.08,0.51,0.28,1.32,0.44,2.08c0.11,0.67,0.23,1.34,0.31,2.02c0.02,0.4,0.04,0.8,0.08,1.2c0.01,0.08,0.01,0.17,0.02,0.25
		c0.01,0.13,0.03,0.26,0.04,0.39c0.02,0.2,0.04,0.39,0.07,0.59c0.05,0.3,0.15,0.7,0.22,1.06c0.15,0.86,0.37,1.67,0.5,2.56
		c0.01,0.6-0.11,1.2-0.36,1.75c-0.12,0.3-0.25,0.59-0.4,0.88c-0.2,0.42-0.46,0.81-0.75,1.16c-0.3,0.36-0.67,0.65-1.08,0.86
		c-0.44,0.16-0.91,0.25-1.38,0.25l-0.19-0.01h-0.45c-0.13-0.01-0.27-0.02-0.4-0.02c-0.13-0.02-0.27-0.03-0.4-0.04l-0.4-0.07
		c-0.55-0.11-1.07-0.34-1.51-0.69c-0.55-0.48-0.96-1.11-1.16-1.81c-0.04-0.14-0.09-0.28-0.13-0.43c-0.03-0.16-0.09-0.32-0.13-0.5
		c-0.04-0.17-0.09-0.38-0.13-0.62c-0.01-0.06-0.02-0.12-0.03-0.19c-0.01-0.08-0.02-0.16-0.03-0.24c-0.02-0.16-0.04-0.33-0.06-0.49
		c-0.02-0.19-0.04-0.37-0.06-0.55c0-0.07-0.01-0.14-0.01-0.21c-0.03-0.44-0.05-0.87-0.06-1.31c-0.02-0.71,0.09-1.43,0.04-2.14
		c-0.01-0.1-0.02-0.22-0.03-0.34c-0.04-0.83-0.17-1.65-0.26-2.48c-0.05-0.46-0.08-0.92-0.08-1.38c0.01-0.63-0.01-1.23-0.03-1.8
		c0.01-0.21,0.02-0.41,0.02-0.63v-0.31c0-0.11,0-0.22,0-0.33c0-0.11-0.01-0.23-0.01-0.35s-0.01-0.24-0.02-0.37l0,0v-0.01
		c0-0.05-0.01-0.12-0.01-0.17l0,0L5681.43,5642.5z M5671.3,5642.47l0.01-0.02l0.01-0.02l0.02-0.04l0.01-0.02l0.01-0.02l0.01-0.01
		l0.02-0.01l0.01-0.01l0.02-0.01l0.03-0.02l0.04-0.01l0.04-0.01l0.04-0.01h0.04h0.04h0.04l1.14,0.1c0.13,0.03,0.26,0.04,0.39,0.03
		c0.28-0.01,0.85-0.2,1.12-0.18c0.19,0.02,0.38,0.12,0.58,0.14l0.08,0.02c0.46,0,0.92-0.05,1.36-0.17c0.29,0.01,0.59,0.06,0.87,0.15
		l0.28,0.02l0.3,0.01l0.32,0.01h0.34h0.15h0.01h0.02l0.02,0.01l0.02,0.01l0.02,0.01l0.04,0.02l0.02,0.01l0.02,0.01l0.02,0.01
		l0.01,0.01l0.01,0.01l0.01,0.02l0.02,0.02c0,0.06,0,0.13,0,0.19c0.01,0.2,0.02,0.39,0.02,0.58c-0.01,0.19-0.01,0.39-0.02,0.6
		c0,0.36,0,0.76,0.03,1.23c0.04,0.56,0.16,1.48,0.25,2.3c0.03,0.51,0.06,1.02,0.07,1.53c0.02,0.71-0.09,1.43-0.04,2.14
		c0.01,0.1,0.02,0.22,0.03,0.34c0.04,0.82,0.16,1.64,0.26,2.46c0.05,0.46,0.08,0.93,0.08,1.4c0,0.18,0,0.34,0,0.52
		c-0.02,0.13-0.04,0.25-0.07,0.38c-0.09,0.32-0.21,0.64-0.36,0.94c-0.13,0.26-0.27,0.53-0.46,0.84c-0.23,0.4-0.5,0.77-0.82,1.1
		c-0.32,0.34-0.71,0.61-1.14,0.78c-0.45,0.14-0.92,0.19-1.39,0.15l-0.19-0.01c-0.08-0.01-0.19-0.01-0.25-0.02l-0.2-0.02l-0.2-0.01
		l-0.2-0.03c-0.13-0.01-0.27-0.03-0.4-0.06c-0.14-0.02-0.27-0.05-0.4-0.09c-0.54-0.14-1.05-0.4-1.47-0.77
		c-0.53-0.51-0.9-1.16-1.06-1.87c-0.08-0.28-0.15-0.58-0.22-0.94c-0.03-0.17-0.06-0.38-0.1-0.62c-0.01-0.12-0.02-0.25-0.03-0.38
		s-0.01-0.32-0.01-0.48c0-0.22-0.01-0.43-0.01-0.63c0.01-0.27,0.03-0.55,0.05-0.83c0.06-0.71,0.24-1.42,0.26-2.13
		c0-0.15,0-0.32,0-0.5c0.1-1.07,0.03-2.14,0.02-3.21c0.01-0.17,0.02-0.33,0.04-0.5c0.1-0.85,0.15-1.64,0.18-2.4
		c0.03-0.2,0.06-0.4,0.08-0.61l0.03-0.28c0.01-0.1,0.02-0.2,0.03-0.3s0.02-0.21,0.02-0.32s0.01-0.22,0.02-0.33l0,0v-0.01
		c0-0.05,0-0.1,0-0.15v-0.01l0.01-0.02L5671.3,5642.47z M5661.2,5642.42L5661.2,5642.42l0.01-0.03l0.01-0.02l0.01-0.02l0.01-0.01
		l0.01-0.01l0.01-0.01l0.02-0.01l0.03-0.02l0.03-0.01l0.03-0.01l0.04-0.01h0.04h0.04h0.04l1.03,0.1c0.13,0.03,0.26,0.04,0.39,0.03
		c0.28-0.01,0.84-0.2,1.12-0.18c0.19,0.02,0.38,0.12,0.57,0.14l0.08,0.02c0.46,0,0.91-0.05,1.35-0.17c0.29,0.01,0.58,0.06,0.86,0.15
		l0.31,0.02l0.33,0.01l0.35,0.01h0.38h0.18l0,0h0.03l0.02,0.01l0.02,0.01l0.02,0.01h0.01l0.01,0.01l0.02,0.01l0.02,0.01l0.01,0.01
		l0.01,0.02l0.01,0.02l0.01,0.02l0.01,0.02l0.01,0.02c-0.01,0.19-0.02,0.38-0.04,0.57l-0.01,0.3c-0.03,0.21-0.06,0.43-0.08,0.66
		c-0.04,0.36-0.08,0.75-0.1,1.23c-0.02,0.56,0.01,1.5,0.02,2.33c-0.02,0.3-0.03,0.61-0.05,0.91c-0.06,0.71-0.24,1.42-0.26,2.13
		c0,0.15,0,0.32,0,0.5c-0.1,1.07-0.03,2.14-0.02,3.21c-0.01,0.16-0.02,0.33-0.04,0.5c-0.02,0.11-0.02,0.26-0.03,0.4
		s-0.01,0.28-0.02,0.42c0,0.08,0.01,0.16,0.01,0.24c-0.02,0.18-0.06,0.35-0.12,0.52c-0.1,0.32-0.24,0.63-0.4,0.93
		c-0.07,0.12-0.15,0.25-0.22,0.39c-0.09,0.13-0.17,0.28-0.28,0.43c-0.25,0.39-0.54,0.74-0.88,1.06c-0.34,0.32-0.74,0.56-1.18,0.71
		c-0.23,0.06-0.46,0.1-0.7,0.1c-0.12,0.01-0.23,0.01-0.35-0.01l-0.37-0.01c-0.07,0-0.13-0.01-0.2-0.03
		c-0.53-0.05-1.06-0.16-1.57-0.33c-1.27-0.41-2.19-1.5-2.36-2.82c-0.04-0.15-0.06-0.29-0.08-0.44c-0.03-0.17-0.06-0.34-0.07-0.51
		c-0.03-0.17-0.04-0.39-0.06-0.63c-0.01-0.13-0.01-0.25,0-0.38c0-0.15,0-0.29,0.02-0.44c0.01-0.17,0.03-0.33,0.04-0.49
		c0.02-0.12,0.03-0.23,0.06-0.35c0.13-0.71,0.38-1.39,0.47-2.1c0.03-0.21,0.05-0.49,0.07-0.76c0.01-0.03,0.01-0.06,0.02-0.08
		c0.2-1.09,0.32-2.2,0.37-3.31c0-0.02,0.01-0.04,0.01-0.06c0.21-0.96,0.35-1.84,0.47-2.7c0.01-0.07,0.02-0.15,0.03-0.22
		c0.05-0.21,0.1-0.43,0.15-0.66c0.02-0.08,0.04-0.17,0.06-0.25s0.03-0.17,0.05-0.27s0.03-0.19,0.05-0.29s0.03-0.2,0.04-0.3l0,0
		v-0.01c0-0.04,0.01-0.09,0.02-0.14v-0.01l0.01-0.02l0.01-0.02l0.01-0.02l0.01-0.02L5661.2,5642.42z M5648.84,5658.54
		c-0.46-0.58-0.74-1.28-0.81-2.02c-0.02-0.15-0.04-0.3-0.05-0.45c-0.01-0.08-0.02-0.16-0.03-0.25s0-0.17-0.01-0.27
		c-0.03-0.47-0.02-0.95,0.05-1.42c0.12-0.66,0.24-1.32,0.36-1.74c0.17-0.59,0.42-1.15,0.58-1.74l0.08-0.23
		c0.44-1.37,0.56-2.81,0.89-4.21c0.23-0.89,0.5-1.76,0.82-2.62l0.07-0.22l0.07-0.23c0.02-0.08,0.04-0.17,0.07-0.25
		s0.04-0.17,0.07-0.27l0,0v-0.01c0.01-0.04,0.02-0.08,0.03-0.12v-0.01l0.01-0.02l0.01-0.02l0.01-0.02l0.01-0.01l0,0l0,0v-0.01
		l0.01-0.02l0.01-0.02l0.01-0.02l0.01-0.01l0.01-0.01l0.01-0.01l0.01-0.01l0.03-0.02l0.03-0.01l0.03-0.01l0.03-0.01h0.03h0.03h0.03
		l0.46,0.05l0.47,0.04c0.12,0.03,0.25,0.04,0.38,0.03c0.36-0.08,0.73-0.14,1.09-0.18c0.19,0.02,0.38,0.12,0.56,0.14l0.08,0.02
		c0.44,0.1,0.88-0.15,1.32-0.17c0.29,0.01,0.57,0.06,0.84,0.15l0.71,0.03l0.39,0.01h0.42h0.18h0.02h0.03l0.03,0.01l0.02,0.01
		l0.02,0.01h0.01l0,0l0.01,0.01l0.02,0.02l0.01,0.02l0.01,0.02l0.01,0.02l0.01,0.02l0.01,0.02l0.01,0.02v0.01
		c-0.01,0.07-0.02,0.14-0.03,0.21c-0.03,0.2-0.06,0.4-0.09,0.59c0,0.04-0.01,0.07-0.01,0.11c-0.06,0.25-0.11,0.5-0.17,0.77
		c-0.08,0.36-0.15,0.75-0.22,1.22c-0.08,0.54-0.13,1.45-0.21,2.27c-0.02,0.12-0.04,0.24-0.06,0.37c-0.13,0.7-0.38,1.39-0.47,2.09
		c-0.03,0.21-0.05,0.49-0.07,0.76c-0.01,0.03-0.01,0.06-0.02,0.08c-0.2,1.12-0.33,2.25-0.38,3.38c-0.06,0.31-0.09,0.63-0.1,0.94
		c-0.04,0.27-0.08,0.51-0.12,0.73c-0.04,0.19-0.09,0.37-0.15,0.55c-0.12,0.32-0.27,0.62-0.44,0.91c-0.16,0.28-0.34,0.54-0.53,0.8
		c-0.27,0.38-0.58,0.72-0.92,1.02c-0.35,0.3-0.76,0.53-1.21,0.66c-0.46,0.09-0.94,0.09-1.4,0l-0.18-0.03
		c-0.53-0.1-1.04-0.26-1.54-0.46C5649.66,5659.31,5649.2,5658.97,5648.84,5658.54L5648.84,5658.54z M5696.29,5665.74
		c0.01,0.73,0.04,1.47,0.01,2.21c-0.02,0.6-0.17,1.2-0.15,1.79c0.01,0.25,0.04,0.6,0.06,0.91c0.08,0.87,0.11,1.75,0.1,2.63
		c-0.06,0.82-0.07,1.56-0.06,2.29c0.01,0.6,0.02,1.19,0.04,1.8c0.01,0.73,0.04,1.47,0.01,2.21c-0.02,0.6-0.17,1.2-0.15,1.79
		c0.01,0.25,0.04,0.6,0.06,0.91c0.08,0.87,0.11,1.75,0.1,2.63c-0.06,0.82-0.07,1.56-0.06,2.29h-1.69v1.69
		c-0.67,0.01-1.33,0.03-2.02,0.04c-0.82,0.01-1.65,0.04-2.47,0.01c-0.67-0.02-1.34-0.17-2.01-0.15c-0.28,0.01-0.67,0.04-1.02,0.06
		c-0.99,0.02-1.91,0.17-2.95,0.1c-0.92-0.06-1.75-0.07-2.57-0.06c-0.67,0.01-1.33,0.03-2.02,0.04c-0.82,0.01-1.65,0.04-2.47,0.01
		c-0.67-0.02-1.34-0.17-2.01-0.15c-0.28,0.01-0.67,0.04-1.02,0.06c-0.99,0.02-1.91,0.17-2.95,0.1c-0.92-0.06-1.75-0.07-2.57-0.06
		c-0.67,0.01-1.33,0.03-2.02,0.04c-0.82,0.01-1.65,0.04-2.47,0.01c-0.67-0.02-1.34-0.17-2.01-0.15c-0.28,0.01-0.67,0.04-1.02,0.06
		c-0.99,0.02-1.91,0.17-2.95,0.1c-0.92-0.06-1.75-0.07-2.57-0.06l-1.31,0.02h-0.06h-0.03h-0.02l-0.02-0.01l-0.02-0.01l-0.02-0.01
		l-0.02-0.01l-0.02-0.01l-0.02-0.01l-0.02-0.01l-0.02-0.02l-0.02-0.02l-0.01-0.02l-0.01-0.02l-0.01-0.02l-0.02-0.04l-0.02-0.05
		l-0.01-0.05l-0.01-0.06v-0.05c0-0.2,0-0.4,0-0.59c0-0.23,0-0.46,0-0.7c-0.01-0.6-0.03-1.19-0.04-1.8c-0.01-0.73-0.04-1.47-0.01-2.2
		c0.02-0.6,0.17-1.2,0.15-1.79c-0.01-0.25-0.04-0.6-0.06-0.91c-0.08-0.87-0.11-1.75-0.1-2.63c0.06-0.82,0.07-1.56,0.06-2.29
		c-0.01-0.6-0.03-1.19-0.04-1.8c-0.01-0.73-0.04-1.47-0.01-2.2c0.02-0.6,0.17-1.2,0.15-1.79c-0.01-0.25-0.04-0.6-0.06-0.91
		c-0.08-0.87-0.11-1.75-0.1-2.63c0.06-0.82,0.07-1.56,0.06-2.29c0-0.17,0-0.33-0.01-0.5c0-0.21,0.06-0.47,0.05-0.68
		c0-0.13,0-0.25-0.01-0.37c0.85-0.28,1.65-0.69,2.38-1.21c0.67-0.47,1.24-1.06,1.68-1.75c0.11,0.16,0.22,0.31,0.34,0.47
		c0.66,0.84,1.49,1.52,2.44,2c0.77,0.45,1.63,0.73,2.52,0.8l0.31,0.01c0.11,0,0.17-0.01,0.29-0.02c0.23-0.02,0.48-0.04,0.7-0.08
		c0.63-0.1,1.24-0.29,1.82-0.57c0.57-0.3,1.12-0.64,1.63-1.02c0.54-0.42,1.01-0.92,1.39-1.48c0.77,1.15,1.87,2.04,3.15,2.56
		c0.2,0.09,0.4,0.18,0.61,0.25c0.21,0.08,0.42,0.15,0.63,0.2c0.21,0.06,0.43,0.11,0.65,0.13l0.33,0.03c0.1,0.01,0.2,0.01,0.31,0.01
		c0.13,0,0.38-0.02,0.61-0.05c0.23-0.02,0.47-0.06,0.69-0.12c0.32-0.06,0.62-0.15,0.92-0.27c0.29-0.12,0.58-0.26,0.85-0.41
		c0.56-0.32,1.08-0.69,1.57-1.11c0.42-0.36,0.79-0.77,1.1-1.23c0.86,1.25,2.1,2.19,3.53,2.69c0.41,0.15,0.84,0.28,1.27,0.38
		c0.22,0.04,0.44,0.07,0.66,0.09c0.12,0.01,0.2,0.02,0.29,0.02s0.22-0.01,0.33-0.01c0.45-0.03,0.9-0.12,1.33-0.25
		c0.31-0.09,0.61-0.2,0.9-0.34l0.42-0.21l0.4-0.25c0.26-0.17,0.52-0.36,0.76-0.56c0.23-0.21,0.49-0.42,0.72-0.65
		c0.31-0.3,0.59-0.64,0.83-1c0.91,1.39,2.28,2.42,3.87,2.89l0.08,0.02c-0.01,0.15,0.01,0.3,0.04,0.45c0.05,0.2,0.07,0.41,0.07,0.62
		c0,0.18,0,0.35,0,0.53C5696.26,5664.53,5696.28,5665.12,5696.29,5665.74L5696.29,5665.74z M5701.66,5657.43
		c-0.18,0.43-0.4,0.84-0.67,1.23c-0.27,0.38-0.62,0.7-1.02,0.94c-0.1,0.06-0.21,0.11-0.33,0.15c-0.11,0.04-0.22,0.08-0.34,0.11
		c-0.23,0.04-0.46,0.1-0.69,0.11l-0.18,0.02c-0.54,0.04-1.08,0.02-1.61-0.05c-0.56-0.08-1.08-0.29-1.54-0.62
		c-0.58-0.45-1.01-1.07-1.23-1.77c-0.11-0.27-0.19-0.56-0.3-0.92c-0.03-0.08-0.04-0.18-0.07-0.28s-0.06-0.21-0.09-0.37
		c-0.07-0.3-0.14-0.63-0.21-0.95c-0.04-0.19-0.08-0.37-0.12-0.55l-0.02-0.16l-0.11-0.65c-0.06-0.33-0.1-0.67-0.15-1.01
		c-0.02-0.4-0.04-0.81-0.08-1.2c-0.01-0.08-0.01-0.17-0.02-0.25c-0.01-0.13-0.03-0.26-0.04-0.39c-0.02-0.2-0.04-0.4-0.07-0.59
		c-0.05-0.3-0.15-0.7-0.22-1.06c-0.18-1.03-0.47-1.98-0.57-3.08c-0.03-0.36-0.07-0.71-0.11-1.05c-0.02-0.26-0.03-0.51-0.05-0.78
		c-0.02-0.22-0.05-0.46-0.08-0.71c-0.02-0.12-0.03-0.25-0.05-0.39s-0.04-0.27-0.06-0.4l0,0v-0.01c-0.01-0.06-0.02-0.12-0.03-0.18
		v-0.04v-0.03v-0.03l0-0.02v-0.01l0.01-0.01l0.01-0.02l0.01-0.02l0.02-0.02l0.02-0.01l0.02-0.01l0.02-0.01l0.02-0.01l0.04-0.02
		l0.04-0.01l0.04-0.01l0.05-0.01h0.05h0.05h0.05l1.39,0.1c0.12,0.03,0.25,0.04,0.38,0.03c0.36-0.08,0.73-0.14,1.09-0.18
		c0.19,0.02,0.38,0.12,0.56,0.14l0.08,0.02c0.44,0.1,0.88-0.15,1.32-0.17c0.29,0.01,0.57,0.06,0.84,0.15l0.23,0.02l0.25,0.01
		l0.26,0.01h0.28h0.12h0.01h0.02l0.02,0.01l0.02,0.01l0.02,0.01l0,0h0.02h0.02h0.02l0.02,0.01l0.02,0.01l0.02,0.01l0.01,0.01
		l0.01,0.01l0.02,0.02l0.02,0.02l0.02,0.03l0.01,0.03l0.01,0.03l0.01,0.03l0.01,0.03c0.02,0.15,0.04,0.31,0.06,0.46
		s0.05,0.31,0.07,0.47c0.06,0.36,0.15,0.75,0.27,1.21c0.23,0.85,0.85,2.54,1.04,3.4c0.13,0.6,0.18,1.21,0.31,1.81
		c0.02,0.08,0.03,0.16,0.04,0.24c0.14,0.7,0.33,1.4,0.56,2.07l0.34,1.02l0.16,0.51l0.08,0.26c0.02,0.08,0.03,0.15,0.05,0.22
		c0.16,0.73,0.1,1.48-0.16,2.18C5701.91,5656.8,5701.8,5657.08,5701.66,5657.43L5701.66,5657.43z"/>
	<g id="그룹_28245" transform="translate(5682.838 5664.235)">
		<g id="그룹_28244" transform="translate(0 0)">
			<circle id="타원_458" class="st1" cx="18.8" cy="18.76" r="17.56"/>
			<path id="패스_23572" class="st0" d="M37.59,17.46c-0.05-0.63-0.15-1.25-0.3-1.86c-0.1-0.62-0.3-1.22-0.43-1.88
				c-0.12-0.56-0.28-1.11-0.48-1.64c-0.1-0.26-0.17-0.52-0.29-0.76l-0.35-0.72c-0.39-0.78-0.82-1.53-1.31-2.25
				c-0.31-0.43-0.65-0.85-0.96-1.27c-0.16-0.21-0.33-0.42-0.52-0.61l-0.53-0.6c-0.27-0.34-0.57-0.66-0.87-0.98
				c-0.28-0.33-0.6-0.63-0.94-0.9c-0.3-0.22-0.73-0.49-1.1-0.74c-0.53-0.36-1.1-0.62-1.64-0.92c-0.56-0.27-1.15-0.51-1.74-0.84
				c-0.54-0.24-1.07-0.45-1.59-0.64c-0.52-0.17-1.04-0.29-1.56-0.42c-0.42-0.1-0.85-0.18-1.28-0.22l-0.65-0.09l-0.33-0.04L20.4,0.06
				L18.81,0c-0.53,0.03-1.06,0.06-1.59,0.07h-0.33l-0.33,0.03l-0.65,0.04c-0.44,0.01-0.87,0.07-1.3,0.18
				c-0.35,0.1-0.84,0.26-1.27,0.39c-0.61,0.2-1.17,0.47-1.75,0.71C11.04,1.69,10.48,2,9.86,2.26C9.34,2.53,8.84,2.82,8.37,3.1
				C7.91,3.4,7.49,3.73,7.07,4.05C6.9,4.18,6.73,4.32,6.58,4.47L6.1,4.91C5.77,5.2,5.47,5.51,5.18,5.84l-0.53,0.6
				C4.47,6.64,4.3,6.84,4.14,7.06L3.19,8.33c-0.53,0.69-1.01,1.43-1.41,2.2c-0.19,0.4-0.35,0.81-0.48,1.23
				c-0.4,1.21-0.71,2.44-0.95,3.69c-0.06,0.29-0.11,0.58-0.17,0.86c-0.06,0.27-0.1,0.55-0.11,0.83C0.03,17.69,0,18.23-0.02,18.75
				c0.03,0.43,0.05,0.86,0.08,1.29c0.02,0.21,0.03,0.43,0.05,0.65c0.04,0.22,0.07,0.43,0.11,0.65c0.17,1.05,0.4,2.09,0.7,3.11
				c0.21,0.85,0.49,1.67,0.84,2.47c0.19,0.4,0.42,0.78,0.66,1.15c0.7,1.06,1.46,2.08,2.29,3.04c0.69,0.87,1.48,1.65,2.35,2.33
				l1.05,0.76c0.35,0.25,0.74,0.45,1.12,0.68c0.23,0.13,0.46,0.28,0.69,0.4l0.72,0.34l0.72,0.34c0.24,0.11,0.5,0.19,0.74,0.3
				c0.4,0.15,0.79,0.36,1.2,0.52c0.41,0.15,0.83,0.28,1.25,0.39c0.43,0.09,0.87,0.16,1.31,0.18c0.32,0.04,0.63,0.08,0.94,0.11
				c0.31,0.01,0.63,0,0.94,0s0.63,0,0.95,0.02s0.65-0.03,0.98-0.02l0.87-0.01c0.28-0.02,0.56-0.05,0.83-0.09l0.81-0.12l0.4-0.06
				l0.38-0.1l1.25-0.34c0.41-0.13,0.81-0.3,1.23-0.45c0.25-0.1,0.5-0.18,0.74-0.3l0.72-0.35l0.72-0.35c0.24-0.12,0.46-0.27,0.69-0.4
				c0.37-0.22,0.78-0.4,1.15-0.62c0.37-0.22,0.74-0.47,1.08-0.73c0.34-0.28,0.66-0.59,0.96-0.91c0.23-0.22,0.46-0.43,0.67-0.67
				l0.6-0.73c0.19-0.25,0.41-0.47,0.6-0.73s0.39-0.52,0.6-0.77c0.37-0.44,0.69-0.91,0.98-1.4c0.14-0.23,0.3-0.46,0.42-0.7l0.34-0.72
				c0.37-0.79,0.69-1.6,0.95-2.43c0.29-1.02,0.52-2.06,0.68-3.12c0.04-0.21,0.08-0.43,0.13-0.64s0.06-0.43,0.09-0.65
				c0.07-0.43,0.11-0.86,0.13-1.3C37.69,18.41,37.63,17.91,37.59,17.46z M32.79,26.93c-0.12,0.2-0.25,0.45-0.4,0.74
				s-0.36,0.57-0.54,0.87c-0.33,0.53-0.71,1.03-1.15,1.48c-0.11,0.12-0.22,0.23-0.35,0.34l-0.39,0.29
				c-0.26,0.19-0.52,0.39-0.76,0.59c-0.07,0.05-0.14,0.1-0.21,0.15c-1.19,0.93-2.45,1.76-3.78,2.48c-0.57,0.22-1.04,0.37-1.48,0.49
				c-0.44,0.09-0.86,0.15-1.32,0.24c-0.37,0.09-0.79,0.1-1.28,0.2c-1.22,0.25-2.48,0.35-3.72,0.29c-0.32-0.03-0.64-0.09-0.95-0.19
				c-0.31-0.08-0.63-0.16-0.94-0.21l-0.25-0.08c-0.36-0.12-0.72-0.21-1.08-0.3s-0.72-0.22-1.08-0.31c-0.73-0.2-1.44-0.47-2.12-0.8
				c-0.53-0.31-0.94-0.58-1.3-0.85l-1.01-0.88c-0.16-0.13-0.3-0.26-0.44-0.41c-0.15-0.15-0.32-0.3-0.51-0.47
				c-0.37-0.28-0.85-0.79-1.37-1.27c-0.24-0.24-0.47-0.5-0.68-0.77c-0.18-0.21-0.36-0.44-0.52-0.67c-0.16-0.28-0.3-0.57-0.44-0.86
				l-0.21-0.43l-0.19-0.44l-0.1-0.24c-0.13-0.35-0.33-0.68-0.45-1.03s-0.29-0.69-0.44-1.04s-0.25-0.71-0.38-1.07
				c-0.13-0.36-0.23-0.72-0.29-1.1c-0.05-0.3-0.09-0.58-0.12-0.83c-0.01-0.13-0.03-0.25-0.04-0.37s0-0.23,0-0.35
				c0.01-0.46,0.03-0.87,0.04-1.34c0.04-0.38,0.08-0.79,0.1-1.29c0-0.12,0-0.25,0.01-0.39s0.03-0.29,0.04-0.45
				c0.03-0.32,0.06-0.67,0.09-1.02s0.13-0.69,0.19-1.01c0.05-0.28,0.12-0.55,0.21-0.82c0.12-0.3,0.26-0.59,0.4-0.88l0.21-0.44
				l0.23-0.42l0.13-0.22c0.09-0.16,0.18-0.33,0.26-0.5c0.08-0.17,0.17-0.34,0.26-0.5c0.19-0.32,0.36-0.66,0.54-0.99
				s0.4-0.64,0.6-0.96l0.31-0.48c0.11-0.15,0.24-0.29,0.37-0.44c0.33-0.4,0.7-0.77,1.11-1.08l0.53-0.41
				C8.3,6.31,8.48,6.18,8.67,6.06c0.32-0.21,0.66-0.44,1.06-0.75c0.19-0.12,0.44-0.28,0.7-0.47c0.27-0.21,0.56-0.39,0.86-0.56
				c0.53-0.33,1.09-0.61,1.68-0.83c0.31-0.1,0.62-0.19,0.93-0.27c0.32-0.06,0.64-0.1,0.95-0.17c0.08-0.02,0.17-0.03,0.25-0.05
				c0.37-0.09,0.74-0.13,1.11-0.2s0.73-0.17,1.11-0.21c0.75-0.13,1.51-0.18,2.27-0.16c0.31,0.01,0.58,0.03,0.84,0.05
				s0.48,0.1,0.71,0.14l0.65,0.15l0.32,0.08l0.33,0.11c0.36,0.12,0.76,0.23,1.24,0.36c0.22,0.08,0.49,0.16,0.8,0.26
				c0.33,0.09,0.66,0.19,0.98,0.32c0.59,0.21,1.16,0.48,1.69,0.8c0.27,0.18,0.53,0.37,0.79,0.56c0.24,0.22,0.48,0.44,0.73,0.63
				l0.2,0.17c1.19,0.94,2.27,1.99,3.24,3.15c0.32,0.41,0.59,0.86,0.81,1.33c0.1,0.2,0.21,0.39,0.29,0.6l0.24,0.63
				c0.14,0.36,0.33,0.73,0.49,1.2c0.25,0.57,0.47,1.15,0.67,1.74c0.12,0.32,0.22,0.65,0.3,0.98c0.06,0.32,0.11,0.6,0.14,0.84
				c0.05,0.64,0.06,1.29,0.02,1.93c0,0.09,0,0.17,0,0.26c-0.02,0.38-0.06,0.75-0.06,1.13v0.56c0,0.19-0.03,0.37-0.04,0.56
				l-0.09,1.13c-0.07,0.37-0.15,0.74-0.23,1.11c-0.04,0.15-0.07,0.29-0.11,0.42s-0.1,0.26-0.14,0.38c-0.1,0.24-0.19,0.45-0.28,0.66
				c-0.09,0.21-0.18,0.41-0.29,0.6l-0.34,0.58C33.24,26.13,33.06,26.51,32.79,26.93L32.79,26.93z"/>
		</g>
		<path id="패스_23573" class="st0" d="M30.21,18.33c-0.05-0.21-0.59-0.67-0.77-0.8c-0.35-0.16-0.75-0.2-1.13-0.1
			c-0.28,0.05-0.57,0.07-0.85,0.07c-0.24,0-0.48,0-0.72,0c-0.81,0.01-1.62,0.02-2.46,0.04c-1,0.01-2.01,0.04-3.01,0.01
			c-0.38-0.01-0.76-0.04-1.14-0.08c-0.04-1.17-0.16-2.35-0.18-3.52c-0.02-1.32,0.09-2.12,0.15-3.13c0.01-0.21,0.02-0.42,0.03-0.66
			s0.05-0.57,0.05-0.84c0-0.45-0.19-1.4-0.6-1.65c-0.33-0.29-0.78-0.41-1.21-0.33c-0.21,0.05-0.67,0.59-0.8,0.77
			c-0.16,0.35-0.2,0.75-0.1,1.13c0.05,0.28,0.07,0.57,0.07,0.85c0,0.24,0,0.48,0,0.72c0.01,0.81,0.03,1.62,0.04,2.46
			c0.01,1,0.04,2.01,0.01,3.01c-0.01,0.39-0.05,0.79-0.08,1.18c-1.17,0.03-2.28,0.16-3.52,0.1c-1.12-0.06-2.13-0.07-3.13-0.06
			l-0.68,0.01c-0.29,0-0.65-0.06-0.93-0.05c-0.43-0.05-0.86,0.04-1.23,0.25c-0.51,0.29-0.76,0.9-0.6,1.46
			c0.12,0.25,0.31,0.47,0.55,0.61c0.09,0.06,0.18,0.11,0.28,0.15c0.33,0.1,0.69,0.12,1.03,0.05c0.13-0.01,0.27-0.02,0.41-0.01
			c0.39,0.03,0.76,0.06,1.17,0.09s0.87,0.04,1.41,0.03c1-0.01,3.05-0.2,4.06-0.18c0.39,0.01,0.78,0.04,1.18,0.08
			c0.02,1.19,0.17,2.31,0.1,3.56c-0.06,1.12-0.07,2.13-0.06,3.13c0,0.23,0,0.45,0.01,0.68c0,0.29-0.06,0.65-0.05,0.93
			c-0.05,0.43,0.04,0.86,0.26,1.23c0.29,0.52,0.89,0.76,1.46,0.6c0.26-0.12,0.47-0.31,0.61-0.55c0.06-0.09,0.11-0.18,0.15-0.27
			c0.1-0.33,0.12-0.69,0.05-1.03c-0.01-0.13-0.02-0.27-0.01-0.4c0.03-0.39,0.06-0.76,0.09-1.18s0.04-0.87,0.03-1.41
			c-0.01-1-0.2-3.05-0.18-4.06c0.01-0.38,0.04-0.76,0.08-1.13c1.19-0.03,2.38-0.17,3.57-0.18c1.32-0.02,2.11,0.09,3.13,0.15
			c0.21,0.01,0.43,0.02,0.66,0.03s0.57,0.05,0.84,0.05c0.45-0.01,1.4-0.19,1.65-0.6C30.17,19.22,30.3,18.77,30.21,18.33z"/>
	</g>
	<g id="그룹_28260" transform="translate(5600.064 5712.918)">
		<g id="그룹_28258" transform="translate(0 0)">
			<path id="패스_23574" class="st2" d="M60.74,60.13c0,0-6.73-36.29-15.81-51.94c-4.64-8-21.15-9.14-28.96-2.55
				c-2.98,2.52-5.22,7.14-6.08,10.25C5.95,30.42,3.02,45.2,1.09,60.13"/>
			<g id="그룹_28257">
				<g id="그룹_28246" transform="translate(58.814 56.56)">
					<path id="패스_23575" class="st0" d="M0.19,1.93C0.29,2.35,0.64,3.2,1.08,3.36C1.47,3.57,1.92,3.6,2.33,3.44
						c0.27-0.25,0.49-0.55,0.65-0.88c0.1-0.36,0.06-0.75-0.11-1.09c-0.1-0.26-0.18-0.52-0.23-0.79C2.59,0.45,2.55,0.22,2.5,0
						l-2.51,0.51c0.03,0.2,0.06,0.4,0.1,0.62S0.14,1.68,0.19,1.93z"/>
				</g>
				<g id="그룹_28247" transform="translate(55.461 41.662)">
					<path id="패스_23576" class="st0" d="M0.28,1.94c0.25,0.92,0.87,2.79,1.07,3.73c0.14,0.65,0.19,1.33,0.31,1.98
						c0.01,0.09,0.03,0.18,0.04,0.27c0.26,1.54,0.82,3.02,1.17,4.55c0.28,1.23,0.32,2,0.46,2.96l2.51-0.51
						c-0.17-0.77-0.34-1.52-0.52-2.31c-0.21-0.94-0.44-1.88-0.62-2.83C4.57,8.99,4.53,8.19,4.34,7.43C4.26,7.11,4.13,6.67,4.02,6.28
						C3.74,5.16,3.35,4.14,3.13,2.94C2.95,1.88,2.71,0.93,2.47,0l-2.48,0.62C0.06,1.01,0.15,1.44,0.28,1.94z"/>
				</g>
				<g id="그룹_28248" transform="translate(51.418 26.923)">
					<path id="패스_23577" class="st0" d="M0.34,2.06c0.28,0.91,1.05,2.73,1.27,3.66c0.16,0.65,0.24,1.31,0.4,1.96
						c0.02,0.09,0.04,0.18,0.06,0.26c0.34,1.52,0.95,2.98,1.38,4.48c0.25,0.97,0.45,1.95,0.58,2.94l2.48-0.62
						c-0.2-0.76-0.4-1.5-0.61-2.29c-0.26-0.93-0.53-1.86-0.75-2.8C4.98,8.89,4.91,8.09,4.68,7.34C4.58,7.02,4.43,6.59,4.3,6.21
						C3.97,5.1,3.54,4.09,3.25,2.91C2.99,1.85,2.72,0.92,2.43,0l-2.45,0.76C0.08,1.15,0.19,1.57,0.34,2.06z"/>
				</g>
				<g id="그룹_28249" transform="translate(46.186 12.513)">
					<path id="패스_23578" class="st0" d="M0.51,2.29c0.21,0.42,0.53,1.07,0.83,1.73s0.62,1.31,0.78,1.76
						c0.11,0.31,0.21,0.63,0.3,0.95s0.17,0.64,0.27,0.96c0.02,0.08,0.05,0.17,0.07,0.26c0.43,1.5,1.2,2.87,1.69,4.36
						c0.41,1.19,0.54,1.94,0.77,2.88l2.44-0.76c-0.25-0.75-0.5-1.48-0.77-2.25L5.97,9.41C5.72,8.66,5.59,7.86,5.31,7.12
						c-0.12-0.31-0.3-0.73-0.46-1.11c-0.44-1.08-0.98-2.04-1.37-3.2C3.15,1.86,2.76,0.92,2.32,0l-2.33,1.06
						C0.13,1.43,0.29,1.83,0.51,2.29z"/>
				</g>
				<g id="그룹_28250" transform="translate(36.785 1.349)">
					<path id="패스_23579" class="st0" d="M1.16,2.9c0.42,0.16,1.06,0.39,1.67,0.67c0.31,0.13,0.6,0.3,0.88,0.44
						s0.49,0.31,0.67,0.44c0.23,0.19,0.46,0.4,0.67,0.62c0.2,0.23,0.4,0.45,0.6,0.66C5.7,5.8,5.76,5.86,5.8,5.92
						c0.45,0.53,0.85,1.05,1.26,1.62c0.4,0.65,0.82,1.3,1.19,1.97c0.46,0.87,0.84,1.78,1.14,2.72l2.33-1.06
						c-0.17-0.36-0.34-0.72-0.51-1.08s-0.34-0.72-0.54-1.08C10.19,8.14,9.71,7.28,9.27,6.4C8.9,5.6,8.42,4.86,7.85,4.19
						C7.54,3.87,7.21,3.58,6.86,3.3C5.87,2.54,4.82,1.87,3.71,1.29C2.79,0.75,1.81,0.32,0.79,0l-0.8,2.43L1.16,2.9z"/>
				</g>
				<g id="그룹_28251" transform="translate(21.832)">
					<path id="패스_23580" class="st0" d="M1.97,3.35c0.44-0.12,1.11-0.3,1.79-0.46c0.6-0.14,1.22-0.24,1.83-0.29
						c0.32-0.01,0.64,0,0.96,0.01s0.64,0.05,0.96,0.05c0.08,0,0.17,0.01,0.25,0.02c1.48,0.1,2.99,0,4.47,0.25
						c0.93,0.17,1.84,0.46,2.71,0.85l0.8-2.43c-0.79-0.25-1.59-0.46-2.41-0.62c-0.99-0.19-1.99-0.34-2.99-0.45
						C9.53,0.14,8.71,0.04,7.89,0C7.55,0,7.07,0.05,6.65,0.08C5.44,0.15,4.33,0.4,3.07,0.54C2.02,0.66,0.99,0.88-0.01,1.2l0.74,2.45
						C1.1,3.58,1.5,3.46,1.97,3.35z"/>
				</g>
				<g id="그룹_28252" transform="translate(10.135 1.194)">
					<path id="패스_23581" class="st0" d="M2.91,10.46c0.21-0.4,0.5-1.04,0.84-1.64c0.28-0.54,0.62-1.06,0.99-1.54
						C5.15,6.82,5.6,6.39,6.07,5.99c0.06-0.05,0.12-0.11,0.19-0.16c1.07-0.97,2.24-1.81,3.49-2.52c0.86-0.4,1.76-0.69,2.68-0.87
						L11.69,0c-0.39,0.13-0.78,0.26-1.17,0.41c-0.38,0.16-0.77,0.3-1.16,0.49C8.42,1.32,7.51,1.81,6.64,2.35
						C5.88,2.76,5.17,3.24,4.51,3.8C4.2,4.11,3.91,4.43,3.64,4.77c-0.75,0.96-1.46,1.96-2.11,3c-0.6,0.86-1.11,1.78-1.54,2.74
						l2.32,1.09C2.49,11.26,2.69,10.9,2.91,10.46z"/>
				</g>
				<g id="그룹_28253" transform="translate(5.894 11.701)">
					<path id="패스_23582" class="st0" d="M2.82,14.15c0.2-0.94,0.49-2.88,0.75-3.8C3.75,9.7,4.01,9.08,4.2,8.45
						c0.03-0.08,0.06-0.17,0.09-0.25c0.24-0.75,0.43-1.5,0.57-2.27c0.13-0.75,0.3-1.5,0.5-2.24c0.3-0.9,0.71-1.77,1.2-2.59L4.23,0
						C3.89,0.75,3.6,1.5,3.32,2.3C3.15,2.78,3,3.26,2.87,3.76C2.74,4.24,2.62,4.7,2.48,5.16C2.26,5.91,1.91,6.64,1.73,7.4
						C1.65,7.72,1.56,8.17,1.48,8.57C1.23,9.7,1.1,10.78,0.74,11.95c-0.32,1.03-0.54,1.98-0.75,2.92l2.49,0.58
						C2.6,15.07,2.71,14.65,2.82,14.15z"/>
				</g>
				<g id="그룹_28254" transform="translate(2.77 26.569)">
					<path id="패스_23583" class="st0" d="M2.79,14.1c0.16-0.94,0.36-2.9,0.57-3.84C3.5,9.62,3.74,8.99,3.9,8.34l0.07-0.26
						c0.4-1.51,0.51-3.09,0.82-4.62c0.22-0.97,0.49-1.94,0.81-2.88L3.11,0c-0.17,0.77-0.34,1.52-0.5,2.31
						C2.41,3.26,2.23,4.21,2,5.15C1.81,5.91,1.51,6.65,1.37,7.42C1.3,7.75,1.24,8.2,1.18,8.6c-0.22,1.14-0.27,2.23-0.58,3.41
						c-0.27,1.05-0.45,2-0.62,2.95l2.52,0.47C2.6,15.04,2.7,14.62,2.79,14.1z"/>
				</g>
				<g id="그룹_28255" transform="translate(0.303 41.525)">
					<path id="패스_23584" class="st0" d="M2.75,14.1c0.12-0.95,0.23-2.92,0.4-3.86C3.27,9.59,3.48,8.95,3.6,8.3
						c0.02-0.09,0.04-0.18,0.06-0.26c0.35-1.52,0.37-3.11,0.62-4.65C4.46,2.4,4.69,1.43,4.97,0.47L2.46,0
						C2.33,0.77,2.2,1.54,2.07,2.33c-0.15,0.95-0.3,1.91-0.49,2.85c-0.15,0.77-0.42,1.52-0.54,2.3C0.99,7.81,0.95,8.27,0.91,8.67
						c-0.16,1.15-0.19,2.23-0.43,3.43c-0.22,1.06-0.36,2.02-0.49,2.97l2.54,0.35C2.6,15.04,2.68,14.62,2.75,14.1z"/>
				</g>
				<g id="그룹_28256" transform="translate(0 56.602)">
					<path id="패스_23585" class="st0" d="M2.19,3.04C2.26,2.97,2.32,2.89,2.37,2.8c0.14-0.3,0.2-0.63,0.17-0.96
						c0-0.13,0.02-0.26,0.04-0.38c0.08-0.36,0.15-0.71,0.24-1.1L0.29,0L0.21,0.65C0.18,0.92,0.07,1.25,0.04,1.53
						c-0.1,0.4-0.07,0.83,0.1,1.21c0.24,0.53,0.81,0.84,1.38,0.75C1.79,3.41,2.02,3.26,2.19,3.04z"/>
				</g>
			</g>
		</g>
		<g id="그룹_28259" transform="translate(0 0)">
			<path id="패스_23586" class="st2" d="M60.74,60.13c0,0-6.73-36.29-15.81-51.94c-4.64-8-21.15-9.14-28.96-2.55
				c-2.98,2.52-5.22,7.14-6.08,10.25C5.95,30.42,3.02,45.2,1.09,60.13"/>
			<path id="패스_23587" class="st0" d="M61.68,58.03c-0.1-0.26-0.18-0.52-0.23-0.79c-0.05-0.23-0.09-0.45-0.14-0.68
				c-0.17-0.77-0.34-1.52-0.52-2.31c-0.21-0.94-0.44-1.88-0.62-2.83c-0.15-0.77-0.18-1.57-0.37-2.33c-0.08-0.32-0.21-0.76-0.32-1.15
				c-0.28-1.12-0.67-2.14-0.89-3.34c-0.19-1.06-0.42-2.01-0.66-2.94c-0.2-0.76-0.4-1.5-0.61-2.29c-0.26-0.93-0.53-1.86-0.75-2.8
				c-0.18-0.77-0.24-1.57-0.48-2.32c-0.1-0.32-0.25-0.75-0.38-1.13c-0.33-1.11-0.76-2.11-1.05-3.3c-0.25-1.05-0.53-1.99-0.81-2.91
				c-0.25-0.75-0.5-1.48-0.77-2.25l-0.93-2.76c-0.25-0.75-0.38-1.54-0.66-2.28c-0.12-0.31-0.3-0.73-0.46-1.11
				c-0.44-1.08-0.98-2.04-1.37-3.2c-0.33-0.96-0.72-1.9-1.16-2.81c-0.17-0.36-0.34-0.72-0.51-1.08s-0.34-0.72-0.54-1.08
				c-0.47-0.87-0.96-1.73-1.39-2.61c-0.37-0.8-0.85-1.54-1.42-2.21C44.33,5.22,44,4.93,43.65,4.65c-0.99-0.76-2.04-1.43-3.15-2.02
				c-0.92-0.54-1.9-0.97-2.92-1.29c-0.79-0.25-1.59-0.46-2.41-0.62c-0.99-0.19-1.99-0.34-2.99-0.45C31.37,0.14,30.55,0.04,29.73,0
				c-0.35,0-0.83,0.05-1.25,0.08c-1.21,0.07-2.31,0.32-3.58,0.46c-1.05,0.13-2.08,0.35-3.08,0.66c-0.39,0.13-0.78,0.27-1.17,0.41
				c-0.38,0.16-0.77,0.3-1.16,0.49c-0.94,0.43-1.84,0.92-2.72,1.46C16.01,3.96,15.3,4.44,14.65,5c-0.31,0.31-0.6,0.63-0.87,0.97
				c-0.75,0.96-1.46,1.96-2.11,3c-0.6,0.86-1.11,1.78-1.54,2.74C9.78,12.45,9.48,13.22,9.21,14c-0.17,0.48-0.31,0.97-0.45,1.46
				c-0.13,0.48-0.25,0.94-0.39,1.4c-0.22,0.76-0.57,1.48-0.75,2.24c-0.08,0.32-0.17,0.77-0.24,1.17c-0.26,1.13-0.38,2.21-0.74,3.38
				c-0.32,1.03-0.54,1.98-0.75,2.92c-0.17,0.77-0.34,1.52-0.5,2.31c-0.2,0.94-0.38,1.9-0.61,2.83c-0.19,0.77-0.49,1.51-0.63,2.28
				c-0.06,0.33-0.12,0.78-0.18,1.18c-0.22,1.14-0.27,2.23-0.58,3.41c-0.27,1.05-0.45,2-0.62,2.95c-0.13,0.77-0.26,1.54-0.39,2.33
				c-0.15,0.95-0.3,1.91-0.49,2.85c-0.15,0.77-0.42,1.52-0.54,2.3c-0.05,0.33-0.09,0.78-0.13,1.19c-0.16,1.15-0.19,2.23-0.43,3.43
				c-0.22,1.06-0.36,2.02-0.49,2.97L0.2,57.25c-0.03,0.27-0.14,0.61-0.17,0.88c-0.1,0.4-0.07,0.83,0.1,1.21
				c0.24,0.53,0.81,0.84,1.38,0.75c0.26-0.08,0.5-0.23,0.67-0.44c0.07-0.08,0.13-0.16,0.18-0.24c0.14-0.3,0.2-0.63,0.17-0.96
				c0-0.13,0.02-0.26,0.04-0.38c0.08-0.36,0.15-0.72,0.24-1.1s0.16-0.81,0.22-1.33c0.12-0.95,0.23-2.92,0.4-3.86
				c0.12-0.65,0.33-1.3,0.45-1.95c0.02-0.09,0.04-0.18,0.06-0.26c0.35-1.52,0.37-3.11,0.62-4.65c0.18-0.98,0.4-1.96,0.69-2.91
				c0.1-0.39,0.19-0.81,0.28-1.32c0.16-0.94,0.36-2.9,0.57-3.84c0.15-0.65,0.39-1.28,0.54-1.93c0.02-0.09,0.05-0.17,0.07-0.26
				c0.4-1.51,0.51-3.09,0.82-4.62c0.22-0.97,0.49-1.94,0.81-2.88c0.11-0.38,0.23-0.8,0.34-1.3c0.2-0.94,0.49-2.88,0.75-3.8
				c0.18-0.64,0.44-1.26,0.63-1.9c0.03-0.08,0.06-0.17,0.09-0.25c0.24-0.75,0.43-1.5,0.57-2.27c0.13-0.75,0.29-1.5,0.5-2.24
				c0.3-0.9,0.71-1.77,1.2-2.59c0.18-0.33,0.38-0.7,0.6-1.13c0.21-0.4,0.5-1.04,0.84-1.65c0.28-0.54,0.62-1.06,0.99-1.54
				c0.41-0.46,0.86-0.89,1.33-1.28c0.06-0.05,0.12-0.11,0.19-0.15c1.07-0.97,2.24-1.81,3.49-2.52c0.86-0.4,1.76-0.69,2.68-0.87
				c0.37-0.07,0.76-0.19,1.24-0.3c0.44-0.12,1.11-0.3,1.79-0.46c0.6-0.14,1.22-0.24,1.83-0.29c0.32-0.01,0.64,0,0.96,0.01
				s0.64,0.05,0.96,0.05c0.08,0,0.17,0.01,0.25,0.02c1.48,0.1,2.99,0,4.48,0.25c0.93,0.17,1.84,0.46,2.71,0.85l1.17,0.46
				c0.42,0.16,1.06,0.39,1.67,0.67c0.31,0.13,0.6,0.3,0.88,0.44s0.49,0.31,0.67,0.44c0.23,0.19,0.46,0.4,0.67,0.62
				c0.2,0.23,0.4,0.45,0.6,0.66l0.15,0.19c0.45,0.53,0.85,1.05,1.26,1.62c0.4,0.65,0.82,1.3,1.19,1.97
				c0.46,0.87,0.84,1.78,1.14,2.72c0.14,0.37,0.3,0.76,0.52,1.23c0.21,0.42,0.53,1.07,0.83,1.73c0.31,0.66,0.62,1.31,0.78,1.76
				c0.11,0.31,0.21,0.63,0.3,0.94s0.17,0.65,0.27,0.96c0.02,0.09,0.05,0.17,0.07,0.26c0.43,1.5,1.2,2.87,1.69,4.36
				c0.41,1.19,0.54,1.94,0.77,2.88c0.09,0.39,0.2,0.8,0.35,1.3c0.28,0.91,1.05,2.73,1.27,3.66c0.16,0.65,0.24,1.31,0.4,1.96
				c0.02,0.09,0.04,0.18,0.06,0.26c0.34,1.52,0.95,2.98,1.38,4.48c0.25,0.97,0.45,1.95,0.58,2.94c0.07,0.39,0.16,0.81,0.29,1.31
				c0.25,0.92,0.87,2.79,1.07,3.73c0.14,0.65,0.19,1.33,0.31,1.98c0.01,0.09,0.03,0.18,0.04,0.27c0.26,1.54,0.82,3.02,1.17,4.55
				c0.2,0.98,0.36,1.96,0.46,2.96c0.03,0.2,0.06,0.4,0.1,0.62s0.06,0.54,0.11,0.8c0.09,0.42,0.44,1.27,0.89,1.43
				c0.38,0.21,0.84,0.24,1.25,0.08c0.27-0.25,0.49-0.55,0.65-0.88C61.89,58.76,61.85,58.37,61.68,58.03z"/>
		</g>
	</g>
	<g id="그룹_28261" transform="translate(5605.066 5668.078)">
		<path id="패스_23588" class="st1" d="M10.76,36.46c9.04,5.15,20.54,1.99,25.69-7.05c5.15-9.04,1.99-20.54-7.05-25.69
			C20.36-1.42,8.86,1.74,3.72,10.78c0,0,0,0,0,0C-1.39,19.82,1.76,31.29,10.76,36.46z"/>
		<path id="패스_23589" class="st0" d="M39.98,17.84c-0.06-1.03-0.24-2.06-0.53-3.06c-0.23-0.78-0.5-1.55-0.82-2.29
			c-0.4-0.91-0.84-1.8-1.34-2.66c-0.36-0.73-0.77-1.44-1.25-2.1c-0.22-0.27-0.54-0.62-0.83-0.91c-0.84-0.84-1.72-1.64-2.65-2.39
			c-0.78-0.68-1.63-1.28-2.54-1.79l-1.09-0.53c-0.36-0.19-0.74-0.36-1.12-0.5l-1.4-0.52c-0.47-0.15-0.96-0.27-1.43-0.41
			c-0.2-0.06-0.39-0.12-0.58-0.19l-0.59-0.16c-0.39-0.11-0.79-0.2-1.19-0.26c-0.34-0.05-0.82-0.03-1.24-0.04
			C21.09,0.01,20.8,0,20.5,0l-0.87,0.07c-0.29,0.02-0.58,0.04-0.88,0.06s-0.6,0.06-0.91,0.08c-1.03,0.07-2.06,0.24-3.06,0.51
			l-1.15,0.39c-0.39,0.12-0.77,0.27-1.14,0.44c-0.45,0.21-0.91,0.41-1.36,0.62c-0.43,0.25-0.87,0.49-1.31,0.72
			C9.45,3.07,9.11,3.29,8.75,3.48C8.39,3.67,8.05,3.89,7.72,4.13c-0.26,0.23-0.6,0.56-0.9,0.85C6.38,5.37,5.97,5.8,5.6,6.26
			L5.02,6.92C4.83,7.16,4.64,7.39,4.43,7.63c-0.68,0.78-1.29,1.62-1.8,2.52L2.1,11.24c-0.19,0.36-0.36,0.74-0.5,1.12l-0.52,1.4
			c-0.15,0.47-0.27,0.96-0.41,1.43c-0.06,0.19-0.12,0.39-0.19,0.58l-0.16,0.59c-0.11,0.39-0.2,0.79-0.26,1.19
			c-0.05,0.34-0.03,0.82-0.04,1.24C0,19.09,0,19.39-0.01,19.68c0.02,0.29,0.05,0.58,0.07,0.88s0.04,0.58,0.06,0.88
			s0.06,0.6,0.08,0.91c0.07,1.03,0.24,2.06,0.51,3.06c0.13,0.38,0.26,0.76,0.39,1.15c0.12,0.39,0.27,0.77,0.44,1.14
			c0.21,0.45,0.4,0.91,0.62,1.36c0.25,0.43,0.49,0.87,0.72,1.31c0.17,0.37,0.39,0.71,0.59,1.07c0.19,0.36,0.41,0.71,0.65,1.03
			c0.23,0.26,0.56,0.6,0.85,0.9c0.39,0.44,0.82,0.84,1.28,1.21l0.66,0.59c0.24,0.18,0.47,0.38,0.71,0.58
			c0.78,0.68,1.62,1.29,2.52,1.8c0.71,0.39,1.45,0.74,2.2,1.04c0.46,0.18,0.93,0.36,1.41,0.5s0.96,0.28,1.43,0.43
			c0.39,0.11,0.78,0.22,1.17,0.34c0.2,0.06,0.39,0.12,0.59,0.17s0.4,0.06,0.6,0.08c0.34,0.03,0.82,0.06,1.23,0.07
			c0.6,0,1.18-0.01,1.76-0.05c0.58-0.07,1.17-0.1,1.8-0.14c0.55-0.05,1.08-0.1,1.59-0.19c0.5-0.11,0.99-0.22,1.47-0.34
			c0.39-0.12,0.77-0.25,1.15-0.38c0.19-0.07,0.38-0.13,0.57-0.2l0.57-0.25c0.91-0.4,1.8-0.84,2.67-1.33
			c0.35-0.21,0.71-0.39,1.08-0.58c0.36-0.19,0.7-0.42,1.02-0.67c0.32-0.25,0.63-0.53,0.92-0.83c0.84-0.84,1.64-1.72,2.38-2.65
			c0.35-0.4,0.69-0.82,0.99-1.25c0.28-0.43,0.55-0.85,0.8-1.27l0.55-1.08l0.49-1.12c0.36-0.93,0.67-1.87,0.93-2.83
			c0.11-0.39,0.25-0.78,0.35-1.17c0.12-0.39,0.21-0.79,0.25-1.2c0.04-0.41,0.06-0.82,0.06-1.24C40.17,20.2,40.11,19.02,39.98,17.84z
			 M37.75,20.15c-0.01,0.31-0.04,0.61-0.09,0.91c-0.06,0.3-0.09,0.6-0.14,0.9l-0.05,0.24c-0.17,1.41-0.46,2.81-0.86,4.18
			c-0.33,0.85-0.76,1.66-1.29,2.4c-0.21,0.29-0.44,0.62-0.68,1.02l-0.18,0.32l-0.24,0.35l-0.53,0.81c-0.35,0.48-0.72,0.93-1.13,1.36
			c-0.23,0.2-0.48,0.38-0.72,0.56s-0.48,0.37-0.73,0.54l-0.2,0.13c-1.12,0.88-2.31,1.67-3.56,2.35c-0.84,0.37-1.71,0.63-2.61,0.78
			c-0.36,0.06-0.74,0.13-1.2,0.25c-0.42,0.1-1.07,0.23-1.73,0.37l-0.96,0.12l-0.43,0.04c-0.13,0-0.26,0-0.37-0.01
			c-0.61-0.04-1.21-0.12-1.81-0.24l-0.24-0.04c-0.7-0.1-1.39-0.25-2.1-0.33l-1.05-0.23c-0.35-0.07-0.7-0.17-1.03-0.29
			c-0.85-0.33-1.66-0.76-2.4-1.3c-0.29-0.22-0.61-0.44-1.01-0.69c-1.02-0.58-1.98-1.29-2.83-2.09c-0.4-0.46-0.77-0.94-1.11-1.44
			l-0.14-0.2c-0.21-0.28-0.39-0.59-0.6-0.87c-0.2-0.29-0.45-0.55-0.63-0.86c-0.42-0.58-0.79-1.19-1.1-1.84
			c-0.37-0.83-0.63-1.71-0.79-2.61c-0.05-0.36-0.12-0.75-0.23-1.2c-0.13-0.42-0.23-1.07-0.36-1.73c-0.07-0.32-0.11-0.64-0.12-0.96
			c-0.02-0.3-0.04-0.58-0.04-0.8c0-0.31,0.04-0.61,0.1-0.91c0.05-0.3,0.1-0.6,0.13-0.9c0.01-0.08,0.02-0.16,0.04-0.24
			c0.19-1.41,0.48-2.81,0.88-4.17c0.1-0.27,0.2-0.51,0.29-0.73c0.1-0.21,0.21-0.4,0.33-0.59l0.66-1.08
			c0.22-0.29,0.44-0.61,0.69-1.01c0.58-1.02,1.29-1.97,2.09-2.83c0.46-0.4,0.94-0.77,1.44-1.11l0.2-0.14
			c0.28-0.21,0.59-0.39,0.87-0.6c0.29-0.2,0.55-0.45,0.85-0.63c0.58-0.42,1.2-0.79,1.84-1.1c0.83-0.37,1.71-0.63,2.61-0.79
			c0.36-0.05,0.75-0.12,1.2-0.23c0.42-0.13,1.07-0.23,1.73-0.36c0.32-0.07,0.64-0.11,0.96-0.12c0.3-0.02,0.58-0.04,0.8-0.04
			c0.31,0,0.61,0.04,0.91,0.1c0.3,0.05,0.6,0.1,0.9,0.13c0.08,0.01,0.16,0.02,0.24,0.04C23.6,2.89,25,3.18,26.36,3.58
			c0.27,0.1,0.51,0.19,0.73,0.29c0.2,0.1,0.4,0.21,0.59,0.33l1.08,0.66c0.3,0.21,0.63,0.42,1.02,0.67c0.37,0.23,0.93,0.58,1.48,0.96
			c0.49,0.33,0.94,0.71,1.36,1.13c0.4,0.46,0.77,0.94,1.11,1.45l0.14,0.2c0.88,1.12,1.66,2.32,2.34,3.57
			c0.12,0.26,0.22,0.5,0.31,0.73s0.14,0.44,0.19,0.65c0.13,0.41,0.17,0.81,0.28,1.23c0.07,0.35,0.14,0.74,0.25,1.2
			c0.04,0.21,0.1,0.48,0.17,0.77s0.12,0.62,0.19,0.95C37.71,18.97,37.76,19.55,37.75,20.15L37.75,20.15z"/>
	</g>
	<circle id="타원_459" cx="5631.82" cy="5686.57" r="1.65"/>
	<circle id="타원_460" cx="5637.7" cy="5685.16" r="1.65"/>
	<path id="패스_23590" class="st0" d="M5640.13,5691.36c-0.28-0.38-0.72-0.6-1.19-0.61c-0.2-0.01-0.41,0.01-0.6,0.07
		c-0.05,0.02-0.11,0.03-0.16,0.06c-0.16,0.06-0.12,0.22-0.15,0.33c-0.01,0.04-0.03,0.09-0.06,0.12c-0.09,0.1-0.15,0.21-0.25,0.3
		c-0.16,0.18-0.31,0.36-0.47,0.53c-0.04,0.04-0.06,0.09-0.11,0.13l-0.14,0.12c-0.16,0.16-0.36,0.28-0.57,0.36
		c-0.12,0.03-0.25,0.04-0.37,0.04l-0.18,0.01c-0.06,0-0.13,0-0.19,0h-0.1c-0.61,0.07-1.23,0.09-1.85,0.07
		c-0.4-0.09-0.78-0.25-1.12-0.48c-0.07-0.04-0.14-0.08-0.22-0.12s-0.17-0.13-0.26-0.18c-0.11-0.05-0.23-0.06-0.35-0.04
		c-0.17,0.01-0.32,0.08-0.45,0.18c-0.31,0.21-0.57,0.48-0.77,0.79c-0.09,0.26-0.12,0.54-0.09,0.82c0.03,0.25,0.3,0.35,0.48,0.39
		c0.15,0.04,0.29,0.09,0.44,0.15l0.35,0.15c0.4,0.15,0.81,0.27,1.22,0.36c0.51,0.11,1.02,0.18,1.54,0.23
		c0.21,0.03,0.43,0.06,0.65,0.09c0.22,0.04,0.45,0.04,0.67,0.01c0.23-0.04,0.45-0.09,0.67-0.17c0.32-0.09,0.64-0.21,0.93-0.38
		c0.15-0.08,0.3-0.14,0.45-0.24s0.3-0.19,0.46-0.27c0.27-0.16,0.53-0.36,0.76-0.58c0.2-0.22,0.39-0.45,0.56-0.7
		c0.07-0.11,0.13-0.22,0.19-0.34c0.07-0.15,0.21-0.31,0.28-0.46C5640.27,5691.85,5640.27,5691.58,5640.13,5691.36z"/>
	<g id="그룹_28262" transform="translate(5653.938 5688.795)">
		<path id="패스_23591" class="st1" d="M13.74,20.89l-1.36-8.3C10.11,9.64,6.36,7.32,5,9.07s-1.91,2.49-1.57,5.6
			s0.87,4.68-0.1,8.07s-3.27,8-2.07,12.14S8.9,52.33,17.57,52.8s22.21-4.67,25.57-16.29c0.62-2.16-3.17-5.27-3.17-5.27l1.79-4.37
			l-3.87-5.44l0.19-3.13l-3.68-4.03l6.83-10.15c0,0-1.35-3.84-3.98-2.94S13.74,20.89,13.74,20.89z"/>
		<path id="패스_23592" class="st0" d="M44.14,34.3c-0.11-0.57-0.31-1.13-0.6-1.63c-0.13-0.21-0.28-0.43-0.44-0.65
			c-0.2-0.26-0.41-0.5-0.65-0.73c-0.21-0.19-0.45-0.33-0.71-0.44c0.11-0.15,0.21-0.3,0.31-0.46l0.13-0.22
			c0.41-0.69,0.68-1.45,0.78-2.25c0.08-0.88-0.04-1.77-0.35-2.59c-0.14-0.32-0.28-0.61-0.42-0.86c-0.16-0.23-0.29-0.47-0.44-0.67
			s-0.3-0.39-0.46-0.56s-0.33-0.34-0.52-0.5c-0.16-0.13-0.32-0.26-0.51-0.39c-0.21-0.16-0.44-0.31-0.67-0.44
			c-0.05-0.03-0.1-0.05-0.15-0.07c0.16-0.51,0.24-1.04,0.24-1.57c-0.01-0.24-0.04-0.47-0.07-0.71c-0.02-0.23-0.06-0.46-0.13-0.69
			l-0.19-0.69l-0.29-0.67c-0.07-0.17-0.16-0.34-0.27-0.49l-0.27-0.44c-0.21-0.25-0.38-0.5-0.58-0.71c-0.38-0.41-0.82-0.77-1.3-1.07
			c-0.21-0.13-0.43-0.25-0.66-0.35l-0.03-0.02c0.32-0.39,0.65-0.79,0.98-1.17c0.86-0.99,1.46-1.52,2.15-2.27
			c0.32-0.35,0.62-0.72,0.9-1.11c0.4-0.57,0.76-1.17,1.09-1.78c0.38-0.7,0.72-1.45,0.94-1.97c0.08-0.19,0.15-0.35,0.23-0.58
			c0.08-0.23,0.15-0.46,0.21-0.69c0.12-0.47,0.14-0.96,0.06-1.44c-0.02-0.13-0.05-0.26-0.09-0.38c-0.09-0.26-0.21-0.51-0.37-0.74
			c-0.15-0.21-0.3-0.41-0.47-0.61l-0.25-0.26c-0.08-0.08-0.16-0.16-0.25-0.23c-0.17-0.15-0.35-0.29-0.55-0.42l-0.3-0.19l-0.32-0.16
			c-0.43-0.2-0.9-0.34-1.37-0.41c-0.46-0.05-0.92-0.05-1.37,0c-0.65,0.08-1.29,0.23-1.92,0.44c-0.5,0.17-1,0.37-1.47,0.61
			c-0.44,0.22-0.87,0.48-1.27,0.77c-0.56,0.42-1.09,0.86-1.59,1.34c-0.57,0.52-1.12,1.06-1.5,1.38c-0.53,0.45-1.11,0.84-1.62,1.29
			l-0.21,0.17c-1.25,1.04-2.22,2.28-3.39,3.4c-0.93,0.9-1.57,1.36-2.33,2c-0.31,0.27-0.64,0.56-1.02,0.93
			c-0.7,0.69-2,2.22-2.72,2.89c-0.5,0.46-1.06,0.87-1.56,1.33l-0.21,0.18c-0.46,0.41-0.9,0.85-1.32,1.32
			c-0.01-0.15-0.02-0.3-0.03-0.46c-0.07-0.67-0.19-1.34-0.36-2c-0.18-0.75-0.42-1.48-0.56-1.96c-0.17-0.7-0.4-1.39-0.68-2.05
			l-0.13-0.27c-0.39-0.81-0.95-1.54-1.63-2.12c-0.72-0.61-1.54-1.08-2.44-1.37c-0.6-0.2-1.23-0.33-1.87-0.39
			c-0.27-0.03-0.53-0.05-0.8-0.05C6.19,7.41,5.9,7.43,5.61,7.48c-0.63,0.1-1.22,0.35-1.73,0.73c-0.33,0.25-0.61,0.56-0.84,0.9
			C2.92,9.31,2.8,9.53,2.71,9.75C2.66,9.87,2.61,9.98,2.57,10.1l-0.1,0.33c-0.17,0.72-0.26,1.47-0.27,2.21
			c-0.06,0.7-0.08,1.4-0.07,2.1c0,0.09,0,0.18,0.01,0.27c0.05,1.58,0.54,3.07,0.6,4.46c0.03,0.43-0.02,0.86-0.15,1.27
			c-0.14,0.43-0.27,0.82-0.42,1.26c-0.12,0.36-0.23,0.76-0.36,1.24C1.58,24.14,1.2,26,0.91,26.92c-0.2,0.63-0.47,1.28-0.63,1.96
			c-0.02,0.09-0.05,0.19-0.07,0.27c-0.19,0.81-0.26,1.65-0.22,2.48c0.04,0.82,0.12,1.63,0.21,2.42c0.13,1.28,0.13,2.08,0.31,3.09
			c0.03,0.22,0.08,0.44,0.14,0.65c0.06,0.25,0.13,0.5,0.22,0.74c0.23,0.65,0.52,1.27,0.87,1.87c0.37,0.68,0.8,1.31,1.05,1.73
			c0.35,0.59,0.65,1.21,1.04,1.77l0.15,0.23c0.95,1.24,1.99,2.41,3.11,3.5c0.88,0.95,1.35,1.58,2.08,2.29
			c0.33,0.33,0.69,0.64,1.07,0.91c0.21,0.15,0.46,0.33,0.76,0.51l0.97,0.55l1,0.49c0.31,0.15,0.61,0.27,0.83,0.38
			c0.31,0.17,0.63,0.31,0.94,0.47l0.48,0.23c0.17,0.06,0.33,0.13,0.5,0.18l0.27,0.1c1.6,0.47,3.28,0.62,4.94,0.44
			c0.33-0.02,0.63-0.04,0.91-0.05l0.78-0.06c0.5-0.02,0.95-0.1,1.46-0.16c0.4-0.08,0.83-0.17,1.33-0.31
			c0.94-0.26,2.76-1.08,3.66-1.43c0.63-0.23,1.29-0.42,1.91-0.68l0.25-0.1c1.44-0.69,2.8-1.55,4.04-2.56
			c0.88-0.59,1.72-1.24,2.52-1.92c0.28-0.26,0.58-0.56,0.93-0.94c0.65-0.7,1.81-2.3,2.42-3.06c0.43-0.53,0.92-1.02,1.31-1.59
			c0.06-0.07,0.11-0.15,0.17-0.23c0.98-1.44,1.56-3.12,1.65-4.86C44.31,35.59,44.27,34.94,44.14,34.3z M41.48,37.83
			c-0.32,0.61-0.68,1.2-1.08,1.76c-0.15,0.25-0.35,0.62-0.54,0.93c-0.56,0.92-1.21,1.78-1.93,2.57c-0.72,0.73-1.36,1.39-2,2.08
			c-0.47,0.51-0.99,0.97-1.54,1.39c-0.7,0.55-1.44,1.05-2.22,1.48c-0.64,0.35-1.35,0.57-2,0.9l-0.98,0.53
			c-0.95,0.51-1.95,0.93-2.97,1.25l-2.72,0.71c-0.34,0.07-0.68,0.15-1.02,0.22c-0.35,0.04-0.69,0.12-1.05,0.14
			c-0.86,0.09-1.72,0.08-2.57-0.03c-0.34-0.07-0.68-0.15-1.02-0.25c-0.33-0.12-0.66-0.21-1-0.3c-0.28-0.09-0.68-0.15-1.02-0.27
			c-1-0.28-1.95-0.71-2.81-1.28l-0.58-0.42c-0.19-0.14-0.36-0.29-0.54-0.42c-0.36-0.27-0.69-0.56-1.03-0.83
			c-0.28-0.22-0.54-0.47-0.8-0.71l-0.4-0.37l-0.38-0.4l-0.46-0.48l-0.46-0.52c-0.31-0.35-0.6-0.7-0.89-1.06
			c-0.47-0.59-0.82-1.26-1.27-1.83c-0.2-0.24-0.47-0.57-0.7-0.86c-0.67-0.81-1.23-1.7-1.66-2.65C3.49,38.29,3.22,37.43,3,36.57
			c-0.17-0.69-0.3-1.4-0.39-2.11c-0.12-0.88-0.16-1.76-0.14-2.65c0.04-0.71,0.25-1.39,0.35-2.07c0.04-0.29,0.1-0.7,0.16-1.06
			c0.2-1.08,0.47-2.15,0.81-3.19c0.34-0.93,0.62-1.88,0.85-2.85c0.1-0.38,0.17-0.75,0.26-1.13l0.06-0.29l0.06-0.37
			c0.03-0.23,0.05-0.47,0.06-0.71c0-1-0.06-2-0.18-3c-0.07-0.77-0.02-1.54-0.1-2.27L4.68,13.8c-0.04-0.52-0.08-1.01-0.07-1.49
			c-0.01-0.45,0.08-0.89,0.26-1.3c0.25-0.53,0.73-0.9,1.31-1.01c0.58-0.12,1.18-0.12,1.76-0.02c0.71,0.13,1.37,0.48,1.88,0.99
			c0.41,0.48,0.75,1.02,1.03,1.59c0.14,0.24,0.35,0.56,0.5,0.88c0.46,0.92,0.77,1.9,0.92,2.92c0.1,0.97,0.15,1.85,0.18,2.72
			l0.01,0.59c0,0.25-0.08,0.56-0.09,0.81c-0.01,0.17-0.02,0.31-0.02,0.46c-0.57,0.52-1.05,0.9-1.59,1.38
			c-0.15,0.13-0.31,0.28-0.48,0.43s-0.43,0.35-0.62,0.54c-0.31,0.32-0.83,1.1-0.71,1.56c0.13,0.5,0.2,0.83,0.63,1.08
			c0.36,0.08,0.73,0.1,1.1,0.03c0.34-0.05,0.66-0.44,0.85-0.7c0.16-0.23,0.34-0.44,0.54-0.64c0.17-0.17,0.33-0.33,0.5-0.5l1.68-1.71
			c0.69-0.7,1.37-1.4,2.08-2.07c0.58-0.54,1.25-1,1.81-1.57c0.23-0.24,0.54-0.59,0.82-0.89c0.82-0.84,1.5-1.7,2.44-2.51
			c0.83-0.72,1.54-1.4,2.23-2.07l1.71-1.67c0.7-0.68,1.4-1.35,2.13-2.01c0.6-0.53,1.28-0.98,1.84-1.53
			c0.24-0.23,0.55-0.57,0.84-0.86c0.78-0.83,1.62-1.61,2.52-2.31c0.86-0.61,1.62-1.15,2.38-1.59c0.58-0.36,1.2-0.64,1.86-0.83
			c0.65-0.22,1.35-0.14,1.94,0.21c0.34,0.25,0.61,0.58,0.81,0.95c0.04,0.07,0.09,0.14,0.13,0.21c0.1,0.2,0.15,0.42,0.14,0.64
			c-0.02,0.16-0.04,0.33-0.08,0.49c-0.06,0.23-0.14,0.46-0.23,0.68c-0.2,0.5-0.46,0.98-0.78,1.42c-0.61,0.83-1.19,1.59-1.77,2.33
			c-0.48,0.61-0.96,1.2-1.48,1.81c-0.63,0.73-1.26,1.46-1.95,2.14c-0.56,0.56-1.21,1.02-1.76,1.59c-0.23,0.24-0.53,0.59-0.81,0.89
			c-0.77,0.87-1.58,1.69-2.44,2.48c-0.83,0.7-1.56,1.36-2.27,2.02l-0.48,0.45c-0.2,0.19-0.5,0.38-0.71,0.57
			c-0.34,0.24-0.6,0.6-0.72,1c-0.18,0.56,0.05,1.17,0.56,1.47c0.25,0.11,0.53,0.15,0.8,0.09c0.1-0.02,0.2-0.04,0.3-0.07
			c0.31-0.14,0.58-0.36,0.78-0.63c0.09-0.1,0.18-0.19,0.29-0.27c0.3-0.23,0.6-0.46,0.91-0.71s0.66-0.54,1.04-0.91
			c0.72-0.68,2.06-2.2,2.78-2.87c0.51-0.46,1.07-0.87,1.57-1.34l0.21-0.18c0.1-0.09,0.18-0.18,0.28-0.27
			c0.11,0.02,0.21,0.03,0.31,0.04c0.22,0.02,0.43,0.07,0.64,0.15c0.17,0.07,0.33,0.14,0.49,0.23c0.51,0.25,0.94,0.63,1.28,1.08
			c0.39,0.59,0.59,1.28,0.56,1.99c-0.11,0.55-0.31,1.08-0.61,1.56c-0.11,0.24-0.28,0.59-0.46,0.89c-0.52,0.9-1.17,1.73-1.91,2.46
			l-2.08,1.89l-0.46,0.4c-0.2,0.17-0.48,0.33-0.68,0.5c-0.33,0.21-0.58,0.52-0.71,0.89c-0.19,0.54-0.01,1.14,0.44,1.5
			c0.24,0.14,0.51,0.2,0.79,0.17c0.1-0.01,0.2-0.02,0.3-0.04c0.31-0.12,0.59-0.31,0.8-0.57c0.09-0.09,0.19-0.18,0.29-0.25
			c0.31-0.21,0.6-0.42,0.92-0.66c0.36-0.28,0.71-0.57,1.03-0.89c0.47-0.46,0.91-0.95,1.33-1.46c0.48-0.57,0.94-1.17,1.25-1.55
			c0.2-0.25,0.42-0.49,0.63-0.74c0.08,0.03,0.16,0.06,0.23,0.08c0.19,0.04,0.37,0.12,0.54,0.22c0.14,0.08,0.26,0.18,0.4,0.27
			c0.4,0.29,0.75,0.65,1.02,1.06c0.29,0.47,0.39,1.04,0.28,1.58c-0.03,0.12-0.07,0.24-0.12,0.35c-0.04,0.12-0.1,0.24-0.15,0.35
			c-0.14,0.24-0.26,0.47-0.4,0.73c-0.05,0.11-0.11,0.24-0.17,0.38l-0.21,0.42c-0.42,0.81-0.94,1.56-1.54,2.24l-1.7,1.76l-0.37,0.38
			c-0.16,0.16-0.4,0.31-0.56,0.47c-0.28,0.2-0.47,0.5-0.54,0.84c-0.08,0.55,0.16,1.1,0.61,1.41c0.23,0.13,0.49,0.18,0.75,0.15
			c0.09-0.01,0.18-0.02,0.27-0.04c0.27-0.11,0.5-0.3,0.66-0.55c0.07-0.09,0.15-0.17,0.24-0.24c0.25-0.2,0.5-0.4,0.76-0.63
			c0.3-0.26,0.58-0.54,0.84-0.83c0.46-0.53,0.88-1.09,1.28-1.67c0.13,0.11,0.28,0.21,0.43,0.3c0.18,0.1,0.35,0.23,0.49,0.38
			c0.12,0.13,0.2,0.27,0.31,0.4c0.31,0.46,0.49,0.99,0.52,1.54C41.95,36.37,41.8,37.13,41.48,37.83L41.48,37.83z"/>
	</g>
	<g id="그룹_28263" transform="translate(5594.563 5656.624)">
		<path id="패스_23593" d="M2.92,29.81c3.3,6.44,14.43,3.75,25.82-3.98c9.96-6.76,14.48-14.44,11.41-20.06
			c-3.41-6.24-16.79-6.27-26.29,1.12S-1.74,20.71,2.92,29.81z"/>
		<path id="패스_23594" class="st0" d="M41.76,6.41c-0.32-1.03-0.86-1.97-1.59-2.76c-0.56-0.61-1.21-1.13-1.92-1.56
			c-0.84-0.5-1.73-0.91-2.65-1.23c-0.72-0.31-1.46-0.54-2.23-0.71c-0.32-0.06-0.77-0.08-1.16-0.11c-1.13-0.1-2.17,0.02-3.33,0
			c-0.96-0.01-1.92,0.07-2.87,0.23c-0.74,0.13-1.46,0.29-2.2,0.48c-0.89,0.22-1.76,0.52-2.63,0.79c-0.36,0.12-0.72,0.21-1.08,0.31
			c-0.36,0.1-0.71,0.23-1.06,0.38c-0.29,0.13-0.67,0.35-1,0.53c-0.98,0.52-1.81,1.13-2.81,1.69c-0.45,0.25-0.86,0.52-1.25,0.78
			s-0.77,0.55-1.1,0.83c-0.56,0.45-1.11,0.9-1.68,1.38L9.15,9.17c-0.56,0.46-1.21,0.84-1.73,1.35c-0.22,0.21-0.51,0.54-0.77,0.81
			c-0.76,0.77-1.36,1.6-2.17,2.43c-0.67,0.69-1.27,1.44-1.8,2.25c-0.42,0.64-0.8,1.31-1.14,2.01c-0.42,0.87-0.76,1.77-1.02,2.69
			C0.26,21.46,0.08,22.24,0,23.04c-0.01,0.41,0,0.81,0.04,1.22c0.13,1.15,0.36,2.28,0.7,3.39C1,28.6,1.36,29.52,1.81,30.39
			c0.4,0.76,0.93,1.44,1.56,2.03c1.44,1.19,3.17,1.98,5.01,2.29c0.4,0.03,0.81,0.03,1.21,0.02c1.12-0.07,2.24-0.2,3.35-0.39
			c0.95-0.12,1.89-0.32,2.81-0.61c0.71-0.22,1.4-0.47,2.11-0.74c0.85-0.33,1.68-0.69,2.51-1.04c0.7-0.23,1.38-0.5,2.05-0.81
			c0.27-0.15,0.64-0.36,0.96-0.56c0.94-0.52,1.74-1.14,2.75-1.66c0.82-0.43,1.62-0.91,2.39-1.43c0.6-0.4,1.19-0.82,1.79-1.26
			l2.15-1.62c0.62-0.4,1.22-0.83,1.79-1.29c0.23-0.21,0.53-0.52,0.79-0.79c0.78-0.76,1.41-1.57,2.23-2.37
			c0.68-0.67,1.3-1.4,1.86-2.18c0.44-0.62,0.85-1.26,1.22-1.92c0.46-0.83,0.86-1.69,1.21-2.57c0.34-0.72,0.6-1.48,0.76-2.26
			c0.05-0.41,0.07-0.82,0.07-1.24C42.38,8.76,42.16,7.56,41.76,6.41z M39.73,10.48c-0.02,0.07-0.03,0.14-0.04,0.21
			c-0.22,1.27-0.6,2.51-1.13,3.69c-0.41,0.75-0.92,1.45-1.5,2.08c-0.23,0.26-0.46,0.55-0.74,0.9c-0.66,0.93-1.38,1.8-2.17,2.62
			c-0.43,0.4-0.94,0.73-1.39,1.1l-0.19,0.14c-1.1,0.84-2.05,1.89-3.17,2.73c-0.73,0.52-1.5,0.99-2.29,1.39
			c-0.31,0.18-0.65,0.37-1.04,0.63c-0.72,0.47-2.13,1.54-2.9,1.92c-0.53,0.27-1.11,0.46-1.64,0.71l-0.22,0.09
			c-1.29,0.54-2.45,1.33-3.74,1.85c-0.82,0.32-1.67,0.55-2.54,0.71c-0.34,0.06-0.71,0.17-1.14,0.27c-0.4,0.11-1.01,0.29-1.62,0.44
			c-0.31,0.08-0.61,0.14-0.89,0.18c-0.24,0.05-0.49,0.07-0.74,0.08c-0.55-0.01-1.11-0.06-1.66-0.14c-0.07-0.01-0.14-0.03-0.21-0.04
			c-0.62-0.1-1.22-0.2-1.8-0.34c-0.58-0.12-1.12-0.37-1.6-0.71c-0.17-0.13-0.33-0.27-0.48-0.42c-0.12-0.15-0.23-0.29-0.33-0.44
			L4.3,29.69c-0.07-0.16-0.14-0.31-0.21-0.48c-0.12-0.32-0.28-0.65-0.45-1.05C3.48,27.8,3.21,27.25,3,26.68l-0.15-0.43
			c-0.04-0.14-0.08-0.28-0.12-0.41c-0.07-0.23-0.11-0.47-0.14-0.71c-0.03-0.54-0.02-1.09,0.05-1.63c0.01-0.07,0.02-0.14,0.03-0.21
			c0.07-0.62,0.15-1.24,0.25-1.87c0.1-0.64,0.28-1.27,0.52-1.87c0.36-0.77,0.82-1.48,1.38-2.12c0.2-0.27,0.44-0.56,0.7-0.92
			l0.99-1.37c0.34-0.46,0.71-0.89,1.11-1.3c0.43-0.41,0.92-0.75,1.37-1.14l0.19-0.15c1.08-0.88,2-1.97,3.08-2.89
			c0.7-0.57,1.44-1.09,2.21-1.57c0.3-0.21,0.61-0.41,0.97-0.69l0.6-0.46c0.23-0.18,0.48-0.38,0.74-0.56
			c0.45-0.34,0.93-0.65,1.43-0.92c0.53-0.26,1.09-0.43,1.63-0.65l0.22-0.08c1.28-0.46,2.48-1.15,3.81-1.53
			c0.84-0.22,1.71-0.35,2.58-0.39c0.34-0.04,0.72-0.06,1.16-0.13c0.41-0.05,1.04-0.15,1.66-0.22c0.31-0.03,0.63-0.05,0.92-0.07
			s0.55,0,0.75,0.01c0.57,0.05,1.13,0.21,1.68,0.31c0.08,0.01,0.15,0.04,0.22,0.06c1.28,0.2,2.53,0.56,3.72,1.06
			c0.69,0.37,1.29,0.9,1.74,1.54c0.1,0.12,0.19,0.25,0.27,0.38l0.15,0.2l0.14,0.23c0.28,0.4,0.51,0.84,0.71,1.29
			c0.21,0.46,0.33,0.95,0.37,1.45C39.92,9.44,39.86,9.97,39.73,10.48L39.73,10.48z"/>
	</g>
</g>
</svg>
