<?xml version="1.0" encoding="utf-8"?>
<!-- Generator: Adobe Illustrator 24.1.2, SVG Export Plug-In . SVG Version: 6.00 Build 0)  -->
<!DOCTYPE svg PUBLIC "-//W3C//DTD SVG 1.1//EN" "http://www.w3.org/Graphics/SVG/1.1/DTD/svg11.dtd" [
	<!ENTITY ns_extend "http://ns.adobe.com/Extensibility/1.0/">
	<!ENTITY ns_ai "http://ns.adobe.com/AdobeIllustrator/10.0/">
	<!ENTITY ns_graphs "http://ns.adobe.com/Graphs/1.0/">
	<!ENTITY ns_vars "http://ns.adobe.com/Variables/1.0/">
	<!ENTITY ns_imrep "http://ns.adobe.com/ImageReplacement/1.0/">
	<!ENTITY ns_sfw "http://ns.adobe.com/SaveForWeb/1.0/">
	<!ENTITY ns_custom "http://ns.adobe.com/GenericCustomNamespace/1.0/">
	<!ENTITY ns_adobe_xpath "http://ns.adobe.com/XPath/1.0/">
]>
<svg version="1.1" id="레이어_1" xmlns:x="&ns_extend;" xmlns:i="&ns_ai;" xmlns:graph="&ns_graphs;"
	 xmlns="http://www.w3.org/2000/svg" xmlns:xlink="http://www.w3.org/1999/xlink" x="0px" y="0px" viewBox="0 0 270.45 171.69"
	 style="enable-background:new 0 0 270.45 171.69;" xml:space="preserve">
<style type="text/css">
	.st0{fill:#202020;}
	.st1{fill:#FFCF4E;}
	.st2{fill:#FF7A00;}
	.st3{fill:#FFFFFF;}
	.st4{fill:#6BC16F;}
	.st5{opacity:0.5;}
	.st6{opacity:0.5;fill:#202020;enable-background:new    ;}
</style>
<metadata>
	<sfw  xmlns="&ns_sfw;">
		<slices></slices>
		<sliceSourceBounds  bottomLeftOrigin="true" height="171.69" width="270.45" x="547.81" y="-470.34"></sliceSourceBounds>
	</sfw>
</metadata>
<g id="그룹_26285" transform="translate(3864.581 1205.097)">
	<g id="그룹_26271">
		<path id="패스_21703" class="st0" d="M-3701.38-1057.69c-0.18-0.43-0.4-0.84-0.65-1.23c-0.25-0.39-0.54-0.75-0.87-1.07
			c-0.25-0.27-0.52-0.53-0.81-0.76c-0.6-0.57-1.28-1.04-2.02-1.42l-0.29-0.14c-0.85-0.38-1.76-0.6-2.69-0.66
			c-0.23-0.02-0.46-0.03-0.7-0.03c-0.24-0.01-0.48,0-0.72,0.02c-0.4,0.03-0.81,0.05-1.21,0.06c-1.03-0.01-2.06-0.07-3.08-0.18l0,0
			l-0.7-0.03l-0.79-0.01l-0.45,0.02l-0.53,0.03l-1.11,0.07h-0.02h-0.06l0,0h-0.03l-0.09,0.02l-0.08,0.02l-0.08,0.03l-0.07,0.03
			l-0.07,0.04l-0.06,0.04l-0.06,0.04l-0.05,0.05l-0.05,0.05l-0.05,0.05l-0.09,0.11l-0.04,0.06l-0.04,0.06l-0.06,0.12l-0.05,0.12
			l-0.04,0.12l-0.03,0.12l-0.02,0.11l-0.01,0.1l-0.01,0.18c-0.01,0.17-0.02,0.34-0.02,0.5c-0.01,0.16-0.02,0.31-0.03,0.45
			c-0.03,0.29-0.06,0.56-0.09,0.82c-0.07,0.52-0.13,0.99-0.2,1.52c-0.05,0.49-0.1,1.02-0.12,1.65c-0.04,1.18,0.07,3.59-0.02,4.76
			c-0.06,0.82-0.22,1.63-0.29,2.44c-0.01,0.11-0.02,0.22-0.04,0.33c-0.21,1.91-0.01,3.84-0.07,5.76c-0.05,1.55-0.23,2.47-0.36,3.66
			c-0.03,0.24-0.05,0.5-0.07,0.77s-0.09,0.66-0.11,0.98c-0.02,0.53,0.15,1.65,0.62,1.96c0.38,0.36,0.91,0.53,1.43,0.45
			c0.39-0.22,0.73-0.51,1-0.86c0.21-0.4,0.28-0.87,0.19-1.31c-0.04-0.33-0.05-0.67-0.04-1c0.01-0.28,0.03-0.56,0.04-0.84
			c0.04-0.95,0.06-1.9,0.09-2.88c0.04-1.18,0.07-2.35,0.16-3.53c0.01-0.11,0.02-0.22,0.03-0.32c0.26,0.03,0.52,0.02,0.77-0.03
			c0.13-0.02,0.27-0.02,0.4-0.01c0.39,0.03,0.74,0.08,1.17,0.1c0.5,0.02,1,0.01,1.49-0.04c0.72-0.08,1.44-0.21,2.15-0.39l0.01,0.01
			c0.11,0.13,0.21,0.28,0.27,0.44c0.05,0.14,0.11,0.27,0.17,0.4c0.2,0.45,0.4,0.9,0.6,1.36c0.24,0.56,0.5,1.11,0.7,1.68
			c0.16,0.47,0.19,0.99,0.39,1.44c0.09,0.19,0.23,0.44,0.35,0.67c0.36,0.63,0.67,1.29,0.93,1.97c0.18,0.61,0.4,1.2,0.65,1.78
			c0.05,0.13,0.11,0.25,0.16,0.38c0.07,0.16,0.08,0.39,0.16,0.55c0.12,0.26,0.15,0.45,0.56,0.57c0.6,0.13,1.24,0.01,1.75-0.33
			c0.23-0.15,0.41-0.35,0.55-0.58c0.04-0.07,0.07-0.15,0.1-0.22c0.09-0.24-0.07-0.42-0.18-0.6c-0.04-0.07-0.08-0.14-0.1-0.22
			c-0.06-0.23-0.1-0.46-0.17-0.7c-0.08-0.28-0.17-0.54-0.29-0.81c-0.24-0.56-0.92-1.62-1.12-2.19c-0.14-0.4-0.19-0.83-0.32-1.23
			c-0.01-0.06-0.03-0.11-0.04-0.16c-0.37-0.92-0.81-1.82-1.31-2.68c-0.24-0.59-0.42-1.2-0.54-1.82c-0.03-0.12-0.07-0.25-0.12-0.38
			c0-0.01-0.01-0.03-0.01-0.05c0.35-0.07,0.69-0.16,1.03-0.27l0.29-0.1c1.81-0.67,3.35-1.92,4.36-3.55l0.54-0.98
			c0.14-0.31,0.24-0.62,0.35-0.91l0.16-0.43l0.08-0.43c0.05-0.29,0.1-0.58,0.14-0.9c0.03-0.56-0.01-1.13-0.1-1.69
			C-3701.16-1056.98-3701.26-1057.34-3701.38-1057.69z M-3704.11-1054.07c-0.06,0.29-0.15,0.56-0.27,0.83
			c-0.32,0.69-0.82,1.28-1.46,1.7c-0.6,0.33-1.23,0.61-1.88,0.83c-0.27,0.13-0.64,0.31-0.99,0.45c-1.01,0.43-2.08,0.71-3.17,0.84
			c-1.04,0.07-1.99,0.14-2.88,0.17l-0.65,0.01c-0.28,0.01-0.63-0.07-0.92-0.06c-0.17,0-0.31,0.01-0.45,0.02c0-0.31,0-0.65-0.01-0.96
			c0.04-1.41-0.07-2.73,0.08-4.21c0.14-1.31,0.2-2.5,0.24-3.66c0.02-0.5,0.03-0.99,0.05-1.49v-0.06l0.01-0.06l0.02-0.05l0.02-0.05
			l0.03-0.04l0.04-0.04l0.04-0.03l0.04-0.03l0.05-0.02l0.05-0.02l0.06-0.02l0.06-0.01l0.06-0.01h0.24h1.22l2.42-0.04l1.48-0.02
			c0.43-0.03,0.86,0,1.29,0.07c0.67,0.17,1.32,0.39,1.95,0.67c0.31,0.1,0.62,0.21,0.93,0.34c0.84,0.33,1.53,0.95,1.93,1.76
			c0.27,0.74,0.41,1.53,0.42,2.31C-3704.07-1054.66-3704.05-1054.35-3704.11-1054.07z"/>
		<path id="패스_21704" class="st0" d="M-3679.23-1055.82c-0.18-0.4-0.38-0.79-0.61-1.17c-0.45-0.65-0.99-1.23-1.6-1.74
			c-0.57-0.54-1.22-0.99-1.91-1.35l-0.28-0.13c-0.8-0.36-1.67-0.56-2.54-0.6c-0.45-0.03-0.91-0.03-1.36,0
			c-0.38,0.04-0.75,0.07-1.13,0.09c-0.96,0.02-1.92-0.02-2.88-0.12l-0.7-0.02l-0.8,0.01l-0.45,0.03l-0.53,0.04l-1.11,0.1h-0.02
			l-0.06,0.01l0,0h-0.03l-0.09,0.02l-0.08,0.02l-0.08,0.03l-0.07,0.03l-0.07,0.04l-0.06,0.04l-0.06,0.05l-0.05,0.05l-0.05,0.05
			l-0.04,0.06l-0.08,0.11l-0.04,0.06l-0.03,0.06l-0.06,0.12l-0.04,0.12l-0.03,0.12l-0.02,0.12l-0.02,0.11l-0.01,0.1l-0.01,0.18
			c0,0.18-0.01,0.34-0.01,0.5s-0.01,0.31-0.02,0.45c-0.02,0.29-0.05,0.56-0.07,0.82c-0.06,0.52-0.11,0.99-0.17,1.53l0,0
			c-0.04,0.45-0.07,0.95-0.08,1.54c-0.01,1.09,0.16,3.34,0.1,4.43c-0.04,0.76-0.18,1.52-0.23,2.27c-0.01,0.1-0.02,0.21-0.03,0.3
			c-0.16,1.78,0.09,3.57,0.07,5.36c-0.01,1.44-0.17,2.3-0.27,3.41c-0.02,0.23-0.04,0.46-0.05,0.72s-0.08,0.62-0.08,0.92
			c-0.01,0.49,0.19,1.53,0.67,1.81c0.4,0.33,0.92,0.47,1.44,0.39c0.38-0.21,0.71-0.48,0.98-0.82c0.2-0.37,0.26-0.81,0.15-1.22
			c-0.05-0.31-0.07-0.62-0.06-0.93c0.01-0.26,0.01-0.53,0.01-0.79c0.01-0.89,0.01-1.77,0.02-2.68c0.01-1.09,0.01-2.19,0.07-3.28
			c0-0.1,0.02-0.2,0.03-0.31c0.21,0.01,0.42-0.01,0.63-0.05c0.12-0.02,0.25-0.03,0.37-0.02c0.36,0.03,0.7,0.06,1.1,0.07
			c0.47,0.01,0.94-0.01,1.4-0.06c0.67-0.09,1.33-0.23,1.98-0.41c0.1,0.11,0.18,0.23,0.24,0.35c0.05,0.13,0.11,0.25,0.17,0.37
			c0.19,0.42,0.4,0.83,0.6,1.26c0.24,0.52,0.5,1.03,0.7,1.56c0.16,0.44,0.19,0.93,0.39,1.35c0.09,0.18,0.23,0.41,0.35,0.62
			c0.36,0.58,0.67,1.19,0.92,1.82c0.18,0.57,0.39,1.12,0.65,1.66c0.05,0.12,0.11,0.23,0.16,0.35c0.07,0.15,0.08,0.36,0.16,0.51
			c0.12,0.24,0.15,0.42,0.56,0.52c0.61,0.09,1.23-0.05,1.74-0.39c0.22-0.15,0.41-0.35,0.54-0.58c0.04-0.07,0.07-0.14,0.1-0.21
			c0.09-0.23-0.07-0.4-0.18-0.56c-0.04-0.06-0.08-0.13-0.1-0.21c-0.06-0.22-0.1-0.43-0.17-0.65c-0.08-0.26-0.17-0.51-0.28-0.75
			c-0.24-0.52-0.91-1.49-1.11-2.03c-0.14-0.37-0.18-0.78-0.32-1.16c-0.01-0.05-0.03-0.1-0.04-0.15c-0.37-0.86-0.8-1.68-1.3-2.48
			c-0.23-0.55-0.41-1.12-0.54-1.7c-0.03-0.1-0.06-0.2-0.1-0.3c0.27-0.06,0.54-0.14,0.81-0.22l0.27-0.1c1.69-0.66,3.11-1.86,4.06-3.4
			c0.34-0.56,0.62-1.16,0.83-1.79c0.2-0.54,0.32-1.1,0.36-1.67c0.03-0.54,0-1.07-0.09-1.6
			C-3678.99-1055.08-3679.1-1055.44-3679.23-1055.82z M-3682.2-1051.67c-0.28,0.64-0.74,1.18-1.33,1.57
			c-0.55,0.31-1.13,0.57-1.73,0.79c-0.24,0.13-0.59,0.3-0.91,0.44c-0.93,0.42-1.91,0.71-2.92,0.85c-0.96,0.08-1.85,0.17-2.67,0.21
			l-0.61,0.03c-0.26,0.01-0.59-0.05-0.86-0.04c-0.12,0.01-0.22,0.01-0.32,0.02c-0.01-0.22-0.02-0.45-0.02-0.66
			c0-1.31-0.14-2.54-0.02-3.92c0.1-1.22,0.14-2.32,0.15-3.41c0-0.5,0.01-0.99,0.01-1.49v-0.06l0.01-0.06l0.02-0.05l0.02-0.05
			l0.03-0.04l0.04-0.04l0.04-0.03l0.04-0.03l0.05-0.03l0.05-0.02l0.06-0.02l0.06-0.01l0.06-0.01l0.21-0.01h0.03l1.22-0.03l2.25-0.1
			l1.38-0.06l0.34-0.01c0.08,0,0.16,0,0.24,0c0.19,0.01,0.39,0.03,0.58,0.07c0.61,0.15,1.21,0.36,1.79,0.62
			c0.25,0.07,0.57,0.19,0.85,0.3c0.76,0.3,1.39,0.87,1.75,1.6c0.25,0.68,0.38,1.39,0.38,2.12
			C-3681.87-1052.7-3681.98-1052.17-3682.2-1051.67z"/>
		<path id="패스_21705" class="st0" d="M-3724.63-1054.46c-0.29-0.71-0.62-1.31-0.89-1.88l-0.2-0.44l-0.31-0.62
			c-0.23-0.42-0.51-0.82-0.83-1.18c-0.54-0.62-1.2-1.11-1.95-1.43c-0.64-0.29-1.32-0.49-2.01-0.6c-0.3-0.05-0.59-0.09-0.88-0.11
			c-0.37-0.04-0.82-0.14-1.19-0.14c-0.46-0.05-0.93,0.03-1.35,0.23c-0.09-0.07-0.18-0.12-0.27-0.17c-0.49-0.16-1.03-0.14-1.5,0.07
			c-0.37,0.13-0.72,0.24-1.08,0.36c-0.31,0.09-0.6,0.19-0.9,0.31c-1,0.4-1.94,0.93-2.81,1.57c-1.13,0.84-2.03,1.95-2.63,3.22
			c-0.51,0.96-0.87,1.98-1.07,3.05c-0.07,0.52-0.1,1.04-0.11,1.56c-0.02,1.48,0.05,2.97,0.23,4.44c0.08,1.36,0.4,2.69,0.96,3.94
			c0.53,1.12,1.37,2.06,2.44,2.7c1.18,0.63,2.44,1.07,3.76,1.3c1,0.28,2.02,0.45,3.05,0.5c0.53-0.01,1.05-0.05,1.57-0.11
			c1.64-0.17,3.22-0.72,4.61-1.61c1.26-0.83,2.21-2.06,2.7-3.49c0.34-0.98,0.59-1.98,0.75-3c0.21-1.17,0.37-2.38,0.47-3.63
			c0.17-1.08,0.18-2.17,0.01-3.25C-3724.21-1053.43-3724.4-1053.95-3724.63-1054.46z M-3728.77-1043c-0.3,0.48-0.68,0.9-1.13,1.24
			c-0.5,0.37-1.08,0.62-1.7,0.75c-0.7,0.09-1.41,0.1-2.11,0.04l-0.29-0.02c-0.85-0.07-1.7-0.1-2.55-0.2
			c-0.83-0.07-1.65-0.25-2.43-0.54c-0.44-0.18-0.84-0.46-1.14-0.83c-0.24-0.31-0.42-0.66-0.55-1.03c-0.13-0.34-0.25-0.74-0.4-1.27
			c-0.42-1.37-0.65-2.8-0.69-4.23c0.06-0.74,0.16-1.48,0.32-2.2l0.06-0.29c0.38-1.65,0.62-3.2,1.75-4.23
			c0.79-0.67,1.72-1.15,2.73-1.41l0.62-0.18c0.22-0.06,0.55-0.09,0.81-0.14c0.41-0.11,0.81-0.27,1.17-0.5
			c0.08,0.05,0.16,0.09,0.25,0.13c0.36,0.11,0.73,0.13,1.1,0.06c0.14-0.02,0.28-0.01,0.42,0.01c0.39,0.06,0.78,0.14,1.16,0.24
			c0.42,0.1,0.82,0.23,1.22,0.39c0.5,0.16,0.95,0.43,1.33,0.8c0.08,0.11,0.19,0.21,0.26,0.33l0.21,0.38l0.44,1.02
			c0.27,0.69,0.48,1.4,0.64,2.12l0.04,0.26c0.06,0.36,0.1,0.73,0.12,1.1c0.03,0.42,0.05,0.84,0.06,1.27
			c0.02,0.89-0.03,1.78-0.16,2.66c-0.16,1.1-0.48,2.17-0.96,3.17C-3728.34-1043.73-3728.55-1043.35-3728.77-1043L-3728.77-1043z"/>
		<path id="패스_21706" class="st0" d="M-3749.52-1048c-0.82-0.52-1.72-0.91-2.67-1.14c-0.84-0.27-1.69-0.48-2.56-0.63l-0.34-0.06
			c-0.93-0.12-1.86-0.18-2.8-0.18c-0.86-0.03-1.71-0.16-2.53-0.39c-0.98-0.29-1.88-0.82-2.61-1.54c-0.28-0.26-0.52-0.55-0.73-0.86
			c-0.29-0.38-0.47-0.84-0.5-1.33c-0.02-0.3,0-0.6,0.06-0.89c0.09-0.3,0.2-0.57,0.28-0.78c0.3-0.46,0.72-0.83,1.21-1.07
			c0.07-0.04,0.14-0.08,0.21-0.11c1.48-0.74,3.09-1.22,4.74-1.4c1.15-0.08,2.3-0.03,3.44,0.14l0.73,0.07
			c0.26,0.02,0.63,0.1,0.92,0.13c0.68,0.08,1.35-0.11,1.9-0.51c0.38-0.35,0.59-0.86,0.58-1.38c-0.18-0.41-0.45-0.78-0.78-1.07
			c-0.4-0.24-0.87-0.34-1.33-0.26c-0.34,0.03-0.68,0.03-1.02,0.01l-0.86-0.04c-0.98-0.03-1.95-0.02-2.97,0.04
			c-1.24,0.07-2.48,0.23-3.69,0.48c-1.09,0.14-2.15,0.47-3.13,0.96c-0.53,0.31-1.01,0.7-1.43,1.15c-0.64,0.65-1.1,1.45-1.34,2.32
			c-0.29,0.86-0.43,1.76-0.42,2.66c0.04,0.85,0.29,1.68,0.73,2.42c0.19,0.34,0.42,0.66,0.69,0.94c0.24,0.27,0.5,0.53,0.79,0.75
			c0.87,0.68,1.85,1.22,2.89,1.6c1.2,0.42,2.44,0.73,3.7,0.9l1.5,0.25c0.45,0.07,0.9,0.15,1.34,0.18c0.37,0.03,0.89,0.05,1.33,0.1
			c0.59,0.06,1.18,0.17,1.76,0.31c0.49,0.1,0.94,0.33,1.3,0.67c0.49,0.59,0.68,1.36,0.53,2.11c-0.07,0.71-0.31,1.38-0.7,1.97
			c-0.52,0.78-1.24,1.4-2.08,1.81c-0.76,0.31-1.55,0.55-2.35,0.72c-0.33,0.11-0.82,0.22-1.25,0.35c-1.26,0.31-2.56,0.45-3.86,0.43
			l-3.48-0.21c-0.2-0.02-0.39-0.04-0.58-0.08c-0.27-0.08-0.54-0.18-0.8-0.29c-0.34-0.19-0.73-0.27-1.12-0.23
			c-0.66,0.03-1.25,0.41-1.56,1c-0.09,0.35-0.04,0.72,0.14,1.03c0.07,0.13,0.14,0.25,0.23,0.36c0.35,0.35,0.79,0.59,1.28,0.68
			c0.18,0.05,0.36,0.1,0.54,0.17c0.52,0.2,1.06,0.34,1.62,0.42c0.55,0.06,1.03,0.11,1.69,0.14c0.81,0.02,1.62-0.01,2.43-0.07
			l2.46-0.24c0.43-0.04,0.86-0.06,1.29-0.08c0.43-0.05,0.87-0.1,1.3-0.18c0.12-0.01,0.23-0.03,0.35-0.06
			c2.15-0.48,4.09-1.65,5.52-3.33c1.02-1.11,1.71-2.48,1.98-3.97c0.13-0.72,0.11-1.47-0.06-2.18
			C-3747.91-1046.4-3748.58-1047.36-3749.52-1048z"/>
		<path id="패스_21707" class="st0" d="M-3656.04-1057.96c-0.18-0.46-0.49-0.86-0.87-1.17c-0.32-0.16-0.67-0.27-1.03-0.32
			c-0.3-0.04-0.49,0.23-0.6,0.43c-0.09,0.16-0.2,0.32-0.33,0.45c-0.11,0.11-0.22,0.22-0.32,0.33c-0.36,0.38-0.72,0.76-1.09,1.15
			c-0.45,0.47-0.88,0.95-1.36,1.38c-0.39,0.35-0.89,0.6-1.24,0.99c-0.15,0.16-0.34,0.41-0.51,0.62c-0.48,0.61-0.99,1.18-1.55,1.72
			c-0.52,0.43-1.01,0.89-1.47,1.38c-0.1,0.1-0.2,0.21-0.3,0.31c-0.07,0.07-0.14,0.13-0.22,0.18c-0.02-0.03-0.04-0.06-0.06-0.09
			c-0.19-0.26-0.4-0.51-0.62-0.74c-0.47-0.5-1.57-1.38-2.01-1.91c-0.3-0.37-0.53-0.8-0.83-1.17l-0.11-0.16
			c-0.75-0.83-1.55-1.62-2.4-2.34c-0.48-0.53-0.91-1.1-1.29-1.7c-0.08-0.11-0.17-0.23-0.27-0.35s-0.21-0.33-0.34-0.46
			c-0.33-0.34-0.82-0.48-1.28-0.35c-0.47,0.15-0.9,0.43-1.22,0.81c-0.18,0.32-0.3,0.67-0.36,1.03c-0.05,0.3,0.22,0.53,0.43,0.65
			c0.17,0.1,0.32,0.23,0.45,0.37c0.11,0.12,0.22,0.24,0.33,0.36c0.38,0.41,0.76,0.8,1.16,1.21c0.47,0.5,0.95,0.98,1.39,1.51
			c0.36,0.43,0.6,0.96,0.99,1.36c0.16,0.17,0.41,0.38,0.62,0.58c0.61,0.54,1.19,1.12,1.73,1.73c0.43,0.57,0.89,1.11,1.38,1.63
			c0.1,0.11,0.21,0.22,0.32,0.33c0.14,0.14,0.25,0.37,0.38,0.51c0.04,0.04,0.07,0.07,0.1,0.11c0,0.02,0.01,0.03,0.01,0.05
			c0,0.16,0,0.32,0,0.48c0.01,0.54,0.03,1.08,0.04,1.64c0.01,0.67,0.04,1.34,0.01,2.01c-0.02,0.55-0.2,1.09-0.18,1.63
			c0.01,0.23,0.05,0.55,0.07,0.83c0.09,0.79,0.13,1.59,0.12,2.39c-0.06,0.69-0.09,1.39-0.07,2.08c0,0.15,0.01,0.3,0.01,0.45
			c0,0.19-0.07,0.43-0.06,0.62c-0.05,0.31,0.06,0.62,0.3,0.82c0.5,0.38,1.14,0.52,1.75,0.4c0.27-0.06,0.52-0.19,0.73-0.37
			c0.06-0.06,0.12-0.12,0.18-0.18c0.17-0.21,0.09-0.46,0.06-0.68c-0.02-0.09-0.02-0.18-0.01-0.27c0.04-0.26,0.07-0.51,0.1-0.78
			c0.03-0.31,0.05-0.63,0.04-0.94c-0.01-0.67-0.24-2.04-0.21-2.7c0.02-0.46,0.14-0.93,0.17-1.39c0.01-0.06,0.01-0.13,0.02-0.19
			c0-1.09-0.06-2.19-0.2-3.27c0.01-0.7,0.07-1.4,0.18-2.08c0.01-0.14,0.03-0.28,0.03-0.44c0-0.1,0.02-0.22,0.04-0.35
			c0.11-0.1,0.21-0.21,0.29-0.34c0.05-0.07,0.11-0.14,0.18-0.19c0.2-0.15,0.4-0.3,0.61-0.46c0.24-0.19,0.46-0.39,0.67-0.61
			c0.45-0.47,1.22-1.56,1.7-2c0.33-0.3,0.74-0.53,1.07-0.83l0.14-0.11c0.75-0.75,1.45-1.54,2.09-2.38c0.48-0.48,1-0.91,1.55-1.3
			c0.1-0.08,0.21-0.18,0.32-0.28s0.3-0.21,0.43-0.34C-3655.98-1057.04-3655.88-1057.53-3656.04-1057.96z"/>
	</g>
	<g id="그룹_26273">
		<g id="그룹_26272">
			<path id="패스_21708" class="st1" d="M-3800.56-1058.71l-10.43,18.06c-1.01,1.75-0.41,3.99,1.34,5
				c0.56,0.32,1.19,0.49,1.83,0.49h20.85c2.02,0,3.66-1.64,3.66-3.66c0-0.64-0.17-1.28-0.49-1.83l-10.43-18.06
				c-1.01-1.75-3.25-2.35-5-1.34C-3799.78-1059.73-3800.24-1059.26-3800.56-1058.71z"/>
			<path id="패스_21709" class="st0" d="M-3781.81-1039.51c-0.06-0.38-0.15-0.76-0.29-1.12c-0.06-0.18-0.14-0.35-0.23-0.52
				l-0.13-0.26l-0.1-0.18c-0.42-0.78-0.7-1.63-1.15-2.38c-0.19-0.32-0.49-0.74-0.74-1.12c-0.67-1.11-1.44-2.06-2.04-3.29
				c-0.54-1.08-1.07-2.04-1.62-2.96c-0.45-0.75-0.9-1.49-1.36-2.27c-0.55-0.93-1.12-1.85-1.64-2.8c-0.42-0.78-0.7-1.63-1.15-2.38
				c-0.22-0.34-0.41-0.66-0.86-1.26c-1.2-1.45-3.05-2.2-4.92-1.98c-1.64,0.14-3.1,1.09-3.91,2.52c-0.43,0.77-0.84,1.53-1.28,2.32
				c-0.53,0.94-1.04,1.9-1.61,2.82c-0.46,0.75-1.07,1.42-1.49,2.19c-0.18,0.33-0.4,0.79-0.6,1.2c-0.62,1.14-1.07,2.28-1.83,3.42
				c-0.67,1.01-1.23,1.95-1.75,2.88l-1.28,2.32c-0.27,0.5-0.5,0.84-0.85,1.63c-0.28,0.72-0.4,1.49-0.36,2.27
				c0,1.29,0.5,2.53,1.38,3.48c0.48,0.45,1.04,0.8,1.65,1.05c0.43,0.18,0.88,0.3,1.35,0.35c0.23,0.03,0.45,0.02,0.68,0.03
				c0.25,0,0.34-0.02,0.52-0.02c0.65-0.05,1.31-0.05,1.96-0.02c1.21,0.08,2.3,0.09,3.37,0.07l2.65-0.05
				c1.08-0.02,2.17-0.05,3.25-0.02c0.88,0.03,1.76,0.21,2.64,0.19c0.37-0.01,0.88-0.05,1.34-0.08c1.29-0.03,2.5-0.21,3.87-0.13
				l0.89,0.05l0.43,0.02c0.13,0.01,0.38-0.01,0.56-0.02c0.79-0.06,1.55-0.3,2.23-0.71c1.08-0.67,1.89-1.72,2.27-2.93
				C-3781.77-1037.95-3781.7-1038.74-3781.81-1039.51z M-3786.72-1036.89c-0.08,0.01-0.17,0.02-0.25,0.03l-0.53,0.03l-1.2,0.09
				c-0.82,0.06-1.65,0.11-2.19,0.09c-0.75-0.02-1.5-0.15-2.25-0.18l-0.3-0.02c-1.76-0.12-3.53,0.19-5.29,0.22
				c-1.13-0.01-2.25-0.07-3.37-0.2c-0.45-0.03-0.94-0.05-1.52-0.04c-0.54,0.01-1.36,0.07-2.19,0.13l-1.2,0.08l-0.53,0.02
				c-0.13,0.01-0.25,0.01-0.38-0.01c-0.42-0.07-0.81-0.28-1.11-0.59l-0.1-0.13c-0.32-0.36-0.55-0.78-0.68-1.25
				c-0.06-0.24-0.08-0.49-0.04-0.74c0.02-0.13,0.05-0.25,0.1-0.38c0.03-0.07,0.04-0.11,0.08-0.2l0.16-0.29
				c0.57-0.97,1.19-1.91,1.86-2.82c0.25-0.37,0.51-0.79,0.8-1.3c0.53-0.94,1.42-2.98,1.99-3.9c0.4-0.64,0.89-1.22,1.28-1.86
				l0.17-0.25c0.99-1.47,1.6-3.15,2.46-4.69c0.57-0.97,1.19-1.92,1.86-2.82c0.17-0.21,0.36-0.41,0.57-0.58
				c0.31-0.26,0.68-0.43,1.07-0.5c0.42-0.08,0.86,0,1.23,0.23c0.18,0.13,0.33,0.29,0.43,0.49c0.13,0.26,0.25,0.51,0.38,0.76
				l0.13,0.27c0.77,1.59,1.93,2.96,2.83,4.48c0.56,0.98,1.06,1.99,1.52,3.02c0.2,0.4,0.42,0.84,0.72,1.34
				c0.55,0.93,1.87,2.72,2.38,3.67c0.36,0.66,0.62,1.38,0.97,2.04l0.13,0.27c0.4,0.79,0.86,1.55,1.37,2.27l0.29,0.43
				c0.07,0.11,0.13,0.22,0.18,0.34c0.09,0.24,0.13,0.5,0.11,0.76c-0.08,0.67-0.52,1.23-1.15,1.47
				C-3786.2-1037.02-3786.46-1036.94-3786.72-1036.89L-3786.72-1036.89z"/>
		</g>
		<path id="패스_21710" class="st0" d="M-3795.88-1048.85c0.01-0.04,0.01-0.08,0.02-0.13c0-0.74-0.07-1.48-0.22-2.2
			c0.01-0.47,0.07-0.94,0.2-1.4c0.01-0.09,0.03-0.19,0.04-0.3c0.03-0.12,0.05-0.25,0.06-0.38c-0.08-0.38-0.39-0.68-0.77-0.74
			c-0.51-0.14-1.03-0.19-1.55-0.15c-0.36,0.07-0.7,0.19-1.03,0.35c-0.26,0.13-0.2,0.36-0.13,0.51c0.06,0.12,0.09,0.25,0.09,0.38
			c0,0.11,0,0.22,0,0.32c0.01,0.36,0.03,0.73,0.05,1.1c0.03,0.45,0.03,0.9,0.01,1.35c-0.09,0.36-0.15,0.73-0.19,1.1
			c0.01,0.15,0.05,0.37,0.08,0.56c0.1,0.53,0.14,1.07,0.13,1.61c-0.07,0.46-0.09,0.93-0.07,1.4c0,0.1,0.01,0.2,0.01,0.3
			c0.01,0.13-0.07,0.29-0.06,0.42c0.01,0.21-0.03,0.35,0.33,0.55c0.59,0.26,1.24,0.35,1.88,0.27c0.27-0.03,0.54-0.12,0.78-0.25
			c0.07-0.04,0.13-0.08,0.19-0.12c0.18-0.14,0.1-0.31,0.06-0.46c-0.02-0.06-0.02-0.12-0.01-0.18c0.04-0.17,0.08-0.34,0.11-0.53
			c0.04-0.21,0.05-0.42,0.04-0.63c-0.02-0.45-0.26-1.37-0.23-1.82C-3796.04-1048.22-3795.91-1048.54-3795.88-1048.85z"/>
		<path id="패스_21711" class="st0" d="M-3795.3-1041.78c-0.4-0.59-1.03-0.97-1.73-1.07c-0.66-0.07-1.33,0.09-1.89,0.46
			c-0.62,0.35-1.06,0.94-1.23,1.63c-0.02,0.09-0.04,0.19-0.05,0.29c-0.08,0.88,0.34,1.72,1.09,2.18c0.7,0.43,1.57,0.51,2.34,0.21
			c0.51-0.19,0.96-0.51,1.3-0.94c0.31-0.39,0.5-0.86,0.54-1.35C-3794.9-1040.87-3795.03-1041.36-3795.3-1041.78z"/>
	</g>
	<g id="그룹_26274">
		<path id="패스_21712" class="st2" d="M-3691.71-1091.54c0,0-4.02-17.2-15.44-28.97c-5.83-6.01-26.6-6.87-36.43-1.92
			c-3.28,1.72-5.95,4.41-7.65,7.7c-7.9,17.1-6.61,23.19-6.61,23.19"/>
		<path id="패스_21713" class="st0" d="M-3690.8-1094.33c-0.15-0.32-0.29-0.66-0.4-1c-0.09-0.29-0.19-0.58-0.28-0.86
			c-0.34-0.97-0.68-1.92-1.07-2.89c-0.45-1.18-0.96-2.33-1.42-3.5c-0.39-0.95-0.63-1.97-1.1-2.88c-0.2-0.39-0.49-0.91-0.74-1.37
			c-0.73-1.33-1.52-2.5-2.26-3.91c-0.61-1.17-1.28-2.3-2.02-3.39c-0.59-0.85-1.21-1.65-1.83-2.51c-0.8-0.99-1.59-1.98-2.41-2.95
			c-0.34-0.39-0.65-0.81-0.97-1.23c-0.31-0.45-0.68-0.86-1.09-1.21c-0.45-0.39-0.93-0.74-1.45-1.04c-0.68-0.42-1.41-0.78-2.16-1.07
			c-0.73-0.29-1.46-0.6-2.23-0.87c-1.25-0.49-2.55-0.88-3.87-1.14c-1.03-0.16-2.04-0.39-3.1-0.48l-1.9-0.21
			c-0.63-0.04-1.27-0.09-1.9-0.15c-1.03-0.15-2.06-0.25-3.09-0.3c-0.44-0.01-1.04,0.05-1.57,0.09c-1.52,0.04-2.93,0.33-4.53,0.37
			c-1.33,0.07-2.64,0.24-3.95,0.5c-1.02,0.17-2.02,0.45-3.06,0.73c-0.63,0.14-1.24,0.38-1.85,0.59c-0.63,0.2-1.24,0.42-1.84,0.68
			c-0.5,0.21-1.02,0.36-1.53,0.57c-0.52,0.21-1.01,0.47-1.48,0.77c-0.46,0.32-0.9,0.66-1.32,1.03c-1.19,1.06-2.29,2.21-3.3,3.44
			c-0.94,1.05-1.71,2.25-2.27,3.54l-1.21,2.81l-1.41,3.48c-0.39,0.95-0.94,1.83-1.24,2.81c-0.13,0.41-0.3,0.99-0.44,1.49
			c-0.44,1.45-0.69,2.85-1.17,4.38c-0.4,1.27-0.69,2.58-0.88,3.9c-0.05,0.29-0.08,0.58-0.11,0.87c-0.04,0.37-0.17,0.83-0.18,1.21
			c-0.11,0.57-0.01,1.16,0.26,1.67c0.19,0.33,0.49,0.58,0.85,0.71c0.33,0.1,0.68,0.07,0.98-0.1c0.28-0.15,0.53-0.38,0.7-0.65
			c0.06-0.1,0.12-0.2,0.18-0.3c0.12-0.37,0.16-0.76,0.11-1.15c-0.01-0.15,0-0.31,0.02-0.46c0.09-0.44,0.17-0.87,0.28-1.34
			c0.1-0.48,0.21-1,0.34-1.62c0.24-1.6,0.58-3.19,1.01-4.74c0.27-0.8,0.64-1.56,0.95-2.34l0.13-0.31c0.76-1.82,1.22-3.78,1.97-5.63
			c0.5-1.17,1.07-2.31,1.71-3.41c0.24-0.49,0.44-0.82,0.75-1.36c0.73-1.34,1.66-2.57,2.75-3.64c0.62-0.49,1.27-0.94,1.95-1.34
			l0.27-0.16c0.78-0.46,1.56-0.89,2.41-1.31c0.84-0.45,1.72-0.82,2.62-1.12c1.19-0.34,2.41-0.56,3.64-0.65
			c0.49-0.05,1.01-0.16,1.66-0.24c0.59-0.07,1.48-0.27,2.39-0.41c0.91-0.12,1.82-0.24,2.42-0.26c0.84,0,1.68,0.11,2.51,0.11
			l0.33,0.03c1.95,0.15,3.93-0.06,5.88,0.16c1.23,0.15,2.45,0.41,3.64,0.77c0.48,0.12,0.98,0.29,1.6,0.43
			c0.58,0.11,1.43,0.34,2.29,0.57c0.74,0.21,1.47,0.48,2.17,0.81c0.33,0.2,0.64,0.44,0.94,0.66l0.46,0.34
			c0.13,0.13,0.25,0.26,0.38,0.37l0.2,0.2c0.15,0.15,0.3,0.26,0.46,0.43l0.49,0.54c0.33,0.35,0.68,0.7,1.03,1.04
			c0.7,0.68,1.37,1.41,1.99,2.17c0.76,1,1.44,2.05,2.04,3.15c0.24,0.44,0.52,0.91,0.88,1.45c0.34,0.49,0.86,1.25,1.36,2.03
			c0.47,0.67,0.89,1.37,1.26,2.1c0.38,0.75,0.66,1.55,0.98,2.33l0.13,0.31c0.76,1.82,1.78,3.53,2.54,5.36
			c0.45,1.18,0.82,2.39,1.1,3.62l0.21,0.77c0.08,0.27,0.15,0.67,0.24,0.98c0.17,0.52,0.69,1.54,1.24,1.7
			c0.48,0.24,1.04,0.25,1.53,0.03c0.32-0.34,0.55-0.75,0.7-1.19C-3690.45-1093.41-3690.55-1093.91-3690.8-1094.33z"/>
	</g>
	<path id="패스_21714" class="st0" d="M-3594.16-1092.88c-0.22-0.38-0.51-0.71-0.85-0.98c-0.38-0.2-0.83-0.24-1.24-0.13
		c-0.31,0.06-0.62,0.09-0.94,0.09c-0.27,0-0.53,0-0.8,0c-0.9,0.01-1.79,0.03-2.71,0.05c-1.11,0.02-2.22,0.05-3.32,0.01
		c-0.9-0.03-1.8-0.2-2.7-0.18c-0.38,0.01-0.9,0.05-1.37,0.07c-1.33,0.03-2.56,0.2-3.96,0.12c-1.24-0.07-2.35-0.08-3.45-0.07
		c-0.9,0.01-1.79,0.03-2.71,0.05c-1.11,0.02-2.22,0.05-3.32,0.01c-0.9-0.03-1.81-0.2-2.7-0.18c-0.38,0.01-0.9,0.05-1.37,0.07
		c-1.33,0.03-2.56,0.2-3.96,0.12c-1.24-0.07-2.35-0.08-3.45-0.07c-0.9,0.01-1.79,0.03-2.71,0.05c-1.11,0.02-2.22,0.05-3.32,0.01
		c-0.9-0.03-1.81-0.2-2.7-0.18c-0.38,0.01-0.9,0.05-1.37,0.07c-1.33,0.03-2.56,0.2-3.96,0.12c-1.24-0.07-2.35-0.08-3.45-0.07
		c-0.9,0.01-1.79,0.03-2.71,0.05c-1.11,0.02-2.22,0.05-3.32,0.01c-0.9-0.03-1.81-0.2-2.7-0.18c-0.38,0.01-0.91,0.05-1.37,0.07
		c-1.33,0.03-2.56,0.2-3.96,0.12c-1.24-0.07-2.35-0.08-3.45-0.07c-0.9,0.01-1.79,0.03-2.71,0.05c-1.11,0.02-2.22,0.05-3.32,0.01
		c-0.9-0.03-1.81-0.2-2.7-0.18c-0.38,0.01-0.9,0.05-1.37,0.07c-1.33,0.03-2.56,0.2-3.96,0.12c-1.24-0.07-2.35-0.08-3.45-0.07
		c-0.9,0.01-1.79,0.03-2.71,0.05c-1.11,0.02-2.22,0.05-3.32,0.01c-0.9-0.03-1.81-0.2-2.7-0.18c-0.38,0.01-0.91,0.05-1.37,0.07
		c-1.33,0.03-2.56,0.2-3.96,0.12c-1.24-0.07-2.35-0.08-3.45-0.07c-0.9,0.01-1.79,0.03-2.71,0.05c-1.11,0.02-2.22,0.05-3.32,0.01
		c-0.9-0.03-1.81-0.2-2.7-0.18c-0.38,0.01-0.9,0.05-1.37,0.07c-1.33,0.03-2.56,0.2-3.96,0.12c-1.24-0.07-2.35-0.08-3.45-0.07
		c-0.9,0.01-1.79,0.03-2.71,0.05c-1.11,0.02-2.22,0.05-3.32,0.01c-0.9-0.03-1.81-0.2-2.7-0.18c-0.38,0.01-0.9,0.05-1.37,0.07
		c-1.32,0.03-2.56,0.2-3.96,0.12c-1.24-0.07-2.35-0.08-3.45-0.07c-0.9,0.01-1.79,0.03-2.71,0.05c-1.11,0.02-2.22,0.05-3.32,0.01
		c-0.9-0.03-1.8-0.2-2.7-0.18c-0.38,0.01-0.9,0.05-1.37,0.07c-1.33,0.03-2.56,0.2-3.96,0.12c-1.24-0.07-2.35-0.08-3.45-0.07
		c-0.9,0.01-1.79,0.03-2.71,0.05c-1.11,0.02-2.22,0.05-3.32,0.01c-0.9-0.03-1.81-0.2-2.7-0.18c-0.38,0.01-0.9,0.05-1.37,0.07
		c-1.33,0.03-2.56,0.2-3.96,0.12c-1.24-0.07-2.35-0.08-3.45-0.07c-0.9,0.01-1.79,0.03-2.71,0.05c-1.11,0.02-2.22,0.05-3.32,0.01
		c-0.9-0.03-1.81-0.2-2.7-0.18c-0.38,0.01-0.9,0.05-1.37,0.07c-1.33,0.03-2.56,0.2-3.96,0.12c-1.24-0.07-2.35-0.08-3.45-0.07
		c-0.9,0.01-1.79,0.03-2.71,0.05c-1.11,0.02-2.22,0.05-3.32,0.01c-0.9-0.03-1.81-0.2-2.7-0.18c-0.38,0.01-0.91,0.05-1.37,0.07
		c-1.33,0.03-2.56,0.2-3.96,0.12c-1.24-0.07-2.35-0.08-3.45-0.07c-0.9,0.01-1.79,0.03-2.71,0.05c-1.11,0.02-2.22,0.05-3.32,0.01
		c-0.9-0.03-1.81-0.2-2.7-0.18c-0.38,0.01-0.9,0.05-1.37,0.07c-1.33,0.03-2.56,0.2-3.96,0.12c-1.24-0.07-2.35-0.08-3.45-0.07
		c-0.9,0.01-1.79,0.03-2.71,0.05c-1.11,0.02-2.22,0.05-3.32,0.01c-0.9-0.03-1.81-0.2-2.7-0.18c-0.38,0.01-0.9,0.05-1.37,0.07
		c-1.33,0.03-2.56,0.2-3.96,0.12c-1.24-0.07-2.35-0.08-3.45-0.07c-0.9,0.01-1.79,0.03-2.71,0.05c-1.11,0.02-2.22,0.05-3.32,0.01
		c-0.9-0.03-1.81-0.2-2.71-0.18c-0.38,0.01-0.9,0.05-1.37,0.07c-1.33,0.03-2.56,0.2-3.96,0.12c-1.24-0.07-2.35-0.08-3.45-0.07
		l-0.75,0.01c-0.32,0.01-0.71-0.07-1.03-0.06c-0.47-0.06-0.96,0.05-1.36,0.31c-0.58,0.39-0.84,1.11-0.66,1.78
		c0.12,0.3,0.33,0.56,0.61,0.74c0.1,0.07,0.2,0.13,0.3,0.18c0.36,0.12,0.76,0.14,1.13,0.06c0.15-0.02,0.3-0.02,0.45-0.01
		c0.43,0.04,0.84,0.08,1.3,0.11s0.96,0.05,1.56,0.04c1.11-0.02,3.37-0.25,4.48-0.22c0.77,0.02,1.54,0.15,2.3,0.17l0.31,0.02
		c1.8,0.12,3.61-0.18,5.42-0.21c1.46-0.02,2.33,0.11,3.45,0.19c0.46,0.03,0.96,0.05,1.56,0.04c1.11-0.02,3.37-0.25,4.48-0.22
		c0.77,0.02,1.54,0.15,2.31,0.17l0.31,0.02c1.8,0.12,3.61-0.18,5.42-0.21c1.46-0.02,2.33,0.11,3.45,0.19
		c0.46,0.03,0.96,0.05,1.56,0.04c1.11-0.02,3.37-0.25,4.48-0.22c0.77,0.02,1.54,0.15,2.3,0.17l0.31,0.02
		c1.8,0.12,3.61-0.18,5.42-0.21c1.46-0.02,2.33,0.11,3.45,0.19c0.46,0.03,0.96,0.05,1.56,0.04c1.11-0.02,3.37-0.25,4.48-0.22
		c0.77,0.02,1.54,0.15,2.31,0.17l0.31,0.02c1.8,0.12,3.61-0.18,5.42-0.21c1.46-0.02,2.33,0.11,3.45,0.19
		c0.46,0.03,0.96,0.05,1.56,0.04c1.11-0.02,3.37-0.25,4.48-0.22c0.77,0.02,1.54,0.15,2.3,0.17l0.31,0.02
		c1.8,0.12,3.61-0.18,5.42-0.21c1.46-0.02,2.33,0.11,3.45,0.19c0.46,0.03,0.96,0.05,1.56,0.04c1.11-0.02,3.37-0.25,4.48-0.22
		c0.77,0.02,1.54,0.15,2.3,0.17l0.31,0.02c1.8,0.12,3.61-0.18,5.42-0.21c1.46-0.02,2.33,0.11,3.45,0.19
		c0.46,0.03,0.96,0.05,1.56,0.04c1.11-0.02,3.37-0.25,4.48-0.22c0.77,0.02,1.54,0.15,2.3,0.17l0.31,0.02
		c1.8,0.12,3.61-0.18,5.42-0.21c1.46-0.02,2.33,0.11,3.45,0.19c0.46,0.03,0.96,0.05,1.56,0.04c1.11-0.02,3.37-0.25,4.48-0.22
		c0.77,0.02,1.54,0.15,2.31,0.17l0.31,0.02c1.8,0.12,3.61-0.18,5.42-0.21c1.46-0.02,2.33,0.11,3.45,0.19
		c0.46,0.03,0.96,0.05,1.56,0.04c1.11-0.02,3.37-0.25,4.48-0.22c0.77,0.02,1.54,0.15,2.3,0.17l0.31,0.02
		c1.8,0.12,3.61-0.18,5.42-0.21c1.46-0.02,2.33,0.11,3.45,0.19c0.46,0.03,0.96,0.05,1.56,0.04c1.11-0.02,3.37-0.25,4.48-0.22
		c0.77,0.02,1.54,0.15,2.31,0.17l0.31,0.02c1.8,0.12,3.61-0.18,5.42-0.21c1.46-0.02,2.33,0.11,3.45,0.19
		c0.46,0.03,0.96,0.05,1.56,0.04c1.11-0.02,3.37-0.25,4.48-0.22c0.77,0.02,1.54,0.15,2.3,0.17l0.31,0.02
		c1.8,0.12,3.61-0.18,5.42-0.21c1.46-0.02,2.33,0.11,3.45,0.19c0.46,0.03,0.96,0.05,1.56,0.04c1.11-0.02,3.37-0.25,4.48-0.22
		c0.77,0.02,1.54,0.15,2.3,0.17l0.31,0.02c1.8,0.12,3.61-0.18,5.42-0.21c1.46-0.02,2.33,0.11,3.45,0.19
		c0.46,0.03,0.96,0.05,1.56,0.04c1.11-0.02,3.37-0.25,4.48-0.22c0.77,0.02,1.54,0.15,2.3,0.17l0.31,0.02
		c1.8,0.12,3.61-0.18,5.42-0.21c1.46-0.02,2.33,0.11,3.45,0.19c0.46,0.03,0.96,0.05,1.56,0.04c1.11-0.02,3.37-0.25,4.48-0.22
		c0.77,0.02,1.54,0.15,2.3,0.17l0.31,0.02c1.8,0.12,3.61-0.18,5.42-0.21c1.46-0.02,2.33,0.11,3.45,0.19
		c0.46,0.03,0.96,0.05,1.56,0.04c1.11-0.02,3.37-0.25,4.48-0.22c0.77,0.02,1.54,0.15,2.3,0.17l0.31,0.02
		c1.8,0.12,3.61-0.18,5.42-0.21c1.46-0.02,2.33,0.11,3.45,0.19c0.23,0.02,0.47,0.03,0.73,0.03s0.63,0.06,0.93,0.06
		c0.5-0.01,1.54-0.23,1.82-0.73C-3594.19-1091.83-3594.07-1092.37-3594.16-1092.88z"/>
	<g id="그룹_26275">
		<circle id="타원_429" class="st3" cx="-3733.39" cy="-1161.48" r="26.45"/>
		<path id="패스_21715" class="st0" d="M-3705.39-1162.94c-0.07-0.42-0.14-0.89-0.22-1.36s-0.15-0.93-0.21-1.35
			c-0.09-0.42-0.18-0.8-0.23-1.1c-0.09-0.85-0.23-1.7-0.43-2.54c-0.03-0.11-0.05-0.23-0.08-0.34c-0.12-0.49-0.27-0.97-0.43-1.45
			c-0.2-0.46-0.43-0.92-0.65-1.37s-0.43-0.91-0.7-1.34s-0.52-0.86-0.77-1.3c-0.37-0.72-0.72-1.26-1.02-1.78s-0.55-1.03-0.91-1.54
			c-0.3-0.42-0.64-0.86-1.07-1.37c-1.15-1.2-2.4-2.31-3.72-3.31c-0.33-0.28-0.62-0.6-0.95-0.87s-0.66-0.54-1.01-0.79l-0.27-0.21
			c-1.69-1.11-3.52-1.97-5.45-2.56c-0.76-0.28-1.38-0.46-1.94-0.69c-0.55-0.24-1.11-0.43-1.69-0.58c-0.5-0.13-1.04-0.26-1.7-0.39
			c-0.61-0.11-1.56-0.11-2.5-0.16c-0.45-0.03-0.91-0.03-1.36,0.01c-0.43,0.02-0.81,0.03-1.12,0.02c-0.85-0.06-1.71-0.07-2.57-0.02
			l-0.35,0.01c-2.01,0.23-3.97,0.75-5.82,1.54c-0.77,0.26-1.35,0.53-1.93,0.71c-0.57,0.17-1.13,0.39-1.67,0.64
			c-0.47,0.22-0.97,0.47-1.55,0.79c-0.53,0.32-1.27,0.92-2.01,1.48c-0.74,0.58-1.4,1.25-1.89,1.62c-0.69,0.5-1.33,1.07-1.98,1.64
			c-0.09,0.08-0.18,0.16-0.26,0.23c-0.71,0.72-1.35,1.5-1.92,2.34l-1.54,2.59c-0.76,1.43-1.36,2.21-1.88,3.35
			c-0.27,0.51-0.5,1.05-0.68,1.6c-0.17,0.6-0.41,1.51-0.61,2.43c-0.14,0.93-0.27,1.86-0.41,2.46c-0.14,0.84-0.33,1.68-0.45,2.53
			c-0.02,0.11-0.04,0.23-0.05,0.34c-0.06,1.01-0.05,2.02,0.04,3.02l0.49,2.98c0.34,1.58,0.37,2.57,0.71,3.78
			c0.13,0.57,0.3,1.12,0.51,1.67c0.25,0.57,0.66,1.42,1.09,2.25c0.5,0.8,0.98,1.6,1.26,2.15c0.44,0.73,0.82,1.5,1.28,2.23
			c0.06,0.1,0.12,0.2,0.19,0.29c0.59,0.82,1.26,1.58,1.99,2.28c0.77,0.65,1.48,1.37,2.29,1.97c0.63,0.5,1.1,0.95,1.56,1.34l1.4,1.11
			c0.21,0.16,0.42,0.32,0.66,0.48l0.81,0.45c1.49,0.73,3.04,1.35,4.63,1.85c0.81,0.26,1.58,0.68,2.41,0.9l0.33,0.09
			c0.97,0.28,1.98,0.44,2.99,0.47c1.01,0.03,2.01,0.1,3.01,0.04c0.81-0.02,1.46,0.04,2.06,0.03l1.79-0.05l0.81-0.05l0.91-0.18
			c1.61-0.4,3.2-0.92,4.74-1.55c0.79-0.32,1.64-0.51,2.42-0.86l0.31-0.15c0.92-0.41,1.79-0.94,2.59-1.56l1.2-0.92
			c0.4-0.31,0.75-0.67,1.14-0.98c1.26-1.01,1.99-1.66,2.94-2.47c0.42-0.41,0.8-0.84,1.16-1.3c0.19-0.24,0.43-0.55,0.69-0.9
			c0.23-0.36,0.47-0.77,0.71-1.18l0.7-1.17c0.2-0.38,0.37-0.73,0.52-0.99c0.48-0.71,0.91-1.45,1.3-2.22l0.15-0.31
			c0.22-0.45,0.42-0.92,0.6-1.39c0.14-0.49,0.27-0.98,0.39-1.47c0.28-0.97,0.39-1.98,0.57-2.96c0.17-0.79,0.27-1.43,0.36-2.02
			s0.2-1.15,0.31-1.76c0.03-0.51,0.05-1.07,0.04-1.74C-3705.35-1162.12-3705.37-1162.51-3705.39-1162.94z M-3708.74-1157.54
			c-0.16,1.09-0.4,2.17-0.74,3.22c-0.15,0.43-0.33,0.84-0.5,1.25s-0.42,0.79-0.57,1.21c-0.13,0.35-0.31,0.84-0.47,1.27
			c-0.3,0.58-0.56,1.16-0.84,1.75c-0.3,0.6-0.66,1.16-1.07,1.68c-0.19,0.24-0.36,0.49-0.55,0.72l-0.57,0.65
			c-0.38,0.42-0.7,0.87-1.08,1.26c-0.64,0.62-1.2,1.31-1.91,1.9l-1.26,1.07c-0.43,0.35-0.91,0.63-1.36,0.93
			c-0.74,0.52-1.64,0.76-2.4,1.2c-0.38,0.24-0.78,0.46-1.19,0.65c-0.6,0.26-1.16,0.58-1.76,0.83c-0.62,0.24-1.26,0.44-1.9,0.61
			c-0.6,0.14-1.19,0.2-1.74,0.31c-0.54,0.12-1.09,0.21-1.64,0.26c-0.89,0.13-1.78,0.21-2.68,0.23l-1.66,0.03
			c-0.55-0.05-1.1-0.11-1.64-0.18c-0.9-0.07-1.74-0.48-2.61-0.63c-0.45-0.06-0.89-0.14-1.33-0.26c-0.63-0.19-1.26-0.31-1.88-0.49
			c-0.63-0.22-1.25-0.47-1.85-0.76c-0.55-0.27-1.04-0.61-1.54-0.88c-0.49-0.26-0.97-0.54-1.42-0.85c-0.77-0.47-1.5-0.99-2.2-1.55
			c-0.42-0.35-0.88-0.67-1.28-1.05s-0.78-0.78-1.16-1.18c-0.63-0.64-1-1.5-1.6-2.16c-0.25-0.28-0.55-0.71-0.83-1.07
			c-0.82-1.03-1.51-2.15-2.06-3.35c-0.41-1.17-0.86-2.18-1.15-3.23c-0.13-0.43-0.29-0.84-0.4-1.28s-0.19-0.88-0.29-1.32
			c-0.24-1.08-0.39-2.17-0.44-3.27c-0.01-0.9,0.2-1.8,0.17-2.68c0.02-0.37,0.04-0.89,0.06-1.35c0.03-1.32,0.22-2.62,0.57-3.89
			c0.45-1.15,0.74-2.22,1.2-3.21l0.51-1.24c0.21-0.4,0.42-0.79,0.63-1.2c0.51-0.98,1.1-1.91,1.76-2.79
			c0.59-0.68,1.28-1.27,1.86-1.94c0.26-0.27,0.6-0.66,0.91-1.01c0.43-0.48,0.89-0.94,1.38-1.37c0.47-0.47,1-0.89,1.57-1.23
			c0.53-0.31,1.02-0.63,1.51-0.93c0.5-0.26,0.99-0.52,1.46-0.79l0.58-0.33l0.61-0.27l1.24-0.55c0.51-0.21,1.03-0.4,1.56-0.55
			c0.52-0.19,1.05-0.33,1.59-0.44c0.44-0.08,0.89-0.12,1.34-0.16l0.67-0.08c0.22-0.01,0.45-0.02,0.67-0.05
			c0.37-0.05,0.88-0.14,1.34-0.21c0.65-0.11,1.29-0.09,1.94-0.15l0.98-0.04c0.34,0.02,0.68,0.06,1.01,0.11l1.75,0.26
			c0.55,0.13,1.09,0.23,1.63,0.34c0.88,0.18,1.75,0.41,2.6,0.69c0.53,0.16,1.04,0.35,1.55,0.58c0.52,0.19,1.02,0.42,1.5,0.69
			c0.39,0.23,0.76,0.49,1.13,0.74l0.56,0.37c0.18,0.13,0.36,0.27,0.54,0.39c0.31,0.2,0.77,0.46,1.16,0.7
			c0.56,0.34,1.05,0.76,1.58,1.13c0.26,0.2,0.53,0.38,0.77,0.61s0.47,0.48,0.7,0.74c0.85,0.89,1.51,1.79,2.22,2.62
			c0.54,0.71,1.03,1.44,1.55,2.2c0.58,0.94,1.08,1.92,1.5,2.94c0.16,0.42,0.29,0.85,0.42,1.28c0.11,0.44,0.19,0.88,0.33,1.3
			c0.11,0.36,0.33,0.83,0.46,1.28c0.14,0.64,0.32,1.25,0.49,1.88c0.15,0.65,0.24,1.31,0.25,1.98c0.02,0.31,0.03,0.61,0.05,0.9
			c-0.01,0.3-0.02,0.58-0.02,0.87c-0.01,0.57-0.01,1.12,0,1.66C-3708.59-1159.34-3708.64-1158.46-3708.74-1157.54L-3708.74-1157.54z
			"/>
	</g>
	<g id="그룹_26276">
		<path id="패스_21716" d="M-3701.49-1186c-0.91,12.22-13.04,20.94-34.54,23.77c-18.79,2.48-33.69-0.89-34.43-12.91
			s13.18-26.8,32.1-27.96S-3700.16-1203.7-3701.49-1186z"/>
		<path id="패스_21717" class="st0" d="M-3700.07-1190.08c-0.07-0.46-0.17-0.91-0.29-1.35c-0.11-0.42-0.18-0.81-0.28-1.1
			c-0.19-0.87-0.44-1.71-0.77-2.53l-0.15-0.33c-0.98-1.86-2.43-3.43-4.2-4.56c-1.04-0.76-2.12-1.46-3.24-2.1
			c-0.51-0.26-1.04-0.5-1.57-0.69c-1.55-0.46-3.12-0.82-4.72-1.09c-0.8-0.19-1.59-0.44-2.39-0.59l-0.32-0.07
			c-1.89-0.26-3.8-0.36-5.7-0.29c-1.52-0.05-2.44-0.2-3.6-0.28c-0.48-0.04-1-0.05-1.63-0.04c-1.16,0.02-3.5,0.31-4.64,0.33
			c-0.8,0.01-1.6-0.08-2.39-0.06l-0.32-0.01c-1.91,0.09-3.8,0.33-5.67,0.7c-1.52,0.31-2.46,0.36-3.65,0.53
			c-0.48,0.11-1,0.24-1.61,0.43c-0.77,0.23-1.52,0.51-2.24,0.84c-0.82,0.38-1.64,0.75-2.19,0.95c-0.77,0.28-1.54,0.57-2.3,0.9
			l-0.31,0.13c-0.89,0.39-1.73,0.88-2.5,1.46c-0.4,0.28-0.8,0.54-1.18,0.84s-0.75,0.61-1.14,0.89c-1.27,0.9-2.05,1.42-3.01,2.15
			c-0.46,0.32-0.88,0.69-1.26,1.1c-0.41,0.43-1.01,1.11-1.6,1.8c-0.54,0.73-1.08,1.46-1.47,1.91c-0.55,0.62-1.08,1.27-1.58,1.93
			l-0.21,0.27c-0.56,0.81-1.04,1.68-1.42,2.59c-0.39,0.91-0.66,1.87-1.03,2.78c-0.42,1.54-0.9,2.41-1.11,3.66
			c-0.14,0.57-0.23,1.15-0.26,1.73c0,0.85,0.04,1.69,0.13,2.53c0.12,0.84,0.3,1.68,0.52,2.5c0.17,0.88,0.42,1.74,0.77,2.56
			c0.05,0.11,0.09,0.23,0.14,0.33c1,1.85,2.47,3.41,4.26,4.51c1.04,0.76,2.12,1.46,3.24,2.09c0.51,0.27,1.03,0.5,1.57,0.69
			c1.55,0.46,3.12,0.83,4.72,1.09c0.8,0.17,1.59,0.44,2.4,0.57l0.32,0.07c1.9,0.24,3.82,0.31,5.73,0.21
			c1.53,0.01,2.45,0.13,3.63,0.17c0.48,0.02,1.01,0.01,1.64-0.03c1.16-0.07,3.5-0.48,4.65-0.59c0.8-0.06,1.61-0.04,2.41-0.11
			l0.32-0.02c1.87-0.25,3.73-0.64,5.55-1.14c0.75-0.16,1.35-0.25,1.91-0.32l1.66-0.28c0.48-0.09,0.99-0.2,1.6-0.36
			c0.56-0.14,1.39-0.49,2.23-0.79l2.21-0.82c0.77-0.26,1.57-0.43,2.35-0.69l0.31-0.11c0.9-0.35,1.77-0.75,2.61-1.22
			c0.83-0.51,1.64-1.03,2.48-1.5c0.66-0.42,1.2-0.73,1.71-1.01c0.52-0.26,1.02-0.55,1.49-0.87c0.41-0.28,0.86-0.59,1.37-0.99
			c0.47-0.38,1.09-1.08,1.73-1.73s1.16-1.44,1.59-1.86c0.58-0.62,1.13-1.26,1.65-1.94l0.21-0.27c1.07-1.71,1.81-3.6,2.2-5.58
			c0.44-1.55,0.59-2.51,0.85-3.74c0.05-0.5,0.09-1.05,0.11-1.71C-3699.82-1188.43-3699.92-1189.26-3700.07-1190.08z
			 M-3703.16-1184.85c-0.03,0.43-0.09,0.86-0.2,1.27l-0.37,1.53c-0.19,0.49-0.38,0.98-0.59,1.46c-0.17,0.39-0.39,0.76-0.65,1.1
			c-0.25,0.34-0.47,0.71-0.67,1.08c-0.2,0.3-0.45,0.72-0.68,1.1c-0.18,0.26-0.33,0.53-0.51,0.78l-0.57,0.74
			c-0.37,0.53-0.82,1-1.32,1.41l-1.32,1.11c-0.45,0.33-0.88,0.66-1.3,0.98c-0.7,0.54-1.43,1.04-2.18,1.51
			c-0.92,0.59-1.88,1.12-2.86,1.6c-0.82,0.36-1.72,0.55-2.52,0.93c-0.33,0.17-0.82,0.38-1.24,0.56c-0.61,0.24-1.2,0.51-1.8,0.77
			c-0.62,0.25-1.26,0.46-1.92,0.62l-3.36,0.85c-0.87,0.23-1.74,0.47-2.65,0.65c-1.1,0.22-2.18,0.52-3.3,0.63
			c-0.91,0.11-1.84,0.08-2.73,0.23l-1.36,0.25c-1.31,0.26-2.64,0.43-3.98,0.52c-1.25,0.02-2.38,0.07-3.48,0.12
			c-0.91,0.04-1.8,0.07-2.73,0.07c-1.11,0-2.23-0.01-3.33-0.11c-0.9-0.09-1.78-0.35-2.66-0.44c-0.37-0.05-0.89-0.08-1.35-0.12
			c-1.3-0.11-2.58-0.35-3.82-0.72c-1.14-0.4-2.14-0.79-3.1-1.2c-0.78-0.34-1.54-0.74-2.26-1.19c-0.87-0.53-1.66-1.19-2.34-1.94
			c-0.47-0.65-0.89-1.34-1.25-2.06c-0.17-0.29-0.4-0.69-0.58-1.06c-0.53-1.08-0.82-2.27-0.86-3.47c0.05-0.58,0.08-1.12,0.09-1.65
			c0.03-0.52,0.1-1.04,0.19-1.55c0.11-0.85,0.29-1.68,0.55-2.5c0.13-0.52,0.3-1.02,0.52-1.5c0.21-0.49,0.39-0.99,0.64-1.46
			c0.46-0.75,0.99-1.45,1.45-2.19c0.2-0.31,0.46-0.75,0.69-1.14c0.17-0.27,0.34-0.54,0.51-0.81l0.56-0.77
			c0.37-0.54,0.8-1.05,1.26-1.51c0.93-0.8,1.64-1.63,2.49-2.31c0.68-0.56,1.28-1.21,2.04-1.72c0.85-0.68,1.75-1.3,2.7-1.85
			c0.79-0.42,1.6-0.79,2.41-1.16c0.33-0.17,0.78-0.43,1.18-0.66l0.85-0.47l0.87-0.4c0.6-0.28,1.22-0.53,1.84-0.74
			c1.19-0.31,2.25-0.58,3.29-0.91l2.62-0.57c1.08-0.21,2.16-0.35,3.25-0.42c0.87-0.09,1.84,0.07,2.74-0.01
			c0.39-0.03,0.92-0.09,1.39-0.15c1.34-0.16,2.68-0.25,4.03-0.26c1.26,0.05,2.39,0.04,3.51,0.04c0.91-0.01,1.81-0.01,2.74,0.01
			c1.12,0.03,2.24,0.06,3.34,0.18c0.9,0.11,1.78,0.38,2.67,0.48l1.35,0.13c1.3,0.11,2.58,0.35,3.83,0.73
			c1.15,0.39,2.14,0.79,3.1,1.2c0.78,0.34,1.53,0.74,2.25,1.19c0.87,0.53,1.64,1.2,2.31,1.96c0.48,0.65,0.89,1.35,1.23,2.08
			c0.22,0.34,0.41,0.7,0.58,1.07c0.54,1.1,0.86,2.29,0.95,3.51c0.05,0.58,0,1.15,0.02,1.68c-0.02,0.55-0.04,1.08-0.06,1.6
			L-3703.16-1184.85z"/>
	</g>
	<circle id="타원_430" cx="-3726.75" cy="-1149.99" r="2.32"/>
	<circle id="타원_431" cx="-3736.75" cy="-1149.35" r="2.32"/>
	<path id="패스_21718" class="st0" d="M-3728.05-1144.34c-0.42-0.23-0.91-0.28-1.37-0.14c-0.34,0.07-0.66,0.13-0.99,0.17
		c-0.28,0.03-0.55,0.07-0.82,0.12s-0.51,0.1-0.76,0.16c-0.32,0.08-0.75,0.11-1.07,0.21c-0.52,0.09-0.99,0.39-1.3,0.82
		c-0.21,0.31-0.29,0.68-0.23,1.05c0.07,0.33,0.26,0.62,0.53,0.83c0.22,0.18,0.48,0.33,0.75,0.42c0.09,0.03,0.19,0.06,0.28,0.07
		c0.3,0.01,0.6-0.08,0.86-0.24c0.11-0.05,0.23-0.09,0.35-0.11c0.36-0.05,0.71-0.09,1.09-0.12l0.61-0.05c0.21-0.02,0.53,0.01,0.77,0
		c0.56-0.02,1.09-0.27,1.48-0.68c0.34-0.39,0.55-0.87,0.6-1.38C-3727.25-1143.51-3727.82-1144.17-3728.05-1144.34z"/>
	<g id="그룹_26281">
		<g id="그룹_26277">
			<path id="패스_21719" class="st3" d="M-3760.84-1095.53c0,0,1.1-7.73,10.34-6.53c9.77,1.27,17.78,12.5,14.43,17.24
				s-17.13-9.48-17.13-9.48L-3760.84-1095.53z"/>
			<path id="패스_21720" class="st0" d="M-3733.99-1089.67l-0.09-0.4c-0.68-2.21-1.87-4.23-3.47-5.89
				c-0.9-1.1-1.86-2.16-2.87-3.15c-0.48-0.43-0.98-0.83-1.51-1.2c-0.78-0.51-1.6-0.95-2.45-1.33c-0.96-0.43-1.94-0.79-2.6-1.02
				c-0.9-0.38-1.83-0.67-2.78-0.88l-0.39-0.08c-2.37-0.41-4.81-0.04-6.95,1.05c-1.44,0.67-2.71,1.67-3.69,2.92l-0.13,0.17
				l-0.03,0.04l-0.03,0.05l-0.06,0.09l-0.24,0.38l-0.12,0.2l-0.06,0.1l-0.05,0.11l-0.22,0.46l-0.05,0.12l-0.05,0.13
				c-0.03,0.09-0.06,0.18-0.1,0.28l-0.1,0.3c-0.03,0.11-0.06,0.22-0.09,0.33l-0.04,0.17l-0.04,0.18c-0.02,0.12-0.05,0.24-0.07,0.37
				l-0.06,0.44l-0.02,0.24v0.02v0.06l0,0v0.03v0.1l0.01,0.09l0.01,0.09l0.02,0.08l0.03,0.08l0.03,0.07l0.04,0.07l0.04,0.06
				l0.04,0.06l0.05,0.06l0.1,0.1l0.05,0.05l0.05,0.04l0.12,0.07l0.12,0.06l0.12,0.05l0.12,0.04l0.11,0.03l0.11,0.03l0.18,0.03
				l0.52,0.08l0.47,0.09l0.84,0.19l1.57,0.38c0.52,0.11,1.08,0.22,1.77,0.32l1.08,0.13l0.84,0.06l0.34,0.28l0.18,0.15l0.28,0.25
				c0.36,0.32,0.69,0.62,0.93,0.86c0.64,0.63,1.22,1.34,1.88,1.95l0.26,0.26c1.6,1.43,3.34,2.71,5.18,3.81
				c1.16,0.83,2.37,1.59,3.61,2.28c0.73,0.36,1.51,0.61,2.31,0.74c0.54,0.07,1.09,0.06,1.63-0.04c0.64-0.13,1.24-0.42,1.74-0.84
				c0.84-0.84,1.39-1.92,1.58-3.09c0.13-0.6,0.19-1.21,0.18-1.82C-3733.83-1088.62-3733.88-1089.15-3733.99-1089.67z
				 M-3758.85-1096.47L-3758.85-1096.47l0-0.02l-0.01-0.05v-0.01L-3758.85-1096.47L-3758.85-1096.47z M-3736.9-1086.69
				c-0.07,0.47-0.34,0.88-0.75,1.11c-0.38,0.14-0.79,0.17-1.19,0.07c-0.18-0.04-0.36-0.08-0.54-0.15l-0.27-0.09l-0.38-0.16
				c-0.88-0.38-1.73-0.83-2.54-1.35c-1.05-0.65-2.05-1.37-3-2.15c-0.78-0.65-1.45-1.44-2.22-2.09l-1.2-0.97l-1.61-1.36
				c-0.27-0.23-0.53-0.46-0.79-0.71c-0.37-0.35-0.73-0.72-1.1-1.12c-0.1-0.03-0.21-0.04-0.32-0.06l-2.39-0.45l-1.91-0.31l-1.55-0.22
				l-0.07-0.01l-0.06-0.02l-0.05-0.03l-0.01-0.01l0.01-0.02l0.11-0.21l0.08-0.16l0.02-0.04l0.02-0.04l0.04-0.07l0.17-0.3l0.08-0.15
				l0.1-0.14c0.45-0.71,1.06-1.31,1.77-1.76c0.9-0.56,1.92-0.91,2.98-1.01c0.46-0.01,0.91,0.02,1.36,0.05
				c0.46,0.09,0.92,0.15,1.38,0.18c0.39,0.05,0.92,0.09,1.4,0.18c1.38,0.23,2.7,0.71,3.92,1.4c1.05,0.64,2.05,1.36,3.01,2.13
				c0.75,0.61,1.46,1.28,2.12,1.99c0.81,0.86,1.52,1.81,2.1,2.83c0.4,0.83,0.71,1.69,0.95,2.58c0.14,0.41,0.26,0.82,0.34,1.24
				c0.04,0.24,0.06,0.48,0.07,0.72C-3736.83-1087.12-3736.85-1086.9-3736.9-1086.69L-3736.9-1086.69z"/>
		</g>
		<g id="그룹_26278">
			<path id="패스_21721" class="st3" d="M-3776.89-1092.63c0,0,1.84-13.12,13.93-11.55c12.79,1.66,22.87,19.37,18.49,25.57
				s-22.43-12.41-22.43-12.41L-3776.89-1092.63z"/>
			<path id="패스_21722" class="st0" d="M-3741.94-1082.51c-0.07-0.82-0.18-1.63-0.33-2.43c-0.1-0.82-0.25-1.63-0.44-2.43
				c-0.02-0.11-0.06-0.21-0.08-0.32c-0.62-1.79-1.48-3.47-2.58-5.02c-0.8-1.26-1.2-2.09-1.84-3.05c-0.3-0.45-0.62-0.88-0.98-1.28
				c-1.07-1.11-2.21-2.16-3.4-3.14c-0.58-0.54-1.13-1.13-1.76-1.63l-0.25-0.2c-1.55-1.11-3.27-1.97-5.1-2.52
				c-1.15-0.45-2.32-0.83-3.51-1.14c-0.55-0.13-1.11-0.19-1.68-0.2c-0.3-0.01-0.68-0.02-1.1-0.02c-0.42,0.02-0.89,0.12-1.35,0.18
				c-0.82,0.13-1.62,0.31-2.41,0.56c-0.42,0.09-0.83,0.22-1.24,0.37c-0.42,0.12-0.82,0.28-1.21,0.48l-0.31,0.17
				c-1.73,1.05-3.14,2.55-4.09,4.33c-0.66,1.04-1.27,2.11-1.82,3.22c-0.05,0.11-0.1,0.23-0.16,0.35l-0.04,0.09l-0.03,0.09
				l-0.07,0.19c-0.05,0.13-0.09,0.27-0.14,0.41l-0.07,0.22l-0.04,0.11l-0.03,0.12l-0.12,0.5c-0.02,0.09-0.04,0.19-0.06,0.29
				l-0.05,0.31c-0.02,0.11-0.04,0.21-0.05,0.32l-0.05,0.34l-0.04,0.38l-0.02,0.24v0.01v0.01l0,0.06l0,0v0.03v0.1l0.01,0.09
				l0.02,0.09l0.02,0.08l0.03,0.08l0.03,0.07l0.03,0.07l0.04,0.06l0.04,0.06l0.05,0.06l0.1,0.1l0.05,0.05l0.05,0.04l0.12,0.07
				l0.12,0.06l0.12,0.05l0.12,0.04l0.11,0.03l0.11,0.03l0.18,0.03l0.52,0.08l0.47,0.09l0.84,0.18l1.56,0.38
				c0.44,0.1,0.92,0.2,1.5,0.28c0.54,0.08,1.36,0.15,2.19,0.23l1.2,0.12l0.52,0.06c0.1,0.01,0.19,0.03,0.27,0.04
				c0.13,0.03,0.26,0.06,0.39,0.11l0.28,0.39c0.05,0.07,0.1,0.14,0.16,0.2l0.27,0.3l0.21,0.23c1.29,1.26,2.66,2.44,4.1,3.52
				c1.1,0.94,1.69,1.61,2.51,2.38c0.38,0.36,0.78,0.69,1.2,1.01c0.88,0.69,2.86,1.84,3.79,2.48c0.64,0.45,1.25,0.97,1.93,1.38
				l0.27,0.17c0.83,0.51,1.72,0.9,2.65,1.17c0.49,0.14,0.99,0.26,1.5,0.34c0.26,0.05,0.53,0.08,0.8,0.1c0.3,0.04,0.6,0.05,0.9,0.03
				c1.51,0.05,2.96-0.63,3.89-1.81l0.17-0.25c0.2-0.28,0.37-0.57,0.5-0.89c0.15-0.31,0.27-0.64,0.34-0.98
				C-3741.92-1080.74-3741.86-1081.63-3741.94-1082.51z M-3774.95-1093.77L-3774.95-1093.77l-0.01-0.02l-0.02-0.05L-3774.95-1093.77
				L-3774.95-1093.77z M-3745.62-1079.68c-0.25,0.41-0.66,0.7-1.13,0.8c-0.34,0.07-0.69,0.07-1.03,0.01
				c-0.45-0.07-0.89-0.19-1.32-0.36c-0.73-0.29-1.39-0.79-2.12-1.16c-0.31-0.15-0.75-0.36-1.14-0.56c-1.12-0.57-2.18-1.23-3.18-1.99
				c-0.91-0.77-1.75-1.43-2.57-2.09c-0.68-0.54-1.34-1.08-2.03-1.66c-0.82-0.69-1.64-1.39-2.4-2.14c-0.63-0.61-1.14-1.34-1.78-1.94
				c-0.29-0.27-0.59-0.5-1.14-1.02l-0.7-0.67l-2.08-0.24c-0.54-0.06-1.08-0.14-1.62-0.26c-1.19-0.27-2.27-0.45-3.34-0.61l0,0
				l-1.55-0.22l-0.07-0.01l-0.06-0.02l-0.05-0.03l-0.04-0.03l-0.04-0.04l0,0v-0.08l0.01-0.06l0.01-0.05l0.02-0.07l0.06-0.19
				l0.12-0.37l0.12-0.36l0.14-0.35c0.14-0.38,0.28-0.76,0.46-1.12c0.16-0.38,0.34-0.74,0.55-1.09c0.45-0.86,1.03-1.64,1.71-2.33
				c0.58-0.49,1.21-0.92,1.88-1.28l0.44-0.32l0.52-0.28c0.25-0.12,0.49-0.24,0.73-0.37l0.78-0.26c0.26-0.1,0.53-0.18,0.81-0.22
				c0.29-0.03,0.58-0.05,0.89-0.06c0.27,0,0.52-0.04,0.79-0.01l0.77,0.07c0.49,0.02,0.98,0.06,1.47,0.14
				c0.4,0.05,0.79,0.12,1.18,0.22c0.4,0.08,0.79,0.19,1.18,0.32c0.96,0.29,1.89,0.69,2.76,1.18c0.72,0.42,1.33,0.99,2.01,1.45
				c0.29,0.19,0.71,0.44,1.05,0.69c1.03,0.68,1.97,1.48,2.8,2.38c0.75,0.88,1.41,1.68,2.04,2.49c0.51,0.66,1.01,1.32,1.48,2.05
				c0.58,0.85,1.08,1.76,1.51,2.69c0.34,0.77,0.5,1.6,0.78,2.36c0.14,0.32,0.29,0.76,0.44,1.16c0.41,1.08,0.61,2.23,0.58,3.39
				c-0.05,0.47-0.13,0.94-0.25,1.39c-0.05,0.2-0.12,0.4-0.2,0.59c-0.05,0.15-0.12,0.3-0.21,0.44L-3745.62-1079.68z"/>
		</g>
		<g id="그룹_26279">
			<path id="패스_21723" class="st3" d="M-3788.09-1090.85c0,0,1.55-15.06,15.28-13.17c14.53,2,26.12,24.54,17.77,28.97
				c-8.49,4.51-21.71-13.86-21.71-13.86L-3788.09-1090.85z"/>
			<path id="패스_21724" class="st0" d="M-3750.75-1082.34c-0.04-0.56-0.13-1.11-0.25-1.65c-0.44-1.49-1-2.94-1.68-4.34
				c-0.3-0.72-0.52-1.5-0.88-2.19l-0.13-0.29c-0.89-1.62-1.97-3.12-3.22-4.48c-0.93-1.15-1.43-1.9-2.17-2.77
				c-0.34-0.41-0.71-0.79-1.11-1.15c-1.18-0.98-2.42-1.88-3.72-2.7c-0.64-0.46-1.26-0.98-1.95-1.39l-0.28-0.17
				c-1.68-0.9-3.52-1.49-5.41-1.74c-0.38-0.06-0.72-0.13-1.04-0.2l-0.9-0.11l-1.69-0.24c-0.56,0-1.13,0.03-1.69,0.09
				c-0.37,0.02-0.73,0.09-1.09,0.19l-1.29,0.41c-0.43,0.13-0.85,0.3-1.24,0.52c-0.38,0.19-0.73,0.35-1,0.47
				c-0.39,0.17-0.74,0.41-1.12,0.6c-0.39,0.18-0.75,0.41-1.08,0.68l-0.27,0.21c-0.4,0.3-0.77,0.64-1.09,1.02
				c-0.31,0.38-0.61,0.78-0.9,1.17c-0.5,0.82-0.96,1.67-1.38,2.54c-0.68,1.37-1.11,2.18-1.54,3.28l-0.24,0.71l-0.06,0.19l-0.03,0.1
				l-0.03,0.1l-0.1,0.43c-0.03,0.14-0.06,0.3-0.1,0.48s-0.05,0.37-0.08,0.57c-0.01,0.1-0.02,0.2-0.04,0.31l-0.03,0.33l-0.03,0.36
				l-0.01,0.23v0.02v0.06l0,0v0.03l0.01,0.09l0.01,0.09l0.02,0.08l0.02,0.08l0.03,0.07l0.03,0.07l0.04,0.06l0.04,0.06l0.05,0.06
				l0.05,0.05l0.03,0.02l0.02,0.03l0.05,0.05l0.05,0.05l0.05,0.04l0.11,0.07l0.11,0.06l0.11,0.05l0.11,0.04l0.11,0.03l0.1,0.03
				l0.17,0.03l0.49,0.08l0.45,0.09l0.8,0.19l1.49,0.39c0.19,0.07,0.38,0.11,0.58,0.14c0.42,0.06,1.31-0.03,1.72,0.07
				c0.29,0.07,0.55,0.24,0.84,0.32l0.11,0.04c0.68,0.12,1.38,0.17,2.07,0.15c0.09,0.01,0.18,0.03,0.27,0.05
				c0.17,0.05,0.43,0.14,0.67,0.22c0.11,0.05,0.22,0.09,0.33,0.13v-0.01l0,0v0.01l0.14,0.05l0.15,0.04l0.17,0.04l0.17,0.03l0,0
				l0.08,0.01h0.01l0.01,0.01l0.01,0.01l0.02,0.02l0,0l0,0l0,0l0.03,0.03l0,0h0.01l0.02-0.01l0.04-0.01l0.03-0.01h0.03h0.03
				l0.02,0.01l0.02,0.01l0.02,0.01l0.02,0.01l0.01,0.02l0.01,0.02l0.14,0.28l0.15,0.28c0.29,0.43,0.6,0.84,0.94,1.24
				c0.7,0.85,2.35,2.4,3.09,3.22c0.51,0.57,0.95,1.21,1.47,1.78l0.21,0.23c1.29,1.29,2.71,2.45,4.24,3.45
				c1.19,0.88,1.87,1.48,2.85,2.14c0.46,0.31,0.94,0.57,1.45,0.8c0.75,0.32,1.54,0.56,2.34,0.73c0.84,0.16,1.68,0.25,2.54,0.25
				c0.93,0.06,1.86-0.03,2.75-0.29l0.36-0.13c1.1-0.39,2.04-1.13,2.68-2.11c0.61-0.92,1.01-1.97,1.17-3.06
				C-3750.81-1079.77-3750.71-1081.06-3750.75-1082.34z M-3786.21-1092.01L-3786.21-1092.01l-0.01-0.02l-0.02-0.05l0-0.02
				L-3786.21-1092.01L-3786.21-1092.01z M-3753.77-1079.68c-0.04,0.83-0.31,1.63-0.79,2.31c-0.41,0.45-0.93,0.78-1.51,0.97
				c-0.29,0.15-0.59,0.28-0.9,0.38c-1.01,0.27-2.09,0.23-3.07-0.13c-0.94-0.36-1.85-0.79-2.73-1.29c-0.72-0.4-1.42-0.84-2.1-1.31
				c-0.85-0.59-1.66-1.23-2.42-1.93c-0.62-0.58-1.12-1.29-1.74-1.87l-0.96-0.86c-0.94-0.83-1.82-1.74-2.63-2.7
				c-0.71-0.94-1.38-1.77-2.03-2.58c-0.23-0.28-0.46-0.56-0.71-0.85l-0.07-0.08l-0.08-0.08l-0.09-0.07l-0.05-0.03l-0.05-0.03
				l-0.05-0.03l-0.06-0.02l-0.06-0.02l-0.06-0.01l-0.06-0.01h-0.06l-0.06,0.01h-0.01v-0.02l-0.01-0.03l-0.04-0.1l-0.02-0.04
				l-0.02-0.04l-0.02-0.03l-0.02-0.03l0,0l-0.01-0.01l-0.04-0.05l-0.04-0.04l-0.04-0.03l-0.03-0.02l-0.03-0.02l-0.05-0.02
				l-0.37-0.11l-0.35-0.08l0,0c-0.4-0.09-1.23-0.19-1.64-0.24l-0.09-0.01c-0.42-0.04-0.84-0.11-1.25-0.2
				c-0.32-0.14-0.65-0.26-0.99-0.35c-0.14-0.02-0.35-0.01-0.53-0.01c-0.51,0.01-1.01-0.03-1.51-0.14c-0.42-0.14-0.85-0.23-1.29-0.29
				l0,0l-1.48-0.23l-0.06-0.01l-0.06-0.02l-0.05-0.03l-0.04-0.03l-0.04-0.04l-0.01-0.02v-0.02v-0.06v-0.06l0.01-0.05l0.06-0.25
				l0.04-0.18l0.05-0.18c0.07-0.24,0.13-0.47,0.2-0.71c0.23-0.78,0.51-1.54,0.83-2.29c0.19-0.46,0.44-0.88,0.66-1.32
				c0.25-0.42,0.53-0.81,0.81-1.21c0.53-0.56,1.1-1.09,1.7-1.57c0.26-0.28,0.54-0.54,0.85-0.77c0.42-0.35,0.88-0.65,1.36-0.9
				l0.74-0.38c0.27-0.1,0.56-0.17,0.84-0.21c0.97-0.19,1.96-0.3,2.94-0.34c0.79,0.06,1.58,0.05,2.4,0.15
				c0.98,0.12,1.94,0.37,2.85,0.73c0.38,0.15,0.74,0.33,1.09,0.55c0.35,0.2,0.7,0.4,1.06,0.59c0.3,0.15,0.75,0.33,1.11,0.53
				c1.09,0.54,2.1,1.2,3.03,1.99c0.82,0.8,1.58,1.49,2.29,2.22c0.59,0.59,1.15,1.19,1.71,1.85c0.67,0.78,1.29,1.61,1.85,2.47
				c0.45,0.71,0.73,1.52,1.15,2.23c0.17,0.31,0.45,0.7,0.65,1.08c0.63,1.04,1.13,2.15,1.49,3.31c0.28,1.09,0.47,2.06,0.63,3.01
				C-3753.73-1081.2-3753.71-1080.44-3753.77-1079.68L-3753.77-1079.68z"/>
		</g>
		<g id="그룹_26280">
			<path id="패스_21725" class="st3" d="M-3796.39-1092.63c0,0,1.44-10.11,13.53-8.54c12.79,1.66,23.27,16.36,18.88,22.56
				s-22.42-12.41-22.42-12.41L-3796.39-1092.63z"/>
			<path id="패스_21726" class="st0" d="M-3761.57-1082.66c0.01-0.82-0.07-1.64-0.22-2.44c-0.02-0.11-0.04-0.21-0.07-0.32
				c-0.52-1.76-1.36-3.41-2.48-4.87c-0.8-1.19-1.2-1.97-1.86-2.86c-0.3-0.42-0.63-0.81-0.98-1.18c-1.07-1-2.19-1.95-3.37-2.83
				c-0.57-0.49-1.11-1.03-1.72-1.48l-0.24-0.19c-1.49-1-3.11-1.77-4.82-2.31c-1.35-0.5-2.14-0.89-3.22-1.22
				c-0.5-0.16-1.01-0.27-1.53-0.34c-1.5-0.13-3.02-0.13-4.52,0.01c-0.8,0.01-1.6,0.07-2.39,0.18l-0.32,0.08
				c-1.89,0.48-3.6,1.5-4.92,2.95c-0.89,0.84-1.68,1.78-2.37,2.79l-0.11,0.17l-0.05,0.09l-0.05,0.09l-0.2,0.38
				c-0.06,0.13-0.13,0.27-0.2,0.41s-0.12,0.3-0.18,0.46l-0.09,0.24l-0.05,0.13l-0.04,0.14c-0.05,0.19-0.1,0.4-0.16,0.62l-0.07,0.34
				l-0.03,0.18l-0.03,0.19l-0.06,0.42l-0.02,0.24v0.01v0.07l0,0v0.03v0.1l0.01,0.09l0.01,0.09l0.02,0.08l0.03,0.08l0.03,0.07
				l0.04,0.07l0.04,0.06l0.04,0.06l0.05,0.06l0.1,0.1l0.05,0.05l0.06,0.04l0.12,0.07l0.12,0.06l0.12,0.05l0.12,0.04l0.12,0.03
				l0.11,0.03l0.18,0.03l0.52,0.08l0.47,0.09l0.84,0.19l1.57,0.38c0.42,0.1,0.87,0.19,1.43,0.27c0.51,0.07,1.29,0.14,2.08,0.21
				l1.14,0.11l0.5,0.06l0.35,0.06c0.19,0.04,0.37,0.1,0.55,0.17c0.13,0.2,0.27,0.38,0.42,0.56l0.19,0.22
				c1.22,1.2,2.51,2.32,3.87,3.35c1.04,0.9,1.58,1.54,2.35,2.28c0.35,0.34,0.73,0.67,1.12,0.97c0.82,0.66,2.68,1.78,3.54,2.4
				c0.59,0.44,1.14,0.95,1.76,1.37l0.25,0.17c1.55,0.99,3.26,1.7,5.06,2.08c1.38,0.44,2.86,0.42,4.22-0.05
				c0.29-0.14,0.57-0.3,0.83-0.5c0.27-0.25,0.53-0.52,0.77-0.8l0.12-0.17c0.24-0.37,0.43-0.77,0.59-1.18
				c0.16-0.44,0.28-0.89,0.36-1.35C-3761.55-1081.06-3761.52-1081.86-3761.57-1082.66z M-3794.42-1093.65L-3794.42-1093.65v-0.02
				l-0.01-0.03L-3794.42-1093.65L-3794.42-1093.65z M-3766.48-1078.87c-0.27,0.02-0.55,0.01-0.82-0.03
				c-0.88-0.15-1.74-0.44-2.54-0.85c-0.69-0.35-1.3-0.89-1.99-1.28l-1.07-0.58c-1.05-0.57-2.05-1.23-2.98-1.97
				c-0.85-0.75-1.64-1.39-2.41-2.02l-1.91-1.58c-0.77-0.66-1.55-1.32-2.27-2.04c-0.59-0.59-1.06-1.29-1.67-1.85l-1.21-1.1l-0.31-0.3
				c-0.4-0.06-0.8-0.1-1.2-0.15l-0.97-0.1c-0.57-0.05-1.14-0.14-1.7-0.26c-1.13-0.26-2.15-0.43-3.16-0.58l-1.55-0.22l-0.07-0.01
				l-0.06-0.02l-0.05-0.03l-0.04-0.03l0.01-0.04l0.01-0.05l0.09-0.23l0.03-0.09l0.04-0.08l0.08-0.17l0.16-0.33l0.08-0.16l0.09-0.16
				c0.17-0.32,0.35-0.63,0.56-0.92l0.31-0.45l0.36-0.41c0.57-0.67,1.26-1.22,2.03-1.65c0.33-0.14,0.68-0.25,1.01-0.36
				c0.35-0.09,0.71-0.14,1.04-0.27c0.35-0.13,0.7-0.23,1.06-0.31l0.79-0.18l0.81-0.09l0.83-0.07c0.29,0.01,0.58,0.04,0.88,0.09
				c0.98,0.11,1.96,0.27,2.92,0.49c0.76,0.16,1.52,0.37,2.26,0.63c0.92,0.3,1.81,0.69,2.65,1.16c0.69,0.39,1.28,0.94,1.94,1.36
				c0.28,0.17,0.69,0.39,1.03,0.62c1,0.6,1.93,1.32,2.76,2.14c0.74,0.8,1.4,1.53,2.02,2.26c0.52,0.6,1.01,1.22,1.46,1.87
				c0.56,0.78,1.05,1.61,1.45,2.48c0.26,0.71,0.48,1.44,0.66,2.18c0.1,0.3,0.24,0.7,0.34,1.06c0.31,0.96,0.33,1.98,0.06,2.95
				c-0.07,0.19-0.15,0.38-0.25,0.55c-0.07,0.14-0.15,0.26-0.24,0.39c-0.09,0.13-0.19,0.24-0.3,0.36c-0.11,0.09-0.24,0.17-0.36,0.25
				C-3766-1078.96-3766.23-1078.9-3766.48-1078.87L-3766.48-1078.87z"/>
		</g>
	</g>
	<path id="패스_21727" class="st0" d="M-3659.25-1148.06c-0.24-0.17-0.51-0.3-0.8-0.38c-0.08-0.02-0.17-0.04-0.26-0.05
		c-0.26,0-0.52,0.09-0.72,0.24c-0.09,0.06-0.18,0.1-0.28,0.12c-0.32,0.03-0.62,0.05-0.95,0.09c-0.36,0-0.74,0.02-1.2,0.06
		c-1.23,0.11-2.46,0.09-3.69-0.04c-0.65-0.12-1.27-0.35-1.91-0.51l-0.26-0.07c-1.5-0.42-3.09-0.51-4.65-0.88
		c-1.26-0.29-1.98-0.62-3-0.91c-0.23-0.06-0.4-0.11-0.7-0.17l-1.06-0.13c-0.43,0.02-0.85,0.13-1.24,0.31
		c-0.24,0.1-0.47,0.21-0.69,0.33c-0.21,0.11-0.41,0.24-0.61,0.38c-0.7,0.49-1.31,1.1-1.81,1.8c-0.56,0.69-0.97,1.48-1.21,2.33
		c-0.03,0.11-0.06,0.23-0.09,0.33c-0.09,0.39-0.14,0.8-0.15,1.2c-0.01,0.2-0.01,0.39,0.02,0.59l0.07,0.73
		c0.29,1.29,1.08,2.41,2.2,3.11c0.9,0.69,1.84,1.33,2.82,1.9c0.43,0.24,0.88,0.45,1.34,0.62c0.98,0.4,3.05,0.81,4.04,1.07
		c0.69,0.19,1.36,0.47,2.05,0.62l0.28,0.07c1.67,0.3,3.38,0.38,5.07,0.23c1.38-0.05,2.23-0.01,3.34-0.15
		c0.24-0.03,0.48-0.07,0.72-0.13c0.31-0.05,0.63-0.12,0.93-0.22c0.5-0.16,1.43-0.84,1.4-1.44c0.05-0.52-0.13-1.04-0.49-1.42
		c-0.33-0.21-0.68-0.39-1.05-0.52c-0.31-0.12-0.63,0.09-0.88,0.23c-0.2,0.13-0.42,0.23-0.65,0.29c-0.19,0.06-0.4,0.1-0.6,0.14
		c-0.71,0.16-1.43,0.26-2.15,0.3c-0.92,0.07-1.84,0.05-2.75-0.05c-0.75-0.09-1.48-0.36-2.22-0.47l-1.14-0.14
		c-1.11-0.13-2.2-0.38-3.26-0.75c-0.97-0.4-1.83-0.74-2.65-1.12c-0.66-0.29-1.3-0.63-1.91-1.02c-0.76-0.52-1.17-0.82-1.36-1.4
		c-0.02-0.11-0.03-0.22-0.01-0.33c0.06-0.44,0.13-0.88,0.19-1.31c0.02-0.12,0.03-0.27,0.05-0.42l0.1-0.44
		c0.2-0.81,0.75-1.48,1.5-1.85c0.29-0.12,0.59-0.21,0.91-0.26l0.43,0.07l0.61,0.12c0.74,0.14,1.5,0.31,2.29,0.49
		c0.95,0.22,1.92,0.44,2.87,0.7c0.79,0.21,1.54,0.57,2.35,0.71c0.34,0.06,0.81,0.12,1.24,0.16c1.21,0.18,2.36,0.18,3.67,0.34
		c1.12,0.14,2.25,0.13,3.36-0.03l0.76-0.17c0.36-0.04,0.72-0.12,1.07-0.24c0.52-0.22,0.93-0.29,1.22-0.91
		C-3658.45-1146.89-3658.66-1147.66-3659.25-1148.06z"/>
	<path id="패스_21728" class="st0" d="M-3661.59-1129.11c-0.25-0.11-0.52-0.19-0.8-0.23l-0.25-0.03
		c-0.11-0.01-0.21,0.02-0.29,0.09c-0.09,0.06-0.18,0.12-0.26,0.19c-0.06,0.06-0.15,0.11-0.23,0.12c-0.27,0.07-0.54,0.12-0.81,0.15
		c-0.3,0.05-0.64,0.08-1.05,0.13c-1.11,0.18-2.23,0.22-3.35,0.12c-0.59-0.09-1.16-0.32-1.75-0.46l-0.23-0.07
		c-1.35-0.4-2.81-0.51-4.19-0.95c-0.87-0.3-1.71-0.69-2.5-1.15c-0.33-0.17-0.68-0.34-1.11-0.53c-1.1-0.4-2.17-0.89-3.2-1.45
		c-0.46-0.35-0.9-0.72-1.31-1.13l-0.15-0.16c-0.13-0.12-0.24-0.24-0.35-0.35c-0.1-0.09-0.17-0.17-0.25-0.25
		c-0.17-0.16-0.3-0.35-0.38-0.57c-0.09-0.23-0.15-0.46-0.2-0.7c-0.06-0.26-0.08-0.53-0.08-0.8c0.01-0.68,0.28-1.34,0.76-1.83
		c0.08-0.1,0.17-0.2,0.27-0.29c0.1-0.1,0.29-0.2,0.41-0.3c0.34-0.31,0.55-0.73,0.59-1.19c0.05-0.51-0.03-1.02-0.24-1.48
		c-0.33-0.3-0.73-0.5-1.17-0.57c-0.47,0.01-0.9,0.24-1.19,0.61l-0.7,0.75c-0.2,0.21-0.38,0.44-0.54,0.68
		c-0.55,0.81-0.9,1.75-1.02,2.73c-0.07,0.54-0.08,1.08-0.03,1.61c0.01,0.26,0.04,0.52,0.08,0.78l0.15,0.85l0.04,0.16
		c0.13,0.51,0.35,1,0.64,1.44c0.14,0.23,0.3,0.44,0.48,0.63c0.15,0.17,0.31,0.33,0.49,0.48c0.34,0.27,0.69,0.51,1.06,0.74
		c1,0.68,2.02,1.06,3.06,1.69c0.85,0.51,1.74,0.95,2.66,1.32c0.72,0.29,1.43,0.54,2.18,0.8c0.9,0.31,1.81,0.57,2.72,0.85
		c0.72,0.29,1.47,0.54,2.22,0.74c0.32,0.06,0.78,0.11,1.18,0.15c1.15,0.16,2.24,0.13,3.5,0.24c1.08,0.09,2.17,0.01,3.22-0.24
		c0.24-0.07,0.48-0.12,0.72-0.21c0.35-0.1,0.69-0.22,1.02-0.37c0.5-0.19,0.88-0.59,1.05-1.09
		C-3660.56-1128.14-3660.93-1128.85-3661.59-1129.11z"/>
	<path id="패스_21729" class="st0" d="M-3663.38-1120.9c-0.3-0.16-0.63-0.24-0.96-0.23c-0.11,0-0.23,0.01-0.34,0.02
		c-0.37,0.05-0.72,0.2-1.01,0.43c-0.14,0.06-0.28,0.1-0.42,0.14l-0.61,0.14l-0.66,0.06c-0.45,0.08-0.97,0.03-1.58,0.08
		c-0.29-0.02-0.65-0.02-1.06-0.03s-0.85-0.08-1.3-0.11c-0.81-0.1-1.6-0.3-2.36-0.57c-0.4-0.15-0.78-0.33-1.15-0.55
		c-0.38-0.19-0.74-0.41-1.1-0.62l-0.29-0.17c-1.75-0.94-3.4-2.07-4.9-3.38c-0.29-0.28-0.51-0.56-0.73-0.81
		c-0.1-0.13-0.22-0.25-0.3-0.37l-0.18-0.31c-0.21-0.38-0.33-0.8-0.37-1.23c-0.02-0.19-0.03-0.39-0.02-0.58
		c0.02-0.26,0.06-0.52,0.12-0.77c0.12-0.63,0.08-1.28-0.12-1.88c-0.34-0.51-0.5-0.92-1.08-1.08c-0.51,0.07-0.99,0.27-1.39,0.6
		c-0.41,0.46-0.64,1.06-0.64,1.68c-0.04,0.47-0.05,0.94-0.05,1.42c0,0.41,0.04,0.82,0.12,1.22c0.14,0.69,0.4,1.35,0.76,1.95
		c0.18,0.29,0.38,0.58,0.6,0.85l0.6,0.66c0.96,1.03,2,1.98,3.12,2.84c0.87,0.75,1.8,1.42,2.78,2.01c0.44,0.2,1.03,0.51,1.59,0.71
		c1.57,0.62,3.21,1.09,4.87,1.4c1.49,0.35,3.04,0.4,4.55,0.16c0.33-0.06,0.67-0.11,1-0.19c0.42-0.13,0.97-0.22,1.38-0.37
		c0.3-0.13,0.58-0.28,0.86-0.45c0.29-0.17,0.52-0.41,0.66-0.71c0.43-0.61,0.28-1.44-0.33-1.87
		C-3663.33-1120.87-3663.36-1120.89-3663.38-1120.9z"/>
	<path id="패스_21730" class="st0" d="M-3642.19-1138.74c-0.04-0.38-0.1-0.89-0.2-1.35c-0.17-1.31-0.59-2.49-0.91-3.86
		c-0.28-1.15-0.71-2.25-1.29-3.29c-0.47-0.82-1.02-1.59-1.65-2.3c-0.78-0.87-1.65-1.65-2.61-2.32c-0.74-0.6-1.56-1.1-2.43-1.49
		c-0.45-0.17-0.91-0.3-1.37-0.4c-0.65-0.17-1.31-0.3-1.97-0.37c-0.66-0.06-1.32-0.13-2.01-0.22c-0.6-0.06-1.23-0.11-1.75-0.13
		c-0.48-0.01-0.94-0.04-1.4-0.09l-0.63-0.08c-0.27-0.04-0.61-0.17-0.91-0.22c-0.51-0.15-1.05-0.1-1.52,0.14
		c-0.35,0.17-0.6,0.49-0.68,0.87c-0.05,0.33,0.02,0.68,0.19,0.96c0.13,0.24,0.28,0.47,0.45,0.69c0.05,0.07,0.11,0.13,0.18,0.19
		c0.2,0.19,0.54,0.16,0.88,0.19c0.14,0.01,0.28,0.03,0.41,0.06c0.4,0.11,0.81,0.21,1.27,0.3c0.53,0.1,1.07,0.15,1.61,0.15
		c0.57,0.01,1.23-0.03,1.98-0.04c0.64,0,1.28,0.07,1.9,0.2c0.62,0.18,1.23,0.41,1.81,0.68c0.08,0.03,0.15,0.07,0.23,0.11
		c1.37,0.53,2.64,1.29,3.76,2.26c0.65,0.69,1.17,1.5,1.52,2.39c0.14,0.35,0.32,0.73,0.52,1.18c0.58,1.14,1,2.36,1.26,3.61
		c0.06,0.67,0.09,1.35,0.08,2.02v0.27c-0.01,1.58,0.25,3.18,0.12,4.8c-0.11,1.03-0.32,2.04-0.64,3.02c-0.1,0.4-0.22,0.82-0.33,1.34
		c-0.21,1.29-0.55,2.56-1.01,3.78c-0.14,0.29-0.3,0.56-0.49,0.81c-0.19,0.26-0.41,0.51-0.59,0.77l-0.16,0.21
		c-0.98,1.19-1.79,2.59-2.93,3.74c-0.74,0.72-1.55,1.35-2.43,1.9c-0.34,0.23-0.68,0.51-1.12,0.82c-0.4,0.28-0.96,0.79-1.56,1.24
		c-0.53,0.41-1.08,0.78-1.66,1.11c-0.62,0.29-1.27,0.53-1.89,0.78l-0.26,0.09c-0.75,0.27-1.45,0.63-2.18,0.91
		c-0.36,0.15-0.72,0.34-1.1,0.45s-0.75,0.23-1.13,0.32c-0.52,0.13-1.05,0.2-1.58,0.19c-0.45,0.03-0.91,0.02-1.36-0.04
		c-0.39-0.04-0.8-0.05-1.3-0.05c-0.45-0.07-1.15-0.09-1.85-0.16c-0.61-0.12-1.21-0.28-1.8-0.48c-0.59-0.31-1.18-0.65-1.72-1
		l-0.21-0.15c-1.3-0.66-2.46-1.57-3.42-2.66c-0.49-0.71-0.75-1.55-0.75-2.42c-0.02-0.17-0.02-0.35-0.02-0.52
		c0-0.19,0.05-0.45,0.07-0.66c0.03-0.53-0.13-1.06-0.45-1.48c-0.44-0.38-0.68-0.72-1.27-0.82c-0.45,0.08-0.87,0.29-1.21,0.59
		c-0.3,0.39-0.43,0.89-0.35,1.37c0.02,0.39,0.04,0.73,0.06,1.07c0,0.3,0.03,0.6,0.09,0.9c0.08,0.51,0.2,1,0.37,1.49
		c0.18,0.48,0.4,0.95,0.66,1.39c0.62,1.04,1.4,1.97,2.3,2.77c0.67,0.67,1.41,1.26,2.21,1.75c0.41,0.23,0.83,0.43,1.27,0.58
		c1.26,0.5,2.55,0.91,3.87,1.23c0.62,0.13,1.23,0.24,1.81,0.34c0.59,0.06,1.16,0.03,1.72,0.04c0.23,0,0.46,0,0.69-0.01l0.68-0.09
		l1.37-0.19c1.08-0.26,2.18-0.49,3.21-0.85c0.43-0.14,0.88-0.22,1.31-0.34c0.43-0.13,0.85-0.28,1.26-0.46
		c0.41-0.19,0.81-0.4,1.19-0.65c0.57-0.32,1.11-0.65,1.64-1c0.53-0.38,1.08-0.73,1.66-1.05c0.96-0.58,1.88-1.23,2.74-1.95
		c0.69-0.54,1.31-1.15,1.97-1.77c0.77-0.76,1.52-1.54,2.24-2.35c0.65-0.62,1.26-1.29,1.81-2c0.2-0.33,0.46-0.81,0.69-1.23
		c0.57-1.22,1.05-2.48,1.44-3.77c0.39-1.06,0.69-2.15,0.89-3.26c0.17-0.86,0.27-1.72,0.37-2.62c0.12-1.07,0.17-2.15,0.22-3.23
		C-3642.22-1136.95-3642.17-1137.84-3642.19-1138.74z"/>
	<path id="패스_21731" class="st0" d="M-3672.22-1153.01c-0.04-0.49-0.14-0.98-0.29-1.45c-0.15-0.31-0.35-0.59-0.57-0.85
		c-0.1-0.12-0.29-0.14-0.41-0.04c-0.02,0.02-0.04,0.04-0.06,0.06c-0.08,0.09-0.18,0.15-0.29,0.2l-0.26,0.11
		c-0.29,0.13-0.58,0.27-0.87,0.43l-1.05,0.57c-0.33,0.09-0.64,0.22-0.94,0.39c-0.13,0.11-0.26,0.24-0.37,0.37
		c-0.39,0.33-0.62,0.78-1.05,1.14c-0.36,0.3-0.67,0.68-0.89,1.09l-0.14,0.29c-0.06,0.12-0.2,0.24-0.25,0.37
		c-0.13,0.21-0.09,0.49,0.1,0.65c0.46,0.4,1.03,0.65,1.64,0.71c0.25,0.04,0.51,0.06,0.77,0.06l0.19-0.01
		c0.19-0.01,0.14-0.12,0.13-0.21c0-0.03,0.01-0.07,0.04-0.09c0.08-0.07,0.15-0.13,0.22-0.2c0.09-0.08,0.16-0.17,0.23-0.27
		c0.13-0.35,0.33-0.67,0.58-0.95c0.16-0.12,0.41-0.14,0.58-0.25l0.08-0.03c0.45-0.18,0.73-0.68,1.19-0.94
		c0.31-0.14,0.64-0.22,0.98-0.23c0.07-0.01,0.14-0.02,0.21-0.04c0.09-0.01,0.18-0.02,0.27-0.03
		C-3672.35-1152.21-3672.15-1152.51-3672.22-1153.01z"/>
	<path id="패스_21732" class="st4" d="M-3701.87-1196.63c-0.35-0.17-0.74-0.25-1.13-0.23c-0.14,0.01-0.28,0.02-0.42,0.05
		c-0.43,0.15-0.8,0.41-1.09,0.76c-0.13,0.12-0.27,0.24-0.42,0.33l-1.35,0.8c-0.48,0.28-1,0.6-1.59,1.01
		c-1.11,0.74-3.3,2.45-4.52,3.05c-0.83,0.45-1.73,0.75-2.57,1.16l-0.34,0.15c-1,0.45-1.98,0.96-2.93,1.53
		c-0.97,0.52-1.93,1.09-2.93,1.53c-1.29,0.55-2.63,0.99-3.99,1.32c-0.54,0.15-1.11,0.36-1.8,0.58c-0.64,0.21-1.58,0.61-2.54,0.98
		c-0.96,0.34-1.93,0.67-2.58,0.83c-0.91,0.19-1.86,0.23-2.76,0.41l-0.37,0.06c-1.08,0.13-2.14,0.33-3.19,0.6
		c-1.07,0.19-2.15,0.41-3.23,0.54c-1.4,0.09-2.8,0.07-4.19-0.05c-0.56-0.03-1.16-0.05-1.89-0.03c-1.34,0.01-4.11,0.2-5.46,0.05
		c-0.94-0.07-1.86-0.34-2.79-0.45l-0.37-0.06c-2.18-0.37-4.41-0.29-6.61-0.62c-1.39-0.23-2.77-0.56-4.12-0.99l-0.86-0.22
		c-0.31-0.07-0.73-0.24-1.09-0.31c-0.81-0.2-1.66-0.06-2.37,0.38c-0.52,0.41-0.84,1.02-0.9,1.68c0.15,0.53,0.4,1.03,0.75,1.45
		c0.42,0.36,0.96,0.54,1.51,0.51c0.4,0.02,0.8,0.07,1.19,0.15l0.99,0.2c1.12,0.21,2.23,0.4,3.38,0.57c1.38,0.23,2.78,0.39,4.16,0.62
		c1.13,0.17,2.24,0.54,3.38,0.63c0.48,0.04,1.15,0.05,1.74,0.07c1.68,0.1,3.26,0,5.03,0.16c0.78,0.07,1.53,0.12,2.26,0.15
		c0.73,0.01,1.44,0,2.14-0.02c1.15,0,2.28-0.12,3.46-0.19c1.41-0.07,2.82-0.32,4.24-0.42c1.15-0.14,2.34-0.12,3.49-0.34
		c0.48-0.11,1.12-0.31,1.69-0.48c1.66-0.38,3.12-1.05,4.87-1.43c1.43-0.36,2.83-0.8,4.2-1.33c1.08-0.4,2.12-0.83,3.2-1.31
		c1.3-0.54,2.56-1.18,3.86-1.72c1.04-0.47,2.18-0.77,3.18-1.32c0.42-0.23,0.99-0.59,1.49-0.9c1.47-0.84,2.72-1.81,4.29-2.64
		c1.29-0.7,2.54-1.48,3.74-2.32l0.77-0.57c0.33-0.24,0.79-0.46,1.12-0.73c0.55-0.31,0.96-0.82,1.16-1.41
		C-3700.71-1195.26-3701.08-1196.2-3701.87-1196.63z"/>
	<g id="그룹_26282">
		<circle id="타원_432" cx="-3735.82" cy="-1182.36" r="9.52"/>
		<path id="패스_21733" class="st4" d="M-3724.45-1184.5c-0.22-1.01-0.6-1.97-1.12-2.86c-0.51-0.88-1.1-1.7-1.77-2.45
			c-0.64-0.83-1.39-1.58-2.23-2.21l-0.35-0.24c-1.05-0.69-2.23-1.14-3.48-1.31c-1.22-0.15-2.45-0.15-3.67,0.01
			c-1.56,0.17-3.08,0.59-4.51,1.24c-0.64,0.32-1.24,0.72-1.78,1.2c-0.75,0.7-1.4,1.5-1.93,2.39c-0.49,0.88-0.91,1.81-1.24,2.77
			c-0.4,0.97-0.67,1.99-0.79,3.04c-0.01,0.14-0.03,0.29-0.05,0.42c-0.07,1.25,0.14,2.5,0.6,3.66c0.47,1.14,1.09,2.21,1.85,3.18
			c0.92,1.27,2.04,2.38,3.32,3.29c0.6,0.4,1.25,0.72,1.93,0.94c0.98,0.31,2,0.47,3.03,0.46c1.01-0.01,2.02-0.11,3.01-0.3
			c1.04-0.14,2.06-0.42,3.03-0.83c0.13-0.05,0.26-0.11,0.39-0.18c2.18-1.22,3.85-3.19,4.7-5.54c0.64-1.43,1.04-2.96,1.19-4.53
			C-3724.27-1183.08-3724.32-1183.8-3724.45-1184.5z M-3728.56-1179.92c-0.29,0.98-0.81,1.88-1.5,2.63
			c-0.61,0.55-1.29,1.01-2.02,1.37c-0.16,0.11-0.33,0.21-0.5,0.3c-0.18,0.12-0.37,0.22-0.57,0.3c-1.09,0.54-2.32,0.75-3.53,0.6
			c-1.03-0.2-2.02-0.56-2.94-1.06c-0.73-0.39-1.38-0.91-1.94-1.52c-0.7-0.74-1.23-1.63-1.53-2.61c-0.16-0.8-0.22-1.62-0.18-2.44
			c0.01-0.34-0.04-0.81,0.01-1.23c0.06-1.22,0.5-2.38,1.25-3.34c0.69-0.8,1.49-1.48,2.39-2.03c0.71-0.42,1.48-0.74,2.28-0.93
			c1-0.24,2.03-0.24,3.03-0.02c0.77,0.27,1.51,0.63,2.19,1.07l0.52,0.27l0.55,0.34c1.01,0.68,1.8,1.64,2.28,2.76
			c0.35,0.99,0.54,2.03,0.56,3.08C-3728.21-1181.54-3728.33-1180.72-3728.56-1179.92z"/>
	</g>
	<path id="패스_21734" class="st4" d="M-3730.89-1182.85c-0.03-0.25-0.11-0.48-0.24-0.7c-0.04-0.06-0.07-0.12-0.12-0.17
		c-0.14-0.16-0.3-0.09-0.45-0.06c-0.06,0.02-0.12,0.02-0.18,0.01c-0.17-0.03-0.33-0.07-0.51-0.1c-0.2-0.03-0.41-0.05-0.61-0.04
		c-0.34,0.01-0.95,0.14-1.41,0.19c-0.05-0.24-0.08-0.49-0.09-0.74c0.01-0.46,0.06-0.91,0.18-1.35c0.01-0.09,0.03-0.18,0.03-0.29
		c0.03-0.12,0.04-0.24,0.06-0.36c-0.06-0.36-0.33-0.64-0.69-0.71c-0.45-0.13-0.92-0.18-1.39-0.14c-0.32,0.07-0.63,0.18-0.92,0.33
		c-0.17,0.09-0.22,0.3-0.13,0.47c0,0.01,0.01,0.01,0.01,0.02c0.05,0.12,0.08,0.24,0.08,0.37c0,0.1,0,0.21,0,0.31
		c0.01,0.35,0.03,0.7,0.04,1.06c0.01,0.32,0.02,0.64,0.02,0.97c-0.23,0.04-0.47,0.07-0.71,0.09c-0.46-0.01-0.91-0.06-1.35-0.18
		c-0.09-0.01-0.18-0.03-0.28-0.03c-0.12-0.03-0.24-0.04-0.36-0.06c-0.36,0.06-0.64,0.33-0.71,0.69c-0.13,0.45-0.18,0.92-0.14,1.39
		c0.07,0.32,0.18,0.63,0.33,0.92c0.09,0.16,0.3,0.22,0.47,0.13c0.01,0,0.02-0.01,0.02-0.01c0.12-0.05,0.24-0.08,0.37-0.08
		c0.1,0,0.21,0,0.31,0c0.35-0.01,0.7-0.03,1.06-0.04c0.33-0.01,0.66-0.02,0.99-0.02c0.03,0.23,0.04,0.47,0.01,0.7
		c-0.06,0.45-0.08,0.9-0.07,1.35c0,0.1,0.01,0.2,0.01,0.29c0,0.13-0.06,0.28-0.06,0.41c-0.04,0.22,0.08,0.45,0.29,0.53
		c0.52,0.25,1.1,0.34,1.68,0.26c0.25-0.03,0.48-0.12,0.7-0.24c0.06-0.04,0.12-0.08,0.17-0.12c0.17-0.14,0.09-0.3,0.06-0.44
		c-0.02-0.06-0.02-0.12-0.01-0.18c0.03-0.17,0.07-0.33,0.1-0.51c0.03-0.2,0.05-0.41,0.04-0.61c-0.01-0.35-0.15-0.98-0.19-1.44
		c0.24-0.04,0.49-0.04,0.74-0.01c0.45,0.06,0.9,0.08,1.35,0.07c0.1,0,0.2-0.01,0.29-0.01c0.13-0.01,0.28,0.06,0.4,0.06
		c0.22,0.04,0.45-0.08,0.53-0.29C-3730.9-1181.69-3730.81-1182.27-3730.89-1182.85z"/>
	<g id="그룹_26283" class="st5">
		<path id="패스_21735" class="st0" d="M-3816.65-1120.23c-0.19-0.92-0.66-1.76-1.34-2.4c-0.66-0.63-1.45-1.1-2.32-1.39
			c-1.09-0.41-2.27-0.51-3.42-0.31c-0.52,0.11-1.02,0.32-1.48,0.6c-0.64,0.42-1.18,0.98-1.58,1.63c-0.38,0.64-0.67,1.34-0.83,2.07
			c-0.22,0.75-0.28,1.54-0.18,2.31c0.02,0.1,0.03,0.21,0.05,0.31c0.19,0.92,0.66,1.76,1.34,2.4c0.66,0.63,1.45,1.1,2.32,1.39
			c1.09,0.41,2.27,0.51,3.42,0.31c0.52-0.11,1.02-0.32,1.48-0.6c0.64-0.42,1.18-0.98,1.58-1.63c0.39-0.64,0.67-1.34,0.83-2.07
			c0.22-0.75,0.28-1.54,0.19-2.31C-3816.62-1120.02-3816.64-1120.13-3816.65-1120.23z M-3820-1117.02
			c-0.41,0.41-0.91,0.72-1.47,0.89c-0.44,0.13-0.9,0.15-1.35,0.07c-0.56-0.1-1.07-0.38-1.45-0.81c-0.24-0.37-0.42-0.79-0.51-1.23
			c-0.07-0.21-0.13-0.43-0.17-0.64c-0.11-0.67,0.08-1.36,0.52-1.87c0.41-0.41,0.91-0.72,1.47-0.89c0.44-0.13,0.9-0.15,1.35-0.08
			c0.56,0.1,1.07,0.38,1.45,0.81c0.25,0.37,0.42,0.79,0.51,1.23c0.07,0.21,0.13,0.42,0.17,0.64
			C-3819.36-1118.22-3819.55-1117.54-3820-1117.02z"/>
		<path id="패스_21736" class="st0" d="M-3812.19-1124.55l-0.02-0.2c-0.01-0.06-0.02-0.13-0.03-0.19l-0.02-0.09l-0.03-0.09
			l-0.03-0.08l-0.03-0.07l-0.04-0.07l-0.05-0.06l-0.05-0.05l-0.01-0.01v-0.02l-0.01-0.03l-0.03-0.06l-0.03-0.05l-0.03-0.05
			l-0.03-0.04l-0.03-0.04l-0.04-0.04l0,0l-0.01-0.01l-0.06-0.06l-0.06-0.05l-0.06-0.05l-0.1-0.07l-0.08-0.04l-0.58-0.26l-0.56-0.23
			l-0.55-0.21l-0.4-0.15l0,0l-0.15-0.05l0,0l-0.03-0.01l-0.07-0.02l0,0c-0.33-0.11-0.65-0.22-0.99-0.33
			c-0.44-0.15-0.89-0.29-1.31-0.48c-0.32-0.2-0.66-0.39-1-0.56c-0.15-0.05-0.37-0.09-0.56-0.14c-0.55-0.11-1.08-0.27-1.6-0.48
			c-0.43-0.23-0.88-0.42-1.34-0.57l-1.79-0.63l-0.18-0.06l-0.19-0.05l-0.2-0.04l-0.19-0.03l-0.09-0.01h-0.09l-0.09,0.01l-0.08,0.01
			l-0.08,0.02l-0.07,0.03l-0.06,0.03l-0.01,0.01h-0.05l-0.06,0.01l-0.06,0.01l-0.05,0.02l-0.05,0.02l-0.05,0.02l-0.05,0.02l0,0
			l-0.01,0.01l-0.08,0.04l-0.07,0.04l-0.06,0.04l-0.1,0.08l-0.07,0.06l-0.43,0.47l-0.4,0.46l-0.37,0.46l-0.36,0.45
			c-0.23,0.3-0.45,0.61-0.68,0.92c-0.28,0.37-0.55,0.76-0.86,1.1c-0.3,0.25-0.58,0.51-0.84,0.78c-0.09,0.13-0.2,0.32-0.3,0.49
			c-0.27,0.49-0.59,0.95-0.95,1.37c-0.35,0.34-0.67,0.71-0.96,1.09l-1.15,1.51l-0.11,0.16l-0.11,0.17l-0.1,0.17l-0.08,0.18
			l-0.03,0.09l-0.03,0.09l-0.02,0.08l-0.01,0.08l-0.01,0.08v0.07l0.01,0.07v0.02l0,0.02l-0.01,0.03l-0.01,0.06l-0.01,0.06v0.06v0.06
			v0.05l0.01,0.05v0.02l0.01,0.09l0.02,0.08l0.02,0.07l0.04,0.12l0.04,0.08l0.32,0.55l0.32,0.52c0.11,0.17,0.22,0.33,0.32,0.5
			l0.32,0.48c0.22,0.31,0.44,0.61,0.66,0.93c0.27,0.38,0.55,0.75,0.78,1.16c0.14,0.36,0.3,0.7,0.48,1.04
			c0.09,0.13,0.25,0.29,0.38,0.44c0.38,0.41,0.72,0.85,1.01,1.33c0.22,0.44,0.46,0.85,0.75,1.25c0.36,0.52,0.71,1.03,1.08,1.56
			l0.11,0.16l0.12,0.15l0.13,0.15l0.14,0.13l0.07,0.06l0.07,0.05l0.07,0.05l0.07,0.04l0.07,0.03l0.07,0.02l0.07,0.01h0.02l0.01,0.01
			l0.03,0.02l0.05,0.03l0.05,0.03l0.05,0.02l0.05,0.02l0.05,0.01l0.05,0.01l0,0h0.02l0.09,0.01l0.08,0.01h0.07l0.13-0.01l0.09-0.01
			l0.62-0.13l0.59-0.14l0.57-0.15l0.56-0.16c0.36-0.11,0.72-0.23,1.09-0.34c0.45-0.14,0.89-0.29,1.34-0.39
			c0.38-0.03,0.76-0.07,1.14-0.14c0.15-0.05,0.35-0.15,0.53-0.22c0.51-0.23,1.03-0.42,1.58-0.55c0.48-0.07,0.95-0.18,1.42-0.32
			l1.82-0.55l0.18-0.06l0.19-0.07l0.18-0.08l0.17-0.09l0.08-0.05l0.07-0.05l0.07-0.06l0.06-0.06l0.05-0.06l0.04-0.06l0.03-0.06
			l0.01-0.02l0.01-0.01l0.03-0.02l0.04-0.04l0.04-0.04l0.04-0.05l0.03-0.05l0.03-0.05l0.02-0.05v-0.01l0.01-0.01l0.04-0.08
			l0.03-0.07l0.02-0.07l0.03-0.12l0.01-0.09c0.02-0.22,0.05-0.43,0.07-0.63s0.03-0.41,0.05-0.61s0.02-0.4,0.03-0.59l0.02-0.58
			c0.01-0.38,0-0.75,0.01-1.14c0.01-0.47,0-0.93,0.05-1.4c0.09-0.37,0.17-0.75,0.22-1.13c0-0.16-0.03-0.38-0.04-0.58
			c-0.07-0.55-0.08-1.11-0.04-1.67c0.08-0.48,0.13-0.96,0.13-1.45c0.01-0.63,0.03-1.25,0.04-1.9v-0.19L-3812.19-1124.55z
			 M-3815-1123.42v0.04c-0.05,0.33-0.1,0.64-0.15,0.99c-0.04,0.22-0.06,0.43-0.07,0.65c-0.01,0.47,0.17,1.43,0.12,1.89
			c-0.03,0.32-0.17,0.64-0.21,0.96c-0.01,0.04-0.02,0.09-0.02,0.13c-0.04,0.76-0.01,1.53,0.09,2.29c-0.03,0.49-0.11,0.97-0.24,1.44
			c-0.02,0.16-0.04,0.33-0.05,0.51c-0.01,0.09-0.01,0.18-0.02,0.28l-0.01,0.29l0,0v0.14v0.01l-0.01,0.04l-0.02,0.03l0,0l0,0l0,0
			v0.01v0.02l-0.01,0.04l-0.01,0.04l-0.02,0.03l-0.02,0.03l-0.03,0.02l-0.03,0.02l-0.03,0.02l-0.03,0.01l-0.03,0.01l-0.03,0.01
			l-0.99,0.16c-0.22,0.03-0.43,0.07-0.64,0.14c-0.45,0.14-1.3,0.6-1.76,0.7c-0.32,0.07-0.66,0.04-0.98,0.1l-0.13,0.02
			c-0.74,0.2-1.46,0.47-2.15,0.8c-0.47,0.12-0.96,0.2-1.45,0.22l-0.5,0.1l-0.27,0.07l-0.28,0.08l0,0h-0.01l-0.12,0.04h-0.05
			l-0.04-0.01h-0.01h-0.01h-0.02h-0.04h-0.04l-0.03-0.01l-0.03-0.01l-0.03-0.02l-0.03-0.02l-0.02-0.02l-0.02-0.03l-0.02-0.03
			l-0.02-0.03l-0.46-0.89c-0.09-0.2-0.2-0.39-0.33-0.57c-0.27-0.38-0.98-1.06-1.21-1.46c-0.16-0.28-0.24-0.62-0.4-0.9
			c-0.02-0.04-0.04-0.08-0.05-0.12c-0.42-0.64-0.89-1.24-1.42-1.8c-0.27-0.41-0.48-0.85-0.65-1.31l0,0l-0.25-0.44l-0.15-0.24
			c-0.05-0.08-0.11-0.16-0.16-0.24l0,0l0,0v-0.01c-0.02-0.03-0.05-0.07-0.07-0.11l-0.01-0.01l-0.01-0.04v-0.04v-0.01l0,0l0-0.01
			l-0.01-0.02l-0.01-0.04l-0.01-0.04v-0.04v-0.04l0.01-0.03l0.01-0.03l0.01-0.03l0.02-0.03l0.02-0.03l0.02-0.03l0.71-0.71
			c0.16-0.15,0.31-0.31,0.44-0.49c0.28-0.37,0.7-1.25,1.01-1.6c0.22-0.24,0.51-0.42,0.73-0.66l0.1-0.09c0.48-0.59,0.9-1.23,1.27-1.9
			c0.31-0.38,0.66-0.72,1.04-1.03l0.34-0.38l0.18-0.21l0.18-0.23l0,0v-0.01l0.08-0.1l0.01-0.01l0.03-0.02l0.04-0.02h0.01l0,0
			l0.01-0.01l0.02-0.02l0.03-0.03l0.03-0.02l0.03-0.01l0.03-0.01h0.03h0.03l0.03,0.01l0.03,0.01l0.03,0.01l0.03,0.01l0.9,0.45
			c0.19,0.11,0.39,0.19,0.6,0.27c0.44,0.15,1.41,0.28,1.83,0.47c0.3,0.13,0.56,0.36,0.85,0.49l0.11,0.06
			c0.71,0.27,1.45,0.48,2.2,0.62c0.41,0.15,0.79,0.34,1.15,0.58l0,0l0.05,0.03l0.1,0.06v-0.01l0,0v0.01l0.16,0.07l0,0l0.31,0.14
			l0.26,0.1l0.27,0.1l0,0h0.01l0.12,0.04l0.01,0.01l0.03,0.03l0.03,0.03l0,0l0,0l0,0l0.01,0.01l0.02,0.01l0.03,0.02l0.03,0.03
			l0.02,0.03l0.02,0.03l0.01,0.03l0.01,0.03l0.01,0.03v0.03L-3815-1123.42z"/>
	</g>
	<path id="패스_21737" class="st6" d="M-3791.63-1130.03l-0.01-0.85l-0.04-0.48c-0.07-0.15-0.13-0.3-0.18-0.45
		c-0.05-0.15-0.11-0.3-0.2-0.44l-0.2-0.38c-0.23-0.42-0.43-0.85-0.61-1.29c-0.4-1.01-0.81-1.91-1.23-2.78
		c-0.34-0.71-0.7-1.41-1.05-2.14c-0.43-0.88-0.87-1.74-1.26-2.64c-0.32-0.73-0.5-1.52-0.86-2.22c-0.15-0.3-0.38-0.7-0.58-1.06
		c-0.52-1.04-1.13-1.96-1.59-3.1c-0.4-1.01-0.81-1.91-1.24-2.78c-0.34-0.71-0.7-1.41-1.05-2.14c-0.43-0.88-0.87-1.74-1.26-2.64
		c-0.32-0.73-0.5-1.52-0.86-2.22c-0.15-0.3-0.38-0.7-0.58-1.06c-0.52-1.04-1.13-1.96-1.59-3.1c-0.4-1.01-0.81-1.91-1.23-2.78
		c-0.1-0.2-0.19-0.39-0.29-0.59c-0.12-0.25-0.21-0.59-0.33-0.84c-0.02-0.04-0.03-0.07-0.05-0.1c0.75-0.44,1.25-1.19,1.37-2.05
		c0.03-0.28,0.03-0.56-0.02-0.83c-0.04-0.35-0.13-0.69-0.29-1.01c-0.18-0.35-0.41-0.66-0.7-0.92c-0.16-0.15-0.33-0.28-0.51-0.4
		c-0.27-0.17-0.56-0.32-0.86-0.44l-0.45-0.13c-0.09-0.01-0.11-0.06-0.26-0.04l-0.45,0.06l-0.88,0.12l-0.11,0.08l-0.44,0.33
		l-0.85,0.61c-0.54,0.39-1.04,0.73-1.44,1c-1.11,0.74-2.35,1.52-3.5,2.32l-0.48,0.33l-0.24,0.16c-0.05,0.04-0.09,0.08-0.13,0.13
		c-0.09,0.12-0.15,0.26-0.18,0.4c-0.08,0.37-0.05,0.76,0.08,1.12c0.16,0.46,0.41,0.88,0.74,1.24c0.33,0.35,0.76,0.59,1.23,0.7
		c0.45,0.11,0.92,0.04,1.31-0.2l0.44-0.18c0.07,0.33,0.21,0.64,0.41,0.91c0.18,0.25,0.34,0.52,0.47,0.8
		c0.11,0.24,0.22,0.47,0.34,0.7c0.38,0.8,0.77,1.57,1.17,2.39c0.48,0.98,0.97,1.95,1.4,2.94c0.36,0.81,0.58,1.69,0.98,2.47
		c0.17,0.33,0.42,0.78,0.64,1.18c0.58,1.17,1.25,2.2,1.76,3.47c0.46,1.13,0.92,2.13,1.39,3.1l0,0l1.17,2.39
		c0.48,0.98,0.97,1.95,1.4,2.94c0.36,0.81,0.58,1.69,0.98,2.47c0.17,0.33,0.42,0.78,0.64,1.18c0.58,1.17,1.25,2.2,1.76,3.47
		c0.4,0.94,0.74,1.77,1.16,2.6l-0.05,0.03c-0.02,0.03-0.02,0.05-0.01,0.07c0.04,0.01,0.08,0.02,0.12,0.01l0.07,0.13
		c-0.02,0.02-0.03,0.03-0.04,0.05l-0.01,0.02c-0.04,0.06,0.04,0.06,0.12,0.06c0.03,0.05,0.05,0.1,0.08,0.15l0.01-0.01l0,0
		c-0.02,0.02-0.03,0.04-0.05,0.06l0.06-0.03l0.57,1.01c0.19,0.3,0.42,0.57,0.7,0.79c0.62,0.47,0.91,0.64,1.34,0.95
		c0.4,0.28,0.79,0.56,1.18,0.86l0.23,0.19l0.11,0.1l0.03,0.02l0.01,0.01l0.1,0.07c0.14,0.09,0.29,0.16,0.46,0.2
		c0.69,0.18,1.43-0.09,1.83-0.69c0.1-0.15,0.17-0.31,0.22-0.47c0.02-0.08,0.04-0.16,0.05-0.25l0.02-0.17l0.02-0.15
		c0.06-0.39,0.09-0.79,0.1-1.19C-3791.59-1129.16-3791.62-1129.62-3791.63-1130.03z M-3812.55-1167.05
		c-0.19,0.11-0.4,0.19-0.62,0.21c-0.22,0.01-0.43-0.07-0.59-0.21c-0.22-0.24-0.32-0.56-0.28-0.88c0.04-0.42,0.28-0.81,0.64-1.02
		l0.8-0.38l1.26-0.6l0.69-0.33c0.23-0.14,0.49-0.23,0.76-0.24c0.57,0.06,0.98,0.56,0.93,1.13c-0.03,0.33-0.22,0.62-0.51,0.79
		l-1.89,0.94L-3812.55-1167.05z M-3794.47-1130.64l-0.04,0.22l-0.05,0.37c-0.01,0.11-0.02,0.22-0.03,0.33
		c-0.16-0.1-0.31-0.19-0.47-0.3l-0.27-0.19l-0.18-0.13c-0.13-0.07-0.16-0.22-0.21-0.33c-0.03-0.09-0.07-0.17-0.1-0.26l-0.16-0.37
		l-0.06-0.13l0.05-0.02l-0.13-0.28c0.02-0.02,0.03-0.04,0.02-0.05c-0.02,0-0.03-0.01-0.05-0.01l-0.48-1.01
		c-0.48-0.98-1.62-2.9-2.06-3.89c-0.3-0.69-0.52-1.43-0.82-2.12l-0.11-0.28c-0.66-1.65-1.66-3.14-2.44-4.73
		c-0.63-1.28-0.88-2.12-1.28-3.14l0,0l-0.05-0.11l-0.05-0.13l0,0c-0.15-0.35-0.31-0.72-0.52-1.15c-0.48-0.98-1.62-2.9-2.06-3.89
		c-0.3-0.69-0.52-1.43-0.82-2.12c-0.04-0.09-0.07-0.19-0.11-0.28c-0.66-1.65-1.66-3.14-2.44-4.73c-0.63-1.28-0.88-2.12-1.29-3.14
		c-0.08-0.21-0.17-0.43-0.27-0.66s-0.21-0.58-0.34-0.85c-0.13-0.26-0.3-0.5-0.49-0.72c0.38-0.13,0.74-0.26,1.08-0.38
		c0.07,0.13,0.15,0.25,0.22,0.37c0.07,0.11,0.13,0.23,0.18,0.35c0.13,0.36,0.25,0.7,0.4,1.07s0.32,0.78,0.55,1.26
		c0.43,0.87,1.47,2.58,1.86,3.47c0.27,0.62,0.45,1.28,0.72,1.9c0.03,0.08,0.06,0.17,0.1,0.25c0.58,1.48,1.5,2.8,2.21,4.23
		c0.43,0.92,0.81,1.86,1.14,2.82c0.15,0.38,0.32,0.78,0.55,1.26c0.43,0.87,1.47,2.58,1.86,3.47c0.27,0.62,0.45,1.28,0.72,1.9
		l0.1,0.25c0.58,1.48,1.5,2.8,2.21,4.23c0.43,0.92,0.81,1.86,1.14,2.82c0.15,0.38,0.32,0.78,0.55,1.26
		c0.21,0.44,0.58,1.08,0.95,1.73l0.52,0.95l0.17,0.32c0.04,0.08,0.08,0.16,0.1,0.22
		C-3794.43-1130.86-3794.44-1130.75-3794.47-1130.64L-3794.47-1130.64z"/>
	<g id="그룹_26284">
		<path id="패스_21738" class="st0" d="M-3665.73-1168c-0.01-0.32-0.05-0.65-0.11-0.96c-0.09-0.47-0.26-0.92-0.5-1.33
			c-0.26-0.47-0.7-0.82-1.21-0.97c-0.59-0.14-1.21,0.02-1.65,0.43c-0.45,0.44-0.74,1.01-0.85,1.63c-0.08,0.51-0.11,1.02-0.09,1.54
			c-0.02,0.46-0.09,0.93-0.11,1.39l-0.01,0.19c-0.08,1.09,0.07,2.18,0.07,3.26c0,0.88-0.08,1.41-0.13,2.08
			c-0.02,0.28-0.03,0.58-0.03,0.94c0,0.67,0.11,2.03,0.09,2.7c-0.02,0.46-0.09,0.93-0.11,1.39l-0.01,0.19
			c-0.08,1.09,0.07,2.18,0.07,3.26c0,0.88-0.08,1.41-0.13,2.08c-0.01,0.14-0.01,0.28-0.02,0.44s-0.04,0.38-0.04,0.56
			c0,0.3,0.12,0.93,0.39,1.1c0.22,0.19,0.51,0.28,0.8,0.23c0.14-0.03,0.45-0.39,0.54-0.51c0.11-0.23,0.14-0.5,0.08-0.75
			c-0.03-0.19-0.04-0.38-0.04-0.57v-0.48c0-0.54,0-1.08,0-1.63c0-0.67-0.01-1.34,0.01-2c0.02-0.54,0.12-1.09,0.12-1.63
			c-0.01-0.22-0.02-0.54-0.03-0.82c-0.01-0.8-0.09-1.55-0.04-2.39c0.05-0.74,0.06-1.42,0.06-2.08c0-0.54,0-1.08,0-1.63
			c0-0.67-0.01-1.33,0.01-2c0.02-0.54,0.12-1.09,0.12-1.63c-0.01-0.22-0.02-0.54-0.03-0.82c0-0.4-0.03-0.79-0.04-1.18
			c-0.03-0.32,0.01-0.65,0.12-0.95c0.08-0.21,0.2-0.4,0.35-0.56c0.13-0.11,0.13-0.08,0.15-0.08c0.04-0.03,0.34,0.23,0.46,0.62
			c0.09,0.24,0.14,0.5,0.15,0.75c0.01,0.26,0,0.65-0.01,0.96c-0.02,0.54-0.13,1.09-0.12,1.63c0.01,0.22,0.02,0.54,0.03,0.82
			c0,0.8,0.09,1.55,0.03,2.39c-0.05,0.74-0.06,1.42-0.07,2.08c0,0.54,0,1.08,0,1.63c0,0.67,0.01,1.33-0.02,2
			c-0.02,0.54-0.13,1.09-0.12,1.63c0.01,0.22,0.02,0.54,0.03,0.82c0,0.8,0.09,1.55,0.03,2.39c-0.05,0.74-0.06,1.42-0.07,2.08v0.45
			c0,0.19-0.04,0.43-0.04,0.62c-0.04,0.28,0.02,0.57,0.16,0.82c0.19,0.34,0.59,0.51,0.97,0.41c0.17-0.08,0.31-0.2,0.41-0.36
			c0.04-0.06,0.07-0.12,0.1-0.18c0.07-0.22,0.09-0.45,0.04-0.68c-0.01-0.09-0.01-0.18,0-0.27c0.02-0.26,0.04-0.51,0.07-0.78
			s0.03-0.58,0.03-0.94c0-0.67-0.11-2.03-0.08-2.7c0.02-0.46,0.09-0.93,0.11-1.39l0.01-0.19c0.08-1.09-0.07-2.18-0.07-3.27
			c0-0.88,0.08-1.41,0.13-2.08c0.02-0.28,0.03-0.58,0.03-0.94c0-0.67-0.11-2.03-0.08-2.7c0.02-0.46,0.09-0.93,0.11-1.39l0.01-0.19
			c0.03-0.54,0.03-1.09,0-1.63L-3665.73-1168z"/>
		<path id="패스_21739" class="st0" d="M-3655.27-1187.84c-0.24-1.25-0.58-2.48-1.01-3.68c-0.29-1.01-0.67-1.98-1.16-2.91
			c-0.28-0.45-0.58-0.89-0.9-1.31c-0.22-0.32-0.46-0.61-0.7-0.9c-0.38-0.52-0.91-0.92-1.52-1.13c-1.47-0.41-3,0.45-3.41,1.93
			c-0.03,0.09-0.05,0.19-0.06,0.28c-0.03,0.16-0.05,0.32-0.05,0.48l-0.01,0.28c0,0.16,0,0.32-0.01,0.48c0,0.32,0,0.63,0,0.93
			c0.01,0.61,0.03,1.2,0.04,1.78c0.04,0.96,0.07,1.9,0.11,2.89c0.01,0.35,0.04,0.7,0.04,1.05c-0.02,0.18-0.09,0.34-0.21,0.47
			c-0.13,0.12-0.29,0.2-0.46,0.26c-0.27,0.1-0.55,0.16-0.84,0.18c-0.09,0-0.35,0.05-0.55,0.07s-0.42,0.06-0.63,0.1
			c-0.35,0.07-0.85,0.17-1.3,0.24c-1.12,0.2-2.27,0.21-3.39,0.01c-0.35-0.13-0.74-0.2-0.92-0.53c-0.11-0.32-0.16-0.66-0.13-1.01
			c-0.03-0.85-0.07-1.7-0.1-2.58c-0.04-1.18-0.1-2.36-0.1-3.54v-0.2l-0.02-0.35c-0.03-0.25-0.09-0.49-0.18-0.72
			c-0.19-0.5-0.51-0.93-0.94-1.25c-0.45-0.34-1-0.54-1.56-0.56c-0.6-0.02-1.19,0.17-1.67,0.53c-0.33,0.27-0.6,0.59-0.81,0.97
			c-0.13,0.24-0.27,0.49-0.4,0.72c-0.7,1.34-1.31,2.73-1.82,4.15c-0.5,1.23-0.84,2.51-1.01,3.82c-0.15,1.03-0.21,2.06-0.2,3.1
			c-0.01,1.33,0.17,2.66,0.52,3.94c0.26,1.14,0.75,2.21,1.46,3.15c0.4,0.45,0.84,0.85,1.32,1.21c1.14,0.81,2.42,1.4,3.77,1.73
			c0.01,0.16,0.02,0.31,0.04,0.44c0.05,0.35,0.07,0.7,0.06,1.05c-0.01,0.3-0.01,0.59-0.01,0.89c-0.01,1-0.01,1.99-0.02,3.03
			c-0.01,1.23-0.01,2.47-0.06,3.71c-0.05,1.01-0.25,2.01-0.25,3.01c0,0.42,0.03,1.01,0.04,1.53c0,1.48,0.14,2.86,0.02,4.42
			c-0.1,1.38-0.14,2.63-0.15,3.85c0,0.28-0.01,0.56-0.01,0.83c0,0.35-0.09,0.79-0.08,1.15c-0.07,0.52,0.03,1.06,0.28,1.52
			c0.34,0.64,1.07,0.96,1.77,0.77c0.31-0.14,0.58-0.37,0.76-0.66c0.07-0.11,0.13-0.22,0.19-0.34c0.13-0.41,0.16-0.84,0.09-1.26
			c-0.01-0.17-0.01-0.33,0-0.5c0.05-0.48,0.1-0.94,0.14-1.44s0.07-1.07,0.08-1.74c0.01-1.24-0.17-3.77-0.11-5
			c0.04-0.86,0.18-1.71,0.23-2.57c0.01-0.11,0.02-0.23,0.03-0.34c0.16-2.01-0.09-4.03-0.08-6.05c0.01-1.62,0.17-2.6,0.27-3.85
			c0.02-0.26,0.04-0.52,0.05-0.81s0.07-0.68,0.08-1.01c0.46,0.03,0.91,0.05,1.35,0.04c1.02-0.02,2.04-0.1,3.05-0.24
			c0.65-0.09,1.3-0.21,1.95-0.35c-0.05,0.44-0.09,0.88-0.13,1.35c-0.05,0.56-0.09,1.16-0.1,1.88c-0.03,1.34,0.11,4.08,0.04,5.42
			c-0.05,0.93-0.21,1.86-0.26,2.78c-0.01,0.12-0.02,0.25-0.03,0.37c-0.19,2.18,0.03,4.38-0.01,6.56c-0.03,1.76-0.21,2.82-0.32,4.17
			c-0.02,0.28-0.05,0.57-0.06,0.88s-0.09,0.76-0.1,1.12c-0.01,0.6,0.17,1.87,0.66,2.22c0.52,0.38,0.87,0.63,1.46,0.48
			c0.26-0.06,0.84-0.76,1.01-1c0.21-0.47,0.27-0.99,0.17-1.5c-0.04-0.38-0.06-0.76-0.05-1.14c0.01-0.32,0.02-0.64,0.03-0.96
			c0.03-1.09,0.04-2.16,0.06-3.28c0.03-1.34,0.04-2.68,0.12-4.02c0.06-1.09,0.27-2.18,0.29-3.27c0.01-0.46-0.01-1.09-0.02-1.66
			c0.02-1.6-0.1-3.11,0.04-4.8c0.12-1.49,0.17-2.85,0.21-4.17c0.01-0.3,0.01-0.6,0.02-0.9c0.01-0.39,0.1-0.86,0.1-1.24
			c0-0.07,0-0.13,0-0.19c0.6-0.19,1.18-0.46,1.71-0.8c0.48-0.32,0.92-0.68,1.33-1.08c1.2-1.17,2.1-2.61,2.64-4.2
			c0.5-1.32,0.72-2.72,0.65-4.13C-3654.98-1185.8-3655.09-1186.82-3655.27-1187.84z M-3658.05-1184.68
			c-0.04,0.43-0.05,0.9-0.11,1.43c-0.04,0.66-0.16,1.32-0.34,1.96c-0.18,0.63-0.48,1.22-0.87,1.73c-0.46,0.5-1,0.92-1.59,1.25
			c-0.08,0.05-0.16,0.09-0.24,0.13c-1.46,0.89-3.07,1.53-4.74,1.89c-1.14,0.17-2.3,0.2-3.45,0.09l-1.51-0.1
			c-0.71-0.03-1.41-0.11-2.11-0.22c-0.67-0.11-1.33-0.32-1.93-0.64c-0.56-0.35-1.05-0.79-1.46-1.31l-0.15-0.2
			c-0.98-1.26-1.56-2.77-1.68-4.36c-0.04-1.14,0.09-2.28,0.38-3.38c0.1-0.44,0.2-0.92,0.33-1.49c0.25-1.45,0.7-2.86,1.32-4.2
			c0.22-0.38,0.46-0.75,0.73-1.1c0.06,0.68,0.12,1.35,0.15,2.03c0.03,0.78,0.01,1.4-0.01,1.97c-0.02,0.29-0.03,0.57-0.05,0.85
			c-0.01,0.39-0.02,0.78-0.03,1.19c-0.01,0.37,0,0.74,0.06,1.1c0.04,0.4,0.17,0.78,0.37,1.13c0.26,0.43,0.64,0.76,1.09,0.96
			c0.56,0.25,1.15,0.41,1.75,0.5c0.31,0.05,0.63,0.09,0.94,0.11l0.46,0.03l0.35,0.01l1.18,0.02c0.89,0.05,1.78,0.05,2.66-0.02
			l0.36-0.03c0.55-0.06,1.09-0.17,1.61-0.32c0.66-0.19,1.3-0.45,1.91-0.78c0.59-0.28,1.07-0.76,1.37-1.34
			c0.24-0.61,0.33-1.26,0.27-1.91c-0.04-1.19-0.02-1.69,0-2.28c0.03-0.58,0.06-1.11,0.09-1.71c0.02-0.49,0.02-1.02,0-1.66
			c-0.01-0.23-0.03-0.51-0.05-0.81c0.17,0.32,0.35,0.64,0.51,0.95l0.13,0.27c0.88,1.54,1.58,3.17,2.08,4.86
			C-3658.03-1186.95-3657.96-1185.81-3658.05-1184.68L-3658.05-1184.68z"/>
	</g>
</g>
</svg>
